<?xml version="1.0" encoding="utf-8"?>
<!-- Generator: Adobe Illustrator 23.0.2, SVG Export Plug-In . SVG Version: 6.00 Build 0)  -->
<svg version="1.1" id="Layer_1" xmlns="http://www.w3.org/2000/svg" xmlns:xlink="http://www.w3.org/1999/xlink" x="0px" y="0px"
	 viewBox="0 0 200.08 201.48" style="enable-background:new 0 0 200.08 201.48;" xml:space="preserve">
<g>
	<path d="M187.26,75.35c-0.06,2.59,0.01,5.2-0.19,7.78c-1.34,16.91-13.2,31.98-29.32,37.3c-2.37,0.78-4.82,1.32-7.46,2.04
		c-0.24-1.6-0.45-2.96-0.66-4.31c-0.21-1.37-0.42-2.74-0.61-4.02c2.53-0.85,5.02-1.47,7.34-2.49c12.29-5.43,18.88-18.5,16.28-32.08
		c-2.38-12.46-13.87-22.27-26.85-22.63c-3.33-0.09-6.7,0.53-10.03,0.94c-2.88,0.35-5.75,0.86-8.78,1.32
		c0.15,0.99,0.28,1.82,0.4,2.65c0.56,3.69,1.11,7.37,1.69,11.05c0.16,0.99,0.15,1.91-0.73,2.55c-0.91,0.66-1.84,0.45-2.79-0.03
		c-12.61-6.39-25.24-12.76-37.85-19.15c-1.85-0.94-2.05-2.41-0.53-3.88c10.15-9.84,20.31-19.68,30.47-29.52
		c0.32-0.31,0.67-0.59,1.01-0.89c0.36-0.05,0.71-0.11,1.07-0.16c1.26,0.39,1.84,1.24,2.01,2.55c0.37,2.89,0.86,5.77,1.29,8.66
		c0.24,1.59,0.48,3.17,0.74,4.9c1.57-0.24,2.97-0.5,4.38-0.66c5.57-0.62,11.14-1.73,16.71-1.72c16.88,0.01,32.79,11.11,39.07,26.83
		c0.96,2.4,1.67,4.91,2.5,7.36C186.69,71.62,186.97,73.48,187.26,75.35z"/>
</g>
<g>
	<path d="M115.17,130.2c0,2.77,0,5.54,0,8.5c-1.91,0.88-3.76,1.74-5.61,2.59c-0.14-0.13-0.28-0.26-0.41-0.39
		c1.82-3.61,3.65-7.23,5.47-10.84C114.81,130.11,114.99,130.16,115.17,130.2z"/>
	<path d="M129.65,103.47c0.02-3.8-1.54-6.06-5.01-7.55c-14.26-6.15-28.49-12.4-42.67-18.73c-3.53-1.58-6.76-1.52-10.28,0.05
		c-12.95,5.78-25.97,11.4-38.96,17.1c-1.68,0.74-3.38,1.44-4.97,2.34c-2.41,1.38-3.71,3.37-3.67,6.36
		c0.12,8.21,0.04,16.43,0.04,24.64c0,8.31,0.08,16.62-0.05,24.93c-0.04,2.76,1.16,4.6,3.23,6.04c1.02,0.71,2.19,1.23,3.33,1.73
		c14.22,6.25,28.41,12.58,42.72,18.61c2.01,0.84,4.97,0.9,6.96,0.06c15.01-6.36,29.88-13.07,44.82-19.59
		c3.15-1.38,4.51-3.59,4.5-6.99C129.57,136.13,129.55,119.8,129.65,103.47z M76.85,128.33c0.16,12.86,0.08,25.71,0.09,38.57
		c0,1.04,0,2.08,0,3.61c-14.8-6.42-29.19-12.66-43.55-18.88c0-15.94,0-31.48,0-47.44c1.14,0.4,2.09,0.69,3.02,1.06
		c11.32,4.44,22.65,8.85,33.94,13.37c2.41,0.97,4.5,0.97,6.9-0.18c10.26-4.94,20.66-9.6,30.89-14.6c3.1-1.52,5.76-1.87,8.59,0.23
		c0.53,0.4,1.18,0.64,2.3,1.22c-1.4,0.72-2.42,1.31-3.49,1.8c-11.69,5.3-23.37,10.65-35.11,15.83
		C77.87,124.03,76.81,125.44,76.85,128.33z M95.48,161.29c-2.24,1.02-4.4,2.01-7.09,3.24c0.23-7.44,0.45-14.43,0.69-21.98
		c-2.36,2.51-4.39,4.67-6.85,7.3c0-3.02,0-5.36,0-8c3.84-3.41,6.76-7.44,8.44-12.61c1.78-0.79,3.67-1.64,5.96-2.66
		C96.23,138.41,95.86,149.78,95.48,161.29z M123.99,142c-0.93,0.57-1.81,1.1-2.86,1.74c-0.09,1.9-0.19,3.9-0.3,6.06
		c-1.92,0.87-3.81,1.73-6.01,2.73c0-2.1,0-3.88,0-6.07c-4.24,1.88-8.15,3.61-12.29,5.45c-0.18-4.02-0.29-7.58,1.61-11.13
		c4.04-7.55,7.75-15.29,11.58-22.93c1.99-0.89,3.9-1.74,5.96-2.66c0,6.87,0,13.47,0,20.25c0.68-0.11,1.39-0.23,2.3-0.38
		C123.99,137.38,123.99,139.63,123.99,142z"/>
</g>
</svg>
