<?xml version="1.0" encoding="utf-8"?>
<!-- Generator: Adobe Illustrator 24.3.0, SVG Export Plug-In . SVG Version: 6.00 Build 0)  -->
<svg version="1.1" id="Layer_1" xmlns="http://www.w3.org/2000/svg" xmlns:xlink="http://www.w3.org/1999/xlink" x="0px" y="0px"
	 viewBox="0 0 300 300" style="enable-background:new 0 0 300 300;" xml:space="preserve">
<style type="text/css">
	.st0{fill:#010101;}
</style>
<g>
	<g id="layer1" transform="translate(301.27158,-75.603694)">
		<path id="path72" class="st0" d="M-250.7,197.3v53.8l12.2,3.9v-45.2c0-2.1,0.9-3.5,2.5-3c2,0.5,2.4,2.5,2.4,4.6v18
			c7.6,3.7,13.6,0,13.6-9.7c0-9.9-3.5-14.3-13.8-17.9C-238,200.5-245.6,198.2-250.7,197.3"/>
		<path id="path76" class="st0" d="M-236.3,247.1l19.6-7c2.2-0.8,2.6-1.9,0.8-2.5c-1.8-0.6-5.1-0.4-7.3,0.4l-13.1,4.6v-7.3l0.8-0.3
			c0,0,3.8-1.3,9.1-1.9c5.3-0.6,11.8,0.1,16.9,2c5.7,1.8,6.4,4.5,4.9,6.3c-1.5,1.8-5,3.2-5,3.2l-26.6,9.6V247.1z"/>
		<path id="path80" class="st0" d="M-273.1,246.4c-5.9-1.7-6.9-5.1-4.2-7.1c2.5-1.8,6.7-3.2,6.7-3.2l17.5-6.2v7.1l-12.6,4.5
			c-2.2,0.8-2.6,1.9-0.8,2.5c1.8,0.6,5.1,0.4,7.3-0.4l6-2.2v6.3c-0.4,0.1-0.8,0.1-1.2,0.2C-260.3,248.9-266.8,248.5-273.1,246.4"/>
		<g>
			<path d="M-141.9,207.9h-42.6v5l40.3,0c2.6,0.1,5.3,1.5,5.3,5.2c0,3.7-2.7,5.1-5.2,5.2l-32.5,0c-0.3,0-2,0-3.7,0.9
				c-2.5,1.3-3.9,3.6-3.9,6.7V243h6.8v-12.1c0-1.8,1.1-2.9,3-3l30.3,0c3.9-0.1,9.8-2.7,9.8-9.8
				C-134.4,210.6-138.3,207.9-141.9,207.9L-141.9,207.9z"/>
			<path d="M-26.1,225.4l0.3-0.3c1.9-1.8,2.8-4.1,2.8-7c0-7.4-3.9-10.1-7.6-10.2h-42.8v5l40.5,0c2.6,0.1,5.3,1.5,5.3,5.2
				c0,3.7-2.7,5.1-5.2,5.2l-40.5,0v0.1v2.5v1.1h40.5c2.1,0,4.6,1.2,4.6,7c0,3.7-2.7,5.1-5.2,5.2h0h0h-39.8v4.6h40.6
				c3.9-0.1,9.8-2.7,9.8-9.8c0-3.6-1-6.5-2.8-8.2L-26.1,225.4L-26.1,225.4z"/>
			<path d="M-110.1,210.3c-1.6,1.8-1.6,4.1-1.6,4.8l0,0v0v21.4c0,1.6-0.6,2.1-0.8,2.3c-1,1-2.8,1.1-3.3,1.1c-0.1,0-0.2,0-0.3,0
				l-19.3,0v3.7h22.4h0l0,0c0.1,0,0.2,0,0.5,0c1.1,0,3.9-0.2,5.8-2c0.9-0.9,2-2.4,2-5.1V215l0-0.2l0,0c0-0.3,0-1.3,0.7-2
				c0.7-0.8,2-1,3-1h21.2v-3.7h-24.5C-106.9,208.1-108.8,208.8-110.1,210.3L-110.1,210.3z"/>
		</g>
	</g>
</g>
</svg>
