<?xml version="1.0" encoding="utf-8"?>
<!-- Generator: Adobe Illustrator 24.3.0, SVG Export Plug-In . SVG Version: 6.00 Build 0)  -->
<svg version="1.1" id="Layer_1" xmlns="http://www.w3.org/2000/svg" xmlns:xlink="http://www.w3.org/1999/xlink" x="0px" y="0px"
	 viewBox="0 0 300 300" style="enable-background:new 0 0 300 300;" xml:space="preserve">
<style type="text/css">
	.st0{fill:#010101;}
</style>
<g>
	<g id="layer1" transform="translate(301.27158,-75.603694)">
		<path id="path72" class="st0" d="M-251.7,197.3v53.8l12.2,3.9v-45.2c0-2.1,0.9-3.5,2.5-3c2,0.5,2.4,2.5,2.4,4.6v18
			c7.6,3.7,13.6,0,13.6-9.7c0-9.9-3.5-14.3-13.8-17.9C-239,200.5-246.6,198.2-251.7,197.3"/>
		<path id="path76" class="st0" d="M-237.3,247.1l19.6-7c2.2-0.8,2.6-1.9,0.8-2.5c-1.8-0.6-5.1-0.4-7.3,0.4l-13.1,4.6v-7.3l0.8-0.3
			c0,0,3.8-1.3,9.1-1.9c5.3-0.6,11.8,0.1,16.9,2c5.7,1.8,6.4,4.5,4.9,6.3c-1.5,1.8-5,3.2-5,3.2l-26.6,9.6V247.1z"/>
		<path id="path80" class="st0" d="M-274.1,246.4c-5.9-1.7-6.9-5.1-4.2-7.1c2.5-1.8,6.7-3.2,6.7-3.2l17.5-6.2v7.1l-12.6,4.5
			c-2.2,0.8-2.6,1.9-0.8,2.5c1.8,0.6,5.1,0.4,7.3-0.4l6-2.2v6.3c-0.4,0.1-0.8,0.1-1.2,0.2C-261.3,248.9-267.8,248.5-274.1,246.4"/>
		<g>
			<g>
				<path d="M-23.9,238.1l-7.5,0h0.3c-0.1,0-0.3-0.1-0.3-0.3v-24.2c0-3.7-2.6-4.9-6.2-2.7l-43.4,26.6c-1.7,1-2.3,2.2-1.9,3.1
					c0.4,0.8,1.3,1.3,3.2,1.3l40.3,0c0.1,0,0.2,0.1,0.2,0.2v3.4c0,0.1,0.1,0.3,0.2,0.3h7.2c0.1,0,0.3-0.1,0.3-0.3v-3.3
					c0-0.1,0.1-0.3,0.3-0.3h7.2c0.1,0,0.3-0.1,0.3-0.3v-3.3C-23.6,238.2-23.7,238.1-23.9,238.1z M-39.1,237.8c0,0.1-0.1,0.3-0.3,0.3
					h-33.8c-0.3,0-0.4-0.1-0.5-0.2c0-0.2,0-0.3,0.2-0.4l33.6-20.7c0.2-0.1,0.6-0.1,0.6,0.3V237.8z"/>
				<path d="M-149.2,229.1h-30.3c-2.8,0-4.8,2.4-4.8,5.8v10.6c0,0.1-0.1,0.3-0.3,0.3h-7.2c-0.1,0-0.3-0.1-0.3-0.3l0-10.6
					c0-5.5,3.7-9.6,8.6-9.6h31.6c3.4,0,5-2.4,5-5.8c0-3.4-1.6-5.8-5-5.8h-40c-0.1,0-0.3-0.1-0.3-0.3V210c0-0.1,0.1-0.2,0.3-0.2h42.6
					c6.8,0,10.2,4.2,10.2,9.7C-139,224.9-142.4,229.1-149.2,229.1z"/>
				<path d="M-79.7,213.6h-21c-3.4,0-5,2.4-5,5.8v16.7c0,5.5-3.3,9.7-10.2,9.7h-24.7c-0.1,0-0.3-0.1-0.3-0.3v-3.3
					c0-0.1,0.1-0.3,0.2-0.3h22.1c3.4,0,5-2.4,5-5.8v-16.6c0-5.5,3.3-9.7,10.2-9.7l23.5,0c0.1,0,0.2,0.1,0.2,0.3v3.3
					C-79.5,213.5-79.6,213.6-79.7,213.6z"/>
			</g>
			<g>
				<polygon points="-12.9,245.7 -12.9,242.5 -14,245.7 -14.5,245.7 -15.6,242.5 -15.6,245.7 -16.1,245.7 -16.1,241.7 -15.4,241.7 
					-14.2,245.1 -13.1,241.7 -12.3,241.7 -12.3,245.7 				"/>
				<polygon points="-18,242.2 -18,245.7 -18.5,245.7 -18.5,242.2 -19.8,242.2 -19.8,241.7 -16.6,241.7 -16.6,242.2 				"/>
			</g>
		</g>
	</g>
</g>
<g>
	<g>
		<path d="M93.9,178.1c0,0-0.1-0.1-0.1-0.1c0-0.1,0-0.1,0-0.2l0-0.4c0-0.2,0-0.3-0.1-0.4c0-0.1-0.1-0.1-0.2-0.2
			c0.1-0.1,0.2-0.1,0.2-0.2c0.1-0.1,0.1-0.3,0.1-0.5c0-0.4-0.2-0.6-0.5-0.8c-0.2-0.1-0.4-0.1-0.6-0.1h-1.4h-0.1v0.1v3.1v0.1h0.1h0.4
			h0.1v-0.1V177h0.9c0.2,0,0.3,0,0.3,0c0.1,0.1,0.2,0.2,0.2,0.3l0,0.5c0,0.1,0,0.2,0,0.3c0,0,0,0.1,0,0.1l0,0h0h0.5H94v-0.1
			L93.9,178.1L93.9,178.1L93.9,178.1z M93.2,176.4c-0.1,0.1-0.2,0.1-0.4,0.1h-0.9v-0.9h0.9c0.1,0,0.2,0,0.3,0.1
			c0.1,0.1,0.2,0.2,0.2,0.4C93.3,176.2,93.3,176.3,93.2,176.4z"/>
		<path d="M94.6,174.7c-0.5-0.6-1.3-0.9-2-0.9c-1.6,0-2.9,1.3-2.9,2.9c0,0.8,0.3,1.5,0.8,2c0.5,0.5,1.3,0.8,2,0.8
			c0.8,0,1.5-0.3,2-0.8c0.5-0.5,0.8-1.3,0.8-2C95.4,176,95.1,175.2,94.6,174.7z M92.5,179.1c-0.6,0-1.3-0.2-1.7-0.7
			c-0.5-0.4-0.7-1.1-0.7-1.7c0-0.6,0.2-1.2,0.7-1.7c0.4-0.5,1.1-0.7,1.7-0.7c0.6,0,1.2,0.2,1.7,0.7c0.5,0.5,0.7,1.1,0.7,1.7
			C94.9,178.1,93.8,179.1,92.5,179.1z"/>
		<g>
			<path d="M33.9,168.5c1.8,0.6,5.1,0.4,7.4-0.4l6.1-2.2v6.4c-0.4,0.1-0.8,0.1-1.2,0.2c-6.1,1-12.6,0.6-19-1.5c-6-1.7-7-5.2-4.2-7.2
				c2.5-1.9,6.8-3.3,6.8-3.3l17.7-6.3v7.2L34.6,166C32.4,166.8,32,167.9,33.9,168.5z"/>
			<path d="M96.4,166c-1.5,1.9-5.1,3.2-5.1,3.2l-26.9,9.7v-7.1l19.8-7.1c2.3-0.8,2.6-1.9,0.8-2.5c-1.8-0.6-5.1-0.4-7.4,0.4
				l-13.2,4.7v-7.4l0.8-0.3c0,0,3.8-1.4,9.2-2c5.4-0.6,11.9,0.1,17.1,2C97.3,161.4,97.9,164.2,96.4,166z"/>
			<path d="M67,153.9v-18.2c0-2.1-0.4-4.1-2.4-4.7c-1.5-0.5-2.5,0.9-2.5,3.1v45.7l-12.3-3.9v-54.5c5.2,1,12.9,3.3,17,4.6
				c10.4,3.6,14,8,14,18.1C80.7,153.9,74.7,157.6,67,153.9z"/>
		</g>
	</g>
</g>
</svg>
