<?xml version="1.0" encoding="utf-8"?>
<!-- Generator: Adobe Illustrator 24.3.0, SVG Export Plug-In . SVG Version: 6.00 Build 0)  -->
<svg version="1.1" id="Layer_1" xmlns="http://www.w3.org/2000/svg" xmlns:xlink="http://www.w3.org/1999/xlink" x="0px" y="0px"
	 viewBox="0 0 300 300" style="enable-background:new 0 0 300 300;" xml:space="preserve">
<path d="M43.1,126.8v43.3l9.8,3.1v-36.3c0-1.7,0.8-2.8,2-2.4c1.6,0.4,1.9,2,1.9,3.7v14.5c6.1,3,10.9,0,10.9-7.8
	c0-8-2.8-11.5-11.1-14.4C53.3,129.4,47.3,127.5,43.1,126.8"/>
<path d="M54.8,166.9l15.8-5.6c1.8-0.6,2.1-1.6,0.6-2c-1.5-0.5-4.1-0.3-5.9,0.3l-10.5,3.7v-5.9l0.6-0.2c0,0,3-1.1,7.3-1.6
	c4.3-0.5,9.5,0.1,13.6,1.6c4.6,1.5,5.1,3.6,4,5.1c-1.2,1.5-4.1,2.5-4.1,2.5l-21.4,7.7V166.9z"/>
<path d="M25.1,166.3c-4.7-1.3-5.5-4.1-3.4-5.7c2-1.5,5.4-2.6,5.4-2.6l14.1-5v5.7l-10.1,3.6c-1.8,0.6-2.1,1.6-0.6,2
	c1.5,0.5,4.1,0.3,5.9-0.3l4.9-1.8v5.1c-0.3,0.1-0.7,0.1-1,0.2C35.4,168.3,30.2,168,25.1,166.3"/>
<path d="M75.2,170.8c0-0.5,0.2-1,0.6-1.3c0.4-0.4,0.8-0.6,1.4-0.6c0.5,0,1,0.2,1.3,0.6c0.4,0.4,0.6,0.8,0.6,1.3
	c0,1.1-0.9,1.9-1.9,1.9c-0.5,0-1-0.2-1.4-0.6C75.4,171.8,75.2,171.4,75.2,170.8 M77.1,173.1c0.6,0,1.2-0.2,1.6-0.7
	c0.4-0.4,0.7-1,0.7-1.6c0-0.6-0.2-1.2-0.7-1.6c-0.4-0.4-1-0.7-1.6-0.7c-1.3,0-2.3,1-2.3,2.3c0,0.6,0.2,1.2,0.7,1.6
	C75.9,172.9,76.5,173.1,77.1,173.1"/>
<path d="M77.7,170.3c0,0.1,0,0.2-0.1,0.3c-0.1,0.1-0.2,0.1-0.3,0.1h-0.7v-0.7h0.8c0.1,0,0.2,0,0.2,0C77.7,170,77.7,170.1,77.7,170.3
	 M78.3,171.9c0,0-0.1,0-0.1-0.1c0,0,0-0.1,0-0.2l0-0.3c0-0.2,0-0.3-0.1-0.3c0-0.1-0.1-0.1-0.1-0.1c0.1-0.1,0.1-0.1,0.2-0.2
	c0.1-0.1,0.1-0.2,0.1-0.4c0-0.3-0.1-0.5-0.4-0.6c-0.1-0.1-0.3-0.1-0.5-0.1h-1.1h-0.1v0.1v2.4v0.1h0.1h0.3h0.1V172v-1h0.7
	c0.1,0,0.2,0,0.3,0c0.1,0,0.1,0.1,0.1,0.3l0,0.4c0,0.1,0,0.2,0,0.2c0,0,0,0.1,0,0.1l0,0h0h0.4h0.1V172L78.3,171.9L78.3,171.9
	L78.3,171.9"/>
<path d="M275.2,164.1c0-0.5,0.2-1,0.6-1.3c0.4-0.4,0.8-0.6,1.4-0.6c0.5,0,1,0.2,1.4,0.6c0.4,0.4,0.6,0.8,0.6,1.3
	c0,1.1-0.9,1.9-1.9,1.9c-0.5,0-1-0.2-1.4-0.6C275.4,165.1,275.2,164.6,275.2,164.1 M277.1,166.4c0.6,0,1.2-0.2,1.6-0.7
	c0.4-0.4,0.7-1,0.7-1.6c0-0.6-0.2-1.2-0.7-1.6c-0.4-0.4-1-0.7-1.6-0.7c-1.3,0-2.3,1-2.3,2.3c0,0.6,0.2,1.2,0.7,1.6
	C275.9,166.2,276.5,166.4,277.1,166.4"/>
<path d="M277.7,163.5c0,0.1,0,0.2-0.1,0.3c-0.1,0.1-0.2,0.1-0.3,0.1h-0.7v-0.7h0.8c0.1,0,0.2,0,0.2,0
	C277.7,163.3,277.7,163.4,277.7,163.5 M278.3,165.2c0,0-0.1,0-0.1-0.1c0,0,0-0.1,0-0.2l0-0.3c0-0.2,0-0.3-0.1-0.3
	c0-0.1-0.1-0.1-0.1-0.1c0.1-0.1,0.1-0.1,0.2-0.2c0.1-0.1,0.1-0.2,0.1-0.4c0-0.3-0.1-0.5-0.4-0.6c-0.1-0.1-0.3-0.1-0.5-0.1h-1.1h-0.1
	v0v2.4v0.1h0.1h0.3h0.1v-0.1v-1h0.7c0.1,0,0.2,0,0.3,0c0.1,0,0.1,0.1,0.1,0.3l0,0.4c0,0.1,0,0.2,0,0.2c0,0,0,0.1,0,0.1l0,0h0h0.4
	h0.1v-0.1L278.3,165.2L278.3,165.2L278.3,165.2"/>
<path d="M100.8,157.6v8.6c0,0.1,0.1,0.2,0.2,0.2h5.6c0.1,0,0.2-0.1,0.2-0.2v-8.6c0-2.5,1.3-4.2,3.1-4.2h14.5c4.6,0,7.5-3,7.5-7.8
	c0-4.8-2.9-7.8-7.5-7.8H101c-0.1,0-0.2,0.1-0.2,0.2v3.1c0,0.1,0.1,0.2,0.2,0.2h21.6c2.1,0,3.3,1.6,3.3,4.3c0,2.7-1.2,4.3-3.3,4.3
	h-15.5C103.5,149.9,100.8,153.2,100.8,157.6"/>
<path d="M151.9,141.3h11c0.1,0,0.2-0.1,0.2-0.2V138c0-0.1-0.1-0.2-0.2-0.2l-12.8,0c-4.6,0-7.5,3-7.5,7.8v13c0,2.7-1.2,4.3-3.3,4.3
	h-11.4c-0.1,0-0.2,0.1-0.2,0.2v3.1c0,0.1,0.1,0.2,0.2,0.2h13.2c4.6,0,7.5-3,7.5-7.8v-13C148.6,142.9,149.8,141.3,151.9,141.3"/>
<path d="M205.1,166.2c0,0.1,0.1,0.2,0.2,0.2h5.6c0.1,0,0.2-0.1,0.2-0.2V138c0-0.1-0.1-0.2-0.2-0.2h-5.6c-0.1,0-0.2,0.1-0.2,0.2
	V166.2z"/>
<path d="M187.6,163.3l13.5-25.2c0.1-0.1,0-0.2-0.1-0.2h-3.5c-0.1,0-0.3,0.1-0.3,0.2l-10.8,20.2c-0.8,1.5-2.1,1.7-2.9,0.2L172.5,138
	c-0.1-0.1-0.2-0.2-0.3-0.2H166c-0.2,0-0.2,0.1-0.1,0.3l13.5,25.2c0.8,1.4,1.7,2.4,2.7,2.8c1.6,0.7,3.3,0.2,4.7-1.6
	C187.1,164.1,187.4,163.7,187.6,163.3"/>
<path d="M243.1,137.8h-27.9c-0.1,0-0.2,0.1-0.2,0.2v3.1c0,0.1,0.1,0.2,0.2,0.2h10.6c0.2,0,0.4,0.2,0.4,0.4v24.5
	c0,0.1,0.1,0.2,0.2,0.2h5.6c0.1,0,0.2-0.1,0.2-0.2v-24.5c0-0.2,0.2-0.4,0.4-0.4h10.6c0.1,0,0.2-0.1,0.2-0.2V138
	C243.3,137.9,243.2,137.8,243.1,137.8"/>
<path d="M273.2,166.2l-13.5-25.2c-0.8-1.4-1.7-2.4-2.7-2.8c-1.6-0.7-3.3-0.2-4.7,1.6c-0.3,0.4-0.5,0.8-0.8,1.2l-13.5,25.2
	c-0.1,0.1,0,0.2,0.1,0.2h3.5c0.1,0,0.3-0.1,0.3-0.2l2.9-5.4l0,0c0.1-0.2,0.4-0.3,0.6-0.3h17.8c0.2,0,0.4,0.1,0.5,0.3l0,0l2.9,5.4
	c0.1,0.1,0.2,0.2,0.3,0.2h6.2C273.2,166.4,273.3,166.3,273.2,166.2 M261.2,157h-13.9c-0.2,0-0.3-0.2-0.2-0.4l0,0l5.7-10.6
	c0.8-1.5,2.1-1.7,2.9-0.2l5.8,10.8C261.5,156.8,261.4,157,261.2,157"/>
</svg>
