<?xml version="1.0" encoding="utf-8"?>
<!-- Generator: Adobe Illustrator 24.3.0, SVG Export Plug-In . SVG Version: 6.00 Build 0)  -->
<svg version="1.1" id="Layer_1" xmlns="http://www.w3.org/2000/svg" xmlns:xlink="http://www.w3.org/1999/xlink" x="0px" y="0px"
	 viewBox="0 0 300 300" style="enable-background:new 0 0 300 300;" xml:space="preserve">
<style type="text/css">
	.st0{fill-rule:evenodd;clip-rule:evenodd;fill:#010101;}
	.st1{fill:#010101;}
</style>
<g>
	<g id="layer1" transform="translate(301.27158,-75.603694)">
		<path id="rect840" class="st0" d="M-103.3,208.6c-5.2,0-9.5,4.2-9.5,9.5v16.1c0,3-2.4,5.3-5.3,5.3h-18.2v4h21.6
			c5.2,0,9.5-4.2,9.5-9.5V218c0-3,2.4-5.3,5.3-5.3l18.5,0v-4H-103.3z"/>
		<path id="path916" class="st0" d="M-184.9,208.6v4h38c3,0,5.5,2.5,5.5,5.5c0,3-2.5,5.5-5.5,5.5h-28.6c-5.2,0-9.5,4.2-9.5,9.5v10.5
			h7.6V233c0-3,2.4-5.3,5.3-5.3h28.7c5.2,0,9.5-4.2,9.5-9.5c0-5.2-4.2-9.5-9.5-9.5H-184.9z"/>
		<path id="path929" class="st0" d="M-74.1,208.6v13c0,3.3,2.7,5.9,5.9,5.9h31.6c3.3,0,6,2.7,6,6c0,3.3-2.7,6-6,6h-37.6v4H-33
			c5.5,0,10-4.5,10-10c0-5.5-4.5-10-10-10h-31.2c-1.3,0-2.4-1.1-2.4-2.4v-8.6h42.2v-4H-74.1z"/>
		<path id="path72" class="st1" d="M-250.7,197.3v53.8l12.2,3.9v-45.2c0-2.1,0.9-3.5,2.5-3c2,0.5,2.4,2.5,2.4,4.6v18
			c7.6,3.7,13.6,0,13.6-9.7c0-9.9-3.5-14.3-13.8-17.9C-238,200.5-245.6,198.2-250.7,197.3"/>
		<path id="path76" class="st1" d="M-236.3,247.1l19.6-7c2.2-0.8,2.6-1.9,0.8-2.5c-1.8-0.6-5.1-0.4-7.3,0.4l-13.1,4.6v-7.3l0.8-0.3
			c0,0,3.8-1.3,9.1-1.9c5.3-0.6,11.8,0.1,16.9,2c5.7,1.8,6.4,4.5,4.9,6.3c-1.5,1.8-5,3.2-5,3.2l-26.6,9.6V247.1z"/>
		<path id="path80" class="st1" d="M-273.1,246.4c-5.9-1.7-6.9-5.1-4.2-7.1c2.5-1.8,6.7-3.2,6.7-3.2l17.5-6.2v7.1l-12.6,4.5
			c-2.2,0.8-2.6,1.9-0.8,2.5c1.8,0.6,5.1,0.4,7.3-0.4l6-2.2v6.3c-0.4,0.1-0.8,0.1-1.2,0.2C-260.3,248.9-266.8,248.5-273.1,246.4"/>
	</g>
</g>
</svg>
