<?xml version="1.0" standalone="no"?>
<!DOCTYPE svg PUBLIC "-//W3C//DTD SVG 20010904//EN"
 "http://www.w3.org/TR/2001/REC-SVG-20010904/DTD/svg10.dtd">
<svg version="1.0" xmlns="http://www.w3.org/2000/svg"
 width="260.000000pt" height="260.000000pt" viewBox="0 0 260.000000 260.000000"
 preserveAspectRatio="xMidYMid meet">
<metadata>
Created by potrace 1.11, written by Peter Selinger 2001-2013
</metadata>
<g transform="translate(0.000000,260.000000) scale(0.100000,-0.100000)"
fill="#000000" stroke="none">
<path d="M1225 2532 c-16 -11 -132 -124 -257 -253 -186 -190 -228 -228 -228
-208 -1 53 -22 64 -138 69 -145 7 -227 -1 -249 -23 -21 -21 -21 -21 -22 -281
l-1 -209 -119 -121 c-65 -67 -124 -131 -130 -143 -16 -32 -13 -74 9 -110 27
-45 50 -54 141 -57 57 -1 83 -6 90 -17 5 -8 7 -232 5 -556 l-5 -542 26 -25 26
-26 378 0 c354 0 379 1 380 18 1 22 1 933 0 949 -1 8 -17 12 -51 10 -27 -1
-50 0 -51 3 -1 10 -1 166 0 188 1 20 6 22 51 22 28 0 50 3 50 8 1 4 3 71 5
150 5 201 28 257 122 303 41 21 62 24 148 23 60 0 116 -6 140 -15 l40 -14 3
-91 3 -90 -75 0 c-66 1 -79 -2 -98 -22 -21 -20 -23 -34 -26 -137 l-4 -115 96
0 96 0 0 -105 c0 -93 -2 -105 -17 -106 -10 0 -52 -1 -93 -2 l-75 -2 -3 -487
-2 -488 394 0 c272 0 403 4 420 11 13 7 29 23 35 38 8 18 9 195 6 556 -2 295
0 537 5 545 6 10 32 14 88 16 44 1 89 7 101 14 50 26 75 108 48 157 -11 19
-153 166 -889 916 -247 252 -255 259 -298 264 -33 3 -53 -1 -75 -15z"/>
</g>
</svg>
