<?xml version="1.0" encoding="utf-8"?>
<!-- Generator: Adobe Illustrator 24.0.3, SVG Export Plug-In . SVG Version: 6.00 Build 0)  -->
<svg version="1.1" id="Layer_1" xmlns="http://www.w3.org/2000/svg" xmlns:xlink="http://www.w3.org/1999/xlink" x="0px" y="0px"
	 viewBox="0 0 182.2 164.1" style="enable-background:new 0 0 182.2 164.1;" xml:space="preserve">
<style type="text/css">
	.st0{fill:#EC008C;}
	.st1{fill:#020203;}
	.st2{fill:#FFFFFF;}
</style>
<polygon class="st0" points="165.9,71.3 143.5,87.5 107.7,80 92,72.6 66.4,74.8 66.4,11.2 164.6,11.2 "/>
<g>
	<path class="st1" d="M82.2,115.2l-0.1-5.4c0.5,0,54.6-0.6,65.1-2.6c4.2-1.7,24.2-29.5,25.7-34.5c-0.2-0.9-1.2-1.5-2.2-1.6
		c-4.4-0.3-13.8,9.6-19,16.4l-0.5,0.6l-0.7,0.3c-1.5,0.6-8.1,1.5-11.9,2L138,85c3.8-0.5,8.3-1.2,10-1.6c3.4-4.4,14.9-18.3,23.2-17.8
		c4,0.3,7,3.2,7.2,6.9c0.3,4.7-23.9,38.8-30.1,39.9C137.2,114.5,84.4,115.1,82.2,115.2z"/>
	<path class="st1" d="M67.4,141.3c-0.1,0-0.2,0-0.3,0c-0.7-0.1-1.4-0.4-1.8-1l-38-46.2c-0.9-1.2-0.8-2.9,0.4-3.8l20.8-17.1
		c0.6-0.5,1.3-0.7,2-0.6s1.4,0.4,1.8,1l38,46.2c0.9,1.2,0.8,2.9-0.4,3.8l-20.8,17.1C68.6,141,68,141.3,67.4,141.3z M33.2,92.7
		l34.5,42l16.6-13.6l-34.5-42L33.2,92.7z"/>
	<path class="st1" d="M43,159c-0.1,0-0.2,0-0.3,0c-0.7-0.1-1.4-0.4-1.8-1L5.8,115.3c-0.5-0.6-0.7-1.3-0.6-2s0.4-1.4,1-1.8L29,92.7
		l3.4,4.2L11.6,114l31.7,38.5l20.8-17.1l3.4,4.2l-22.9,18.8C44.2,158.8,43.6,159,43,159z"/>
	<rect x="67.2" y="120.8" transform="matrix(0.7725 -0.635 0.635 0.7725 -62.2416 73.2613)" class="st1" width="7.9" height="5.4"/>
	<path class="st1" d="M67.2,78.2h-5.4V9c0-1.5,1.2-2.7,2.7-2.7h101.2c1.5,0,2.7,1.2,2.7,2.7v62.6H163V11.7H67.2V78.2z"/>
	<path class="st1" d="M129.5,100h-25.7c-1.5,0-2.7-1.2-2.7-2.7s1.2-2.7,2.7-2.7h25.7c2.5,0,4.6-2.1,4.6-4.6s-2.1-4.6-4.6-4.6h-21.8
		c-1.5,0-2.7-1.2-2.7-2.7s1.2-2.7,2.7-2.7h21.8c5.5,0,10,4.5,10,10C139.6,95.5,135.1,100,129.5,100z"/>
	<path class="st1" d="M57.4,86.3c-0.6,0-1.2-0.2-1.7-0.6c-1.2-0.9-1.4-2.6-0.4-3.8C56.8,80,64.6,70.7,71,70
		c7.8-0.8,14.2-0.9,19.1-0.3c6.8,0.8,16.9,8.8,18,9.8c1.2,0.9,1.4,2.6,0.4,3.8c-0.9,1.2-2.6,1.4-3.8,0.4c-2.8-2.2-10.9-8.1-15.3-8.6
		c-4.5-0.5-10.6-0.5-18,0.3c-3.1,0.3-8.9,6-12,9.9C59,85.9,58.2,86.3,57.4,86.3z"/>
	<rect x="131.3" y="54.9" class="st2" width="14.1" height="5.4"/>
	<rect x="131.3" y="65.9" class="st2" width="18.7" height="5.4"/>
	<g>
		<path class="st2" d="M93,31.9l-6.5-6.5L80,31.9L76.2,28l8.4-8.4c1.1-1.1,2.8-1.1,3.8,0l8.4,8.4L93,31.9z"/>
	</g>
	<g>
		<rect x="83.8" y="23.2" class="st2" width="5.4" height="19"/>
	</g>
	<g>
		<path class="st2" d="M116.5,31.9l-6.5-6.5l-6.5,6.5L99.7,28l8.4-8.4c1.1-1.1,2.8-1.1,3.8,0l8.4,8.4L116.5,31.9z"/>
	</g>
	<g>
		<rect x="107.3" y="23.2" class="st2" width="5.4" height="19"/>
	</g>
	<g>
		<path class="st2" d="M119.4,52.9H75.9c-1.5,0-2.7-1.2-2.7-2.7s1.2-2.7,2.7-2.7h43.5c1.5,0,2.7,1.2,2.7,2.7S120.9,52.9,119.4,52.9z
			"/>
	</g>
</g>
</svg>
