<?xml version="1.0" encoding="utf-8"?>
<!-- Generator: Adobe Illustrator 24.0.3, SVG Export Plug-In . SVG Version: 6.00 Build 0)  -->
<svg version="1.1" id="Layer_1" xmlns="http://www.w3.org/2000/svg" xmlns:xlink="http://www.w3.org/1999/xlink" x="0px" y="0px"
	 viewBox="0 0 182.2 164.1" style="enable-background:new 0 0 182.2 164.1;" xml:space="preserve">
<style type="text/css">
	.st0{fill:#1D1D1B;}
	.st1{fill:#FFFFFF;}
	.st2{fill:#EC008C;}
	.st3{fill:url(#SVGID_1_);}
	.st4{fill:none;stroke:#FFFFFF;stroke-width:0.75;stroke-miterlimit:10;}
</style>
<path class="st0" d="M130.1,80c0-0.1,0.1-0.2,0.1-0.2c1.6-2.9,1.2-6.7-1.3-9.2c-0.5-0.5-1-0.8-1.5-1.2c2.5-3,2.3-7.5-0.5-10.3
	c-1.5-1.5-3.4-2.3-5.5-2.2H116c1.8-2.8,4.1-7.6,4.1-13.9c-0.1-8.3-5.6-23.7-5.8-24.2c-0.1-0.2-0.2-0.4-0.4-0.5
	c-0.6-0.6-1.5-0.8-2.2-0.4c-1,0.5-1.4,1.6-0.9,2.6c0.1,0.1,5.4,15,5.4,22.5c0.1,8.4-5,13.8-5.1,13.8c-0.4,0.4-0.6,0.9-0.6,1.4V80v4
	v3.5v2.2V98v6.2c0,3-2.8,5.7-6.1,5.7c-1.5,0-2.8-0.6-3.7-1.6c-1-1.1-1.5-2.5-1.5-4.1v-2v-4.3v-10l0-3.8v-2c0,0,0,0,0,0v-2v-3.7
	c0-0.5-0.1-4.5-2.6-7c0,0,0,0,0,0c-1.2-1.2-2.8-1.8-4.6-1.8c-4.9,0.1-8.3,1.1-9,1.4c-0.5,0.1-2,0.6-3.3,1.7c-1.5,1.3-8,6.4-8.1,6.5
	c-0.1,0-0.1,0.1-0.2,0.1c-0.1,0.1-1.1,1.1-1.7,2.8H59.2c0-2.1,0-4.4,0-6.6c0-3.8,0-7.4,0-10.4c0-4,2.3-6.8,2.3-6.8
	c0,0,0.1-0.1,0.1-0.1l17.9-22.4c5-5,5.1-10.4,5.1-10.6v-3.5c0-1.1-0.9-2-2-2c-1.1,0-2,0.9-2,2v3.5c0,0.3-0.2,4.1-4,7.8
	c-4.4,4.4-17.3,21.6-18.2,22.8c-0.5,0.6-3.3,4.1-3.2,9.3c0,2.9,0,6.5,0,10.3c0,2.2,0,4.4,0,6.6H20.1v70.1h145.1V80H130.1z
	 M121.5,60.7c1,0,2,0.4,2.7,1.1c1.5,1.5,1.5,3.9,0,5.3c-0.7,0.7-1.7,1.1-2.7,1.1c0,0,0,0,0,0h-6.9l0-7.5L121.5,60.7z M123.5,72.2
	c1,0,2,0.4,2.7,1.1c1.5,1.5,1.5,3.9,0,5.3c-0.7,0.7-1.7,1.1-2.7,1.1c0,0,0,0,0,0h-8.9l0-7.5H123.5z M92,71.4c0.7,0,1.3,0.2,1.8,0.6
	c1.1,1.1,1.4,3.4,1.4,4.2v0.9c-1.6-0.8-4.8-2.5-8.1-5.3C88.4,71.7,90.1,71.5,92,71.4z M82.2,73.6c0.2-0.1,0.4-0.3,0.5-0.4
	c3.3,3.3,6.8,5.5,9.2,6.8H74.2C75.2,79.2,80.7,74.8,82.2,73.6z"/>
<rect x="23.7" y="83.2" class="st1" width="138.4" height="63.6"/>
<path class="st2" d="M110.6,93.1l0,10.6c0,4.4-1.7,8.1-5.7,8.1c-4,0-5.7-3.6-5.7-8.1l0-16.3c-2.2-0.5-4.4-0.8-6.8-0.8
	c-15.7,0-28.4,12.7-28.4,28.4s12.7,28.4,28.4,28.4c15.7,0,28.4-12.7,28.4-28.4C120.8,106.2,116.8,98.4,110.6,93.1z"/>
<g>
	
		<radialGradient id="SVGID_1_" cx="130.8657" cy="120.2825" r="65.829" gradientTransform="matrix(1.1487 0 0 1.1487 -48.8684 -15.1255)" gradientUnits="userSpaceOnUse">
		<stop  offset="0.2424" style="stop-color:#FFFFFF"/>
		<stop  offset="1" style="stop-color:#62595A"/>
	</radialGradient>
	<path class="st3" d="M92.3,118.6c0.1,0.2,0.3,0.3,0.4,0.5C92.6,118.9,92.5,118.7,92.3,118.6z"/>
</g>
<g>
	<path class="st1" d="M102.5,126.7c-1.2,0.7-2.5,1-3.9,1c-2.6,0-5.2-0.6-7.9-1.8c0.8-4.3,1.3-7.3,1.3-9c0-1,0-1.8-0.1-2.5h6.4v-2.4
		h-6.6c-0.4-3.2-0.6-5.7-0.6-7.4c0-4.6,1.1-6.9,4.1-7.1l0,0c0,0.4,0-1.4,0-1.4c-2.8,0.3-4.6,1.4-6.2,3.6c-1.6,2.2-2.4,5.1-2.4,8.7
		c0,1.2,0.1,2.4,0.4,3.5h-5.7v2.4H87c0.2,1.6,0.5,3.3,0.7,4.9c0.3,2,0.4,3.6,0.4,4.9L88,125c-1-0.2-1.8-0.3-2.3-0.3
		c-1.4,0-2.5,0.3-3.4,1c-1,0.7-1.5,1.8-1.5,3.1c0,1,0.3,1.8,1,2.4c0.7,0.6,1.5,0.9,2.5,0.9c1.1,0,2.1-0.3,3-1
		c0.6-0.4,1.3-1.2,2.3-2.3c3.1,2.2,5.6,3.3,7.5,3.3c1.8,0,3.4-0.5,4.9-1.5c1.5-1,2.6-2.3,3.4-3.9c0.5-1.1,0.7-1.8,0.7-2.2l-0.3-0.3
		C104,125.6,102.9,126.4,102.5,126.7z M86.6,129.7c-0.7,0.6-1.5,0.9-2.3,0.9c-1.4,0-2.1-0.6-2.1-1.9c0-1.3,0.8-2,2.5-2
		c0.4,0,1,0.1,1.7,0.3c0.9,0.2,1.3,0.4,1.3,0.6C87.6,128.4,87.3,129.1,86.6,129.7z"/>
</g>
<circle class="st4" cx="92.4" cy="115" r="25.9"/>
<path class="st0" d="M110.5,81l0,23.5c0,3.1-1.3,6.4-5.7,6.4l0,0c-3.8,0.1-5.6-3.3-5.6-6.4l-0.1-27.3c-2.2-3.7-3.9-5.1-3.9-2.2
	l0.6,30.5c0,5,4.1,9.1,9.1,9.1c5,0,9.1-4.1,9.1-9.1l0.5-28.9C114.5,73.7,112.6,82.7,110.5,81z"/>
</svg>
