<?xml version="1.0" encoding="utf-8"?>
<!-- Generator: Adobe Illustrator 24.0.3, SVG Export Plug-In . SVG Version: 6.00 Build 0)  -->
<svg version="1.1" id="Layer_1" xmlns="http://www.w3.org/2000/svg" xmlns:xlink="http://www.w3.org/1999/xlink" x="0px" y="0px"
	 viewBox="0 0 200 200" style="enable-background:new 0 0 200 200;" xml:space="preserve">
<style type="text/css">
	.st0{fill:#FFFFFF;}
	.st1{fill:#2D69B1;}
</style>
<g>
	<g>
		<path class="st0" d="M163.3,180.4c0-1.6-0.6-3.1-1.7-4.2L146,160.6l15.6-15.6c1.1-1.1,1.7-2.6,1.7-4.2s-0.6-3.1-1.7-4.2
			c-0.9-0.9-2-1.5-3.3-1.7c-0.3,0-0.6-0.1-0.9-0.1c-1.6,0-3.1,0.6-4.2,1.7l-15.6,15.6l-15.6-15.6c-1.1-1.1-2.6-1.7-4.2-1.7
			s-3.1,0.6-4.2,1.7c-1.1,1.1-1.7,2.6-1.7,4.2s0.6,3.1,1.7,4.2l15.6,15.6l-15.6,15.6c-1.1,1.1-1.7,2.6-1.7,4.1
			c0,1.6,0.6,3.1,1.7,4.2c1.1,1.1,2.6,1.7,4.2,1.7s3.1-0.6,4.2-1.7l15.6-15.6l15.6,15.6c0.3,0.3,0.7,0.6,1.2,0.9
			c2.3,1.4,5.3,1,7.2-0.9C162.7,183.4,163.3,181.9,163.3,180.4z"/>
		<path class="st1" d="M159.1,168.1c0.1-0.7,0.1-1.4,0.1-2.1v-13l5.1-5.1c1.9-1.9,2.9-4.3,2.9-7c0-2.6-1-5.1-2.9-7
			c-1.4-1.4-3.2-2.3-5.1-2.7V124V34V23.9c0-6.7-5.5-12.2-12.2-12.2H48.7c-6.7,0-12.2,5.5-12.2,12.2v146.7c0,6.7,5.5,12.2,12.2,12.2
			h59.6c0.4,1.7,1.3,3.3,2.6,4.6c1.9,1.9,4.3,2.9,7,2.9s5.1-1,7-2.9l4.8-4.8h13c0.9,0,1.8-0.1,2.6-0.2l5,5c0.6,0.6,1.2,1.1,2,1.5
			c1.5,0.9,3.3,1.4,5,1.4c2.6,0,5.1-1,7-2.9c1.9-1.9,2.9-4.3,2.9-7c0-2.6-1-5.1-2.9-7L159.1,168.1z M154.4,185.4
			c-0.5-0.3-0.9-0.6-1.2-0.9L137.6,169l-15.6,15.6c-1.1,1.1-2.6,1.7-4.2,1.7s-3.1-0.6-4.2-1.7c-1.1-1.1-1.7-2.6-1.7-4.2
			c0-1.6,0.6-3,1.7-4.1l15.6-15.6l-15.6-15.6c-1.1-1.1-1.7-2.6-1.7-4.2s0.6-3.1,1.7-4.2c1.1-1.1,2.6-1.7,4.2-1.7s3.1,0.6,4.2,1.7
			l15.6,15.6l15.6-15.6c1.1-1.1,2.6-1.7,4.2-1.7c0.3,0,0.7,0,0.9,0.1c1.3,0.2,2.4,0.8,3.3,1.7c1.1,1.1,1.7,2.6,1.7,4.2
			s-0.6,3.1-1.7,4.2L146,160.6l15.6,15.6c1.1,1.1,1.7,2.6,1.7,4.2s-0.6,3.1-1.7,4.2C159.7,186.4,156.7,186.8,154.4,185.4z"/>
	</g>
	<path class="st1" d="M142.7,174.6h-7.8l-4.7,4.7l-3.3,3.3c-0.1,0.1-0.2,0.1-0.2,0.2H147c1.2,0,2.3-0.2,3.3-0.5l-4.7-4.7
		L142.7,174.6z"/>
	<polygon class="st1" points="155.7,156 159.2,159.5 159.2,150.3 155.7,153.8 154.6,154.9 	"/>
	<rect x="56.9" y="42.1" class="st0" width="81.8" height="8.1"/>
	<rect x="56.9" y="66.6" class="st0" width="81.8" height="8.1"/>
	<rect x="56.9" y="90.9" class="st0" width="81.8" height="8.1"/>
	<rect x="56.9" y="115.3" class="st0" width="81.8" height="8.1"/>
	<path class="st0" d="M56.9,147.8h64.9l0,0l-0.9-4.1c-1.1-1-0.8-2.8-1.4-4.1H56.9V147.8z"/>
</g>
<g>
</g>
<g>
</g>
<g>
</g>
<g>
</g>
<g>
</g>
<g>
</g>
</svg>
