<?xml version="1.0" encoding="utf-8"?>
<!-- Generator: Adobe Illustrator 24.0.3, SVG Export Plug-In . SVG Version: 6.00 Build 0)  -->
<svg version="1.1" id="Layer_1" xmlns="http://www.w3.org/2000/svg" xmlns:xlink="http://www.w3.org/1999/xlink" x="0px" y="0px"
	 viewBox="0 0 200 200" style="enable-background:new 0 0 200 200;" xml:space="preserve">
<style type="text/css">
	.st0{fill:#2D68B1;}
</style>
<g>
	<g>
		<path class="st0" d="M168.5,35.7c-0.1-1.7-1.7-2.9-3.3-2.6c-0.9,0.2-1.8,0.3-2.7,0.5c-5.5,0.9-11.1,1.4-16.7,1.3
			c-4.7-0.1-9.4-0.5-14-1.3c-3.8-0.7-7.6-1.7-11.3-3.1c-3-1.1-5.9-2.4-8.7-3.9c-2.1-1.2-4.2-2.4-6.1-3.9c-0.7-0.5-1.4-1.1-2.1-1.6
			c-0.7-0.5-1.3-1.2-2.2-1.3c-0.9,0-1.6,0.5-2.2,1c-1.1,0.9-2.2,1.8-3.4,2.6c-2.1,1.4-4.3,2.7-6.5,3.9c-2.9,1.5-6,2.8-9.1,3.8
			c-3.8,1.3-7.7,2.2-11.7,2.8c-4.7,0.7-9.5,1-14.3,1c-5.7-0.1-11.4-0.7-17-1.8c-1.7-0.3-3.2,0.9-3.3,2.6
			c-0.9,14.8-3.2,76.5,18.5,103.7c22.8,28.6,42.6,39.9,47.6,42.4c0.8,0.4,1.7,0.4,2.5,0c5.1-2.5,24.9-13.7,47.6-42.4
			C171.6,112,169.4,50.4,168.5,35.7z M137.2,85l-40.2,44.6c-1.6,1.8-3.8,2.7-6.1,2.7c-1.7,0-3.4-0.5-4.9-1.6l-15.4-11.4
			c-3.6-2.7-4.4-7.8-1.7-11.4c2.7-3.6,7.8-4.4,11.4-1.7l9.5,7L125,74c3-3.3,8.2-3.6,11.5-0.6C139.9,76.5,140.2,81.6,137.2,85z"/>
	</g>
</g>
<g>
</g>
<g>
</g>
<g>
</g>
<g>
</g>
<g>
</g>
<g>
</g>
</svg>
