<?xml version="1.0" encoding="utf-8"?>
<!-- Generator: Adobe Illustrator 24.1.0, SVG Export Plug-In . SVG Version: 6.00 Build 0)  -->
<svg version="1.1" id="Layer_1" xmlns="http://www.w3.org/2000/svg" xmlns:xlink="http://www.w3.org/1999/xlink" x="0px" y="0px"
	 viewBox="0 0 97.1 100.1" style="enable-background:new 0 0 97.1 100.1;" xml:space="preserve">
<style type="text/css">
	.st0{fill:#EC008C;}
	.st1{fill:#FFFFFF;}
</style>
<path class="st0" d="M41.6,53.6L21,38c-3.9-2.8-8.4,2.4-5.7,6.5l20.5,36.2c2.7,4.8,9,5,12,0.5L95.3,9.1c3.8-5.5-3.1-12.2-7.6-7.4
	L41.6,53.6z"/>
<path class="st1" d="M69.4,56.3v27.8c0,2.2-1.8,4-4,4H16c-2.2,0-4-1.8-4-4V34.7c0-2.2,1.8-4,4-4h40.8l0,0l10.4-12h-1.8H16
	c-8.8,0-16,7.2-16,16v49.4c0,8.8,7.2,16,16,16h49.4c8.8,0,16-7.2,16-16V37.7L69.4,56.3z"/>
<path class="st0" d="M41.6,55.2L20.9,39.5c-3.9-2.8-8.4,2.4-5.7,6.5l20.5,36.2c2.7,4.8,9,5,12,0.5l47.5-72.1
	c3.8-5.5-3.1-12.2-7.6-7.4L41.6,55.2z"/>
<path class="st1" d="M69.4,57.8v27.8c0,2.2-1.8,4-4,4H16c-2.2,0-4-1.8-4-4V36.2c0-2.2,1.8-4,4-4h40.8l0,0l10.4-12h-1.8H16
	c-8.8,0-16,7.2-16,16v49.4c0,8.8,7.2,16,16,16h49.4c8.8,0,16-7.2,16-16V39.3L69.4,57.8z"/>
</svg>
