<?xml version="1.0" encoding="utf-8"?>
<!-- Generator: Adobe Illustrator 24.0.3, SVG Export Plug-In . SVG Version: 6.00 Build 0)  -->
<svg version="1.1" id="Layer_1" xmlns="http://www.w3.org/2000/svg" xmlns:xlink="http://www.w3.org/1999/xlink" x="0px" y="0px"
	 viewBox="0 0 1041.6 491.5" style="enable-background:new 0 0 1041.6 491.5;" xml:space="preserve">
<style type="text/css">
	.st0{fill:#FFFFFF;}
	.st1{fill:#E32185;}
</style>
<path class="st0" d="M125,132.9v-14.2c0-11.1,9.1-20.2,20.2-20.2h527.7c0.3,0,0.7,0,1.1-0.1h197.6l40.2-47H377.4v0.1H125.7
	c-25.7,0-47.1,19.5-50.2,44.4c0,0.1,0,0.2,0,0.4c-0.1,0.7-0.1,1.4-0.2,2.1c0,0.3,0,0.6-0.1,0.9c0,0.7-0.1,1.4-0.1,2.2
	c0,0.2,0,25.6,0,25.6v259.4v0.1c0,0.2,0,0.4,0,0.6c0,0.7,0,1.4,0.1,2.2c0,0.3,0,0.6,0.1,0.9c0.1,0.7,0.1,1.4,0.2,2.1
	c0,0.1,0,0.2,0,0.4c3.1,24.9,24.5,44.4,50.2,44.4h36.2v0.1h577.5v27.2c0,10.8,12.6,16.6,20.8,9.6l64-54.2c6-5.1,6-14.2,0-19.3
	l-64-54.2c-8.2-7-20.8-1.1-20.8,9.6v34.1h-66.5c0,0,0,0,0,0H145.2c-11.1,0-20.2-9.1-20.2-20.2v-14.2V132.9z"/>
<g>
	<path class="st0" d="M233.1,206.4h-33.4v-19.7h90.9v19.7h-33.4V291h-24.1V206.4z"/>
	<path class="st0" d="M331.8,212.7c4.7-2,10.2-3,16.3-3v21.5c-2.6-0.2-4.3-0.3-5.2-0.3c-6.7,0-11.9,1.9-15.6,5.6
		c-3.8,3.7-5.7,9.3-5.7,16.8V291h-23.2v-80.2h22.2v10.6C323.4,217.6,327.1,214.6,331.8,212.7z"/>
	<path class="st0" d="M420.7,218.5c6.7,5.9,10,14.8,10,26.7V291h-21.8v-10c-4.4,7.5-12.5,11.2-24.4,11.2c-6.2,0-11.5-1-16-3.1
		c-4.5-2.1-8-5-10.4-8.6c-2.4-3.7-3.6-7.8-3.6-12.5c0-7.5,2.8-13.3,8.4-17.6c5.6-4.3,14.3-6.4,26-6.4h18.5c0-5.1-1.5-9-4.6-11.7
		c-3.1-2.7-7.7-4.1-13.9-4.1c-4.3,0-8.5,0.7-12.6,2c-4.1,1.3-7.6,3.2-10.5,5.4l-8.3-16.2c4.4-3.1,9.6-5.5,15.7-7.2
		c6.1-1.7,12.4-2.5,18.8-2.5C404.5,209.7,414.1,212.6,420.7,218.5z M400.9,273.8c3.1-1.8,5.3-4.5,6.6-8.1v-8.2h-15.9
		c-9.5,0-14.3,3.1-14.3,9.4c0,3,1.2,5.3,3.5,7.1c2.3,1.7,5.5,2.6,9.6,2.6C394.3,276.6,397.8,275.7,400.9,273.8z"/>
	<path class="st0" d="M532.5,180.5V291h-22.2v-9.2c-5.8,7-14.1,10.4-25,10.4c-7.6,0-14.4-1.7-20.5-5.1c-6.1-3.4-10.9-8.2-14.4-14.5
		c-3.5-6.3-5.2-13.5-5.2-21.8c0-8.2,1.7-15.5,5.2-21.8c3.5-6.3,8.3-11.1,14.4-14.5c6.1-3.4,12.9-5.1,20.5-5.1
		c10.2,0,18.2,3.2,24,9.7v-38.9H532.5z M503.9,267.1c3.9-4,5.8-9.4,5.8-16.2c0-6.8-1.9-12.1-5.8-16.2c-3.9-4-8.7-6-14.6-6
		c-6,0-10.9,2-14.8,6c-3.9,4-5.8,9.4-5.8,16.2c0,6.8,1.9,12.1,5.8,16.2c3.9,4,8.8,6,14.8,6C495.1,273.1,500,271.1,503.9,267.1z"/>
	<path class="st0" d="M630.2,257.5h-60.6c1.1,5,3.7,8.9,7.7,11.8c4.1,2.9,9.1,4.3,15.2,4.3c4.2,0,7.9-0.6,11.1-1.9
		c3.2-1.2,6.2-3.2,9-5.9l12.4,13.4c-7.5,8.6-18.6,13-33.1,13c-9,0-17-1.8-24-5.3c-7-3.5-12.3-8.4-16.1-14.7
		c-3.8-6.3-5.7-13.4-5.7-21.3c0-7.8,1.9-14.9,5.6-21.2c3.7-6.3,8.8-11.2,15.3-14.8c6.5-3.5,13.8-5.3,21.8-5.3
		c7.8,0,14.9,1.7,21.3,5.1c6.4,3.4,11.3,8.2,15,14.5c3.6,6.3,5.4,13.6,5.4,22C630.7,251.5,630.5,253.6,630.2,257.5z M575.8,231.7
		c-3.6,3-5.8,7.1-6.6,12.2h39.5c-0.8-5.1-3-9.1-6.6-12.1c-3.6-3-7.9-4.5-13.1-4.5C583.8,227.3,579.4,228.7,575.8,231.7z"/>
	<path class="st0" d="M642.9,239.8H685v18.6h-42.2V239.8z"/>
	<path class="st0" d="M703.2,186.7h24.1V291h-24.1V186.7z"/>
	<path class="st0" d="M821.4,218.6c6.1,6,9.2,14.8,9.2,26.5V291h-23.2v-42.3c0-6.4-1.4-11.1-4.2-14.2c-2.8-3.1-6.8-4.7-12.1-4.7
		c-5.9,0-10.5,1.8-14,5.4c-3.5,3.6-5.2,9-5.2,16.2V291h-23.2v-80.2h22.2v9.4c3.1-3.4,6.9-6,11.5-7.8c4.6-1.8,9.6-2.8,15-2.8
		C807.3,209.7,815.3,212.7,821.4,218.6z"/>
</g>
<path class="st1" d="M1006.5,121.2L952.5,57c-5-6-14.2-6-19.3,0l-54.4,63.9c-7,8.2-1.2,20.8,9.6,20.8l29.4,0.1l0.1,225.9
	c0,11.1-9.1,20.2-20.2,20.2H829l17,14.4c6,5,6,14.2,0,19.3l-15.7,13.4h86.7c27.8,0,50.6-22.8,50.6-50.6V141.9l29.2,0.1
	C1007.6,142,1013.5,129.4,1006.5,121.2z"/>
<g>
</g>
<g>
</g>
<g>
</g>
<g>
</g>
<g>
</g>
<g>
</g>
</svg>
