<?xml version="1.0" encoding="utf-8"?>
<!-- Generator: Adobe Illustrator 24.1.0, SVG Export Plug-In . SVG Version: 6.00 Build 0)  -->
<svg version="1.1" id="Layer_1" xmlns="http://www.w3.org/2000/svg" xmlns:xlink="http://www.w3.org/1999/xlink" x="0px" y="0px"
	 viewBox="0 0 179.5 101.7" style="enable-background:new 0 0 179.5 101.7;" xml:space="preserve">
<style type="text/css">
	.st0{fill:#E32084;}
	.st1{fill:#282828;}
	.st2{fill:#FFFFFF;stroke:#282828;stroke-width:2;stroke-miterlimit:10;}
	.st3{fill:#FFFFFF;}
</style>
<g>
	<path class="st0" d="M114.9,66.3H66.1c-2.9,0-5.2-2.3-5.2-5.2V42.5c0-2.9,2.3-5.2,5.2-5.2h48.8c2.9,0,5.2,2.3,5.2,5.2V61
		C120.1,63.9,117.7,66.3,114.9,66.3z"/>
	<g>
		<path class="st1" d="M1.1,101.7h166.6c0.6,0,1.1-0.5,1.1-1.1l0,0c0-0.6-0.5-1.1-1.1-1.1H1.1c-0.6,0-1.1,0.5-1.1,1.1l0,0
			C0.1,101.2,0.6,101.7,1.1,101.7z"/>
		<path class="st1" d="M172.5,101.7h5.9c0.6,0,1.1-0.5,1.1-1.1l0,0c0-0.6-0.5-1.1-1.1-1.1h-5.9c-0.6,0-1.1,0.5-1.1,1.1l0,0
			C171.5,101.2,171.9,101.7,172.5,101.7z"/>
	</g>
	<g>
		<g>
			<path class="st1" d="M153.2,101.7H26.8c-1.6,0-3.1-0.5-4.3-1.5l0,0c-1.7-1.3-2.7-3.4-2.7-5.6l0,0c0-1.7,1.4-3,3-3h59.7
				c0.8,0,1.6,0.4,2.1,1.2c0.1,0.1,0.2,0.2,0.3,0.2h10.3c0.1,0,0.2-0.1,0.3-0.1c0.4-0.7,1.2-1.2,2.1-1.2h59.6c1.7,0,3,1.4,3,3l0,0
				c0,2.2-1,4.2-2.7,5.6l0,0C156.3,101.2,154.7,101.7,153.2,101.7z M22.8,93.7c-0.5,0-0.9,0.4-0.9,0.9l0,0c0,1.5,0.7,3,1.9,3.9l0,0
				c0.9,0.7,1.9,1,3,1h126.4c1.1,0,2.2-0.4,3-1l0,0c1.2-0.9,1.9-2.4,1.9-3.9l0,0c0-0.5-0.4-0.9-0.9-0.9H97.5c-0.1,0-0.2,0.1-0.3,0.1
				C96.8,94.5,96,95,95.1,95H84.8c-0.8,0-1.6-0.4-2.1-1.2c-0.1-0.1-0.2-0.2-0.3-0.2L22.8,93.7L22.8,93.7z"/>
		</g>
		<g>
			<path class="st1" d="M30.2,12.8v75.7h14.7c0.6,0,1.1-0.5,1.1-1.1l0,0c0-0.6-0.5-1.1-1.1-1.1H32.3V15h115.4v71.4h-12.6
				c-0.6,0-1.1,0.5-1.1,1.1l0,0c0,0.6,0.5,1.1,1.1,1.1h14.7V12.8H30.2z"/>
		</g>
		<g>
			<path class="st1" d="M143.4,83.2H36.5v-64h106.9V83.2z M38.7,81.1h102.6V21.4H38.7V81.1z"/>
		</g>
		<g>
			<g>
				<circle class="st1" cx="83.6" cy="87.5" r="1.1"/>
			</g>
			<g>
				<circle class="st1" cx="90" cy="87.5" r="1.1"/>
			</g>
			<g>
				<circle class="st1" cx="96.4" cy="87.5" r="1.1"/>
			</g>
		</g>
	</g>
	<g>
		<g>
			<path class="st1" d="M27.3,13.7c0,0.6-0.5,1.1-1.1,1.1h-8.1c-0.6,0-1.1-0.5-1.1-1.1s0.5-1.1,1.1-1.1h8.1
				C26.8,12.6,27.3,13.1,27.3,13.7z"/>
		</g>
		<g>
			<path class="st1" d="M33.2,1.1v8c0,0.6-0.5,1.1-1.1,1.1S31,9.7,31,9.1v-8C31,0.5,31.5,0,32.1,0C32.7,0.1,33.2,0.5,33.2,1.1z"/>
		</g>
		<g>
			<path class="st1" d="M28.7,9.7c0,0.3-0.1,0.6-0.4,0.9c-0.5,0.4-1.1,0.3-1.5-0.2l-5.2-7c-0.4-0.5-0.3-1.1,0.2-1.5s1.1-0.3,1.5,0.2
				l5.2,7C28.6,9.3,28.7,9.5,28.7,9.7z"/>
		</g>
	</g>
	<g>
		<path class="st1" d="M120.1,42.2v16l-2.1-0.6V42.2c0-2.1-1.9-3.9-4.3-3.9H66.3c-2.4,0-4.3,1.7-4.3,3.9v18c0,2.1,1.9,3.9,4.3,3.9
			h45.1l0.6,2.1H66.3c-3.5,0-6.4-2.7-6.4-6v-18c0-3.3,2.9-6,6.4-6h47.3C117.2,36.2,120.1,38.9,120.1,42.2z"/>
		<polygon class="st2" points="120.3,63.6 123.8,61.4 112,58.2 115.2,70 117.4,66.4 121.7,70.7 124.5,67.8 		"/>
		<g>
			<path class="st3" d="M67.6,49.3h-2.1V48h5.7v1.3h-2.1v5.4h-1.5V49.3z"/>
			<path class="st3" d="M76.3,54.7L75,52.8h-0.1h-1.3v1.9h-1.5v-6.6H75c0.6,0,1.1,0.1,1.5,0.3c0.4,0.2,0.8,0.5,1,0.8
				c0.2,0.4,0.4,0.8,0.4,1.3s-0.1,0.9-0.4,1.3c-0.2,0.4-0.6,0.6-1,0.8l1.5,2.1L76.3,54.7L76.3,54.7z M75.9,49.6
				c-0.2-0.2-0.6-0.3-1.1-0.3h-1.3v2.3h1.3c0.5,0,0.8-0.1,1.1-0.3s0.4-0.5,0.4-0.9C76.3,50.1,76.1,49.8,75.9,49.6z"/>
			<path class="st3" d="M83.4,53.3h-3.1l-0.6,1.4h-1.5l3-6.6h1.5l3,6.6h-1.6L83.4,53.3z M82.9,52.1l-1.1-2.5l-1.1,2.5H82.9z"/>
			<path class="st3" d="M86.3,48h3c0.7,0,1.4,0.1,1.9,0.4c0.6,0.3,1,0.7,1.3,1.2s0.5,1.1,0.5,1.7s-0.2,1.2-0.5,1.7s-0.7,0.9-1.3,1.2
				c-0.6,0.3-1.2,0.4-1.9,0.4h-3V48z M89.3,53.4c0.7,0,1.2-0.2,1.6-0.6s0.6-0.9,0.6-1.5s-0.2-1.1-0.6-1.5s-0.9-0.6-1.6-0.6h-1.4v4.1
				L89.3,53.4L89.3,53.4z"/>
			<path class="st3" d="M99.3,53.5v1.2h-5.1v-6.6h5v1.2h-3.5v1.4h3.1v1.2h-3.1v1.5h3.6V53.5z"/>
			<path class="st3" d="M103.2,48h1.5v6.6h-1.5V48z"/>
			<path class="st3" d="M112.4,48v6.6h-1.3l-3.3-4v4h-1.5V48h1.3l3.3,4v-4H112.4z"/>
		</g>
	</g>
</g>
</svg>
