<?xml version="1.0"?>
<svg xmlns="http://www.w3.org/2000/svg" height="512px" viewBox="-104 0 480 480" width="512px" class=""><g transform="matrix(6.12323e-17 1 -1 6.12323e-17 376 104)"><path d="m232 48h-24v-32c0-8.835938-7.164062-16-16-16h-112c-8.835938 0-16 7.164062-16 16v32h-24c-22.082031.027344-39.9726562 17.917969-40 40v352c.0273438 22.082031 17.917969 39.972656 40 40h192c22.082031-.027344 39.972656-17.917969 40-40v-352c-.027344-22.082031-17.917969-39.972656-40-40zm-152-32h112v32h-112zm176 424c0 13.253906-10.746094 24-24 24h-192c-13.253906 0-24-10.746094-24-24v-352c0-13.253906 10.746094-24 24-24h192c13.253906 0 24 10.746094 24 24zm0 0" data-original="#000000" class="active-path" data-old_color="#000000" fill="#000000"/><path d="m200 256h-40v-120c0-3.570312-2.363281-6.707031-5.792969-7.691406-3.433593-.984375-7.097656.425781-8.992187 3.453125l-80 128c-1.539063 2.464843-1.621094 5.574219-.210938 8.117187 1.410156 2.542969 4.085938 4.121094 6.996094 4.121094h40v120c0 3.566406 2.363281 6.703125 5.792969 7.6875.71875.207031 1.460937.3125 2.207031.3125 2.757812 0 5.320312-1.421875 6.785156-3.761719l80-128c1.539063-2.464843 1.621094-5.574219.210938-8.117187-1.410156-2.542969-4.085938-4.121094-6.996094-4.121094zm-72 108.105469v-100.105469c0-4.417969-3.582031-8-8-8h-33.601562l57.601562-92.105469v100.105469c0 4.417969 3.582031 8 8 8h33.601562zm0 0" data-original="#000000" class="active-path" data-old_color="#000000" fill="#000000"/></g> </svg>
