<?xml version="1.0"?>
<svg xmlns="http://www.w3.org/2000/svg" id="Guide" height="512px" viewBox="0 0 512 512" width="512px"><g><g fill="rgb(0,0,0)"><path d="m397.352 10h-205.644a27.171 27.171 0 0 0 -19.465 8.3l-.2.207-77.071 97.1a27.4 27.4 0 0 0 -7.472 18.887v340.106a27.308 27.308 0 0 0 27.148 27.4h282.7a27.308 27.308 0 0 0 27.152-27.4v-246.715a8.136 8.136 0 0 0 -8.115-8.14h-23.608v-75.181h23.608a8.137 8.137 0 0 0 8.115-8.141v-99.023a27.308 27.308 0 0 0 -27.148-27.4zm15.148 122.564h-23.608a8.137 8.137 0 0 0 -8.115 8.14v82.9a8.138 8.138 0 0 0 8.115 8.141h23.608v242.855a15.3 15.3 0 0 1 -15.148 15.4h-282.7a15.3 15.3 0 0 1 -15.152-15.4v-340.1a15.455 15.455 0 0 1 4.326-10.779l.2-.207 77.044-97.07a15.111 15.111 0 0 1 10.638-4.444h205.644a15.3 15.3 0 0 1 15.148 15.4z" data-original="#000000" class="active-path" fill="#000000"/><path d="m146.485 312.619a26.029 26.029 0 0 0 -26 26v103.242a26.029 26.029 0 0 0 26 26h219.03a26.029 26.029 0 0 0 26-26v-103.242a26.029 26.029 0 0 0 -26-26zm233.03 26v103.242a14.016 14.016 0 0 1 -14 14h-219.03a14.016 14.016 0 0 1 -14-14v-103.242a14.016 14.016 0 0 1 14-14h219.03a14.016 14.016 0 0 1 14 14z" data-original="#000000" class="active-path" fill="#000000"/><path d="m210.834 102.163a6 6 0 0 0 6-6v-56.319a6 6 0 1 0 -12 0v56.319a6 6 0 0 0 6 6z" data-original="#000000" class="active-path" fill="#000000"/><path d="m238.534 102.163a6 6 0 0 0 6-6v-56.319a6 6 0 1 0 -12 0v56.319a6 6 0 0 0 6 6z" data-original="#000000" class="active-path" fill="#000000"/><path d="m266.233 102.163a6 6 0 0 0 6-6v-56.319a6 6 0 1 0 -12 0v56.319a6 6 0 0 0 6 6z" data-original="#000000" class="active-path" fill="#000000"/><path d="m293.932 102.163a6 6 0 0 0 6-6v-56.319a6 6 0 1 0 -12 0v56.319a6 6 0 0 0 6 6z" data-original="#000000" class="active-path" fill="#000000"/><path d="m321.632 102.163a6 6 0 0 0 6-6v-56.319a6 6 0 1 0 -12 0v56.319a6 6 0 0 0 6 6z" data-original="#000000" class="active-path" fill="#000000"/><path d="m349.331 102.163a6 6 0 0 0 6-6v-56.319a6 6 0 1 0 -12 0v56.319a6 6 0 0 0 6 6z" data-original="#000000" class="active-path" fill="#000000"/><path d="m377.03 33.844a6 6 0 0 0 -6 6v56.319a6 6 0 1 0 12 0v-56.319a6 6 0 0 0 -6-6z" data-original="#000000" class="active-path" fill="#000000"/><path d="m145.708 288.875h214.744a6 6 0 0 0 0-12h-214.744a6 6 0 1 0 0 12z" data-original="#000000" class="active-path" fill="#000000"/></g></g> </svg>
