<?xml version="1.0" encoding="utf-8"?>
<!-- Generator: Adobe Illustrator 23.0.2, SVG Export Plug-In . SVG Version: 6.00 Build 0)  -->
<svg version="1.1" id="Layer_1" xmlns="http://www.w3.org/2000/svg" xmlns:xlink="http://www.w3.org/1999/xlink" x="0px" y="0px"
	 viewBox="0 0 73.31 56.7" style="enable-background:new 0 0 73.31 56.7;" xml:space="preserve">
<style type="text/css">
	.st0{fill:#EC008C;}
</style>
<path class="st0" d="M53.37,29.77l-7.51-5.69c-1.41-1.03-3.06,0.86-2.06,2.36l7.45,13.2c0.98,1.74,3.26,1.83,4.36,0.17l17.3-26.26
	c1.4-2.01-1.12-4.46-2.77-2.7L53.37,29.77z"/>
<g>
	<path d="M37.63,29.59c0.08,8.37,7.35,11.16,7.43,11.19c-0.06,0.2-1.16,3.97-3.83,7.87c-2.31,3.37-4.7,6.73-8.47,6.8
		c-3.7,0.07-4.9-2.2-9.13-2.2c-4.23,0-5.56,2.13-9.06,2.27c-3.64,0.14-6.41-3.64-8.74-7c-4.75-6.87-8.38-19.41-3.51-27.88
		c2.42-4.2,6.75-6.87,11.45-6.93c3.57-0.07,6.95,2.4,9.13,2.4c2.18,0,6.28-2.97,10.59-2.54c1.8,0.08,6.87,0.73,10.12,5.49
		C43.34,19.23,37.56,22.59,37.63,29.59 M30.66,9.03c1.93-2.34,3.23-5.59,2.88-8.83c-2.79,0.11-6.15,1.86-8.15,4.19
		c-1.79,2.07-3.36,5.38-2.94,8.56C25.56,13.19,28.73,11.37,30.66,9.03"/>
</g>
</svg>
