<?xml version="1.0" encoding="utf-8"?>
<!-- Generator: Adobe Illustrator 23.0.2, SVG Export Plug-In . SVG Version: 6.00 Build 0)  -->
<svg version="1.1" id="Layer_1" xmlns="http://www.w3.org/2000/svg" xmlns:xlink="http://www.w3.org/1999/xlink" x="0px" y="0px"
	 viewBox="0 0 178.03 176.83" style="enable-background:new 0 0 178.03 176.83;" xml:space="preserve">
<style type="text/css">
	.st0{fill-rule:evenodd;clip-rule:evenodd;fill:#EC008C;}
	.st1{fill:#FFFFFF;}
</style>
<polygon class="st0" points="21.66,29.92 21.52,37.15 14.85,38.69 15.62,45.89 9.2,48.26 10.86,55.29 4.79,58.45 7.32,65.22 
	1.69,69.12 5.05,75.52 -0.05,80.09 4.09,86.02 -0.4,91.19 4.45,96.56 0.64,102.25 6.13,106.97 3.07,113.09 9.1,117.08 6.83,123.55 
	13.31,126.75 11.87,133.44 18.71,135.81 18.12,142.63 25.2,144.12 25.47,150.96 32.67,151.56 33.8,158.31 41.02,158 42.99,164.56 
	50.11,163.34 52.89,169.6 59.8,167.5 63.34,173.36 69.94,170.41 74.18,175.78 80.36,172.03 85.24,176.83 90.9,172.33 96.34,176.48 
	101.39,171.31 107.31,174.74 111.67,168.98 117.98,171.64 121.58,165.38 128.17,167.23 130.96,160.56 137.74,161.58 139.67,154.61 
	146.51,154.77 147.56,147.62 154.37,146.91 154.51,139.68 161.18,138.14 160.41,130.95 166.83,128.57 165.17,121.54 171.24,118.38 
	168.71,111.61 174.34,107.71 170.98,101.31 176.08,96.74 171.94,90.81 176.43,85.64 171.58,80.27 175.39,74.58 169.9,69.86 
	172.96,63.74 166.93,59.74 169.2,53.29 162.72,50.08 164.16,43.39 157.32,41.02 157.91,34.2 150.83,32.71 150.56,25.87 
	143.36,25.27 142.23,18.52 135.01,18.83 133.05,12.27 125.92,13.49 123.14,7.23 116.23,9.33 112.69,3.47 106.09,6.42 101.85,1.05 
	95.67,4.8 90.79,0 85.13,4.5 79.69,0.35 74.64,5.52 68.72,2.09 64.36,7.85 58.05,5.19 54.45,11.45 47.86,9.6 45.07,16.27 
	38.29,15.25 36.36,22.22 29.52,22.06 28.47,29.22 21.66,29.92 "/>
<g>
	<path class="st1" d="M47.51,83.94c3.17,1.96,5.33,5.51,6.47,10.63l4.38,19.7l-12.08,2.69l-3.95-17.73c-1.05-4.7-3.46-6.64-7.23-5.8
		c-2.08,0.46-3.59,1.51-4.54,3.14c-0.95,1.63-1.12,3.81-0.52,6.52l3.7,16.65l-12.08,2.69l-7.66-34.45l11.5-2.56l0.83,3.75
		c1.04-1.7,2.42-3.13,4.12-4.28c1.7-1.16,3.65-1.98,5.85-2.47C40.61,81.47,44.33,81.97,47.51,83.94z"/>
	<path class="st1" d="M98.3,90.51l-25.04,5.57c0.9,1.67,2.19,2.81,3.87,3.44c1.67,0.63,3.61,0.7,5.82,0.21
		c1.65-0.37,3.03-0.92,4.13-1.65c1.1-0.73,2.15-1.77,3.15-3.1l7.83,5.2c-2.52,4.47-7,7.43-13.44,8.86
		c-4.03,0.9-7.73,0.92-11.12,0.07c-3.39-0.85-6.22-2.44-8.5-4.78c-2.28-2.34-3.8-5.23-4.56-8.66c-0.75-3.39-0.62-6.61,0.42-9.66
		c1.03-3.05,2.82-5.66,5.36-7.83c2.54-2.17,5.61-3.65,9.21-4.45c3.43-0.76,6.7-0.75,9.82,0.05c3.11,0.8,5.78,2.36,8.01,4.69
		c2.23,2.33,3.75,5.34,4.57,9.02C97.84,87.57,98,88.58,98.3,90.51z M73.07,84.92c-1.01,1.34-1.49,2.96-1.42,4.85l14.11-3.14
		c-0.74-1.75-1.86-3.01-3.34-3.79c-1.49-0.78-3.16-0.96-5.02-0.55C75.52,82.71,74.09,83.58,73.07,84.92z"/>
	<path class="st1" d="M156.01,56.4l-4.6,37.18l-11.69,2.6l-10.65-17.31l-2.57,20.25l-11.69,2.6L94.87,70l11.44-2.55L118,86.73
		l2.67-22.47l10.3-2.29l11.8,19.45l2.63-22.66L156.01,56.4z"/>
</g>
</svg>
