<?xml version="1.0" encoding="utf-8"?>
<!-- Generator: Adobe Illustrator 23.0.2, SVG Export Plug-In . SVG Version: 6.00 Build 0)  -->
<svg version="1.1" id="Layer_1" xmlns="http://www.w3.org/2000/svg" xmlns:xlink="http://www.w3.org/1999/xlink" x="0px" y="0px"
	 viewBox="0 0 160.35 163.24" style="enable-background:new 0 0 160.35 163.24;" xml:space="preserve">
<style type="text/css">
	.st0{fill:#EC008C;}
</style>
<g>
	<path d="M117.18,103.91c-5.07,9.35-11.39,17.79-18.62,25.57c-1.61,1.73-3.33,1.95-4.75,0.69c-1.5-1.33-1.37-3.08,0.12-4.93
		c4.32-5.35,8.7-10.67,12.81-16.18c2.13-2.86,3.75-6.1,5.66-9.27c-10.43-4.91-20.52-9.66-30.77-14.49
		c-0.36,0.76-0.67,1.41-0.97,2.07c-2.68,5.7-5.37,11.4-8.05,17.1c-0.14,0.3-0.27,0.61-0.43,0.91c-0.96,1.8-2.76,2.52-4.35,1.73
		c-1.59-0.79-2.17-2.61-1.29-4.5c2.76-5.96,5.58-11.89,8.38-17.83c0.33-0.7,0.66-1.41,1.01-2.15c-9.72-4.58-19.21-9.04-28.73-13.52
		c-0.61,1.31-1.34,2.45-1.71,3.71c-1.63,5.44-3.19,10.91-4.71,16.38c-0.61,2.19-1.97,3.32-3.8,2.93c-1.82-0.39-2.8-2.01-2.26-4.22
		c1.04-4.28,2.14-8.56,3.39-12.79c0.88-2.99,2.06-5.89,3.15-8.94c-0.78-0.37-1.44-0.68-2.1-0.99c-6.06-2.85-12.14-5.69-18.19-8.57
		c-1.86-0.89-2.6-2.69-1.89-4.29c0.71-1.61,2.57-2.22,4.45-1.45c0.5,0.2,0.97,0.45,1.46,0.68c5.7,2.68,11.4,5.37,17.09,8.06
		c0.64,0.3,1.28,0.6,1.98,0.93c5.71-10.95,12.91-20.43,21.65-29.06c-5.15-2.43-10-4.7-14.84-6.99c-2.29-1.09-3.14-2.85-2.29-4.61
		c0.85-1.74,2.71-2.15,5.04-1.05c5.04,2.36,10.09,4.69,15.08,7.13c1.44,0.71,2.4,0.64,3.71-0.41c3.64-2.94,7.42-5.72,11.24-8.43
		c2.01-1.43,4.19-2.66,6.37-3.82c1.66-0.89,3.55-0.24,4.32,1.26c0.76,1.47,0.26,3.16-1.28,4.16c-0.62,0.4-1.31,0.69-1.92,1.09
		c-4.7,3.15-9.39,6.31-14.42,9.7c6.98,3.29,13.35,6.28,19.81,9.32c3.09-6.57,6.11-13,9.14-19.42c1.1-2.33,2.8-3.2,4.57-2.38
		c1.78,0.83,2.24,2.7,1.15,5.01c-2.76,5.89-5.54,11.76-8.31,17.64c-0.3,0.63-0.6,1.27-0.88,1.87c7.19,3.39,14.07,6.63,21.15,9.95
		c0.02-0.91,0.12-1.64,0.05-2.35c-0.53-5.52-1.05-11.05-1.67-16.57c-0.18-1.64,0.01-3.17,1.62-3.67c1.04-0.32,2.51-0.05,3.47,0.5
		c0.68,0.39,1.08,1.69,1.16,2.62c0.62,6.92,1.2,13.85,1.62,20.79c0.08,1.35,0.43,1.99,1.63,2.54c4.7,2.13,9.35,4.36,14.02,6.57
		c2.13,1.01,2.95,2.8,2.11,4.51c-0.84,1.72-2.67,2.17-4.86,1.15c-3.83-1.78-7.64-3.59-11.47-5.38c-0.51-0.24-1.06-0.42-1.77-0.7
		c-1.07,12.2-3.8,23.81-8.63,35.05c0.83,0.39,1.49,0.7,2.15,1.01c5.52,2.6,11.04,5.18,16.55,7.8c1.91,0.91,2.63,2.63,1.92,4.27
		c-0.74,1.69-2.63,2.28-4.62,1.42c-0.49-0.21-0.97-0.46-1.45-0.69c-5.63-2.65-11.26-5.3-17.08-8.04
		C117.73,102.99,117.44,103.44,117.18,103.91z M120.84,75.52c1.15-4.92,1.53-10.02,2.3-15.04c0.21-1.38-0.16-2.14-1.52-2.77
		c-7.3-3.34-14.54-6.8-21.96-10.3c-5.03,10.69-10.02,21.3-15.07,32.02c10.08,4.75,20.16,9.49,30.9,14.55
		C117.35,87.67,119.41,81.67,120.84,75.52z M72.63,34.76c-0.42-0.19-1.31,0.07-1.69,0.43c-7,6.59-13.02,13.99-17.95,22.25
		c-1.09,1.82-2.08,3.69-3.19,5.65c9.72,4.58,19.21,9.04,28.8,13.56c5.01-10.63,9.98-21.21,15.08-32.03
		C86.57,41.27,79.62,37.98,72.63,34.76z"/>
	<path class="st0" d="M25.4,141.33c-3.12,3.22-6.24,6.43-9.34,9.66c-1.05,1.09-2.08,2.12-3.81,1.62c-1.87-0.54-2.28-2.02-2.53-3.7
		c-1.61-10.79-3.27-21.58-4.91-32.37c-1.22-8.01-2.47-16.01-3.65-24.03c-0.48-3.26,1.45-4.85,4.57-3.86
		c0.83,0.26,1.67,0.49,2.5,0.75c12.89,4.05,25.79,8.11,38.68,12.15c4.02,1.26,8.06,2.47,12.07,3.77c2.21,0.72,3.25,2.24,2.65,4.01
		c-0.28,0.82-0.99,1.57-1.66,2.16c-3.55,3.13-7.16,6.19-10.91,9.42c0.73,0.59,1.22,1.03,1.76,1.41c6.9,4.9,14.15,9.16,22.08,12.21
		c10.05,3.86,20.38,5.64,31.09,4.01c17.93-2.72,31.91-12.1,43.13-26c1.41-1.75,3.01-2.27,4.49-1.38c1.56,0.94,2.06,2.76,0.88,4.76
		c-2.71,4.6-5.22,9.4-8.5,13.58c-15.08,19.26-35.05,29.65-59.37,31.39c-17.06,1.22-32.96-2.79-47.37-12.14
		c-3.79-2.46-7.33-5.32-11.09-8.08C25.99,140.84,25.67,141.06,25.4,141.33z M8.02,95.92c2.38,15.66,4.72,31.03,7.14,46.95
		c2.77-2.86,5.24-5.33,7.62-7.88c2.63-2.83,3.9-2.92,6.64-0.3c26.82,25.62,68.12,27.4,97.15,4.19c0.61-0.49,1.18-1.04,1.58-1.88
		c-0.59,0.28-1.19,0.54-1.78,0.84c-17.74,9.05-35.92,9.46-54.48,2.8c-10.64-3.82-20.14-9.62-29.07-16.44
		c-2.3-1.76-2.42-3.69-0.26-5.7c2.55-2.37,5.17-4.65,7.76-6.98c0.53-0.48,1.03-0.98,1.83-1.74C37.35,105.14,22.89,100.59,8.02,95.92
		z"/>
	<path d="M111.96,13.96c31.04,14.82,47.59,47.97,40.82,81.88c-0.21,1.06-0.34,2.46,0.18,3.24c0.56,0.83,1.91,1.46,2.96,1.53
		c1.61,0.11,2.57-1.16,2.75-2.68c0.65-5.43,1.75-10.89,1.68-16.32c-0.37-27.52-11.39-50.08-33.81-66.02
		C102.4-1.57,75.98-3.65,48.65,7.44C33.94,13.4,22.21,23.31,13.33,36.47C5.41,48.21,1.13,61.26,0.02,75.35
		c-0.19,2.43,0.89,3.94,2.81,4.09c1.96,0.15,3.2-1.12,3.4-3.61c0.81-9.92,3.45-19.3,7.82-28.27c14.48-29.7,48.65-46.3,80.96-39.18
		c2.87,0.63,5.73,1.38,8.52,2.31C106.39,11.64,109.15,12.86,111.96,13.96z"/>
	<path class="st0" d="M52.15,109.79c-14.79-4.65-29.26-9.2-44.13-13.87c2.38,15.66,4.72,31.03,7.14,46.95
		c2.77-2.86,5.24-5.33,7.62-7.88c2.63-2.83,3.9-2.92,6.64-0.3c26.82,25.62,68.12,27.4,97.15,4.19c0.61-0.49,1.18-1.04,1.58-1.88
		c-0.59,0.28-1.19,0.54-1.78,0.84c-17.74,9.05-35.92,9.46-54.48,2.8c-10.64-3.82-20.14-9.62-29.07-16.44
		c-2.3-1.76-2.42-3.69-0.26-5.7c2.55-2.37,5.17-4.65,7.76-6.98C50.84,111.05,51.35,110.55,52.15,109.79z"/>
</g>
</svg>
