<?xml version="1.0" encoding="utf-8"?>
<!-- Generator: Adobe Illustrator 25.4.1, SVG Export Plug-In . SVG Version: 6.00 Build 0)  -->
<svg version="1.1" id="Layer_1" xmlns="http://www.w3.org/2000/svg" xmlns:xlink="http://www.w3.org/1999/xlink" x="0px" y="0px"
	 viewBox="0 0 32 32" style="enable-background:new 0 0 32 32;" xml:space="preserve">
<style type="text/css">
	.st0{fill:#FFFFFF;}
</style>
<path d="M25.7,31H6.3C3.4,31,1,28.6,1,25.7V6.3C1,3.4,3.4,1,6.3,1h19.4C28.6,1,31,3.4,31,6.3v19.4C31,28.6,28.6,31,25.7,31z"/>
<g>
	<path class="st0" d="M13.6,18c0,2.5-2,4-4.3,4c-1.6,0-3.3-0.9-4-2.3L7,18.6C7.4,19.4,8.3,20,9.2,20c1.3,0,2.2-0.8,2.2-2
		c0-1.1-0.9-1.9-2.1-1.9c-0.9,0-1.8,0.4-2.4,1l-1.3-0.8l1-5.6h6.3v2.1H8.4l-0.4,2.1c0.5-0.4,1.3-0.6,2-0.6
		C12.1,14.3,13.6,15.9,13.6,18z"/>
	<path class="st0" d="M15.1,16c0-3.3,2.6-6.1,6-6.1c1.8,0,3.3,0.7,4.3,1.9l-1.7,1.5c-0.7-0.7-1.6-1.2-2.6-1.2c-2,0-3.6,1.8-3.6,3.9
		c0,2.1,1.5,3.9,3.7,3.9c1.5,0,3-0.9,3-2.3h-3.3v-1.9h5.9c0,4.3-2.4,6.3-5.6,6.3C17.6,22.1,15.1,19.3,15.1,16z"/>
</g>
</svg>
