<?xml version="1.0" encoding="utf-8"?>
<!-- Generator: Adobe Illustrator 25.4.1, SVG Export Plug-In . SVG Version: 6.00 Build 0)  -->
<svg version="1.1" id="Layer_1" xmlns="http://www.w3.org/2000/svg" xmlns:xlink="http://www.w3.org/1999/xlink" x="0px" y="0px"
	 viewBox="0 0 32 32" style="enable-background:new 0 0 32 32;" xml:space="preserve">
<style type="text/css">
	.st0{fill:#FFFFFF;}
</style>
<path d="M26,31H6.6c-2.9,0-5.3-2.4-5.3-5.3V6.3C1.3,3.4,3.7,1,6.6,1H26c2.9,0,5.3,2.4,5.3,5.3v19.4C31.3,28.6,28.9,31,26,31z"/>
<path class="st0" d="M-247.4-59.1"/>
<g>
	<g>
		<path class="st0" d="M16.5,5.8C10.9,5.8,6.3,10.4,6.3,16s4.6,10.2,10.2,10.2S26.7,21.6,26.7,16S22.1,5.8,16.5,5.8z M16.5,24.3
			c-4.6,0-8.3-3.7-8.3-8.3s3.7-8.3,8.3-8.3s8.3,3.7,8.3,8.3S21.1,24.3,16.5,24.3z"/>
		<path class="st0" d="M16.5,10.1c-0.7,0-1.2,0.6-1.2,1.2c0,0.7,0.6,1.2,1.2,1.2c0.7,0,1.2-0.6,1.2-1.2
			C17.7,10.7,17.2,10.1,16.5,10.1z"/>
		<path class="st0" d="M16.5,14.5c-0.5,0-0.9,0.4-0.9,0.9v5.6c0,0.5,0.4,0.9,0.9,0.9c0.5,0,0.9-0.4,0.9-0.9v-5.6
			C17.4,14.9,17,14.5,16.5,14.5z"/>
	</g>
</g>
</svg>
