<?xml version="1.0" encoding="utf-8"?>
<!-- Generator: Adobe Illustrator 25.4.1, SVG Export Plug-In . SVG Version: 6.00 Build 0)  -->
<svg version="1.1" id="Layer_1" xmlns="http://www.w3.org/2000/svg" xmlns:xlink="http://www.w3.org/1999/xlink" x="0px" y="0px"
	 viewBox="0 0 32 32" style="enable-background:new 0 0 32 32;" xml:space="preserve">
<style type="text/css">
	.st0{fill:#FFFFFF;}
</style>
<path d="M26,31H6.6c-2.9,0-5.3-2.4-5.3-5.3V6.3C1.3,3.4,3.7,1,6.6,1H26c2.9,0,5.3,2.4,5.3,5.3v19.4C31.3,28.6,28.9,31,26,31z"/>
<g>
	<path class="st0" d="M24.1,23h-2.7v-1.1h2.7c0.7,0,1.2-0.5,1.2-1.2V7.1c0-0.7-0.5-1.2-1.2-1.2h-6.6c-0.7,0-1.2,0.5-1.2,1.2v2.5
		h-1.1V7.1c0-1.2,1-2.3,2.3-2.3h6.6c1.2,0,2.3,1,2.3,2.3v13.6C26.3,22,25.3,23,24.1,23z"/>
</g>
<path class="st0" d="M22.2,7.9h-2.7c-0.2,0-0.3-0.2-0.3-0.3l0,0c0-0.2,0.2-0.3,0.3-0.3h2.7c0.2,0,0.3,0.2,0.3,0.3l0,0
	C22.5,7.7,22.4,7.9,22.2,7.9z"/>
<path class="st0" d="M22.8,20.9C22.8,20.9,22.8,20.9,22.8,20.9l0-9.6c0-1.2-1.1-2.2-2.5-2.2h-6.5c-1.4,0-2.5,1-2.5,2.2v13.6
	c0,1.2,1.1,2.2,2.5,2.2h4.2c1.5,0,2.2-1.3,2.3-1.4l0.3-0.4l1.5-2.3c0,0,0,0,0,0C22.8,22.1,22.8,21,22.8,20.9z M18.1,26.2h-4.2
	c-0.8,0-1.5-0.5-1.5-1.2V11.3c0-0.7,0.7-1.2,1.5-1.2h6.5c0.8,0,1.5,0.5,1.5,1.2l0,9.6c0,0,0,0.1,0,0.1c0,0.1,0,0.4,0,0.5l-0.4,0.1
	l-1.9,0.8c-0.1,0.1-0.6,0.2-0.7,0.6c-0.1,0.4,0.1,0.7,0.2,0.8c0.5,0.6,0.6,1.2,0.3,1.6C19.2,25.8,18.7,26.2,18.1,26.2z M20.4,24.1
	c-0.1-0.3-0.2-0.5-0.5-0.8l1.4-0.6L20.4,24.1z"/>
<path class="st0" d="M17.1,25.1c-0.7,0-1.2-0.5-1.2-1.2c0-0.7,0.5-1.2,1.2-1.2c0.7,0,1.2,0.5,1.2,1.2C18.3,24.5,17.8,25.1,17.1,25.1
	z M16.5,23.8c0,0.3,0.3,0.6,0.6,0.6c0.3,0,0.6-0.3,0.6-0.6c0-0.3-0.3-0.6-0.6-0.6C16.8,23.2,16.5,23.5,16.5,23.8z"/>
<path class="st0" d="M18.5,12.2h-2.8c-0.3,0-0.5-0.2-0.5-0.5l0,0c0-0.3,0.2-0.5,0.5-0.5h2.8c0.3,0,0.5,0.2,0.5,0.5l0,0
	C19.1,11.9,18.8,12.2,18.5,12.2z"/>
<g>
	<path class="st0" d="M8.3,13.9c0,0,0.7,0,0.8,0c0.3,0,0.6,0,1,0c0.4,0,0.6-0.2,0.6-0.6c0-0.9,0-1.7,0-2.6c0-0.2-0.1-0.2-0.2-0.2
		c-0.1,0-0.2,0-0.4,0c0,0,0-0.1,0-0.1c0-0.3,0-0.6,0-0.8c0-0.2-0.1-0.3-0.3-0.3c-0.2,0-0.3,0.1-0.3,0.3c0,0.3,0,0.6,0,0.8
		c0,0,0,0.1,0,0.1H7.9c0,0,0-0.1,0-0.1c0-0.3,0-0.5,0-0.8c0-0.1,0-0.1,0-0.2c0-0.1-0.2-0.2-0.3-0.2c-0.1,0-0.3,0.1-0.3,0.3
		c0,0.3,0,0.5,0,0.8c0,0.1,0,0.1,0,0.2c-0.1,0-0.2,0-0.4,0c-0.2,0-0.2,0.1-0.2,0.2c0,0.9,0,1.7,0,2.6c0,0.4,0.2,0.6,0.6,0.6
		c0.3,0,0.6,0,0.9,0C8.2,13.9,8.3,13.9,8.3,13.9z"/>
</g>
<path class="st0" d="M9.1,27.2H8.5c-0.3,0-0.5-0.2-0.5-0.5V15.4c0-0.3,0.2-0.5,0.5-0.5h0.6c0.3,0,0.5,0.2,0.5,0.5v11.3
	C9.6,26.9,9.3,27.2,9.1,27.2z"/>
</svg>
