<?xml version="1.0" encoding="utf-8"?>
<!-- Generator: Adobe Illustrator 25.4.1, SVG Export Plug-In . SVG Version: 6.00 Build 0)  -->
<svg version="1.1" id="Layer_1" xmlns="http://www.w3.org/2000/svg" xmlns:xlink="http://www.w3.org/1999/xlink" x="0px" y="0px"
	 viewBox="0 0 26 32" style="enable-background:new 0 0 26 32;" xml:space="preserve">
<g>
	<g>
		<g>
			<g>
				<path d="M17.7,5.1c1.1-1.4,1.9-3.2,1.7-5.1c-1.6,0.1-3.6,1.1-4.7,2.4c-1,1.2-1.9,3.1-1.7,4.9C14.8,7.5,16.6,6.5,17.7,5.1"/>
				<path d="M19.4,7.7c-2.6-0.2-4.9,1.5-6.1,1.5C12,9.2,10,7.8,8,7.8c-2.7,0-5.2,1.6-6.6,4c-2.8,4.9-0.7,12.1,2,16.1
					c1.3,2,2.9,4.1,5.1,4.1c2-0.1,2.8-1.3,5.2-1.3c2.4,0,3.1,1.3,5.3,1.3c2.2,0,3.6-2,4.9-3.9c1.5-2.2,2.2-4.4,2.2-4.5
					c0,0-4.2-1.7-4.3-6.5c0-4.1,3.3-6,3.5-6.1C23.3,8.1,20.4,7.8,19.4,7.7"/>
			</g>
		</g>
	</g>
</g>
</svg>
