<?xml version="1.0" encoding="utf-8"?>
<!-- Generator: Adobe Illustrator 25.4.1, SVG Export Plug-In . SVG Version: 6.00 Build 0)  -->
<svg version="1.1" id="Layer_1" xmlns="http://www.w3.org/2000/svg" xmlns:xlink="http://www.w3.org/1999/xlink" x="0px" y="0px"
	 viewBox="0 0 32 32" style="enable-background:new 0 0 32 32;" xml:space="preserve">
<style type="text/css">
	.st0{fill:#FFFFFF;}
</style>
<path d="M25.7,31H6.3C3.4,31,1,28.6,1,25.7V6.3C1,3.4,3.4,1,6.3,1h19.4C28.6,1,31,3.4,31,6.3v19.4C31,28.6,28.6,31,25.7,31z"/>
<g>
	<path class="st0" d="M20.3,9.9c-1.8-0.1-3.3,1-4.2,1c-0.9,0-2.2-1-3.6-0.9C10.6,10,8.9,11,8,12.7C6,16,7.5,21,9.4,23.7
		c0.9,1.3,2,2.8,3.4,2.8c1.4-0.1,1.9-0.9,3.6-0.9c1.7,0,2.1,0.9,3.6,0.9c1.5,0,2.4-1.4,3.3-2.7c1.1-1.5,1.5-3,1.5-3.1
		c0,0-2.9-1.1-2.9-4.4c0-2.8,2.3-4.1,2.4-4.2C23,10.1,21,9.9,20.3,9.9z"/>
	<path class="st0" d="M19.2,8.1c0.8-0.9,1.3-2.2,1.1-3.5c-1.1,0-2.4,0.7-3.2,1.7c-0.7,0.8-1.3,2.1-1.2,3.4C17.1,9.7,18.4,9,19.2,8.1
		z"/>
</g>
</svg>
