<?xml version="1.0" encoding="utf-8"?>
<!-- Generator: Adobe Illustrator 25.4.1, SVG Export Plug-In . SVG Version: 6.00 Build 0)  -->
<svg version="1.1" id="Layer_1" xmlns="http://www.w3.org/2000/svg" xmlns:xlink="http://www.w3.org/1999/xlink" x="0px" y="0px"
	 viewBox="0 0 32 32" style="enable-background:new 0 0 32 32;" xml:space="preserve">
<style type="text/css">
	.st0{fill:#FFFFFF;}
</style>
<path d="M25.7,31H6.3C3.4,31,1,28.6,1,25.7V6.3C1,3.4,3.4,1,6.3,1h19.4C28.6,1,31,3.4,31,6.3v19.4C31,28.6,28.6,31,25.7,31z"/>
<path class="st0" d="M14.3,5.2c-0.3,0-0.5,0.2-0.5,0.5v1.8c0,0.3,0.2,0.5,0.5,0.5v0c5.6,0.2,10.2,4.8,10.4,10.4h0
	c0,0.3,0.2,0.5,0.5,0.5H27c0.3,0,0.5-0.2,0.5-0.5C27.2,11.2,21.4,5.4,14.3,5.2z M14.3,9.7c-0.3,0-0.5,0.2-0.5,0.5v1.8
	c0,0.3,0.2,0.5,0.5,0.5v0c3.1,0.2,5.6,2.7,5.9,5.9h0c0,0.3,0.2,0.5,0.5,0.5h1.8c0.3,0,0.5-0.2,0.5-0.5C22.7,13.7,18.9,9.9,14.3,9.7z
	 M6.2,10.6c-0.3,0-0.5,0.2-0.5,0.5v10c0,3.2,2.6,5.9,5.9,5.9s5.9-2.6,5.9-5.9s-2.6-5.9-5.9-5.9c-0.3,0-0.5,0.2-0.5,0.5v2.7
	c0,0.3,0.2,0.5,0.5,0.5c1.2,0,2.3,1,2.3,2.3s-1,2.3-2.3,2.3s-2.3-1-2.3-2.3V11c0-0.3-0.2-0.5-0.5-0.5H6.2z"/>
</svg>
