<?xml version="1.0" encoding="utf-8"?>
<!-- Generator: Adobe Illustrator 25.4.1, SVG Export Plug-In . SVG Version: 6.00 Build 0)  -->
<svg version="1.1" id="Layer_1" xmlns="http://www.w3.org/2000/svg" xmlns:xlink="http://www.w3.org/1999/xlink" x="0px" y="0px"
	 viewBox="0 0 32 32" style="enable-background:new 0 0 32 32;" xml:space="preserve">
<style type="text/css">
	.st0{fill-rule:evenodd;clip-rule:evenodd;fill:#FFFFFF;}
</style>
<path d="M25.7,31H6.3C3.4,31,1,28.6,1,25.7V6.3C1,3.4,3.4,1,6.3,1h19.4C28.6,1,31,3.4,31,6.3v19.4C31,28.6,28.6,31,25.7,31z"/>
<path class="st0" d="M16.3,18.3c1-0.7,1.8-1.3,2.4-1.9l-0.2-1.1c0.2-0.3,0.5-1.2,0.7-2.1l0,0c0.3,0.1,0.6-0.5,0.7-1.2
	c0.1-0.7,0.1-1.3-0.2-1.4c0.1-0.4,0.1-0.7,0.1-1c0.1-0.9,0.1-1.5-0.1-2c-0.7-2.7-5.7-4.3-7-1.1c-0.3,0-0.7,0.6-0.8,1
	c-0.1,0.5-0.2,1.2-0.1,2.1c0,0.3,0.1,0.6,0.1,1c-0.2,0.1-0.3,0.7-0.2,1.4c0.2,0.7,0.5,1.2,0.7,1.2l0,0c0.2,0.9,0.5,1.8,0.7,2.1
	l-0.2,1.1c0.6,0.6,1.5,1.3,2.4,1.9c-0.3,0.2-0.7,0.7-0.7,0.9c0.3,0.3,0.4,0.6,0.6,0.9c-0.5,0.6-1,3.1-1,3.9l-1.6-5.4
	c-0.2-0.6-0.2-1.3-0.2-1.9l-3.9,1.7c-1,0.4-1.9,1.5-2.1,2.6l-0.4,1.8c-0.2,1.1-0.6,1.7,0.6,2.4c1.7,0.9,5.4,1.3,9.2,1.3
	c3.7,0,7.5-0.4,9.2-1.3c1.2-0.7,0.8-1.3,0.6-2.4l-0.4-1.8c-0.2-1.1-1.1-2.2-2.1-2.6l-3.9-1.7c0,0.6-0.1,1.4-0.2,1.9L17.5,24
	c0-0.8-0.5-3.3-1-3.9c0.1-0.4,0.3-0.6,0.6-0.9C17,19.1,16.7,18.6,16.3,18.3L16.3,18.3z"/>
</svg>
