<?xml version="1.0" encoding="utf-8"?>
<!-- Generator: Adobe Illustrator 25.4.1, SVG Export Plug-In . SVG Version: 6.00 Build 0)  -->
<svg version="1.1" id="Layer_1" xmlns="http://www.w3.org/2000/svg" xmlns:xlink="http://www.w3.org/1999/xlink" x="0px" y="0px"
	 viewBox="0 0 32 32" style="enable-background:new 0 0 32 32;" xml:space="preserve">
<style type="text/css">
	.st0{fill:#FFFFFF;}
</style>
<path d="M26,31H6.6c-2.9,0-5.3-2.4-5.3-5.3V6.3C1.3,3.4,3.7,1,6.6,1H26c2.9,0,5.3,2.4,5.3,5.3v19.4C31.3,28.6,28.9,31,26,31z"/>
<g>
	<path class="st0" d="M20.4,28h-8.2c-1.5,0-2.7-1.2-2.7-2.7V6.7c0-1.5,1.2-2.7,2.7-2.7h8.2c1.5,0,2.7,1.2,2.7,2.7v18.5
		C23.1,26.8,21.9,28,20.4,28z M12.2,5.3c-0.8,0-1.5,0.7-1.5,1.5v18.5c0,0.8,0.7,1.5,1.5,1.5h8.2c0.8,0,1.5-0.7,1.5-1.5V6.7
		c0-0.8-0.7-1.5-1.5-1.5H12.2z"/>
</g>
<g>
	<path class="st0" d="M14.9,9.2h-2.1c-0.6,0-1.1-0.5-1.1-1.1V7.5c0-0.6,0.5-1.1,1.1-1.1h2.1c0.6,0,1.1,0.5,1.1,1.1v0.5
		c0,0.3-0.1,0.6-0.3,0.8C15.4,9.1,15.2,9.2,14.9,9.2z"/>
</g>
<path d="M14.9,8.9h-2.1c-0.5,0-0.8-0.4-0.8-0.8V7.5c0-0.5,0.4-0.8,0.8-0.8h2.1c0.5,0,0.8,0.4,0.8,0.8v0.5
	C15.7,8.5,15.3,8.9,14.9,8.9z"/>
</svg>
