<?xml version="1.0" encoding="utf-8"?>
<!-- Generator: Adobe Illustrator 25.4.1, SVG Export Plug-In . SVG Version: 6.00 Build 0)  -->
<svg version="1.1" id="Layer_1" xmlns="http://www.w3.org/2000/svg" xmlns:xlink="http://www.w3.org/1999/xlink" x="0px" y="0px"
	 viewBox="0 0 32 32" style="enable-background:new 0 0 32 32;" xml:space="preserve">
<style type="text/css">
	.st0{fill:#FFFFFF;}
</style>
<path d="M26,31H6.6c-2.9,0-5.3-2.4-5.3-5.3V6.3C1.3,3.4,3.7,1,6.6,1H26c2.9,0,5.3,2.4,5.3,5.3v19.4C31.3,28.6,28.9,31,26,31z"/>
<path class="st0" d="M12.4,8.2l1.4,1.4l-2,2.1l-0.1,0.1l0.1,0.1l2.2,2.4l0.1,0.1l0.1-0.1l3-3.3l1.5-1.6l1.5-1.7l0,0l0,0L18,5.3
	l-1.7,1.8c-0.9-1-1.8-2-2.7-2.9l-0.1-0.1l-0.1,0.1l-0.6,0.6l-0.1,0.1L12.8,5l2.7,2.8l-1,1.1l-2.9-3l-0.1-0.1l-0.1,0.1l-0.6,0.6
	l-0.1,0.1l0.1,0.1L12.4,8.2z"/>
<path class="st0" d="M8.6,25.6l0.1,0.1c0.1,0.1,0.1,0.1,0.2,0.1C9,26,9.1,26.1,9.3,26.2c0.3,0.1,0.6,0.2,0.8,0.2
	c0.5,0,1-0.1,1.4-0.3c0.9-0.3,1.7-0.8,2.5-1.2c0.8-0.4,1.6-0.8,2.4-1.1c0.4-0.1,0.8-0.2,1.1-0.2c0.4,0,0.7,0,0.9,0.2
	c0.1,0,0.1,0.1,0.2,0.1l0,0l0,0c0,0,0,0,0,0l0,0l0.1,0.1c0,0,0.1,0.1,0.1,0.1c0.1,0.1,0.2,0.2,0.3,0.4c0.1,0.3,0.2,0.6,0.1,0.9
	c0,0.3-0.2,0.6-0.4,0.9c-0.2,0.3-0.4,0.5-0.6,0.7c-0.5,0.4-1,0.7-1.5,1c-0.5,0.2-0.9,0.3-1.3,0.3c-0.4,0-0.7,0-0.9-0.1
	c-0.2-0.1-0.3-0.1-0.3-0.1s0,0,0.1,0c0,0,0.1,0.1,0.2,0.1c0.2,0.1,0.5,0.2,0.9,0.3c0.4,0.1,0.9,0.1,1.5-0.1c0.6-0.1,1.2-0.4,1.8-0.8
	c0.3-0.2,0.6-0.5,0.9-0.8c0.3-0.3,0.5-0.7,0.6-1.2c0.1-0.2,0.1-0.5,0.1-0.8c0-0.3-0.1-0.5-0.2-0.8c-0.1-0.3-0.3-0.5-0.4-0.7
	c0-0.1-0.1-0.1-0.1-0.1L19.4,23l0,0l0,0l0,0c-0.1-0.1-0.2-0.2-0.3-0.3c-0.5-0.3-1-0.4-1.5-0.4c-0.5,0-1,0.1-1.5,0.3
	c-0.9,0.3-1.7,0.8-2.5,1.2c-0.8,0.4-1.6,0.9-2.3,1.2c-0.4,0.2-0.8,0.3-1.1,0.3c-0.2,0-0.3,0-0.5,0c-0.1,0-0.1-0.1-0.2-0.1
	c0,0-0.1-0.1-0.1-0.1L9.2,25c-0.2-0.2-0.4-0.5-0.4-0.9c0-0.3,0.1-0.7,0.2-1c0.3-0.7,0.7-1.3,1.1-1.8c0.1,0,0.1,0,0.2,0
	c0.2,0,0.4,0,0.5-0.1c0.1,0,0.2-0.1,0.2-0.2l0.2-0.2l0.3-0.3l1.3-1.2l0.8,0.9l0.1,0.1c0,0,0,0,0.1,0.1l0.1,0.1
	c0.1,0.1,0.2,0.2,0.3,0.2c0.2,0.1,0.4,0.2,0.6,0.3c0.5,0.1,1,0.1,1.4-0.1c0.2-0.1,0.4-0.2,0.6-0.4c0.2-0.2,0.3-0.3,0.5-0.5
	c1.2-1.4,2.4-2.7,3.6-4.1l1.8-2l0.9-1c0.2-0.2,0.3-0.3,0.4-0.6c0.1-0.2,0.2-0.4,0.3-0.7c0.1-0.5,0.1-1-0.1-1.4
	c-0.1-0.2-0.2-0.4-0.4-0.6c-0.2-0.2-0.3-0.3-0.5-0.5l-1.9-2l-3.1,3.4l-3.1,3.4c-1,1.1-2.1,2.2-3.1,3.4L10.7,19l-0.8,0.8
	c0,0,0,0-0.1,0.1c0,0,0,0,0,0.1c0,0.1-0.1,0.1-0.1,0.2c0,0.1-0.1,0.2-0.1,0.3c0,0.2,0,0.4,0.1,0.5c-0.5,0.5-0.9,1.1-1.3,1.8
	c-0.2,0.4-0.4,0.8-0.4,1.4c0,0.3,0,0.5,0.1,0.8C8.3,25.2,8.4,25.4,8.6,25.6"/>
</svg>
