<?xml version="1.0" encoding="utf-8"?>
<!-- Generator: Adobe Illustrator 25.4.1, SVG Export Plug-In . SVG Version: 6.00 Build 0)  -->
<svg version="1.1" id="Layer_1" xmlns="http://www.w3.org/2000/svg" xmlns:xlink="http://www.w3.org/1999/xlink" x="0px" y="0px"
	 viewBox="0 0 32 32" style="enable-background:new 0 0 32 32;" xml:space="preserve">
<style type="text/css">
	.st0{fill:#FFFFFF;}
	.st1{fill:none;}
	.st2{display:none;}
</style>
<path d="M26,31H6.6c-2.9,0-5.3-2.4-5.3-5.3V6.3C1.3,3.4,3.7,1,6.6,1H26c2.9,0,5.3,2.4,5.3,5.3v19.4C31.3,28.6,28.9,31,26,31z"/>
<path class="st0" d="M-247.4-59.1"/>
<rect x="4.6" y="5.9" class="st1" width="36.4" height="32.4"/>
<g class="st2">
</g>
<g>
	<path class="st0" d="M20.9,18.9h3.5v1.9c0,2-1.4,3.5-3.2,3.5H8.9v-3.1h2.6v-3.6H9.7v-1.7h1.8v-3.4c0-3.7,2.4-5.8,5.6-5.8
		c3.2,0,5.9,1.7,5.9,6.1h-3.5c0-2-1-2.8-2.4-2.8C16,9.9,15,11,15,12.6v3.3h3.2v1.7H15v3.6h5.1c0.6,0,0.8-0.4,0.8-1V18.9z"/>
</g>
</svg>
