<?xml version="1.0" encoding="utf-8"?>
<!-- Generator: Adobe Illustrator 25.4.1, SVG Export Plug-In . SVG Version: 6.00 Build 0)  -->
<svg version="1.1" id="Layer_1" xmlns="http://www.w3.org/2000/svg" xmlns:xlink="http://www.w3.org/1999/xlink" x="0px" y="0px"
	 viewBox="0 0 32 32" style="enable-background:new 0 0 32 32;" xml:space="preserve">
<style type="text/css">
	.st0{fill:#FFFFFF;}
</style>
<path d="M26,31H6.6c-2.9,0-5.3-2.4-5.3-5.3V6.3C1.3,3.4,3.7,1,6.6,1H26c2.9,0,5.3,2.4,5.3,5.3v19.4C31.3,28.6,28.9,31,26,31z"/>
<path class="st0" d="M25.5,20.2l-4.1-1.8c-0.4-0.2-0.8-0.1-1,0.3L18.5,21c-2.9-1.4-5.2-3.7-6.6-6.6l2.2-1.8c0.3-0.2,0.4-0.7,0.3-1
	l-1.8-4.1c-0.2-0.4-0.6-0.6-1-0.5L7.8,7.8C7.4,7.9,7.1,8.2,7.1,8.6c0,9.5,7.7,17.2,17.2,17.2c0.4,0,0.8-0.3,0.9-0.7l0.9-3.8
	C26.1,20.8,25.9,20.4,25.5,20.2L25.5,20.2z"/>
</svg>
