<?xml version="1.0" encoding="utf-8"?>
<!-- Generator: Adobe Illustrator 25.4.1, SVG Export Plug-In . SVG Version: 6.00 Build 0)  -->
<svg version="1.1" id="Layer_1" xmlns="http://www.w3.org/2000/svg" xmlns:xlink="http://www.w3.org/1999/xlink" x="0px" y="0px"
	 viewBox="0 0 32 32" style="enable-background:new 0 0 32 32;" xml:space="preserve">
<style type="text/css">
	.st0{fill:#FFFFFF;}
</style>
<path d="M26,31H6.6c-2.9,0-5.3-2.4-5.3-5.3V6.3C1.3,3.4,3.7,1,6.6,1H26c2.9,0,5.3,2.4,5.3,5.3v19.4C31.3,28.6,28.9,31,26,31z"/>
<path class="st0" d="M-247.4-59.1"/>
<g>
	<path class="st0" d="M19.1,15.1H5.6c-0.8,0-1.5-0.7-1.5-1.5V6.4c0-0.8,0.7-1.5,1.5-1.5h13.5c0.8,0,1.5,0.7,1.5,1.5v7.2
		C20.6,14.4,20,15.1,19.1,15.1z"/>
	<polygon class="st0" points="10.9,15.1 9.5,18.1 13.6,15.1 	"/>
	<path class="st0" d="M14.1,26.6h13.5c0.8,0,1.5-0.7,1.5-1.5v-7.2c0-0.8-0.7-1.5-1.5-1.5H14.1c-0.8,0-1.5,0.7-1.5,1.5v7.2
		C12.6,25.9,13.3,26.6,14.1,26.6z"/>
	<polygon class="st0" points="22.3,26.6 23.7,29.6 19.7,26.6 	"/>
	<path d="M15.7,13c-0.4,0.5-1,0.7-1.6,0.7c-0.8,0-1.5-0.3-2.4-1.3c-1.7-0.2-3-1.5-3-3.2C8.7,7.4,10.1,6,12,6c1.9,0,3.4,1.4,3.4,3.2
		c0,1.5-0.9,2.7-2.3,3.1c0.4,0.4,0.7,0.5,1,0.5c0.4,0,0.8-0.2,1.1-0.5L15.7,13z M12,11.4c1.3,0,2.2-0.9,2.2-2.2
		C14.2,7.9,13.3,7,12,7c-1.3,0-2.2,0.9-2.2,2.2C9.8,10.5,10.8,11.4,12,11.4z"/>
	<path d="M22.7,23.2h-3.1l-0.6,1.4h-1.2l2.8-6.2h1.1l2.8,6.2h-1.2L22.7,23.2z M22.3,22.3l-1.2-2.7l-1.2,2.7H22.3z"/>
</g>
</svg>
