<?xml version="1.0" encoding="utf-8"?>
<!-- Generator: Adobe Illustrator 25.4.1, SVG Export Plug-In . SVG Version: 6.00 Build 0)  -->
<svg version="1.1" id="Layer_1" xmlns="http://www.w3.org/2000/svg" xmlns:xlink="http://www.w3.org/1999/xlink" x="0px" y="0px"
	 viewBox="0 0 32 32" style="enable-background:new 0 0 32 32;" xml:space="preserve">
<style type="text/css">
	.st0{fill:#FFFFFF;}
</style>
<path d="M25.7,31H6.3C3.4,31,1,28.6,1,25.7V6.3C1,3.4,3.4,1,6.3,1h19.4C28.6,1,31,3.4,31,6.3v19.4C31,28.6,28.6,31,25.7,31z"/>
<path class="st0" d="M27.6,15.9c-1.4-4-1.8-7.5-6.5-5.8c0,0,0,0,0,0c-0.8,0.3-1.6,0.4-2.4,0.4h-1.8v-3c0-0.5-0.4-0.9-0.9-0.9
	c-0.5,0-0.9,0.4-0.9,0.9v3h-1.8c-0.8,0-1.6-0.2-2.4-0.4c0,0,0,0,0,0c-4.8-1.7-5.1,1.8-6.5,5.8c-1.4,4-0.8,7.9,1.4,8.6
	c2.2,0.8,5.1-1.9,6.5-5.9c0,0,0,0,0,0h7.5c0,0,0,0,0,0c1.4,4,4.3,6.6,6.5,5.9C28.4,23.7,29,19.9,27.6,15.9z M12.2,15.2
	c0,0.2-0.1,0.3-0.3,0.3h-1.3v1.3c0,0.2-0.1,0.3-0.3,0.3H9.4c-0.2,0-0.3-0.1-0.3-0.3v-1.3H7.8c-0.2,0-0.3-0.1-0.3-0.3v-0.9
	c0-0.2,0.1-0.3,0.3-0.3h1.3v-1.3c0-0.2,0.1-0.3,0.3-0.3h0.9c0.2,0,0.3,0.1,0.3,0.3V14h1.3c0.2,0,0.3,0.1,0.3,0.3V15.2z M22.3,12
	c0.5,0,0.9,0.4,0.9,0.9c0,0.5-0.4,0.9-0.9,0.9c-0.5,0-0.9-0.4-0.9-0.9C21.4,12.4,21.8,12,22.3,12z M20.5,15.7
	c-0.5,0-0.9-0.4-0.9-0.9c0-0.5,0.4-0.9,0.9-0.9c0.5,0,0.9,0.4,0.9,0.9C21.4,15.3,21,15.7,20.5,15.7z M22.3,17.5
	c-0.5,0-0.9-0.4-0.9-0.9c0-0.5,0.4-0.9,0.9-0.9c0.5,0,0.9,0.4,0.9,0.9C23.2,17.1,22.8,17.5,22.3,17.5z M24.2,15.7
	c-0.5,0-0.9-0.4-0.9-0.9c0-0.5,0.4-0.9,0.9-0.9c0.5,0,0.9,0.4,0.9,0.9C25.1,15.3,24.7,15.7,24.2,15.7z"/>
</svg>
