<?xml version="1.0" encoding="utf-8"?>
<!-- Generator: Adobe Illustrator 25.4.1, SVG Export Plug-In . SVG Version: 6.00 Build 0)  -->
<svg version="1.1" id="Layer_1" xmlns="http://www.w3.org/2000/svg" xmlns:xlink="http://www.w3.org/1999/xlink" x="0px" y="0px"
	 viewBox="0 0 32 32" style="enable-background:new 0 0 32 32;" xml:space="preserve">
<style type="text/css">
	.st0{fill:#FFFFFF;}
	.st1{fill:none;}
	.st2{display:none;}
</style>
<path d="M26,31H6.6c-2.9,0-5.3-2.4-5.3-5.3V6.3C1.3,3.4,3.7,1,6.6,1H26c2.9,0,5.3,2.4,5.3,5.3v19.4C31.3,28.6,28.9,31,26,31z"/>
<path class="st0" d="M-247.4-59.1"/>
<rect x="4.6" y="5.9" class="st1" width="36.4" height="32.4"/>
<g class="st2">
</g>
<g>
	<path class="st0" d="M11.2,5.3c0.8,0.1,1.6,0.4,2.3,0.8c0.7,0.4,1.3,0.8,1.9,1.4c0.3,0.3,0.5,0.7,0.4,1.2c-0.1,0.4-0.4,0.6-0.7,0.8
		c-0.5,0.3-1.1,0.4-1.7,0.5c-1,0.1-2.1,0.2-3.1-0.2C8.9,9.4,8.3,8.5,8.4,7.3C8.5,6.6,8.8,6,9.4,5.6c0.3-0.2,0.6-0.3,1.1-0.4
		C10.8,5.2,11.1,5.3,11.2,5.3z M12,7c-0.4-0.2-0.9-0.3-1.3-0.2c-0.2,0-0.4,0.2-0.5,0.4c-0.2,0.7-0.1,1,0.5,1.3
		c0.7,0.3,1.4,0.2,2.1,0.2c0.4,0,0.7-0.1,1.1-0.2c0,0,0-0.1,0-0.1C13.4,7.8,12.8,7.3,12,7z M21.9,5.3c0.4,0,0.7,0.2,1.1,0.4
		c0.6,0.4,0.8,1,0.9,1.6c0.2,1.2-0.4,2.2-1.7,2.5c-1,0.3-2.1,0.3-3.1,0.2c-0.6-0.1-1.2-0.2-1.7-0.5c-0.3-0.2-0.6-0.4-0.7-0.8
		c-0.2-0.5,0.1-0.9,0.4-1.2c0.5-0.6,1.2-1,1.9-1.4c0.7-0.4,1.5-0.7,2.3-0.8C21.2,5.3,21.6,5.2,21.9,5.3z M18.3,8.3
		C18.3,8.4,18.4,8.4,18.3,8.3c0.4,0.2,0.8,0.3,1.1,0.3c0.7,0.1,1.4,0.1,2.1-0.2c0.6-0.2,0.7-0.5,0.5-1.3C22,7,21.9,6.8,21.6,6.8
		c-0.5-0.1-0.9,0.1-1.3,0.2C19.6,7.3,18.9,7.8,18.3,8.3z"/>
	<path class="st0" d="M15.3,21.9c0,1.4,0,2.8,0,4.2c0,0.3-0.1,0.4-0.4,0.4c-2.2,0-4.4,0-6.6,0c-0.7,0-1.1-0.4-1.1-1.1
		c0-2.4,0-4.7,0-7.1c0-0.7,0.4-1.1,1.1-1.1c2.2,0,4.4,0,6.6,0c0.4,0,0.5,0.1,0.5,0.5C15.3,19.1,15.3,20.5,15.3,21.9z"/>
	<path class="st0" d="M17,21.9c0-1.4,0-2.8,0-4.2c0-0.4,0.1-0.5,0.5-0.5c2.2,0,4.4,0,6.6,0c0.7,0,1.1,0.4,1.1,1.1c0,2.4,0,4.8,0,7.1
		c0,0.7-0.4,1.1-1.1,1.1c-2.2,0-4.5,0-6.7,0c-0.3,0-0.4-0.1-0.4-0.4C17,24.7,17,23.3,17,21.9z"/>
	<path class="st0" d="M11,11c1.3,0,2.6,0,3.9,0c0.4,0,0.5,0.1,0.5,0.5c0,1.4,0,2.8,0,4.2c0,0.3-0.1,0.4-0.4,0.4c-2.6,0-5.2,0-7.8,0
		c-0.7,0-1.1-0.4-1.1-1.1c0-0.9,0-1.9,0-2.8c0-0.7,0.4-1.1,1.1-1.1C8.4,11,9.7,11,11,11z"/>
	<path class="st0" d="M21.4,11c1.3,0,2.5,0,3.8,0c0.7,0,1.1,0.4,1.1,1.1c0,0.9,0,1.9,0,2.8c0,0.7-0.4,1.1-1.1,1.1
		c-2.6,0-5.1,0-7.7,0c-0.1,0-0.1,0-0.2,0c-0.2,0-0.3-0.1-0.3-0.3c0-1.5,0-2.9,0-4.4c0-0.3,0.1-0.4,0.4-0.4C18.7,11,20,11,21.4,11z"
		/>
</g>
</svg>
