<?xml version="1.0" encoding="utf-8"?>
<!-- Generator: Adobe Illustrator 25.4.1, SVG Export Plug-In . SVG Version: 6.00 Build 0)  -->
<svg version="1.1" id="Layer_1" xmlns="http://www.w3.org/2000/svg" xmlns:xlink="http://www.w3.org/1999/xlink" x="0px" y="0px"
	 viewBox="0 0 32 32" style="enable-background:new 0 0 32 32;" xml:space="preserve">
<style type="text/css">
	.st0{fill:#FFFFFF;}
</style>
<path d="M26,31H6.6c-2.9,0-5.3-2.4-5.3-5.3V6.3C1.3,3.4,3.7,1,6.6,1H26c2.9,0,5.3,2.4,5.3,5.3v19.4C31.3,28.6,28.9,31,26,31z"/>
<g>
	<path class="st0" d="M26.8,17.3c0,0.3-0.1,0.5-0.1,0.8c0,0-0.1-0.1-0.1-0.1c-0.3-0.2-0.7-0.4-1-0.6c-0.1-0.1-0.2-0.1-0.2-0.2
		c-0.1-0.5-0.3-0.8-0.7-1.2c-0.1-0.1-0.2-0.3-0.2-0.5c-0.5-2.8-2-4.9-4.5-6.2c-1.6-0.8-3.3-1.1-5-0.8c-2.7,0.5-4.8,1.9-6.1,4.4
		c-0.4,0.8-0.7,1.7-0.8,2.6C8,15.7,8,15.9,7.8,16c-0.3,0.3-0.6,0.7-0.7,1.1c0,0.1-0.1,0.2-0.1,0.2c-0.4,0.2-0.8,0.4-1.1,0.7
		c0,0,0,0-0.1,0c0-0.7-0.1-1.3,0-1.9c0.1-1.6,0.5-3.1,1.2-4.4c1.7-3,4.2-4.9,7.5-5.4c3.1-0.5,6,0.2,8.4,2.2c2,1.6,3.3,3.8,3.8,6.4
		c0.1,0.4,0.1,0.8,0.2,1.2C26.8,16.5,26.8,16.9,26.8,17.3z"/>
	<path class="st0" d="M8.3,24.2c-0.4-0.1-0.7-0.1-1-0.3c-0.7-0.3-1.1-0.9-1.1-1.7c0-0.7,0-1.3,0-2c-0.1-1.1,0.9-1.8,1.8-1.9
		c0.1,0,0.2,0,0.3,0c0-0.2,0-0.3,0-0.5c0-0.6,0.3-1,0.8-1.2c0.7-0.3,1.5-0.1,1.9,0.5c0.1,0.2,0.2,0.4,0.2,0.6c0,2.3,0,4.7,0,7
		c0,0.9-0.8,1.3-1.5,1.3c-0.6,0-1.1-0.3-1.3-0.9c-0.1-0.1-0.1-0.3-0.1-0.4C8.3,24.6,8.3,24.4,8.3,24.2z"/>
	<path class="st0" d="M24.2,18.3c0.4,0.1,0.7,0.1,1,0.3c0.7,0.3,1.1,0.9,1.1,1.7c0,0.7,0,1.3,0,2c0,0.9-0.6,1.6-1.4,1.8
		c-0.2,0.1-0.5,0.1-0.7,0.1c0,0.2,0,0.3,0,0.5c0,0.6-0.3,1-0.8,1.2c-0.7,0.3-1.5,0.1-1.9-0.5c-0.1-0.2-0.2-0.4-0.2-0.6
		c0-2.3,0-4.7,0-7c0-0.9,0.8-1.3,1.5-1.3c0.6,0,1.1,0.3,1.3,0.9c0.1,0.2,0.1,0.4,0.1,0.6C24.2,18.1,24.2,18.2,24.2,18.3z"/>
</g>
</svg>
