<?xml version="1.0" encoding="utf-8"?>
<!-- Generator: Adobe Illustrator 25.4.1, SVG Export Plug-In . SVG Version: 6.00 Build 0)  -->
<svg version="1.1" id="Layer_1" xmlns="http://www.w3.org/2000/svg" xmlns:xlink="http://www.w3.org/1999/xlink" x="0px" y="0px"
	 viewBox="0 0 32 32" style="enable-background:new 0 0 32 32;" xml:space="preserve">
<style type="text/css">
	.st0{fill:#FFFFFF;stroke:#FFFFFF;stroke-width:0.5;stroke-miterlimit:10;}
</style>
<path d="M25.7,31H6.3C3.4,31,1,28.6,1,25.7V6.3C1,3.4,3.4,1,6.3,1h19.4C28.6,1,31,3.4,31,6.3v19.4C31,28.6,28.6,31,25.7,31z"/>
<g>
	<g>
		<path class="st0" d="M16.8,23.3h-1.9c-0.4,0-0.8,0.4-0.8,0.8v2c0,0.4,0.4,0.8,0.8,0.8h1.9c0.4,0,0.8-0.4,0.8-0.8v-2
			C17.6,23.7,17.2,23.3,16.8,23.3z"/>
		<path class="st0" d="M16.1,5.1c-3,0-5.8,1.7-6.3,4.9c-0.1,0.5,0.3,0.9,0.8,0.9h1.4c0.4,0,0.7-0.2,0.8-0.6c0.4-1.5,1.8-2.4,3.4-2.4
			c1.9,0,3.3,1.2,3.3,3.1c0,1.7-1.1,2.6-2.3,3.4c-1.3,1-2.8,2.1-2.8,4.7c0,0,0,0.1,0,0.1v1.4c0,0.3,0.3,0.5,0.7,0.5h1.7
			c0.4,0,0.7-0.2,0.7-0.5v-0.6h0v-0.6c0-1.6,1.1-2.5,2.2-3.4c1.4-1,2.8-2.2,2.8-5C22.5,7.2,19.5,5.1,16.1,5.1z"/>
	</g>
</g>
</svg>
