<?xml version="1.0" encoding="utf-8"?>
<!-- Generator: Adobe Illustrator 25.4.1, SVG Export Plug-In . SVG Version: 6.00 Build 0)  -->
<svg version="1.1" id="Layer_1" xmlns="http://www.w3.org/2000/svg" xmlns:xlink="http://www.w3.org/1999/xlink" x="0px" y="0px"
	 viewBox="0 0 32 32" style="enable-background:new 0 0 32 32;" xml:space="preserve">
<style type="text/css">
	.st0{fill-rule:evenodd;clip-rule:evenodd;fill:#FFFFFF;}
	.st1{fill:#FFFFFF;}
</style>
<path d="M26,31H6.6c-2.9,0-5.3-2.4-5.3-5.3V6.3C1.3,3.4,3.7,1,6.6,1H26c2.9,0,5.3,2.4,5.3,5.3v19.4C31.3,28.6,28.9,31,26,31z"/>
<g id="XMLID_1_">
	<path id="XMLID_8_" class="st0" d="M16.8,23.6c-1.6,0-3.1-0.5-4.3-1.3l-3,1l1-2.9c-0.9-1.3-1.5-2.9-1.5-4.6c0-0.3,0-0.5,0-0.8
		c0.4-4,3.8-7.1,7.9-7.1c4.2,0,7.6,3.2,7.9,7.2c0,0.2,0,0.4,0,0.6C24.8,20.1,21.2,23.6,16.8,23.6L16.8,23.6z M26.2,15.5
		c-0.1-5-4.3-9.1-9.4-9.1c-5.1,0-9.2,4-9.4,8.9c0,0.1,0,0.3,0,0.4c0,1.8,0.5,3.4,1.4,4.8l-1.7,5l5.2-1.7c1.3,0.7,2.9,1.2,4.5,1.2
		c5.2,0,9.4-4.2,9.4-9.3C26.3,15.7,26.2,15.6,26.2,15.5L26.2,15.5z"/>
	<path id="XMLID_21_" class="st1" d="M16.7,20.8c-0.7,0-1.2-0.6-1.2-1.2c0-0.7,0.6-1.2,1.2-1.2c0.7,0,1.2,0.6,1.2,1.2
		C18,20.3,17.4,20.8,16.7,20.8z M15.6,17.8L15.6,17.8c0-0.5,0-0.9,0.1-1.1c0.1-0.3,0.2-0.5,0.4-0.7c0.2-0.2,0.7-0.6,1.4-1.2
		c0.4-0.4,0.7-0.7,0.7-1c0-0.3-0.1-0.6-0.3-0.8c-0.2-0.2-0.5-0.3-0.9-0.3c-0.4,0-0.7,0.1-1,0.4c-0.2,0.2-0.4,0.6-0.5,1.1l-2.3-0.3
		c0.1-0.9,0.5-1.6,1-2.1c0.6-0.6,1.5-0.9,2.8-0.9c1,0,1.8,0.2,2.4,0.6c0.8,0.5,1.2,1.3,1.2,2.2c0,0.4-0.1,0.7-0.3,1.1
		C20.1,15,19.7,15.5,19,16c-0.5,0.4-0.8,0.7-1,1c-0.1,0.2-0.2,0.5-0.2,0.8L15.6,17.8L15.6,17.8z"/>
</g>
</svg>
