<?xml version="1.0" encoding="utf-8"?>
<!-- Generator: Adobe Illustrator 25.4.1, SVG Export Plug-In . SVG Version: 6.00 Build 0)  -->
<svg version="1.1" id="Layer_1" xmlns="http://www.w3.org/2000/svg" xmlns:xlink="http://www.w3.org/1999/xlink" x="0px" y="0px"
	 viewBox="0 0 32 32" style="enable-background:new 0 0 32 32;" xml:space="preserve">
<style type="text/css">
	.st0{fill:#FFFFFF;}
</style>
<path d="M26,31H6.6c-2.9,0-5.3-2.4-5.3-5.3V6.3C1.3,3.4,3.7,1,6.6,1H26c2.9,0,5.3,2.4,5.3,5.3v19.4C31.3,28.6,28.9,31,26,31z"/>
<path class="st0" d="M18.5,10.9l1.9,1.5L19.2,14l-3.6-2.7C16.3,10.4,17.6,10.3,18.5,10.9 M22.4,13.9l-5.8,8l-3.9-3
	c-0.9-0.7-1.1-2.1-0.4-3l0.2-0.3l4.2,3.1l4.3-5.9L22.4,13.9z M23.9,15c0.9,0.7,1.1,1.8,0.6,2.8l-2.7-2l1.1-1.5L23.9,15z M22.9,20
	l-2.7-2l1.2-1.7l2.7,2L22.9,20z M21.3,22.3l-2.7-2l1.2-1.7l2.7,2L21.3,22.3z M18.1,23l-1-0.7l1.1-1.5l2.7,2
	C20.1,23.6,18.9,23.7,18.1,23 M13.9,13.6l3.6,2.7l-1.1,1.5l-3.6-2.7L13.9,13.6z M15.2,11.8l3.6,2.7l-0.9,1.2L14.3,13L15.2,11.8z
	 M10.9,8l-4.8,6.5c-0.5,0.6-0.4,1.6,0.3,2l12,9.2c0.7,0.5,1.6,0.4,2.1-0.3l6.3-8.5c0.5-0.6,0.4-1.6-0.3-2l-10-7.6
	c-0.3-0.2-0.7-0.3-1.1-0.3l-3.5,0.5C11.4,7.5,11.1,7.7,10.9,8z"/>
</svg>
