<?xml version="1.0" encoding="utf-8"?>
<!-- Generator: Adobe Illustrator 25.4.1, SVG Export Plug-In . SVG Version: 6.00 Build 0)  -->
<svg version="1.1" id="Layer_1" xmlns="http://www.w3.org/2000/svg" xmlns:xlink="http://www.w3.org/1999/xlink" x="0px" y="0px"
	 viewBox="0 0 32 32" style="enable-background:new 0 0 32 32;" xml:space="preserve">
<style type="text/css">
	.st0{fill:#FFFFFF;}
</style>
<path d="M25.7,31H6.3C3.4,31,1,28.6,1,25.7V6.3C1,3.4,3.4,1,6.3,1h19.4C28.6,1,31,3.4,31,6.3v19.4C31,28.6,28.6,31,25.7,31z"/>
<path class="st0" d="M10.4,17.9C9.5,16.8,9,15.4,9,14c0-1.4,0.5-2.8,1.4-3.9c0.5-0.6,1.3-0.6,1.9-0.2c0.3,0.3,0.5,0.7,0.5,1
	c0,0.3-0.1,0.6-0.3,0.9c-0.5,0.6-0.8,1.4-0.8,2.2s0.3,1.6,0.8,2.2c0.5,0.6,0.4,1.4-0.2,1.9C11.7,18.6,10.9,18.5,10.4,17.9z M8.7,7.5
	c0-0.4-0.2-0.8-0.5-1C7.6,5.9,6.8,6,6.3,6.6C4.5,8.7,3.6,11.3,3.6,14c0,2.7,1,5.3,2.7,7.4C6.8,22,7.6,22,8.2,21.5
	c0.6-0.5,0.6-1.3,0.2-1.9C7,18.1,6.3,16.1,6.3,14c0-2.1,0.7-4.1,2.1-5.7C8.6,8.1,8.7,7.8,8.7,7.5z M19.7,9.9c-0.3,0.3-0.5,0.7-0.5,1
	c0,0.3,0.1,0.6,0.3,0.9c0.5,0.6,0.8,1.4,0.8,2.2s-0.3,1.6-0.8,2.2c-0.5,0.6-0.4,1.4,0.2,1.9c0.6,0.5,1.4,0.4,1.9-0.2
	c0.9-1.1,1.4-2.5,1.4-3.9c0-1.4-0.5-2.8-1.4-3.9C21.1,9.5,20.3,9.4,19.7,9.9z M25.7,6.6c-0.5-0.6-1.3-0.6-1.9-0.2
	c-0.3,0.3-0.5,0.7-0.5,1c0,0.3,0.1,0.6,0.3,0.9c1.3,1.6,2.1,3.6,2.1,5.7c0,2.1-0.7,4.1-2.1,5.7c-0.5,0.6-0.4,1.4,0.2,1.9
	c0.6,0.5,1.4,0.4,1.9-0.2c1.7-2.1,2.7-4.7,2.7-7.4C28.4,11.3,27.5,8.7,25.7,6.6z M17.2,21.2v-5.3c0.7-0.4,1.1-1.1,1.1-1.9
	c0-1.2-1-2.2-2.2-2.2c-1.2,0-2.2,1-2.2,2.2c0,0.8,0.4,1.5,1.1,1.9v5.3c-2.1,0.5-3.7,2.4-3.7,4.7h9.7C20.8,23.6,19.3,21.7,17.2,21.2z
	"/>
</svg>
