<?xml version="1.0" encoding="utf-8"?>
<!-- Generator: Adobe Illustrator 25.4.1, SVG Export Plug-In . SVG Version: 6.00 Build 0)  -->
<svg version="1.1" id="Layer_1" xmlns="http://www.w3.org/2000/svg" xmlns:xlink="http://www.w3.org/1999/xlink" x="0px" y="0px"
	 viewBox="0 0 32 32" style="enable-background:new 0 0 32 32;" xml:space="preserve">
<style type="text/css">
	.st0{fill:#FFFFFF;}
</style>
<path d="M26,31H6.6c-2.9,0-5.3-2.4-5.3-5.3V6.3C1.3,3.4,3.7,1,6.6,1H26c2.9,0,5.3,2.4,5.3,5.3v19.4C31.3,28.6,28.9,31,26,31z"/>
<g>
	<path class="st0" d="M21.9,5.7c0.1,0,0.3,0,0.4,0c0.1,0,0.2,0.1,0.2,0.1c0.5,0.5,1,1,1.5,1.5c-0.6,0.6-1.3,1.3-1.9,1.9
		C22,9.2,21.8,9,21.7,8.9c-0.3-0.3-0.7-0.3-1,0c-0.3,0.3-0.3,0.7,0,1c0.6,0.7,1.3,1.3,1.9,1.9c0.2,0.2,0.4,0.2,0.7,0.2
		c0.5-0.1,0.7-0.7,0.3-1.1c-0.2-0.2-0.3-0.3-0.4-0.5c0.7-0.7,1.3-1.3,1.9-1.9c0.5,0.5,1,1,1.5,1.5c0.1,0.1,0.2,0.3,0.2,0.5
		c0,0.2-0.1,0.5-0.1,0.7c-0.3,2-0.6,3.9-0.8,5.9c0,0.3-0.1,0.5-0.3,0.7c-2.7,2.7-5.5,5.5-8.2,8.2c-0.2,0.2-0.4,0.3-0.6,0.5
		c-1,0.6-2.3,0.5-3.1-0.4c-1.4-1.4-2.7-2.7-4.1-4.1c-1-1-1.9-1.9-2.9-2.9c-1.1-1.1-1.1-2.6,0-3.6c2.8-2.8,5.5-5.5,8.3-8.3
		c0.1-0.1,0.3-0.2,0.5-0.2c1.7-0.3,3.5-0.5,5.2-0.7C21,5.9,21.5,5.8,21.9,5.7z M14.4,21.9c0.3,0,0.6-0.2,0.7-0.5
		c0.6-1.9,1.2-3.7,1.9-5.6c0.4-1.3,0.9-2.6,1.3-3.9c0.2-0.5-0.1-0.9-0.5-1c-0.4-0.1-0.7,0.1-0.8,0.6c-0.8,2.5-1.7,5-2.5,7.5
		c-0.2,0.7-0.4,1.3-0.7,2C13.6,21.5,13.9,21.9,14.4,21.9z M12.2,18.5c1.1,0,2-0.9,2-2c0-1.1-0.9-2.1-2.1-2.1c-1.1,0-2,0.9-2,2.1
		C10.1,17.5,11,18.5,12.2,18.5z M17.9,16.4c0,1.1,0.9,2,2.1,2c1.1,0,2-0.9,2-2c0-1.1-0.9-2.1-2.1-2.1C18.8,14.4,17.9,15.3,17.9,16.4
		z"/>
	<path class="st0" d="M26.2,5.7c0,0,0.1,0.1,0.1,0.1c0.4,0.2,0.5,0.7,0.2,1c-0.5,0.5-1,1-1.5,1.5c-0.3-0.3-0.6-0.6-0.9-0.9
		c0.5-0.5,1-1,1.5-1.5c0.1-0.1,0.2-0.1,0.2-0.2C26,5.7,26.1,5.7,26.2,5.7z"/>
	<path d="M14.4,21.9c-0.5,0-0.8-0.4-0.6-0.9c0.2-0.7,0.4-1.3,0.7-2c0.8-2.5,1.7-5,2.5-7.5c0.1-0.4,0.5-0.6,0.8-0.6
		c0.4,0.1,0.7,0.5,0.5,1c-0.4,1.3-0.9,2.6-1.3,3.9c-0.6,1.9-1.2,3.7-1.9,5.6C15,21.7,14.8,21.9,14.4,21.9z"/>
	<path d="M12.2,18.5c-1.1,0-2.1-0.9-2.1-2c0-1.1,0.9-2,2-2.1c1.1,0,2.1,0.9,2.1,2.1C14.2,17.5,13.3,18.5,12.2,18.5z M12.2,17.1
		c0.4,0,0.7-0.3,0.7-0.7c0-0.4-0.3-0.7-0.7-0.7c-0.4,0-0.7,0.3-0.7,0.7C11.5,16.8,11.8,17.1,12.2,17.1z"/>
	<path d="M17.9,16.4c0-1.1,0.9-2,2-2.1c1.1,0,2.1,0.9,2.1,2.1c0,1.1-0.9,2-2,2C18.8,18.5,17.9,17.6,17.9,16.4z M19.9,17.1
		c0.4,0,0.7-0.3,0.7-0.7c0-0.4-0.3-0.7-0.7-0.7c-0.4,0-0.7,0.3-0.7,0.7C19.2,16.8,19.5,17.1,19.9,17.1z"/>
	<path class="st0" d="M12.2,17.1c-0.4,0-0.7-0.3-0.7-0.7c0-0.4,0.3-0.7,0.7-0.7c0.4,0,0.7,0.3,0.7,0.7
		C12.8,16.8,12.5,17.1,12.2,17.1z"/>
	<path class="st0" d="M19.9,17.1c-0.4,0-0.7-0.3-0.7-0.7c0-0.4,0.3-0.7,0.7-0.7c0.4,0,0.7,0.3,0.7,0.7
		C20.6,16.8,20.3,17.1,19.9,17.1z"/>
</g>
</svg>
