<?xml version="1.0" encoding="utf-8"?>
<!-- Generator: Adobe Illustrator 25.4.1, SVG Export Plug-In . SVG Version: 6.00 Build 0)  -->
<svg version="1.1" id="Layer_1" xmlns="http://www.w3.org/2000/svg" xmlns:xlink="http://www.w3.org/1999/xlink" x="0px" y="0px"
	 viewBox="0 0 32 32" style="enable-background:new 0 0 32 32;" xml:space="preserve">
<style type="text/css">
	.st0{fill:#FFFFFF;}
</style>
<path d="M25.7,31H6.3C3.4,31,1,28.6,1,25.7V6.3C1,3.4,3.4,1,6.3,1h19.4C28.6,1,31,3.4,31,6.3v19.4C31,28.6,28.6,31,25.7,31z"/>
<path class="st0" d="M20.6,5.3h-9.3c-0.8,0-1.4,0.6-1.4,1.4v18.8c0,0.8,0.6,1.4,1.4,1.4h9.3c0.8,0,1.4-0.6,1.4-1.4V6.7
	C22.1,5.9,21.4,5.3,20.6,5.3z M16,26.6c-0.6,0-1-0.5-1-1c0-0.6,0.5-1,1-1s1,0.5,1,1C17,26.1,16.6,26.6,16,26.6z M20.9,24
	C20.9,24,20.9,24.1,20.9,24l-9.8,0c0,0,0,0,0,0V7c0,0,0,0,0,0h9.7c0,0,0,0,0,0V24z"/>
</svg>
