<?xml version="1.0" encoding="utf-8"?>
<!-- Generator: Adobe Illustrator 25.4.1, SVG Export Plug-In . SVG Version: 6.00 Build 0)  -->
<svg version="1.1" id="Layer_1" focusable="false" xmlns="http://www.w3.org/2000/svg" xmlns:xlink="http://www.w3.org/1999/xlink"
	 x="0px" y="0px" viewBox="0 0 512 512" style="enable-background:new 0 0 512 512;" xml:space="preserve">
<style type="text/css">
	.st0{fill-rule:evenodd;clip-rule:evenodd;fill:#000000;}
	.st1{fill:#000000;}
</style>
<g id="XMLID_1_">
	<path id="XMLID_8_" class="st0" d="M261.5,458.5c-42.6,0-82.1-12.6-115.2-34.4l-80.5,25.5l26.1-77.1c-25-34.3-39.8-76.4-39.8-121.9
		c0-6.8,0.3-13.5,0.9-20.2C63.4,125.3,152.9,42.8,261.7,42.8c110,0,200.4,84.6,208.8,191.6c0.4,5.2,0.7,10.7,0.7,16.2
		C471.1,365.3,377.1,458.5,261.5,458.5L261.5,458.5z M510.6,244.4c-3.4-133.7-113.5-241-248.9-241c-134,0-243.2,104.9-248.9,236.4
		c-0.2,3.6-0.4,7.2-0.4,10.8c0,46.7,13.1,90.4,35.8,127.6L3.2,511l138-43.9c35.7,19.6,76.7,30.8,120.5,30.8
		c137.5,0,249.1-110.7,249.1-247.3C510.8,248.6,510.7,246.5,510.6,244.4L510.6,244.4z"/>
	<path id="XMLID_21_" class="st1" d="M258.1,385.5c-18.2,0-33.1-14.8-33.1-33.1c0-18.2,14.8-33.1,33.1-33.1s33.1,14.8,33.1,33.1
		C291.2,370.6,276.4,385.5,258.1,385.5z M227.9,304.4v-1.8c0-11.6,1.3-21,3.8-27.8c2.5-7,6.3-13.4,11.3-19.1
		c5.3-6.1,17.5-17.1,36.3-32.7c11.7-9.5,17.4-18.5,17.4-27.3c0-8.6-2.7-15.4-8-20.4c-5.2-4.9-12.8-7.3-22.6-7.3
		c-10.5,0-19.4,3.6-26.3,10.6c-6,6.1-10,15.5-12.1,28.7l-62.2-7.7c3.1-22.9,12.2-41.8,27.1-56.1c15.9-15.3,41-23.1,74.7-23.1
		c26.2,0,47.5,5.5,63.4,16.2c21.5,14.5,31.9,33.3,31.9,57.3c0,9.6-2.7,19.1-8.1,28.1c-5.5,9.3-17.3,21.1-35,35
		c-13.4,10.6-21.8,19.3-25.6,26.3c-3.2,5.8-5,12.1-5.5,21.1H227.9z"/>
</g>
</svg>
