<?xml version="1.0" encoding="utf-8"?>
<!-- Generator: Adobe Illustrator 25.4.1, SVG Export Plug-In . SVG Version: 6.00 Build 0)  -->
<svg version="1.1" id="Layer_1" xmlns="http://www.w3.org/2000/svg" xmlns:xlink="http://www.w3.org/1999/xlink" x="0px" y="0px"
	 viewBox="0 0 32 32" style="enable-background:new 0 0 32 32;" xml:space="preserve">
<style type="text/css">
	.st0{fill:#FFFFFF;}
	.st1{fill:#EC008C;}
</style>
<path d="M25.7,31H6.3C3.4,31,1,28.6,1,25.7V6.3C1,3.4,3.4,1,6.3,1h19.4C28.6,1,31,3.4,31,6.3v19.4C31,28.6,28.6,31,25.7,31z"/>
<g>
	<path class="st0" d="M4.9,16.4H6c0,0.8,0.6,1.2,1.4,1.2c0.7,0,1.4-0.4,1.4-1c0-0.7-0.7-0.9-1.6-1.1c-1.1-0.3-2.3-0.5-2.3-2
		c0-1.2,0.9-2,2.4-2c1.5,0,2.4,0.8,2.4,2.1H8.6c0-0.7-0.6-1.1-1.3-1.1c-0.7,0-1.3,0.3-1.3,0.9c0,0.6,0.7,0.8,1.5,1
		c1.1,0.3,2.3,0.6,2.3,2c0,1.4-1.1,2.1-2.5,2.1C5.9,18.6,4.9,17.8,4.9,16.4z"/>
	<path class="st0" d="M15.2,17h-3.1l-0.6,1.5h-1.2l2.8-6.9h1.1l2.8,6.9h-1.2L15.2,17z M12.5,16h2.3l-1.1-2.9L12.5,16z"/>
	<path class="st0" d="M22,17.5v1.1h-4v-6.9h1.1v5.8H22z"/>
	<path class="st0" d="M27.1,17.5v1.1H23v-6.9h4v1.1h-2.9v1.8h2.6v1h-2.6v1.9H27.1z"/>
</g>
<path class="st1" d="M26.7,20.5H5.3c-0.2,0-0.4-0.2-0.4-0.4l0,0c0-0.2,0.2-0.4,0.4-0.4h21.4c0.2,0,0.4,0.2,0.4,0.4l0,0
	C27.1,20.3,26.9,20.5,26.7,20.5z"/>
</svg>
