<?xml version="1.0" encoding="utf-8"?>
<!-- Generator: Adobe Illustrator 25.4.1, SVG Export Plug-In . SVG Version: 6.00 Build 0)  -->
<svg version="1.1" id="Layer_1" xmlns="http://www.w3.org/2000/svg" xmlns:xlink="http://www.w3.org/1999/xlink" x="0px" y="0px"
	 viewBox="0 0 35.4 5.2" style="enable-background:new 0 0 35.4 5.2;" xml:space="preserve">
<style type="text/css">
	.st0{fill-rule:evenodd;clip-rule:evenodd;}
</style>
<g>
	<path class="st0" d="M19.3,2.4c0,0-0.3-0.2-0.6-0.3c0,0-0.7-0.3-0.8-0.4c0,0-0.3-0.2-0.1-0.5c0,0,0.1-0.2,0.3-0.2
		c0,0,0.4,0,0.4,0.3v0.4h1.3l0-0.6c0,0,0.1-1-1.5-1c0,0-1.2-0.1-1.6,0.6c0,0-0.1,0.1-0.1,0.7v0.4c0,0,0,0.4,0.2,0.7
		c0,0,0.1,0.2,0.4,0.4c0,0,0.6,0.3,1,0.5c0,0,0.4,0.2,0.3,0.6c0,0,0,0.4-0.4,0.3c0,0-0.3,0-0.3-0.4V3.4h-1.3V4c0,0,0,1.1,1.7,1.1
		c0,0,1.6,0,1.7-1.2V3.5C19.9,3.5,19.9,2.8,19.3,2.4L19.3,2.4z"/>
	<polygon class="st0" points="12.8,0.2 12.4,2.8 12.3,2.8 11.9,0.2 9.8,0.2 9.7,5 11,5 11,1.4 11.1,1.4 11.7,5 13,5 13.7,1.4 
		13.8,1.4 13.8,5 15.1,5 14.9,0.2 12.8,0.2 	"/>
	<polygon class="st0" points="5.4,0.2 4.6,5 5.9,5 6.4,1.3 6.5,1.3 7,5 8.4,5 7.5,0.2 5.4,0.2 	"/>
	<path class="st0" d="M33.5,2.3V3h0.3v0.8c0,0.4-0.3,0.4-0.3,0.4c-0.4,0-0.4-0.4-0.4-0.4V1.2c0-0.3,0.3-0.3,0.3-0.3
		c0.3,0,0.3,0.3,0.3,0.3v0.4h1.3c0-0.8-0.1-1-0.1-1C34.7,0,33.5,0,33.5,0c-1.8,0-1.6,1.4-1.6,1.4v2.5c0,1.3,1.8,1.2,1.9,1.2
		c0.8-0.1,1-0.3,1-0.3c0.2-0.2,0.3-0.4,0.3-0.4c0.1-0.1,0.1-0.6,0.1-0.6V2.3H33.5L33.5,2.3z"/>
	<polygon class="st0" points="29.4,3.1 29.3,3.1 28,0.2 26.5,0.2 26.5,5 27.7,5 27.7,2.1 27.7,2.1 29,5 30.5,5 30.5,0.2 29.3,0.2 
		29.4,3.1 	"/>
	<path class="st0" d="M23.5,3.8c0,0,0,0.4-0.3,0.4c0,0-0.4,0-0.4-0.4l0-3.6h-1.4v3.6c0,0-0.1,1.4,1.8,1.4c0,0,1.7,0,1.7-1.3V0.2
		h-1.3V3.8L23.5,3.8z"/>
	<path class="st0" d="M2.8,2.4c0,0-0.3-0.2-0.6-0.3c0,0-0.7-0.3-0.8-0.4c0,0-0.3-0.2-0.1-0.5c0,0,0.1-0.2,0.3-0.2c0,0,0.4,0,0.4,0.3
		v0.4h1.3l0-0.6c0,0,0.1-1-1.5-1c0,0-0.1,0-0.3,0c0,0-1,0.1-1.3,0.6c0,0,0,0,0,0c0,0-0.1,0.1-0.1,0.7v0.4c0,0,0,0.4,0.2,0.7
		c0,0,0.1,0.2,0.4,0.4c0,0,0.6,0.3,1,0.5c0,0,0.4,0.2,0.3,0.6c0,0,0,0.4-0.4,0.3c0,0-0.3,0-0.3-0.4V3.4H0V4c0,0,0,1.1,1.7,1.1
		c0,0,1.6,0,1.7-1.2V3.5C3.4,3.5,3.5,2.8,2.8,2.4L2.8,2.4z"/>
</g>
</svg>
