<?xml version="1.0" encoding="utf-8"?>
<!-- Generator: Adobe Illustrator 25.4.1, SVG Export Plug-In . SVG Version: 6.00 Build 0)  -->
<svg version="1.1" id="Layer_1" xmlns="http://www.w3.org/2000/svg" xmlns:xlink="http://www.w3.org/1999/xlink" x="0px" y="0px"
	 viewBox="0 0 32 32" style="enable-background:new 0 0 32 32;" xml:space="preserve">
<style type="text/css">
	.st0{fill:#FFFFFF;}
</style>
<path d="M25.7,31H6.3C3.4,31,1,28.6,1,25.7V6.3C1,3.4,3.4,1,6.3,1h19.4C28.6,1,31,3.4,31,6.3v19.4C31,28.6,28.6,31,25.7,31z"/>
<polygon class="st0" points="16.9,13.6 16.9,11.9 17.4,11.9 17.4,14 16.6,14 16.1,12.3 16.1,12.3 16.1,14 15.6,14 15.6,11.9 
	16.4,11.9 16.9,13.6 16.9,13.6 "/>
<polygon class="st0" points="7.4,12.1 7.1,14 6.5,14 6.9,11.9 7.8,11.9 8.2,14 7.7,14 7.4,12.1 7.4,12.1 "/>
<polygon class="st0" points="9.8,13.5 10.1,11.9 11,11.9 11,14 10.5,14 10.5,12.1 10.5,12.1 10.1,14 9.6,14 9.2,12.1 9.2,12.1 
	9.2,14 8.7,14 8.7,11.9 9.6,11.9 9.8,13.5 9.8,13.5 "/>
<path class="st0" d="M5.6,13.4c0,0.1,0,0.1,0,0.2c0,0.1-0.1,0.1-0.2,0.1c-0.1,0-0.2-0.1-0.2-0.2l0-0.2H4.6l0,0.2
	c0,0.5,0.4,0.6,0.8,0.6c0.4,0,0.7-0.1,0.7-0.5c0-0.2,0-0.3,0-0.3c-0.1-0.4-0.9-0.6-1-0.8c0,0,0-0.1,0-0.1c0-0.1,0.1-0.1,0.2-0.1
	c0.1,0,0.2,0.1,0.2,0.2v0.1h0.5v-0.1c0-0.5-0.4-0.5-0.7-0.5c-0.4,0-0.7,0.1-0.7,0.5c0,0.1,0,0.2,0,0.3C4.7,13,5.5,13.1,5.6,13.4
	L5.6,13.4z"/>
<path class="st0" d="M12.5,13.4c0,0.1,0,0.1,0,0.2c0,0.1-0.1,0.1-0.2,0.1c-0.1,0-0.2-0.1-0.2-0.2l0-0.2h-0.6l0,0.2
	c0,0.5,0.4,0.6,0.8,0.6c0.4,0,0.7-0.1,0.7-0.5c0-0.2,0-0.3,0-0.3c-0.1-0.4-0.9-0.6-0.9-0.8c0,0,0-0.1,0-0.1c0-0.1,0.1-0.1,0.2-0.1
	c0.1,0,0.2,0.1,0.2,0.2v0.1H13v-0.1c0-0.5-0.4-0.5-0.7-0.5c-0.4,0-0.7,0.1-0.7,0.5c0,0.1,0,0.2,0,0.3C11.6,13,12.4,13.1,12.5,13.4
	L12.5,13.4z"/>
<path class="st0" d="M14.3,13.7c0.1,0,0.2-0.1,0.2-0.2c0,0,0-0.1,0-0.1v-1.6H15v1.5c0,0,0,0.1,0,0.1c0,0.4-0.4,0.5-0.7,0.5
	c-0.4,0-0.7-0.1-0.7-0.5c0,0,0-0.1,0-0.1v-1.5h0.5v1.6c0,0,0,0.1,0,0.1C14.1,13.6,14.1,13.7,14.3,13.7L14.3,13.7z"/>
<path class="st0" d="M18.7,13.7c0.2,0,0.2-0.1,0.2-0.2c0,0,0-0.1,0-0.1v-0.3h-0.2v-0.3h0.8v0.6c0,0,0,0.1,0,0.1
	c0,0.4-0.4,0.5-0.7,0.5c-0.4,0-0.7-0.1-0.7-0.5c0-0.1,0-0.1,0-0.1l0-0.9c0,0,0-0.1,0-0.1c0-0.4,0.4-0.5,0.7-0.5
	c0.4,0,0.7,0.1,0.7,0.5c0,0.1,0,0.1,0,0.1l0,0.1h-0.5v-0.1c0,0,0-0.1,0-0.1c0,0,0-0.2-0.2-0.2c-0.2,0-0.2,0.1-0.2,0.2
	c0,0,0,0.1,0,0.1v1c0,0,0,0.1,0,0.1C18.5,13.6,18.6,13.7,18.7,13.7L18.7,13.7z"/>
<path class="st0" d="M7.1,20.3c-0.4,0-0.7-0.1-1-0.2c-0.3-0.1-0.6-0.3-0.8-0.5c-0.2-0.2-0.4-0.5-0.5-0.8c-0.1-0.3-0.2-0.6-0.2-0.9
	c0-0.3,0.1-0.6,0.2-0.9c0.1-0.3,0.3-0.5,0.5-0.7c0.2-0.2,0.5-0.4,0.8-0.5c0.3-0.1,0.6-0.2,1-0.2c0.2,0,0.5,0,0.7,0.1
	c0.2,0.1,0.4,0.1,0.6,0.2c0.2,0.1,0.3,0.2,0.5,0.4c0.1,0.1,0.3,0.3,0.4,0.5l-0.8,0.4c-0.1-0.2-0.3-0.4-0.6-0.6
	c-0.2-0.1-0.5-0.2-0.8-0.2c-0.2,0-0.4,0-0.6,0.1c-0.2,0.1-0.3,0.2-0.5,0.3c-0.1,0.1-0.2,0.3-0.3,0.5c-0.1,0.2-0.1,0.4-0.1,0.6
	c0,0.2,0,0.4,0.1,0.6c0.1,0.2,0.2,0.3,0.3,0.5c0.1,0.1,0.3,0.2,0.5,0.3c0.2,0.1,0.4,0.1,0.6,0.1c0.4,0,0.6-0.1,0.9-0.3
	c0.2-0.2,0.4-0.4,0.5-0.7H6.9v-0.8h2.4v0.3c0,0.3-0.1,0.6-0.2,0.9c-0.1,0.3-0.3,0.5-0.5,0.7C8.5,19.8,8.3,20,8,20.1
	C7.7,20.2,7.4,20.3,7.1,20.3L7.1,20.3z"/>
<path class="st0" d="M11.5,20.3c-0.2,0-0.5,0-0.7-0.1c-0.2-0.1-0.4-0.2-0.6-0.4c-0.2-0.2-0.3-0.4-0.4-0.6c-0.1-0.2-0.2-0.5-0.2-0.8
	c0-0.3,0.1-0.6,0.2-0.8c0.1-0.2,0.2-0.4,0.4-0.6c0.2-0.2,0.4-0.3,0.6-0.4c0.2-0.1,0.5-0.1,0.7-0.1c0.2,0,0.5,0,0.7,0.1
	c0.2,0.1,0.4,0.2,0.5,0.4v-0.5h0.9v3.8h-0.9v-0.5c-0.1,0.2-0.3,0.3-0.5,0.4C12,20.3,11.8,20.3,11.5,20.3L11.5,20.3z M11.7,19.5
	L11.7,19.5c0.2,0,0.3,0,0.5-0.1c0.1-0.1,0.3-0.1,0.4-0.2c0.1-0.1,0.2-0.2,0.2-0.4c0.1-0.1,0.1-0.3,0.1-0.4c0-0.1,0-0.3-0.1-0.4
	c-0.1-0.1-0.1-0.2-0.2-0.3c-0.1-0.1-0.2-0.2-0.4-0.2c-0.1-0.1-0.3-0.1-0.5-0.1c-0.2,0-0.3,0-0.4,0.1c-0.1,0.1-0.3,0.1-0.4,0.2
	c-0.1,0.1-0.2,0.2-0.2,0.3c-0.1,0.1-0.1,0.3-0.1,0.4c0,0.2,0,0.3,0.1,0.4c0.1,0.1,0.1,0.3,0.2,0.4c0.1,0.1,0.2,0.2,0.4,0.2
	C11.4,19.5,11.5,19.5,11.7,19.5L11.7,19.5z"/>
<polygon class="st0" points="14.1,20.3 15,20.3 15,15.5 14.1,15.5 14.1,20.3 "/>
<path class="st0" d="M17.2,20.3c-0.2,0-0.5,0-0.7-0.1c-0.2-0.1-0.4-0.2-0.6-0.4c-0.2-0.2-0.3-0.4-0.4-0.6c-0.1-0.2-0.2-0.5-0.2-0.8
	c0-0.3,0.1-0.6,0.2-0.8c0.1-0.2,0.2-0.4,0.4-0.6c0.2-0.2,0.4-0.3,0.6-0.4c0.2-0.1,0.5-0.1,0.7-0.1c0.2,0,0.5,0,0.7,0.1
	c0.2,0.1,0.4,0.2,0.5,0.4v-0.5h0.9v3.8h-0.9v-0.5c-0.1,0.2-0.3,0.3-0.5,0.4C17.7,20.3,17.5,20.3,17.2,20.3L17.2,20.3z M17.4,19.5
	L17.4,19.5c0.2,0,0.3,0,0.4-0.1c0.1-0.1,0.3-0.1,0.4-0.2c0.1-0.1,0.2-0.2,0.2-0.4c0.1-0.1,0.1-0.3,0.1-0.4c0-0.1,0-0.3-0.1-0.4
	c-0.1-0.1-0.1-0.2-0.2-0.3c-0.1-0.1-0.2-0.2-0.4-0.2c-0.1-0.1-0.3-0.1-0.4-0.1c-0.2,0-0.3,0-0.4,0.1c-0.1,0.1-0.3,0.1-0.4,0.2
	c-0.1,0.1-0.2,0.2-0.2,0.3c-0.1,0.1-0.1,0.3-0.1,0.4c0,0.2,0,0.3,0.1,0.4c0.1,0.1,0.1,0.3,0.2,0.4c0.1,0.1,0.2,0.2,0.4,0.2
	C17.1,19.5,17.2,19.5,17.4,19.5L17.4,19.5z"/>
<polygon class="st0" points="21,18.4 19.6,16.5 20.7,16.5 21.5,17.7 22.4,16.5 23.4,16.5 22,18.4 23.5,20.3 22.4,20.3 21.5,19 
	20.6,20.3 19.5,20.3 21,18.4 "/>
<polygon class="st0" points="25,20.1 23.5,16.5 24.4,16.5 25.5,19.1 26.5,16.5 27.4,16.5 25.1,22 24.3,22 25,20.1 "/>
</svg>
