<?xml version="1.0" encoding="utf-8"?>
<!-- Generator: Adobe Illustrator 25.4.1, SVG Export Plug-In . SVG Version: 6.00 Build 0)  -->
<svg version="1.1" id="Layer_1" xmlns="http://www.w3.org/2000/svg" xmlns:xlink="http://www.w3.org/1999/xlink" x="0px" y="0px"
	 viewBox="0 0 32 32" style="enable-background:new 0 0 32 32;" xml:space="preserve">
<style type="text/css">
	.st0{fill:#FFFFFF;}
</style>
<path d="M26,31H6.6c-2.9,0-5.3-2.4-5.3-5.3V6.3C1.3,3.4,3.7,1,6.6,1H26c2.9,0,5.3,2.4,5.3,5.3v19.4C31.3,28.6,28.9,31,26,31z"/>
<path class="st0" d="M24.1,19.8c0,0,0-0.1,0-0.1l0-12.9c0-1.7-1.5-3-3.3-3h-8.7c-1.8,0-3.3,1.3-3.3,3v18.4c0,1.7,1.5,3,3.3,3h5.7
	c2.1,0,3-1.8,3.1-1.9l0.4-0.6l2.1-3.1c0,0,0,0,0,0C24.2,21.4,24.1,19.9,24.1,19.8z M17.8,26.8h-5.7c-1.1,0-2-0.7-2-1.6V6.8
	c0-0.9,0.9-1.6,2-1.6h8.7c1.1,0,2,0.7,2,1.6l0,12.9c0,0,0,0.1,0,0.1c0,0.2,0,0.5,0,0.6l-0.5,0.2l-2.5,1c-0.2,0.1-0.7,0.3-0.9,0.9
	c-0.1,0.5,0.2,0.9,0.3,1.1c0.6,0.8,0.8,1.6,0.5,2.2C19.3,26.4,18.6,26.8,17.8,26.8z M20.9,24c-0.1-0.4-0.3-0.7-0.6-1.1l1.9-0.8
	L20.9,24z"/>
<path class="st0" d="M16.5,25.4c-0.9,0-1.6-0.7-1.6-1.6c0-0.9,0.7-1.6,1.6-1.6c0.9,0,1.6,0.7,1.6,1.6C18.1,24.6,17.4,25.4,16.5,25.4
	z M15.7,23.7c0,0.4,0.4,0.8,0.8,0.8c0.4,0,0.8-0.4,0.8-0.8c0-0.5-0.4-0.8-0.8-0.8C16.1,22.9,15.7,23.3,15.7,23.7z"/>
<path class="st0" d="M18.6,8h-3.8c-0.4,0-0.7-0.3-0.7-0.7l0,0c0-0.4,0.3-0.7,0.7-0.7h3.8c0.4,0,0.7,0.3,0.7,0.7l0,0
	C19.4,7.7,19.1,8,18.6,8z"/>
</svg>
