<?xml version="1.0" encoding="utf-8"?>
<!-- Generator: Adobe Illustrator 25.4.1, SVG Export Plug-In . SVG Version: 6.00 Build 0)  -->
<svg version="1.1" id="Layer_1" xmlns="http://www.w3.org/2000/svg" xmlns:xlink="http://www.w3.org/1999/xlink" x="0px" y="0px"
	 viewBox="0 0 32 32" style="enable-background:new 0 0 32 32;" xml:space="preserve">
<style type="text/css">
	.st0{fill:#FFFFFF;}
</style>
<path d="M26,31H6.6c-2.9,0-5.3-2.4-5.3-5.3V6.3C1.3,3.4,3.7,1,6.6,1H26c2.9,0,5.3,2.4,5.3,5.3v19.4C31.3,28.6,28.9,31,26,31z"/>
<g>
	<path class="st0" d="M15.6,4.8c0.5,0,0.9,0,1.4,0c0.1,0,0.2,0,0.4,0c0.6,0,0.8,0.3,0.8,0.8c0,0.1,0,0.1,0,0.2
		c0.1,1.3,1.1,2.3,2.4,2.3c0.7,0,1.3-0.3,1.8-0.8c0.3-0.3,0.6-0.3,0.9-0.1C24,7.8,24.6,8.4,25.1,9c0.2,0.3,0.2,0.6,0,0.8
		C25,10,24.9,10,24.8,10.1c-0.9,1-0.8,2.7,0.3,3.6c0.5,0.4,1,0.5,1.5,0.6c0.5,0,0.8,0.3,0.8,0.8c0,0.7,0,1.4,0,2.2
		c0,0.5-0.3,0.7-0.8,0.7c-1.6,0-2.7,1.3-2.5,2.8c0.1,0.6,0.4,1.1,0.8,1.5c0.3,0.3,0.3,0.6,0.1,0.9c-0.5,0.7-1.1,1.2-1.8,1.8
		c-0.3,0.2-0.6,0.2-0.8,0c-0.1-0.1-0.2-0.2-0.2-0.2c-0.7-0.6-1.5-0.7-2.3-0.5c-1,0.3-1.7,1.2-1.8,2.3c0,0.6-0.2,0.8-0.8,0.9
		c-0.6,0-1.3,0-1.9,0c-0.6,0-0.9-0.2-0.9-0.9c0,0,0-0.1,0-0.1c-0.1-1.3-1.1-2.3-2.4-2.3c-0.7,0-1.3,0.3-1.8,0.8
		C9.8,25,9.5,25,9.2,24.7C8.6,24.2,8,23.6,7.5,23c-0.2-0.3-0.2-0.6,0-0.8c0.1-0.1,0.1-0.2,0.2-0.2c0.9-1,0.8-2.7-0.3-3.5
		C7,18,6.5,17.8,6,17.8c-0.6,0-0.8-0.3-0.9-0.8c0-0.1,0-0.2,0-0.3c0-0.5,0-0.9,0-1.4c0-0.2,0-0.4,0.1-0.6c0.1-0.4,0.2-0.5,0.6-0.6
		c0.1,0,0.3,0,0.4,0c1.4-0.2,2.4-1.3,2.3-2.7c-0.1-0.6-0.3-1.2-0.8-1.6C7.3,9.6,7.3,9.3,7.6,9c0.5-0.7,1.1-1.2,1.8-1.8
		C9.6,7,9.9,7,10.2,7.2c0.1,0.1,0.2,0.1,0.2,0.2c0.9,0.8,2.5,0.8,3.4-0.1c0.5-0.5,0.7-1.1,0.8-1.8c0-0.4,0.2-0.6,0.7-0.7
		C15.3,4.8,15.5,4.8,15.6,4.8z M19.7,21.5c-0.1-0.1-0.1-0.1-0.2-0.2c-0.8-0.8-1.7-1.7-2.5-2.5c-0.1-0.1-0.2-0.2-0.4-0.1
		c-1,0.3-1.9,0.3-2.9-0.1c-1.8-0.8-2.7-2.6-2.3-4.5c0-0.2,0.1-0.4,0.3-0.5c0.2-0.1,0.4,0.1,0.6,0.2c0.5,0.5,1.1,1.1,1.6,1.6
		c0.1,0.1,0.3,0.2,0.5,0.2c0.4-0.1,0.7-0.1,1.1-0.2c0.1,0,0.2-0.1,0.2-0.2c0.1-0.4,0.1-0.8,0.2-1.1c0-0.2,0-0.3-0.2-0.5
		c-0.6-0.6-1.1-1.1-1.7-1.7c-0.3-0.3-0.2-0.7,0.2-0.8c0.3-0.1,0.7-0.1,1.1-0.1c2.8,0,4.6,2.7,3.7,5.3c-0.1,0.2,0,0.2,0.1,0.3
		c0.8,0.8,1.7,1.7,2.5,2.5c0.1,0.1,0.1,0.1,0.2,0.2c1.4-2.2,1.3-5.9-1.3-8.2C18,9,14.2,9,11.7,11.4c-2.4,2.3-2.5,6.2-0.4,8.7
		C13.6,22.9,17.3,23.1,19.7,21.5z"/>
</g>
</svg>
