<?xml version="1.0" encoding="utf-8"?>
<!-- Generator: Adobe Illustrator 25.4.1, SVG Export Plug-In . SVG Version: 6.00 Build 0)  -->
<svg version="1.1" id="Layer_1" xmlns="http://www.w3.org/2000/svg" xmlns:xlink="http://www.w3.org/1999/xlink" x="0px" y="0px"
	 viewBox="0 0 32 32" style="enable-background:new 0 0 32 32;" xml:space="preserve">
<style type="text/css">
	.st0{fill:#FFFFFF;}
</style>
<path d="M25.7,31H6.3C3.4,31,1,28.6,1,25.7V6.3C1,3.4,3.4,1,6.3,1h19.4C28.6,1,31,3.4,31,6.3v19.4C31,28.6,28.6,31,25.7,31z"/>
<g>
	<path class="st0" d="M13.5,17.9l3-2.4c0.2-0.1,0.2-0.4,0.1-0.6l-0.9-1.2c-0.1-0.2-0.4-0.2-0.6-0.1l-3,2.4c-0.2,0.1-0.2,0.4-0.1,0.6
		l0.9,1.2C13.1,18,13.4,18.1,13.5,17.9z"/>
	<path class="st0" d="M15.1,19.9l3-2.4c0.2-0.1,0.2-0.4,0.1-0.6l-1-1.2c-0.1-0.2-0.4-0.2-0.6-0.1l-3,2.4c-0.2,0.1-0.2,0.4-0.1,0.6
		l1,1.2C14.7,20.1,15,20.1,15.1,19.9z"/>
	<path class="st0" d="M13.5,11.7l-2.5,2c-0.1,0.1-0.1,0.1-0.1,0.2l-0.2,0.9c0,0.1,0,0.2,0.1,0.3l0.6,0.7c0.1,0.2,0.4,0.2,0.6,0.1
		l3-2.4c0.2-0.1,0.2-0.4,0.1-0.6l-1-1.2C14,11.6,13.7,11.5,13.5,11.7z"/>
	<path class="st0" d="M16.1,21.6l0.9,0c0.1,0,0.2,0,0.3-0.1l2.5-2c0.2-0.1,0.2-0.4,0.1-0.6l-1-1.2c-0.1-0.2-0.4-0.2-0.6-0.1l-3,2.4
		c-0.2,0.1-0.2,0.4-0.1,0.6l0.6,0.7C15.9,21.5,16,21.6,16.1,21.6z"/>
	<path class="st0" d="M22.6,17.3l2.5-2c0.1-0.1,0.1-0.1,0.1-0.2l0.2-0.9c0-0.1,0-0.2-0.1-0.3l-0.6-0.7c-0.1-0.2-0.4-0.2-0.6-0.1
		l-3,2.4c-0.2,0.1-0.2,0.4-0.1,0.6l1,1.2C22.2,17.4,22.4,17.5,22.6,17.3z"/>
	<path class="st0" d="M19.1,7.4c-0.1,0-0.2,0-0.3,0.1l-3,2.3l0,0l-1.1,0.9L14,11.3l6,7.6c0.1,0.2,0.4,0.2,0.6,0.1l1.2-1
		c0.2-0.1,0.2-0.4,0.1-0.6l-4.5-5.7l0.6-0.4l0,0l3-2.4c0.2-0.1,0.2-0.4,0.1-0.6l-0.6-0.7c-0.1-0.1-0.2-0.1-0.3-0.2L19.1,7.4z"/>
	<path class="st0" d="M21,15.3l3-2.4c0.2-0.1,0.2-0.4,0.1-0.6l-1-1.2c-0.1-0.2-0.4-0.2-0.6-0.1l-3,2.4c-0.2,0.1-0.2,0.4-0.1,0.6
		l1,1.2C20.6,15.4,20.8,15.4,21,15.3z"/>
	<path class="st0" d="M19.4,13.3l3-2.4c0.2-0.1,0.2-0.4,0.1-0.6l-1-1.2c-0.1-0.2-0.4-0.2-0.6-0.1l-3,2.4c-0.2,0.1-0.2,0.4-0.1,0.6
		l1,1.2C19,13.4,19.2,13.4,19.4,13.3z"/>
</g>
<path class="st0" d="M23.4,18.2c-1,3.4-4.4,5.8-8.2,5.4c-3.5-0.4-6.4-3.2-6.8-6.7c-0.5-4.6,3-8.5,7.4-8.6c0,0,0,0,0,0l2.3-1.7
	c0,0,0,0,0,0c-0.7-0.2-1.4-0.2-2.2-0.2c-5.1,0.1-9.4,4.3-9.5,9.4c-0.1,5.4,4.3,9.9,9.7,9.9c5.2,0,9.4-4.1,9.7-9.2c0,0,0,0,0,0
	L23.4,18.2C23.4,18.2,23.4,18.2,23.4,18.2z"/>
</svg>
