<?xml version="1.0" encoding="utf-8"?>
<!-- Generator: Adobe Illustrator 25.4.1, SVG Export Plug-In . SVG Version: 6.00 Build 0)  -->
<svg version="1.1" id="Layer_1" xmlns="http://www.w3.org/2000/svg" xmlns:xlink="http://www.w3.org/1999/xlink" x="0px" y="0px"
	 viewBox="0 0 32 32" style="enable-background:new 0 0 32 32;" xml:space="preserve">
<style type="text/css">
	.st0{fill:#FFFFFF;}
</style>
<path d="M25.7,31H6.3C3.4,31,1,28.6,1,25.7V6.3C1,3.4,3.4,1,6.3,1h19.4C28.6,1,31,3.4,31,6.3v19.4C31,28.6,28.6,31,25.7,31z"/>
<g>
	<path class="st0" d="M20.7,14.1h-2.5V17h2.9v-2.5C21.1,14.3,20.9,14.1,20.7,14.1z"/>
	<path class="st0" d="M10.9,23.2c0,0.2,0.2,0.4,0.4,0.4h2.5v-2.9h-2.9V23.2z"/>
	<rect x="14.6" y="14.1" class="st0" width="2.9" height="2.9"/>
	<path class="st0" d="M14.2,17.7c-0.2,0-0.4-0.2-0.4-0.4v-3.2h-2.5c-0.2,0-0.4,0.2-0.4,0.4v5.4h3.2h3.6h3.2v-2.2h-3.2H14.2z"/>
	<rect x="14.6" y="20.6" class="st0" width="2.9" height="2.9"/>
	<path class="st0" d="M23.8,8.5l-3.6-3.6c-0.1-0.1-0.2-0.1-0.3-0.1H9.9c-1,0-1.8,0.8-1.8,1.8v18c0,1,0.8,1.8,1.8,1.8h12.3
		c1,0,1.8-0.8,1.8-1.8V8.7C23.9,8.6,23.9,8.5,23.8,8.5z M21.8,17.4v2.9v2.9c0,0.6-0.5,1.1-1.1,1.1h-9.4c-0.6,0-1.1-0.5-1.1-1.1v-2.9
		v-5.8c0-0.6,0.5-1.1,1.1-1.1h9.4c0.6,0,1.1,0.5,1.1,1.1V17.4z"/>
	<path class="st0" d="M18.2,23.5h2.5c0.2,0,0.4-0.2,0.4-0.4v-2.5h-2.9V23.5z"/>
</g>
</svg>
