<?xml version="1.0" encoding="utf-8"?>
<!-- Generator: Adobe Illustrator 25.4.1, SVG Export Plug-In . SVG Version: 6.00 Build 0)  -->
<svg version="1.1" id="Layer_1" xmlns="http://www.w3.org/2000/svg" xmlns:xlink="http://www.w3.org/1999/xlink" x="0px" y="0px"
	 viewBox="0 0 32 32" style="enable-background:new 0 0 32 32;" xml:space="preserve">
<style type="text/css">
	.st0{fill:#FFFFFF;}
</style>
<path d="M25.7,31H6.3C3.4,31,1,28.6,1,25.7V6.3C1,3.4,3.4,1,6.3,1h19.4C28.6,1,31,3.4,31,6.3v19.4C31,28.6,28.6,31,25.7,31z"/>
<g>
	<path class="st0" d="M16.6,5.1c0.4,0.1,0.9,0.1,1.3,0.2C21,6,23.5,8.7,24,11.9c0.3,1.7,0,3.3-0.6,4.9c-0.7,1.8-1.7,3.5-2.9,5
		c-1.3,1.7-2.7,3.4-4.2,4.9c-0.3,0.3-0.4,0.3-0.7,0c-2.1-2.1-4.1-4.5-5.7-7.1c-0.9-1.4-1.6-3-2-4.6c-0.8-3.4,0.8-7,3.8-8.7
		c1.1-0.6,2.2-1,3.4-1.1c0,0,0.1,0,0.1,0C15.8,5.1,16.2,5.1,16.6,5.1z M19.7,13.3c0-2.1-1.7-3.7-3.7-3.7c-2.1,0-3.8,1.7-3.8,3.8
		c0,2.1,1.7,3.7,3.8,3.7C18.1,17,19.8,15.3,19.7,13.3z"/>
</g>
</svg>
