<?xml version="1.0" encoding="utf-8"?>
<!-- Generator: Adobe Illustrator 25.4.1, SVG Export Plug-In . SVG Version: 6.00 Build 0)  -->
<svg version="1.1" id="Layer_1" xmlns="http://www.w3.org/2000/svg" xmlns:xlink="http://www.w3.org/1999/xlink" x="0px" y="0px"
	 viewBox="0 0 32 32" style="enable-background:new 0 0 32 32;" xml:space="preserve">
<style type="text/css">
	.st0{fill:#FFFFFF;stroke:#171714;stroke-width:0.1;stroke-miterlimit:10;}
	.st1{fill:#FFFFFF;}
</style>
<g>
	<path class="st0" d="M23.5,1H16H8.5C6.3,1,5.1,2.4,5.1,4.2v16.1c0,0.6,0.2,1.1,0.5,1.5c0.1,0.2,0.2,0.3,0.4,0.4l8.2,8.1
		c0.5,0.5,1.2,0.8,1.9,0.7c0.7,0,1.4-0.2,1.9-0.7l8.2-8.1c0.1-0.1,0.3-0.3,0.4-0.4c0.3-0.4,0.5-1,0.5-1.5V4.2
		C26.9,2.4,25.8,1,23.5,1z"/>
	<path d="M23.8,1.5l-7.8,0l-7.8,0c-1.4,0-2.5,1.2-2.5,2.6v15.8c0,0.6,0.2,1.1,0.5,1.5c0.1,0.1,0.6,0.7,0.7,0.9l7.4,7.3
		c0.5,0.5,1.1,0.8,1.8,0.8c0.7,0,1.3-0.3,1.8-0.8l7.4-7.3c0.1-0.1,0.6-0.7,0.7-0.9c0.3-0.4,0.5-0.9,0.5-1.5V4.1
		C26.3,2.7,25.3,1.5,23.8,1.5"/>
	<path class="st1" d="M13.1,9h1.1c0-1.7,0-2.6,0.1-2.9c0.1-0.7,0.4-1.2,0.9-1.7c0.5-0.4,1.2-0.6,2.1-0.6c0.7,0,1.4,0.2,2.2,0.5v2.4
		c-0.5-0.1-0.8-0.2-1.1-0.2c-0.4,0-0.6,0.1-0.8,0.2c-0.1,0.1-0.2,0.4-0.2,0.7l0,1.6h2v2.7h-2v9.9h-3.2v-9.9h-1.1V9z"/>
</g>
</svg>
