<?xml version="1.0" encoding="utf-8"?>
<!-- Generator: Adobe Illustrator 25.4.1, SVG Export Plug-In . SVG Version: 6.00 Build 0)  -->
<svg version="1.1" id="Layer_1" xmlns="http://www.w3.org/2000/svg" xmlns:xlink="http://www.w3.org/1999/xlink" x="0px" y="0px"
	 viewBox="0 0 32 32" style="enable-background:new 0 0 32 32;" xml:space="preserve">
<style type="text/css">
	.st0{fill:#FFFFFF;}
</style>
<path d="M26,31H6.6c-2.9,0-5.3-2.4-5.3-5.3V6.3C1.3,3.4,3.7,1,6.6,1H26c2.9,0,5.3,2.4,5.3,5.3v19.4C31.3,28.6,28.9,31,26,31z"/>
<g>
	<path d="M16.6,18.7c0,0-0.9,8.8,4.6,6.5"/>
	<path class="st0" d="M13.3,13c-0.3,0-0.6,0.3-0.6,0.6v3.6c0,0,0,0.1,0,0.3c0,0.2,0,0.4,0,0.4c0,0.3,0.1,1.6,2.5,2.3l0.1,0.1l0,0.1
		c0.1,1.8,0.5,4.3,2,5.4c1,0.8,2.4,0.9,4,0.2l0,0c0,0,0,0,0.1,0c0,0,0,0,0,0h0c3.7-1.9,6-5.7,6-9.9C27.6,10,22.7,5,16.5,5
		S5.4,10,5.4,16.1c0,4,2.2,7.7,5.7,9.7c0.2,0.1,0.5,0.2,0.8,0.1c0.3-0.1,0.5-0.2,0.6-0.5c0.1-0.2,0.2-0.5,0.1-0.8
		c-0.1-0.3-0.2-0.5-0.5-0.6c-2.9-1.6-4.7-4.7-4.7-7.9c0-5,4.1-9.1,9.1-9.1s9.1,4.1,9.1,9.1c0,3.4-1.9,6.5-4.9,8.1h0
		c-0.9,0.4-1.6,0.4-2.1,0c-0.9-0.7-1.1-2.6-1.2-3.7v-0.1l0.1-0.1c0.1-0.1,0.2-0.1,0.4-0.1c2.5-0.8,2.6-2.1,2.5-2.3c0,0,0-0.2,0-0.4
		c0-0.1,0-0.2,0-0.2v-3.6c0-0.3-0.3-0.6-0.6-0.6H13.3z"/>
	<path class="st0" d="M15.4,12.4h-0.6c-0.2,0-0.4-0.2-0.4-0.4v-1.6c0-0.2,0.2-0.4,0.4-0.4h0.6c0.2,0,0.4,0.2,0.4,0.4v1.6
		C15.8,12.2,15.6,12.4,15.4,12.4z"/>
	<path class="st0" d="M18.4,12.4h-0.6c-0.2,0-0.4-0.2-0.4-0.4v-1.6c0-0.2,0.2-0.4,0.4-0.4h0.6c0.2,0,0.4,0.2,0.4,0.4v1.6
		C18.8,12.2,18.6,12.4,18.4,12.4z"/>
</g>
</svg>
