<?xml version="1.0" encoding="utf-8"?>
<!-- Generator: Adobe Illustrator 25.4.1, SVG Export Plug-In . SVG Version: 6.00 Build 0)  -->
<svg version="1.1" id="Layer_1" xmlns="http://www.w3.org/2000/svg" xmlns:xlink="http://www.w3.org/1999/xlink" x="0px" y="0px"
	 viewBox="0 0 32 32" style="enable-background:new 0 0 32 32;" xml:space="preserve">
<style type="text/css">
	.st0{fill:#FFFFFF;}
	.st1{fill:#231F20;}
</style>
<g>
	<g>
		<path class="st0" d="M24.2,13.7c-0.3-0.2-0.6-0.4-0.7-0.6c0.1-0.1,0.2-0.3,0.3-0.5c0.7-1,1.9-2.7,1.9-5.3c0-2.9-2.1-6.3-8.1-6.3
			c-2.8,0-6.1,0.9-8.8,2.6C6.3,5.1,4.7,6.8,4.7,7.9c0,0.3,0.1,0.5,0.3,0.7c0.8,0.8,2.9,0.8,5.5,0.8c3.7,0,5.3,0.2,5.3,0.8
			c0,0.7-4.4,2.5-4.4,4c0,1.8,3.7,2.1,5.4,2.4c1.6,0.3,1.7,1.1,1.7,1.7c0,1.1-0.4,2.1-1.1,2.7c-0.7,0.6-1.5,1-2.8,1
			c0.4-2.9-1.6-4.8-4.6-4.8c-3.3,0-5.3,2.8-5.3,5.5c0,4.2,3.9,8.5,11.4,8.5c3,0,5.9-1,8.2-2.7c1.9-1.4,4.1-4,4.1-8.2
			C28.2,16.6,25.6,14.7,24.2,13.7z"/>
	</g>
	<g>
		<path class="st1" d="M24.2,13.7c-0.3-0.2-0.6-0.5-0.7-0.6c0.1-0.1,0.2-0.3,0.3-0.5c0.7-1,1.9-2.7,1.9-5.3c0-2.9-2.1-6.3-8.1-6.3
			c-2.8,0-6.1,0.9-8.8,2.6C6.3,5,4.7,6.8,4.7,7.9c0,0.3,0.1,0.5,0.3,0.7c0.8,0.8,2.9,0.8,5.5,0.8c3.7,0,5.3,0.2,5.3,0.8
			c0,0.7-4.4,2.5-4.4,4c0,1.8,3.7,2.1,5.4,2.4c1.6,0.3,1.7,1.1,1.7,1.7c0,1.1-0.4,2.1-1.1,2.7c-0.7,0.6-1.6,1-2.8,1
			c0.4-2.9-1.6-4.8-4.6-4.8c-3.4,0-5.4,2.8-5.4,5.5c0,4.2,3.9,8.5,11.4,8.5c3,0,5.9-1,8.2-2.7c1.9-1.4,4.1-4,4.1-8.2
			C28.2,16.6,25.6,14.7,24.2,13.7z M12.2,14.3L12.2,14.3c0-0.5,1.3-1.3,2.1-1.8c1.3-0.8,2.2-1.4,2.2-2.2c0-0.3-0.1-0.6-0.3-0.8
			c-0.9-0.8-3.2-0.8-5.8-0.8c-0.9,0-1.9,0-2.8,0C8.6,8.2,9.7,7.6,11,6.9c1.9-1,4-2.1,5.9-2.6C16.4,4.9,16,5.5,16,6
			c0,0.2,0.1,0.4,0.5,0.4c0.3,0,0.7-0.1,1.1-0.3c1.1-0.4,2.6-0.9,4.3,0.4c-0.6,0-1.1,0.2-1.3,0.4c-0.3,0.2-0.3,0.4-0.3,0.6
			c0,0.2,0.2,0.4,0.4,0.7c0.4,0.4,0.9,1,0.9,2c0,0.8-0.3,1.6-0.8,2.2c0.1-0.5,0-1.3-0.3-1.6c-0.1-0.2-0.3-0.2-0.5-0.2
			c-0.3,0-0.7,0.3-1.2,0.7c-0.4,0.3-0.8,0.7-1.4,1c-1.7,1.1-3.6,2.2-5,2.2C12.4,14.4,12.2,14.4,12.2,14.3z M14.3,22.9
			c1.5,0.1,2.7-0.3,3.6-1.2c0.9-0.8,1.4-2,1.4-3.4c0-0.7-0.3-1.3-0.8-1.7c2.2,0.4,4.5,1.6,5.7,3.3c-0.6-0.2-1-0.3-1.4-0.3
			c-0.3,0-0.6,0.3-0.6,0.8c0,0.2,0.1,0.5,0.2,0.8c0.3,1,0.9,2.6-0.5,4.7c0-0.8-0.2-1.5-0.5-1.9c-0.2-0.2-0.4-0.3-0.5-0.3
			c-0.4,0-0.6,0.4-1,1c-0.6,1-1.5,2.6-4.3,3.4c0.4-0.6,0.5-1.3,0.4-1.7c-0.1-0.2-0.2-0.3-0.4-0.3c0,0,0,0,0,0c-0.3,0-0.6,0.1-1,0.2
			c-1.3,0.4-3.2,0.9-5.1-0.7c0.4,0,0.7-0.2,1-0.4c0.2-0.1,0.3-0.3,0.3-0.5c0-0.3-0.2-0.5-0.5-0.7c-0.6-0.5-1.3-1.2-0.7-2.6
			c0.1,0.3,0.2,0.6,0.4,0.8c0.2,0.3,0.5,0.4,0.8,0.4c0.6,0,0.6-0.5,0.6-0.8c0-0.4,0.4-0.8,0.8-0.8c1.3,0,1.7,1.9,1.3,2.9
			C13.8,23.7,14.1,23.3,14.3,22.9z M23.6,27.9c-2.1,1.6-4.9,2.5-7.7,2.5c-6.9,0-10.5-3.9-10.5-7.7c0-2.3,1.7-4.6,4.5-4.6
			c1.7,0,4.3,0.8,3.9,4.1c0-0.3-0.5-1.5-1.7-1.5c-0.7,0-1.3,0.6-1.3,1.3c0,0.3-0.1,0.4-0.1,0.4c-0.5,0-1-0.7-0.9-1.8
			c-1.8,2-0.5,3.4,0.1,4c0.1,0.1,0.4,0.3,0.4,0.4c0,0.2-0.5,0.5-1.8,0.4c2.3,2.7,4.9,2,6.3,1.6c0.3-0.1,0.8-0.3,0.9-0.1
			c0.2,0.2-0.3,1.4-1,2c3.8-0.5,5.1-2.7,5.7-3.8c0.2-0.4,0.4-0.7,0.5-0.7c0.4,0,0.8,1.6,0.5,2.9c2.5-2.4,1.8-4.9,1.4-6
			c-0.1-0.3-0.2-0.5-0.2-0.7c0-0.2,0.1-0.3,0.2-0.3c0.6,0,1.4,0.2,2.3,0.6c-2.3-5.5-10.4-4.7-12.4-5.9c1.5-0.1,3.4-1.2,5-2.2
			c0.6-0.4,1-0.8,1.4-1.1c0.4-0.3,0.7-0.6,0.9-0.6c0.5,0,0.6,1.4,0.3,2.3c1.2-0.8,1.8-2,1.8-3.1c0-1.1-0.6-1.8-1-2.3
			c-0.1-0.1-0.3-0.3-0.3-0.4c0-0.1,0-0.1,0.1-0.2C21.4,7,22.2,6.9,23,7.1c-1.9-2.4-4.3-1.7-5.6-1.3c-0.4,0.1-1,0.3-1,0.1
			c0-0.5,0.6-1.4,1.7-2.1C16,3.7,13,5.4,10.8,6.5C9,7.5,7.3,8.4,6.3,8.4c-0.6,0-0.8-0.2-0.8-0.4c0-1.7,5.9-6.1,12.1-6.1
			c2.4,0,4.3,0.6,5.6,1.7c1.1,1,1.7,2.3,1.7,3.8c0,2.3-1.1,3.9-1.7,4.8c-0.3,0.5-0.5,0.8-0.5,1c0,0.4,0.4,0.7,1.1,1.3
			c1.3,1,3.6,2.6,3.6,6C27.3,24.3,25.3,26.6,23.6,27.9z"/>
	</g>
</g>
</svg>
