<?xml version="1.0" encoding="utf-8"?>
<!-- Generator: Adobe Illustrator 25.4.1, SVG Export Plug-In . SVG Version: 6.00 Build 0)  -->
<svg version="1.1" id="Layer_1" xmlns="http://www.w3.org/2000/svg" xmlns:xlink="http://www.w3.org/1999/xlink" x="0px" y="0px"
	 viewBox="0 0 32 32" style="enable-background:new 0 0 32 32;" xml:space="preserve">
<style type="text/css">
	.st0{fill:#FFFFFF;}
	.st1{fill:#E32185;}
</style>
<path d="M25.7,31H6.3C3.4,31,1,28.6,1,25.7V6.3C1,3.4,3.4,1,6.3,1h19.4C28.6,1,31,3.4,31,6.3v19.4C31,28.6,28.6,31,25.7,31z"/>
<g>
	<path class="st0" d="M5.4,12.7v-0.4c0-0.3,0.2-0.5,0.5-0.5h13.7c0,0,0,0,0,0h5.1l1-1.2H12v0H5.4c-0.7,0-1.2,0.5-1.3,1.2
		c0,0,0,0,0,0c0,0,0,0,0,0.1c0,0,0,0,0,0c0,0,0,0,0,0.1c0,0,0,0.7,0,0.7v6.8v0c0,0,0,0,0,0c0,0,0,0,0,0.1c0,0,0,0,0,0c0,0,0,0,0,0.1
		c0,0,0,0,0,0c0.1,0.6,0.6,1.2,1.3,1.2h0.9v0h15v0.7c0,0.3,0.3,0.4,0.5,0.2l1.7-1.4c0.2-0.1,0.2-0.4,0-0.5l-1.7-1.4
		c-0.2-0.2-0.5,0-0.5,0.2v0.9h-1.7l0,0H5.9c-0.3,0-0.5-0.2-0.5-0.5v-0.4V12.7z"/>
	<g>
		<path class="st0" d="M8.2,14.6H7.3v-0.5h2.4v0.5H8.8v2.2H8.2V14.6z"/>
		<path class="st0" d="M10.8,14.8c0.1-0.1,0.3-0.1,0.4-0.1v0.6c-0.1,0-0.1,0-0.1,0c-0.2,0-0.3,0-0.4,0.1c-0.1,0.1-0.1,0.2-0.1,0.4v1
			H9.9v-2.1h0.6V15C10.5,14.9,10.6,14.8,10.8,14.8z"/>
		<path class="st0" d="M13.1,14.9c0.2,0.2,0.3,0.4,0.3,0.7v1.2h-0.6v-0.3c-0.1,0.2-0.3,0.3-0.6,0.3c-0.2,0-0.3,0-0.4-0.1
			c-0.1-0.1-0.2-0.1-0.3-0.2c-0.1-0.1-0.1-0.2-0.1-0.3c0-0.2,0.1-0.3,0.2-0.5c0.1-0.1,0.4-0.2,0.7-0.2h0.5c0-0.1,0-0.2-0.1-0.3
			s-0.2-0.1-0.4-0.1c-0.1,0-0.2,0-0.3,0.1s-0.2,0.1-0.3,0.1L11.4,15c0.1-0.1,0.2-0.1,0.4-0.2c0.2,0,0.3-0.1,0.5-0.1
			C12.7,14.7,12.9,14.8,13.1,14.9z M12.6,16.4c0.1,0,0.1-0.1,0.2-0.2v-0.2h-0.4c-0.2,0-0.4,0.1-0.4,0.2c0,0.1,0,0.1,0.1,0.2
			c0.1,0,0.1,0.1,0.2,0.1C12.4,16.4,12.5,16.4,12.6,16.4z"/>
		<path class="st0" d="M16,13.9v2.9h-0.6v-0.2c-0.2,0.2-0.4,0.3-0.7,0.3c-0.2,0-0.4,0-0.5-0.1c-0.2-0.1-0.3-0.2-0.4-0.4
			c-0.1-0.2-0.1-0.4-0.1-0.6c0-0.2,0-0.4,0.1-0.6c0.1-0.2,0.2-0.3,0.4-0.4c0.2-0.1,0.3-0.1,0.5-0.1c0.3,0,0.5,0.1,0.6,0.3v-1
			L16,13.9L16,13.9z M15.2,16.2c0.1-0.1,0.2-0.2,0.2-0.4c0-0.2,0-0.3-0.2-0.4c-0.1-0.1-0.2-0.2-0.4-0.2c-0.2,0-0.3,0.1-0.4,0.2
			c-0.1,0.1-0.2,0.2-0.2,0.4c0,0.2,0,0.3,0.2,0.4c0.1,0.1,0.2,0.2,0.4,0.2C15,16.4,15.1,16.3,15.2,16.2z"/>
		<path class="st0" d="M18.5,15.9H17c0,0.1,0.1,0.2,0.2,0.3c0.1,0.1,0.2,0.1,0.4,0.1c0.1,0,0.2,0,0.3,0c0.1,0,0.2-0.1,0.2-0.2
			l0.3,0.3c-0.2,0.2-0.5,0.3-0.9,0.3c-0.2,0-0.4,0-0.6-0.1c-0.2-0.1-0.3-0.2-0.4-0.4c-0.1-0.2-0.1-0.3-0.1-0.6c0-0.2,0-0.4,0.1-0.6
			c0.1-0.2,0.2-0.3,0.4-0.4c0.2-0.1,0.4-0.1,0.6-0.1c0.2,0,0.4,0,0.6,0.1c0.2,0.1,0.3,0.2,0.4,0.4c0.1,0.2,0.1,0.4,0.1,0.6
			C18.5,15.8,18.5,15.8,18.5,15.9z M17.1,15.3c-0.1,0.1-0.2,0.2-0.2,0.3h1c0-0.1-0.1-0.2-0.2-0.3c-0.1-0.1-0.2-0.1-0.3-0.1
			C17.3,15.2,17.2,15.2,17.1,15.3z"/>
		<path class="st0" d="M18.9,15.5H20V16h-1.1L18.9,15.5L18.9,15.5z"/>
		<path class="st0" d="M20.4,14.1h0.6v2.7h-0.6V14.1z"/>
		<path class="st0" d="M23.5,14.9c0.2,0.2,0.2,0.4,0.2,0.7v1.2h-0.6v-1.1c0-0.2,0-0.3-0.1-0.4c-0.1-0.1-0.2-0.1-0.3-0.1
			c-0.2,0-0.3,0-0.4,0.1c-0.1,0.1-0.1,0.2-0.1,0.4v1h-0.6v-2.1h0.6V15c0.1-0.1,0.2-0.2,0.3-0.2c0.1,0,0.2-0.1,0.4-0.1
			C23.1,14.7,23.3,14.8,23.5,14.9z"/>
	</g>
	<path class="st1" d="M28.3,12.4l-1.4-1.7c-0.1-0.2-0.4-0.2-0.5,0L25,12.4c-0.2,0.2,0,0.5,0.2,0.5l0.8,0l0,5.9
		c0,0.3-0.2,0.5-0.5,0.5h-1.8l0.4,0.4c0.2,0.1,0.2,0.4,0,0.5l-0.4,0.3H26c0.7,0,1.3-0.6,1.3-1.3v-6.3l0.8,0
		C28.4,12.9,28.5,12.6,28.3,12.4z"/>
	<g>
	</g>
	<g>
	</g>
	<g>
	</g>
	<g>
	</g>
	<g>
	</g>
	<g>
	</g>
</g>
</svg>
