<?xml version="1.0" encoding="utf-8"?>
<!-- Generator: Adobe Illustrator 25.4.1, SVG Export Plug-In . SVG Version: 6.00 Build 0)  -->
<svg version="1.1" id="Layer_1" xmlns="http://www.w3.org/2000/svg" xmlns:xlink="http://www.w3.org/1999/xlink" x="0px" y="0px"
	 viewBox="0 0 32 32" style="enable-background:new 0 0 32 32;" xml:space="preserve">
<style type="text/css">
	.st0{fill:#FFFFFF;}
</style>
<path d="M25.7,31H6.3C3.4,31,1,28.6,1,25.7V6.3C1,3.4,3.4,1,6.3,1h19.4C28.6,1,31,3.4,31,6.3v19.4C31,28.6,28.6,31,25.7,31z"/>
<path class="st0" d="M16,20.8c-1,0-2,0-3,0c-0.7,0-0.9-0.3-0.9-0.9c0-1.6,0-3.3,0-4.9c0-0.4-0.1-0.5-0.5-0.5c-1.1,0-2.3,0-3.4,0
	c-0.4,0-0.7-0.1-0.8-0.5c-0.2-0.4,0-0.6,0.3-0.9c2.6-2.6,5.2-5.2,7.8-7.7c0.4-0.4,0.8-0.4,1.2,0c2.6,2.6,5.2,5.2,7.8,7.8
	c0.2,0.2,0.4,0.5,0.2,0.9c-0.2,0.4-0.4,0.4-0.8,0.4c-1.1,0-2.2,0-3.3,0c-0.4,0-0.6,0.1-0.6,0.5c0,1.6,0,3.1,0,4.7
	c0,0.9-0.2,1.1-1.1,1.1C17.9,20.8,17,20.8,16,20.8"/>
<path class="st0" d="M16.1,22.5c1.1,0,2.1,0,3.2,0c0.5,0,0.8,0.3,0.8,0.7s-0.3,0.7-0.8,0.7c-2.1,0-4.2,0-6.4,0
	c-0.5,0-0.8-0.2-0.8-0.7c0-0.5,0.2-0.7,0.8-0.7C13.9,22.5,15,22.5,16.1,22.5"/>
<path class="st0" d="M16,27c-0.9,0-1.7,0-2.6,0c-0.6,0-0.8-0.3-0.8-0.8c0-0.5,0.2-0.7,0.8-0.7c1.7,0,3.4,0,5,0
	c0.5,0,0.9,0.3,0.9,0.8c0,0.5-0.3,0.8-0.9,0.8C17.6,27,16.8,27,16,27L16,27z"/>
</svg>
