<?xml version="1.0" encoding="utf-8"?>
<!-- Generator: Adobe Illustrator 25.4.1, SVG Export Plug-In . SVG Version: 6.00 Build 0)  -->
<svg version="1.1" id="Layer_1" xmlns="http://www.w3.org/2000/svg" xmlns:xlink="http://www.w3.org/1999/xlink" x="0px" y="0px"
	 viewBox="0 0 32 32" style="enable-background:new 0 0 32 32;" xml:space="preserve">
<style type="text/css">
	.st0{clip-path:url(#SVGID_00000129198231561392160970000004424392503830574984_);fill:#EC1C24;}
	.st1{fill:#FFFFFF;}
	.st2{fill:#231F20;}
</style>
<g>
	<g>
		<defs>
			<rect id="SVGID_1_" x="0.9" y="9.5" width="30.2" height="26.3"/>
		</defs>
		<clipPath id="SVGID_00000108286285240095043760000002982627451290204561_">
			<use xlink:href="#SVGID_1_"  style="overflow:visible;"/>
		</clipPath>
	</g>
	<g>
		<defs>
			<rect id="SVGID_00000150812334721895131710000005459955342115584396_" x="-7.4" y="1.9" width="46.1" height="40.2"/>
		</defs>
		<clipPath id="SVGID_00000119806475968905684720000012320355562412710333_">
			<use xlink:href="#SVGID_00000150812334721895131710000005459955342115584396_"  style="overflow:visible;"/>
		</clipPath>
		<path style="clip-path:url(#SVGID_00000119806475968905684720000012320355562412710333_);fill:#EC1C24;" d="M30,16
			c0,7.8-6.3,14.1-14.1,14.1C8.2,30.1,1.9,23.8,1.9,16S8.2,1.9,16,1.9C23.7,1.9,30,8.2,30,16L30,16z"/>
	</g>
	<path class="st1" d="M16.1,23.8c-3.9,0-7.9-3.3-7.9-8.6c0-3.5,1.9-6.9,4.3-8.9c2.4-1.9,5.6-3.2,8.5-3.2c0.4,0,0.8,0,1,0.1
		c-2.6,0.5-4.6,2.9-4.6,5.6c0,0.1,0,0.2,0,0.2c4.3,1,6.2,3.6,6.2,7.2C23.7,19.9,20.8,23.8,16.1,23.8L16.1,23.8z"/>
</g>
<g>
	<g>
		<path class="st1" d="M-333.9-4.5c-0.5-0.4-1.2-0.9-1.4-1.2c0.1-0.2,0.4-0.7,0.7-1c1.3-1.9,3.7-5.4,3.7-10.4
			c0-5.7-4.2-12.5-16-12.5c-5.6,0-12,1.9-17.4,5.1c-4.9,2.9-8.1,6.3-8.1,8.6c0,0.6,0.2,1.1,0.6,1.5c1.5,1.5,5.8,1.5,10.8,1.5
			c7.4,0,10.4,0.4,10.4,1.6c0,1.4-8.7,4.9-8.7,8c0,3.5,7.3,4.2,10.6,4.8c3.1,0.6,3.4,2.2,3.4,3.4c0,2.2-0.8,4.1-2.2,5.4
			c-1.4,1.3-3.1,2-5.5,1.9c0.8-5.7-3.2-9.5-9.1-9.5c-6.6,0-10.6,5.5-10.6,10.8c0,8.3,7.7,16.8,22.4,16.8c5.8,0,11.7-1.9,16.2-5.3
			c3.7-2.8,8.1-7.8,8.1-16.1C-326.2,1.2-331.2-2.5-333.9-4.5z"/>
	</g>
	<g>
		<path class="st2" d="M-333.9-4.5c-0.5-0.4-1.2-0.9-1.4-1.2c0.1-0.2,0.4-0.7,0.7-1c1.3-1.9,3.7-5.4,3.7-10.4
			c0-5.7-4.2-12.5-16.1-12.5c-5.6,0-12,1.9-17.4,5.1c-4.9,2.9-8.1,6.3-8.1,8.6c0,0.6,0.2,1.1,0.6,1.5c1.5,1.5,5.8,1.5,10.8,1.5
			c7.4,0,10.4,0.4,10.4,1.6c0,1.4-8.7,4.9-8.7,8c0,3.5,7.3,4.2,10.6,4.8c3.1,0.6,3.4,2.2,3.4,3.4c0,2.2-0.8,4.1-2.2,5.4
			c-1.4,1.3-3.1,2-5.5,1.9c0.8-5.7-3.2-9.5-9.1-9.5c-6.6,0-10.6,5.5-10.6,10.8c0,8.4,7.7,16.8,22.4,16.8c5.8,0,11.7-1.9,16.2-5.3
			c3.7-2.8,8.1-7.8,8.1-16.1C-326.1,1.2-331.2-2.5-333.9-4.5z M-357.7-3.4L-357.7-3.4c0-0.9,2.6-2.6,4.2-3.6
			c2.5-1.6,4.4-2.8,4.4-4.3c0-0.6-0.2-1.2-0.7-1.6c-1.7-1.7-6.4-1.7-11.4-1.6c-1.8,0-3.8,0.1-5.6-0.1c1.9-0.6,4.2-1.8,6.7-3.2
			c3.7-2,7.8-4.2,11.7-5c-1,1-1.7,2.3-1.7,3.3c0,0.4,0.3,0.8,1,0.8c0.6,0,1.4-0.2,2.2-0.5c2.2-0.7,5.2-1.7,8.6,0.8
			c-1.1,0-2.1,0.3-2.6,0.7c-0.5,0.4-0.6,0.8-0.6,1.1c0,0.5,0.3,0.9,0.8,1.4c0.8,0.9,1.8,2,1.8,3.9c0,1.5-0.6,3.1-1.6,4.3
			c0.1-1,0-2.5-0.6-3.2c-0.3-0.3-0.6-0.5-1.1-0.5c-0.7,0-1.3,0.6-2.3,1.4c-0.7,0.6-1.6,1.3-2.7,2c-3.3,2.1-7,4.3-9.8,4.3
			C-357.3-3.1-357.7-3.2-357.7-3.4z M-353.6,13.7c2.9,0.2,5.3-0.6,7.1-2.3c1.8-1.6,2.8-4,2.8-6.6c0-1.5-0.5-2.5-1.7-3.4
			c4.3,0.9,8.9,3.1,11.3,6.5c-1.2-0.4-2-0.5-2.8-0.5c-0.6,0-1.2,0.7-1.2,1.5c0,0.4,0.2,0.9,0.4,1.6c0.6,2,1.7,5.2-1,9.3
			c0.1-1.7-0.4-3-0.9-3.7c-0.4-0.5-0.8-0.6-1-0.6c-0.8,0-1.3,0.8-1.9,1.9c-1.1,2-2.9,5.2-8.5,6.8c0.8-1.2,1.1-2.5,0.8-3.3
			c-0.1-0.4-0.4-0.6-0.8-0.6c0,0,0,0,0,0c-0.5,0-1.2,0.2-2,0.4c-2.5,0.7-6.3,1.8-10.1-1.4c0.8-0.1,1.5-0.3,1.9-0.7
			c0.3-0.3,0.5-0.6,0.5-1c0-0.5-0.4-0.9-1-1.5c-1.1-1-2.6-2.4-1.4-5.2c0.2,0.6,0.4,1.2,0.8,1.6c0.5,0.5,1,0.8,1.6,0.8
			c1.1,0,1.1-1,1.1-1.6c0-0.8,0.8-1.6,1.6-1.6c2.5,0,3.4,3.7,2.6,5.7C-354.5,15.3-353.8,14.3-353.6,13.7z M-335.2,23.5
			c-4.2,3.1-9.7,4.9-15.2,4.9c-13.6,0-20.8-7.6-20.8-15.1c0-4.5,3.3-9.1,8.9-9.1c3.3,0,8.4,1.6,7.8,8c-0.1-0.6-0.9-2.9-3.4-2.9
			c-1.4,0-2.6,1.1-2.6,2.5c0,0.6-0.1,0.7-0.2,0.7c-0.9,0-2.1-1.4-1.8-3.6c-3.6,4-1,6.8,0.2,8c0.3,0.3,0.7,0.7,0.7,0.8
			c0,0.4-1,1-3.6,0.8c4.5,5.3,9.7,3.9,12.5,3.1c0.7-0.2,1.5-0.5,1.7-0.2c0.4,0.5-0.6,2.8-1.9,4c7.5-1,10-5.3,11.3-7.6
			c0.4-0.8,0.8-1.4,1.1-1.4c0.8,0,1.5,3.2,1,5.7c5-4.7,3.6-9.7,2.8-11.9c-0.2-0.5-0.3-1-0.3-1.3c0-0.4,0.1-0.5,0.4-0.6
			c1.3,0,2.7,0.4,4.5,1.3c-4.6-10.8-20.6-9.3-24.5-11.7c2.9-0.2,6.7-2.3,10-4.4c1.2-0.8,2.1-1.5,2.8-2.1c0.8-0.6,1.4-1.2,1.8-1.2
			c1,0,1.1,2.9,0.6,4.6c2.4-1.6,3.6-3.9,3.6-6.1c0-2.2-1.2-3.6-2-4.5c-0.2-0.3-0.6-0.7-0.6-0.8c0-0.1,0.1-0.3,0.3-0.4
			c0.8-0.6,2.5-0.8,4.2-0.5c-3.8-4.8-8.4-3.4-11-2.6c-0.8,0.3-1.9,0.6-1.9,0.3c0-0.9,1.2-2.8,3.3-4.1c-4.4-0.3-10.4,3-14.7,5.3
			c-3.5,1.9-6.9,3.7-8.8,3.7c-1.2,0-1.6-0.4-1.6-0.9c0-3.3,11.6-12,23.8-12c4.6,0,8.4,1.1,11,3.3c2.2,1.9,3.4,4.5,3.4,7.5
			c0,4.5-2.1,7.6-3.4,9.5c-0.7,1-1,1.5-1,2c0,0.9,0.8,1.5,2.2,2.5c2.6,2,7.1,5.2,7.1,11.9C-327.8,16.4-331.8,21-335.2,23.5z"/>
	</g>
</g>
</svg>
