<?xml version="1.0" encoding="utf-8"?>
<!-- Generator: Adobe Illustrator 25.0.1, SVG Export Plug-In . SVG Version: 6.00 Build 0)  -->
<svg version="1.1" id="OBJECTS" xmlns="http://www.w3.org/2000/svg" xmlns:xlink="http://www.w3.org/1999/xlink" x="0px" y="0px"
	 viewBox="0 0 1044 146.6" style="enable-background:new 0 0 1044 146.6;" xml:space="preserve">
<style type="text/css">
	.st0{fill:#FFFFFF;}
</style>
<g>
	<path class="st0" d="M7.9,74.1c0-36.3,29-66.6,65.4-66.6c21.9,0,41,10.5,52.5,26.7L106,48.6C98.7,38.3,87.9,32,74.2,32
		c-23.4,0-40.4,19.1-40.4,42.1s16.8,42.3,40.2,42.3c13.8,0,24.7-6.4,32-16.6l19.8,14.4c-11.6,16.3-30.7,26.7-52.5,26.7
		C36.8,140.8,7.9,110.7,7.9,74.1z"/>
	<path class="st0" d="M220.5,9.7h26v128.8h-26V86.2h-48.1v52.4h-26V9.7h26v53.1h48.1V9.7z"/>
	<path class="st0" d="M343.3,138.6l-30.7-46.2h-8.8v46.2h-26V9.7h51.4c29.5,0,42.3,20.9,42.3,42.1c0,18.3-12.9,36.3-31,39.5
		l33.3,47.3H343.3z M303.9,32.7v38.7h20.8c14.6,0,20.8-8.8,20.8-19.1s-6.5-19.6-18.7-19.6C326.8,32.7,303.9,32.7,303.9,32.7z"/>
	<path class="st0" d="M396.6,138.6V9.7h26v128.8h-26V138.6z"/>
	<path class="st0" d="M446.7,101.2h26c0.2,9.2,9.2,16.8,21.1,16.8c11.6,0,19.3-6.4,19.3-15.5c0-7.1-5.2-12.2-16.3-15.5l-15.7-4.5
		C452.9,75,447.9,58,447.9,46.4c0-23,19.8-38.9,44.5-38.9c24.3,0,43,14.8,43,39.3h-26c0-9.2-6.4-16.3-17.6-16.3
		c-10.1,0-17.8,6.7-17.8,15.3c0,3.2,0.9,9.7,14.4,13.7l14.4,4.1c19.4,5.8,36.5,15.7,36.5,37.6c0,25.6-21.9,39.6-46.2,39.6
		C465.6,140.8,446.7,123.8,446.7,101.2z"/>
	<path class="st0" d="M645,9.7v23h-35.5v105.8h-26V32.7H548v-23C548,9.7,645,9.7,645,9.7z"/>
	<path class="st0" d="M809.5,138.6H783l-9.3-79.8L742.2,124h-20.4L690,58.7l-9.3,79.8h-26.6L670,9.7h22.1l39.8,84.5l39.5-84.5h22.4
		L809.5,138.6z"/>
	<path class="st0" d="M914,138.6l-10.5-30.9h-48.2L845,138.6h-27.7L865.4,9.7h28l47.9,128.8H914V138.6z M863,85.1h32.9l-16.5-48.8
		L863,85.1z"/>
	<path class="st0" d="M947.1,101.2h26c0.2,9.2,9.2,16.8,21.1,16.8c11.6,0,19.3-6.4,19.3-15.5c0-7.1-5.2-12.2-16.3-15.5l-15.7-4.5
		C953.3,75,948.3,58,948.3,46.4c0-23,19.8-38.9,44.5-38.9c24.3,0,43,14.8,43,39.3h-26c0-9.2-6.4-16.3-17.6-16.3
		c-10.1,0-17.8,6.7-17.8,15.3c0,3.2,0.9,9.7,14.4,13.7l14.4,4.1c19.4,5.8,36.5,15.7,36.5,37.6c0,25.6-21.9,39.6-46.2,39.6
		C966,140.8,947.1,123.8,947.1,101.2z"/>
</g>
</svg>
