<?xml version="1.0" encoding="utf-8"?>
<!-- Generator: Adobe Illustrator 24.0.0, SVG Export Plug-In . SVG Version: 6.00 Build 0)  -->
<svg version="1.1" id="Layer_1" xmlns="http://www.w3.org/2000/svg" xmlns:xlink="http://www.w3.org/1999/xlink" x="0px" y="0px"
	 viewBox="0 0 200 200" style="enable-background:new 0 0 200 200;" xml:space="preserve">
<g>
	<path d="M160.16,157.53h-22.27v-8.83h22.27c5.35,0,9.71-4.35,9.71-9.71V27.15c0-5.35-4.35-9.71-9.71-9.71h-53.74
		c-5.35,0-9.71,4.35-9.71,9.71V47.5h-8.83V27.15c0-10.22,8.32-18.54,18.54-18.54h53.74c10.22,0,18.54,8.32,18.54,18.54v111.84
		C178.7,149.21,170.38,157.53,160.16,157.53z"/>
</g>
<path d="M144.68,33.53h-22.09c-1.56,0-2.84-1.28-2.84-2.84v0c0-1.56,1.28-2.84,2.84-2.84h22.09c1.56,0,2.84,1.28,2.84,2.84v0
	C147.52,32.25,146.24,33.53,144.68,33.53z"/>
<path d="M149.36,140.34c0-0.24-0.01-0.47-0.01-0.67l0.27-78.34c0-10.05-9.02-18.23-20.12-18.23H76.4
	c-11.09,0-20.12,8.18-20.12,18.23v111.84c0,10.05,9.02,18.23,20.12,18.23h34.79c12.62,0,18.37-11,18.65-11.44l2.15-3.47l12.64-18.66
	c0.05-0.08,0.11-0.14,0.17-0.22C149.67,150.38,149.37,140.72,149.36,140.34z M111.18,183.19H76.4c-6.57,0-11.91-4.5-11.91-10.02
	V61.33c0-5.53,5.34-10.02,11.91-10.02h53.12c6.57,0,11.91,4.5,11.91,10.01l-0.27,78.34c0,0.24,0,0.5,0.01,0.78
	c0.01,0.92,0.03,2.98-0.29,3.75l-2.87,1.15l-15.18,6.33c-1.12,0.48-4.51,1.93-5.41,5.27c-0.82,3.08,1.05,5.58,1.85,6.64
	c3.74,4.99,4.72,9.61,2.85,13.36C120.26,180.62,115.77,183.19,111.18,183.19z M129.94,166c-0.79-2.14-1.99-4.44-3.75-6.86
	l11.71-4.88L129.94,166z"/>
<path d="M103.05,174.27c-5.55,0-9.98-4.44-9.97-10c0.01-5.51,4.45-9.94,9.98-9.94c5.54,0,9.99,4.46,9.98,10.01
	C113.03,169.82,108.56,174.27,103.05,174.27z M98.11,164.26c-0.03,2.71,2.18,4.97,4.87,5c2.72,0.03,4.98-2.16,5.01-4.85
	c0.03-2.8-2.14-5.03-4.92-5.05C100.35,159.33,98.13,161.53,98.11,164.26z"/>
<path d="M114.65,68.72H91.3c-2.47,0-4.5-2.02-4.5-4.5v0c0-2.47,2.02-4.5,4.5-4.5h23.35c2.47,0,4.5,2.02,4.5,4.5v0
	C119.15,66.7,117.12,68.72,114.65,68.72z"/>
<g>
	<path d="M30.99,82.81c0,0,5.89,0,6.18,0c2.63,0,5.26,0.01,7.89,0c2.94-0.02,4.9-1.93,4.91-4.88c0.02-7.08,0.01-14.16,0-21.24
		c0-1.25-0.53-1.78-1.77-1.79c-1-0.01-2,0-3.11,0c0-0.37,0-0.69,0-1c-0.04-2.27-0.07-4.54-0.12-6.81c-0.04-1.47-1.14-2.61-2.46-2.6
		c-1.35,0.01-2.39,1.12-2.4,2.64c-0.02,2.27-0.01,4.54-0.01,6.81c0,0.29,0,0.58,0,0.91H27.2c-0.02-0.35-0.04-0.66-0.04-0.98
		c0-2.13,0.01-4.27-0.01-6.4c0-0.43-0.04-0.87-0.16-1.28c-0.36-1.14-1.49-1.84-2.65-1.69c-1.18,0.16-2.13,1.21-2.15,2.48
		c-0.03,2.08-0.01,4.16-0.01,6.24c0,0.51,0,1.02,0,1.67c-0.99,0-1.95,0-2.92,0c-1.54,0-1.97,0.43-1.97,1.98c0,7-0.01,14,0,20.99
		c0,3,1.9,4.9,4.92,4.93c2.57,0.02,5.15,0.01,7.72,0.01C30.26,82.81,30.58,82.81,30.99,82.81z"/>
</g>
<path d="M37.14,191.4h-4.62c-2.2,0-4-1.8-4-4V95.06c0-2.2,1.8-4,4-4h4.62c2.2,0,4,1.8,4,4v92.33
	C41.14,189.6,39.34,191.4,37.14,191.4z"/>
</svg>
