<?xml version="1.0" encoding="utf-8"?>
<!-- Generator: Adobe Illustrator 24.0.0, SVG Export Plug-In . SVG Version: 6.00 Build 0)  -->
<svg version="1.1" id="Layer_1" xmlns="http://www.w3.org/2000/svg" xmlns:xlink="http://www.w3.org/1999/xlink" x="0px" y="0px"
	 viewBox="0 0 131.02 96.44" style="enable-background:new 0 0 131.02 96.44;" xml:space="preserve">
<g>
	<path d="M38.24,91.05L38.24,91.05c-2.3,0-4.18-1.88-4.18-4.18V11.15c0-2.3,1.88-4.18,4.18-4.18s4.18,1.88,4.18,4.18v75.73
		C42.42,89.18,40.54,91.05,38.24,91.05z"/>
	<path d="M21.4,81.05L21.4,81.05c-2.3,0-4.18-1.88-4.18-4.18V21.15c0-2.3,1.88-4.18,4.18-4.18s4.18,1.88,4.18,4.18v55.72
		C25.58,79.17,23.7,81.05,21.4,81.05z"/>
	<path d="M5.68,66.87L5.68,66.87c-2.3,0-4.18-1.88-4.18-4.18V35.73c0-2.3,1.88-4.18,4.18-4.18c2.3,0,4.18,1.88,4.18,4.18v26.96
		C9.85,64.99,7.97,66.87,5.68,66.87z"/>
	<path d="M56.76,74.16L56.76,74.16c-2.3,0-4.18-1.88-4.18-4.18V28.44c0-2.3,1.88-4.18,4.18-4.18c2.3,0,4.18,1.88,4.18,4.18v41.54
		C60.93,72.28,59.05,74.16,56.76,74.16z"/>
	<path d="M74.72,66.87L74.72,66.87c-2.3,0-4.18-1.88-4.18-4.18V35.73c0-2.3,1.88-4.18,4.18-4.18s4.18,1.88,4.18,4.18v26.96
		C78.9,64.99,77.02,66.87,74.72,66.87z"/>
	<path d="M91.35,91.25L91.35,91.25c2.3,0,4.18-1.88,4.18-4.18V11.35c0-2.3-1.88-4.18-4.18-4.18s-4.18,1.88-4.18,4.18v75.73
		C87.17,89.37,89.05,91.25,91.35,91.25z"/>
	<path d="M108.19,81.05L108.19,81.05c2.3,0,4.18-1.88,4.18-4.18V21.15c0-2.3-1.88-4.18-4.18-4.18c-2.3,0-4.18,1.88-4.18,4.18v55.72
		C104.01,79.17,105.89,81.05,108.19,81.05z"/>
	<path d="M125.03,66.67L125.03,66.67c-2.3,0-4.18-1.88-4.18-4.18V35.53c0-2.3,1.88-4.18,4.18-4.18c2.3,0,4.18,1.88,4.18,4.18V62.5
		C129.2,64.79,127.32,66.67,125.03,66.67z"/>
</g>
</svg>
