<?xml version="1.0" encoding="utf-8"?>
<!-- Generator: Adobe Illustrator 24.0.1, SVG Export Plug-In . SVG Version: 6.00 Build 0)  -->
<svg version="1.1" id="Layer_1" xmlns="http://www.w3.org/2000/svg" xmlns:xlink="http://www.w3.org/1999/xlink" x="0px" y="0px"
	 viewBox="0 0 181.57 254.06" style="enable-background:new 0 0 181.57 254.06;" xml:space="preserve">
<style type="text/css">
	.st0{fill:none;stroke:#000000;stroke-width:13;stroke-miterlimit:10;}
	.st1{fill:#010202;}
	.st2{fill:#FFFFFF;stroke:#000000;stroke-width:7;stroke-miterlimit:10;}
</style>
<path class="st0" d="M56.37,12.36L14.89,55.84c-1.87,1.96-2.92,4.61-2.92,7.38v170.55c0,5.76,4.46,10.43,9.96,10.43H161.3
	c5.5,0,9.96-4.67,9.96-10.43V19.74c0-5.76-4.46-10.43-9.96-10.43H63.41C60.77,9.3,58.24,10.4,56.37,12.36z"/>
<path class="st1" d="M70.16,46.25h-3.32c-0.55,0-1-0.45-1-1v-13.3c0-0.55,0.45-1,1-1h3.32c0.55,0,1,0.45,1,1v13.3
	C71.16,45.8,70.71,46.25,70.16,46.25z"/>
<path class="st1" d="M92.77,46.25h-3.32c-0.55,0-1-0.45-1-1v-13.3c0-0.55,0.45-1,1-1h3.32c0.55,0,1,0.45,1,1v13.3
	C93.77,45.8,93.32,46.25,92.77,46.25z"/>
<path class="st1" d="M113.38,46.25h-3.32c-0.55,0-1-0.45-1-1v-13.3c0-0.55,0.45-1,1-1h3.32c0.55,0,1,0.45,1,1v13.3
	C114.38,45.8,113.93,46.25,113.38,46.25z"/>
<path class="st1" d="M134.14,46.25h-3.32c-0.55,0-1-0.45-1-1v-13.3c0-0.55,0.45-1,1-1h3.32c0.55,0,1,0.45,1,1v13.3
	C135.14,45.8,134.69,46.25,134.14,46.25z"/>
<path class="st2" d="M141.9,217.79H43.41c-3.67,0-6.68-3.01-6.68-6.68v-58.47c0-3.67,3.01-6.68,6.68-6.68h98.49
	c3.67,0,6.68,3.01,6.68,6.68v58.47C148.58,214.79,145.57,217.79,141.9,217.79z"/>
<path class="st1" d="M155.85,46.25h-3.32c-0.55,0-1-0.45-1-1v-13.3c0-0.55,0.45-1,1-1h3.32c0.55,0,1,0.45,1,1v13.3
	C156.85,45.8,156.4,46.25,155.85,46.25z"/>
</svg>
