<?xml version="1.0" encoding="utf-8"?>
<!-- Generator: Adobe Illustrator 24.0.3, SVG Export Plug-In . SVG Version: 6.00 Build 0)  -->
<svg version="1.1" id="Layer_1" xmlns="http://www.w3.org/2000/svg" xmlns:xlink="http://www.w3.org/1999/xlink" x="0px" y="0px"
	 viewBox="0 0 131 123.4" style="enable-background:new 0 0 131 123.4;" xml:space="preserve">
<style type="text/css">
	.st0{fill:#FFFFFF;}
</style>
<path d="M-57.2-87.7"/>
<g>
	<path class="st0" d="M67.2,76.8c0,0-4.9,47.9,25.3,35.5"/>
	<path d="M49.2,45.5c-1.7,0-3.1,1.4-3.1,3.1v19.9c0,0.1,0,0.7,0,1.4c0,1,0.1,2.1,0,2.3c0,1.4,0.5,8.6,13.9,12.8l0.8,0.3l0.1,0.7
		c0.3,10,2.5,23.3,11,29.7c5.7,4.2,13.3,4.7,22,1.2l0.2-0.1c0.1-0.1,0.2-0.1,0.3-0.1c0.1,0,0.2-0.1,0.2-0.1l0.1,0
		c20.2-10.5,32.8-31.2,32.8-53.9c0-33.5-27.2-60.7-60.7-60.7S6.2,29.1,6.2,62.6c0,22,11.9,42.3,31.1,53c1.3,0.7,2.8,0.9,4.2,0.5
		c1.4-0.4,2.6-1.3,3.3-2.6c0.7-1.3,0.9-2.8,0.5-4.2s-1.3-2.6-2.6-3.3C27,97.2,17.2,80.6,17.2,62.6c0-27.4,22.3-49.7,49.7-49.7
		c27.4,0,49.7,22.3,49.7,49.7c0,18.5-10.2,35.4-26.6,44l-0.1,0c-4.9,2-8.7,2-11.2,0.1c-5-3.7-6.2-14.2-6.5-20.2l0-0.7l0.6-0.3
		c0.6-0.3,1.2-0.5,2-0.8c13.5-4.2,14-11.4,13.9-12.8c0-0.2,0-1.3,0-2.3c0-0.7,0-1.2,0-1.3V48.6c0-1.7-1.4-3.1-3.1-3.1H49.2z"/>
	<path d="M60.6,41.9h-3.1c-1.3,0-2.4-1-2.4-2.4V31c0-1.3,1.1-2.4,2.4-2.4h3.1c1.3,0,2.4,1,2.4,2.4v8.6
		C62.9,40.9,61.9,41.9,60.6,41.9z"/>
	<path d="M76.9,41.9h-3.1c-1.3,0-2.4-1-2.4-2.4V31c0-1.3,1.1-2.4,2.4-2.4h3.1c1.3,0,2.4,1,2.4,2.4v8.6
		C79.3,40.9,78.2,41.9,76.9,41.9z"/>
</g>
</svg>
