<?xml version="1.0" encoding="utf-8"?>
<!-- Generator: Adobe Illustrator 24.0.0, SVG Export Plug-In . SVG Version: 6.00 Build 0)  -->
<svg version="1.1" id="Layer_1" xmlns="http://www.w3.org/2000/svg" xmlns:xlink="http://www.w3.org/1999/xlink" x="0px" y="0px"
	 viewBox="0 0 124.59 209.6" style="enable-background:new 0 0 124.59 209.6;" xml:space="preserve">
<style type="text/css">
	.st0{fill:transparent;stroke:#000000;stroke-width:11;stroke-miterlimit:10;}
	.st1{fill:transparent;stroke:#000000;stroke-width:7;stroke-miterlimit:10;}
</style>
<path class="st0" d="M97.49,203.27H26.71c-10.08,0-18.26-8.18-18.26-18.26V24.66c0-10.08,8.18-18.26,18.26-18.26h70.78
	c10.08,0,18.26,8.18,18.26,18.26v160.35C115.75,195.09,107.57,203.27,97.49,203.27z"/>
<path class="st1" d="M55.08,45.41H32.32c-4.96,0-9.01-4.06-9.01-9.01v-5.91c0-4.96,4.06-9.01,9.01-9.01h22.76
	c4.96,0,9.01,4.06,9.01,9.01v5.91C64.1,41.35,60.04,45.41,55.08,45.41z"/>
</svg>
