<?xml version="1.0" encoding="utf-8"?>
<!-- Generator: Adobe Illustrator 24.0.0, SVG Export Plug-In . SVG Version: 6.00 Build 0)  -->
<svg version="1.1" id="Layer_1" xmlns="http://www.w3.org/2000/svg" xmlns:xlink="http://www.w3.org/1999/xlink" x="0px" y="0px"
	 viewBox="0 0 124.59 197.75" style="enable-background:new 0 0 124.59 197.75;" xml:space="preserve">
<style type="text/css">
	.st0{fill:#020203;}
</style>
<path class="st0" d="M122.88,128.08c0-0.31-0.01-0.61-0.01-0.87l0.36-102.04c0-13.09-11.76-23.74-26.2-23.74H27.83
	c-14.45,0-26.2,10.65-26.2,23.74v145.69c0,13.09,11.76,23.74,26.2,23.74h45.31c16.44,0,23.93-14.33,24.3-14.91l2.8-4.52l16.47-24.3
	c0.07-0.1,0.15-0.19,0.22-0.29C123.28,141.16,122.88,128.58,122.88,128.08z M73.14,183.9H27.83c-8.56,0-15.52-5.86-15.52-13.06
	V25.16c0-7.2,6.96-13.06,15.52-13.06h69.19c8.56,0,15.52,5.86,15.52,13.04l-0.36,102.04c0,0.32,0,0.66,0.01,1.01
	c0.01,1.19,0.04,3.89-0.38,4.89l-3.74,1.49l-19.78,8.24c-1.45,0.62-5.88,2.52-7.04,6.86c-1.07,4.01,1.36,7.27,2.41,8.65
	c4.87,6.5,6.15,12.51,3.71,17.41C84.97,180.55,79.12,183.9,73.14,183.9z M97.57,161.51c-1.03-2.79-2.6-5.78-4.89-8.94l15.25-6.36
	L97.57,161.51z"/>
<path d="M62.54,172.28c-7.23,0-12.99-5.79-12.99-13.03c0.01-7.18,5.8-12.95,13-12.95c7.21,0,13.01,5.81,13,13.03
	C75.55,166.49,69.73,172.28,62.54,172.28z M56.11,159.24c-0.04,3.53,2.84,6.48,6.35,6.51c3.54,0.04,6.49-2.82,6.52-6.32
	c0.04-3.65-2.79-6.55-6.41-6.58C59.04,152.82,56.14,155.69,56.11,159.24z"/>
<path d="M77.66,34.79H47.24c-3.22,0-5.86-2.64-5.86-5.86v0c0-3.22,2.64-5.86,5.86-5.86h30.41c3.22,0,5.86,2.64,5.86,5.86v0
	C83.52,32.15,80.88,34.79,77.66,34.79z"/>
</svg>
