<?xml version="1.0" encoding="utf-8"?>
<!-- Generator: Adobe Illustrator 23.0.2, SVG Export Plug-In . SVG Version: 6.00 Build 0)  -->
<svg version="1.1" id="Layer_1" xmlns="http://www.w3.org/2000/svg" xmlns:xlink="http://www.w3.org/1999/xlink" x="0px" y="0px"
	 viewBox="0 0 172.95 172.2" style="enable-background:new 0 0 172.95 172.2;" xml:space="preserve">
<style type="text/css">
	.st0{fill:none;}
</style>
<g>
	<g>
		<path class="st0" d="M131.03,130.13c0-7.93,0.03-15.87-0.01-23.8c-0.02-3.8-0.26-4.04-3.96-4.05c-10.28-0.03-20.57-0.04-30.85,0
			c-3.25,0.01-3.62,0.34-3.63,3.48c-0.04,16.6-0.04,33.21,0,49.81c0.01,2.92,0.48,3.41,3.3,3.42c10.58,0.06,21.16,0.05,31.74,0
			c3.03-0.01,3.36-0.4,3.39-3.74c0.06-7.49,0.02-14.99,0.02-22.48C131.03,131.89,131.03,131.01,131.03,130.13z"/>
		<path class="st0" d="M76.41,102.28c-10.28-0.04-20.57-0.04-30.85,0c-3.69,0.01-3.94,0.25-3.96,4.05
			c-0.04,7.93-0.01,15.87-0.01,23.8c0,0.88,0,1.76,0,2.64c0,7.49-0.04,14.99,0.02,22.48c0.03,3.35,0.36,3.73,3.39,3.74
			c10.58,0.05,21.16,0.05,31.74,0c2.82-0.02,3.3-0.5,3.3-3.42c0.04-16.6,0.04-33.21,0-49.81C80.03,102.62,79.66,102.29,76.41,102.28
			z"/>
		<path d="M6.19,25.42c26.67-0.03,53.35-0.01,80.02-0.01c0.02,0,0.03,0,0.05,0c0.02,0,0.03,0,0.05,0c26.67,0,53.35-0.02,80.02,0.01
			c5.8,0.01,5.56,0.07,5.47-6.06c-0.02-1.41-0.68-2.19-2.08-2.32c-0.29-0.03-0.59-0.02-0.88-0.03c-5.04-0.17-6.13-1.71-7.15-5.48
			c-0.76-2.82-1.93-5.53-2.95-8.28c-1.18-3.19-1.2-3.19-4.72-3.25c-0.59-0.01-1.17,0-1.76,0c-22,0-44,0-66.01,0c-22,0-44,0-66.01,0
			C19.67,0,19.08,0,18.49,0c-3.52,0.06-3.54,0.05-4.72,3.25c-1.02,2.75-2.18,5.46-2.94,8.28c-1.02,3.77-2.11,5.31-7.15,5.48
			c-0.28,0.01-0.59,0-0.88,0.03c-1.4,0.14-2.06,0.92-2.08,2.32C0.63,25.49,0.39,25.42,6.19,25.42z"/>
		<path d="M70.13,66.16c-0.74-0.53-1.6-0.79-2.57-0.79c-1.06,0-1.99,0.3-2.79,0.89c-0.5,0.37-0.97,1.03-1.4,1.96h8.25
			C71.37,67.38,70.87,66.69,70.13,66.16z"/>
		<path d="M35.18,65.73c-1.18,0-2.17,0.41-2.95,1.23c-0.79,0.82-1.18,1.87-1.18,3.16c0,1.32,0.39,2.39,1.17,3.2
			c0.78,0.82,1.76,1.23,2.95,1.23c1.19,0,2.18-0.41,2.97-1.24c0.79-0.83,1.19-1.89,1.19-3.19c0-1.3-0.39-2.36-1.17-3.17
			C37.38,66.13,36.39,65.73,35.18,65.73z"/>
		<path d="M145.6,66.16c-0.74-0.53-1.6-0.79-2.57-0.79c-1.06,0-1.99,0.3-2.79,0.89c-0.5,0.37-0.97,1.03-1.4,1.96h8.25
			C146.84,67.38,146.34,66.69,145.6,66.16z"/>
		<path d="M99.65,74.55c1.19,0,2.18-0.41,2.97-1.24c0.79-0.83,1.19-1.89,1.19-3.19c0-1.3-0.39-2.36-1.17-3.17
			c-0.78-0.81-1.77-1.22-2.98-1.22c-1.18,0-2.16,0.41-2.95,1.23c-0.79,0.82-1.18,1.87-1.18,3.16c0,1.32,0.39,2.39,1.17,3.2
			C97.48,74.14,98.46,74.55,99.65,74.55z"/>
		<g>
			<path class="st0" d="M48.49,71.61c0-1.58,0.06-2.6,0.17-3.07c0.21-0.91,0.6-1.62,1.15-2.14c0.55-0.51,1.21-0.77,1.98-0.77
				c0.59,0,1.09,0.16,1.49,0.47c0.4,0.31,0.69,0.76,0.85,1.36c0.16,0.59,0.24,1.8,0.24,3.6v6.64h3.76V67.68
				c0-1.75-0.44-3.06-1.32-3.96c-1.05-1.05-2.32-1.57-3.83-1.57c-0.73,0-1.45,0.14-2.15,0.43c-0.7,0.28-1.48,0.79-2.34,1.52v-1.55
				h-3.8v15.16h3.8V71.61z"/>
			<path class="st0" d="M27.34,62.54h-2.41l0.01-1.89c0-0.44,0.07-0.72,0.22-0.86c0.2-0.19,0.53-0.28,0.98-0.28
				c0.35,0,0.8,0.08,1.35,0.24v-2.9c-0.99-0.36-1.89-0.54-2.67-0.54c-1.1,0-1.94,0.24-2.54,0.73c-0.6,0.49-0.95,1.15-1.05,1.99
				c-0.06,0.36-0.09,1.54-0.1,3.52h-1.35v3.22h1.35v11.94h3.8V65.76h2.41V62.54z"/>
			<path class="st0" d="M43.15,70.1c0-1.42-0.35-2.74-1.06-3.97c-0.71-1.23-1.69-2.2-2.95-2.91c-1.26-0.71-2.6-1.07-4.03-1.07
				c-1.98,0-3.73,0.69-5.25,2.06c-1.74,1.58-2.6,3.55-2.6,5.92c0,2.21,0.77,4.09,2.31,5.63c1.54,1.55,3.39,2.32,5.56,2.32
				c1.48,0,2.83-0.35,4.05-1.05c1.23-0.7,2.19-1.67,2.9-2.92C42.8,72.87,43.15,71.53,43.15,70.1z"/>
			<path class="st0" d="M76.41,102.28c-10.28-0.04-20.57-0.04-30.85,0c-3.69,0.01-3.94,0.25-3.96,4.05
				c-0.04,7.93-0.01,15.87-0.01,23.8c0,0.88,0,1.76,0,2.64c0,7.49-0.04,14.99,0.02,22.48c0.03,3.35,0.36,3.73,3.39,3.74
				c10.58,0.05,21.16,0.05,31.74,0c2.82-0.02,3.3-0.5,3.3-3.42c0.04-16.6,0.04-33.21,0-49.81
				C80.03,102.62,79.66,102.29,76.41,102.28z"/>
			<path class="st0" d="M67.58,78.08c1.53,0,2.86-0.27,3.97-0.81c1.11-0.54,2.07-1.38,2.87-2.51l-3.2-1.5
				c-1.02,0.99-2.24,1.49-3.66,1.49c-1.19,0-2.17-0.32-2.93-0.95c-0.77-0.64-1.24-1.49-1.41-2.57h12.22l0.01-0.72
				c0-2.51-0.75-4.52-2.24-6.05c-1.5-1.53-3.44-2.29-5.82-2.29c-2.25,0-4.12,0.76-5.61,2.29c-1.49,1.53-2.24,3.45-2.24,5.76
				c0,2.26,0.75,4.14,2.24,5.63C63.27,77.33,65.2,78.08,67.58,78.08z"/>
			<path class="st0" d="M111.77,76.97c1.03,0.74,2.37,1.11,4.03,1.11c1.53,0,2.8-0.32,3.79-0.95c0.99-0.64,1.75-1.55,2.26-2.74
				c0.42-0.98,0.63-2.79,0.63-5.43v-6.42h-3.8v7.42c0,1.43-0.08,2.36-0.24,2.8c-0.21,0.58-0.54,1.03-0.98,1.33
				c-0.44,0.3-0.98,0.45-1.61,0.45c-0.63,0-1.17-0.15-1.6-0.46c-0.43-0.31-0.75-0.74-0.94-1.29c-0.2-0.55-0.29-1.54-0.29-2.96v-7.3
				h-3.84v6.31c0,2.42,0.15,4.1,0.44,5.02C110.03,75.19,110.75,76.23,111.77,76.97z"/>
			<path class="st0" d="M85.25,62.15c-0.77,0-1.53,0.16-2.28,0.48c-0.75,0.32-1.5,0.8-2.24,1.44v-7.38h-3.77v21.01h3.77v-6.09
				c0-1.63,0.06-2.67,0.17-3.12c0.21-0.88,0.6-1.58,1.15-2.09c0.55-0.51,1.21-0.77,1.98-0.77c0.59,0,1.09,0.15,1.5,0.46
				c0.4,0.31,0.69,0.77,0.86,1.39c0.17,0.62,0.25,1.81,0.25,3.57v6.64h3.75V67.68c0-1.75-0.44-3.07-1.32-3.97
				C88.02,62.67,86.75,62.15,85.25,62.15z"/>
			<path class="st0" d="M130.44,68.5l-1.39-0.7c-0.6-0.3-0.98-0.53-1.14-0.7c-0.15-0.17-0.23-0.36-0.23-0.56
				c0-0.27,0.12-0.49,0.36-0.68c0.24-0.18,0.58-0.27,1-0.27c0.78,0,1.65,0.47,2.6,1.42l2.35-2.35c-0.6-0.81-1.34-1.43-2.21-1.86
				c-0.87-0.43-1.79-0.65-2.78-0.65c-1.44,0-2.62,0.43-3.54,1.27c-0.92,0.85-1.39,1.87-1.39,3.07c0,1.86,1.23,3.4,3.68,4.64
				l1.28,0.64c1.1,0.56,1.66,1.13,1.66,1.71c0,0.32-0.15,0.59-0.46,0.84c-0.31,0.24-0.71,0.36-1.21,0.36c-0.46,0-1-0.16-1.6-0.48
				c-0.6-0.32-1.12-0.74-1.57-1.26l-2.34,2.55c1.32,1.73,3.08,2.59,5.29,2.59c1.66,0,2.99-0.45,3.98-1.35
				c0.99-0.9,1.48-2.02,1.48-3.37c0-1.01-0.27-1.9-0.82-2.65C132.91,69.96,131.9,69.22,130.44,68.5z"/>
			<path class="st0" d="M142.84,62.15c-2.25,0-4.12,0.76-5.61,2.29c-1.49,1.53-2.24,3.45-2.24,5.76c0,2.26,0.75,4.14,2.24,5.63
				c1.5,1.5,3.43,2.25,5.81,2.25c1.53,0,2.86-0.27,3.97-0.81c1.11-0.54,2.07-1.38,2.87-2.51l-3.2-1.5
				c-1.02,0.99-2.24,1.49-3.66,1.49c-1.19,0-2.17-0.32-2.93-0.95c-0.77-0.64-1.24-1.49-1.41-2.57h12.22l0.01-0.72
				c0-2.51-0.75-4.52-2.24-6.05C147.17,62.91,145.23,62.15,142.84,62.15z"/>
			<path class="st0" d="M99.61,78.08c1.48,0,2.83-0.35,4.05-1.05c1.23-0.7,2.19-1.67,2.9-2.92c0.71-1.24,1.07-2.58,1.07-4.01
				c0-1.42-0.35-2.74-1.06-3.97c-0.71-1.23-1.69-2.2-2.95-2.91c-1.26-0.71-2.6-1.07-4.03-1.07c-1.98,0-3.73,0.69-5.25,2.06
				c-1.74,1.58-2.6,3.55-2.6,5.92c0,2.21,0.77,4.09,2.3,5.63C95.59,77.31,97.44,78.08,99.61,78.08z"/>
			<path class="st0" d="M131.03,130.13c0-7.93,0.03-15.87-0.01-23.8c-0.02-3.8-0.26-4.04-3.96-4.05c-10.28-0.03-20.57-0.04-30.85,0
				c-3.25,0.01-3.62,0.34-3.63,3.48c-0.04,16.6-0.04,33.21,0,49.81c0.01,2.92,0.48,3.41,3.3,3.42c10.58,0.06,21.16,0.05,31.74,0
				c3.03-0.01,3.36-0.4,3.39-3.74c0.06-7.49,0.02-14.99,0.02-22.48C131.03,131.89,131.03,131.01,131.03,130.13z"/>
			<path d="M170.75,163.68c-2.62-0.98-2.52-2.42-2.47-4.35c0.06-1.95,0.15-3.63-2.37-4.53c-1.16-0.42-1.16-1.38-1.16-2.18
				c0-1.76,0.05-2.35,0.05-3.53c0-37.17,0-74.34,0-111.52c0-5.37-0.01-5.4-5.26-5.4c-24.41,0-48.83,0-73.24,0c0,0,0,0-0.01,0
				c0,0,0,0-0.01,0c-24.41,0-48.83,0-73.24,0c-5.25,0-5.26,0.03-5.26,5.4c0,37.17,0,74.34,0,111.52c0,1.18,0.05,1.76,0.05,3.53
				c0,0.8,0,1.76-1.16,2.18c-2.52,0.91-2.42,2.59-2.37,4.53c0.05,1.93,0.16,3.37-2.47,4.35c-1.07,0.4-1.08,1.03-1.08,1.66
				c0.01,4.91-0.1,5.86,5.03,5.86c26.83,0,53.66,0,80.49,0c0,0,0,0,0.01,0c0,0,0,0,0.01,0c26.83,0,53.66,0,80.49,0
				c5.13,0,5.02-0.95,5.03-5.86C171.83,164.71,171.82,164.08,170.75,163.68z M109.16,62.54h3.84v7.3c0,1.42,0.1,2.41,0.29,2.96
				c0.19,0.55,0.51,0.98,0.94,1.29c0.43,0.31,0.97,0.46,1.6,0.46c0.63,0,1.17-0.15,1.61-0.45c0.44-0.3,0.77-0.75,0.98-1.33
				c0.16-0.44,0.24-1.37,0.24-2.8v-7.42h3.8v6.42c0,2.65-0.21,4.46-0.63,5.43c-0.51,1.19-1.26,2.1-2.26,2.74
				c-0.99,0.64-2.26,0.95-3.79,0.95c-1.66,0-3.01-0.37-4.03-1.11c-1.03-0.74-1.75-1.78-2.17-3.11c-0.3-0.92-0.44-2.59-0.44-5.02
				V62.54z M61.76,64.44c1.49-1.53,3.36-2.29,5.61-2.29c2.39,0,4.33,0.76,5.82,2.29c1.5,1.53,2.24,3.54,2.24,6.05l-0.01,0.72H63.21
				c0.18,1.08,0.65,1.93,1.41,2.57c0.77,0.64,1.74,0.95,2.93,0.95c1.42,0,2.64-0.5,3.66-1.49l3.2,1.5c-0.8,1.13-1.76,1.97-2.87,2.51
				c-1.11,0.54-2.44,0.81-3.97,0.81c-2.38,0-4.31-0.75-5.81-2.25c-1.5-1.5-2.24-3.38-2.24-5.63C59.53,67.89,60.27,65.97,61.76,64.44
				z M44.69,62.54h3.8v1.55c0.86-0.73,1.64-1.23,2.34-1.52c0.7-0.28,1.42-0.43,2.15-0.43c1.5,0,2.78,0.52,3.83,1.57
				c0.88,0.89,1.32,2.21,1.32,3.96v10.02h-3.76v-6.64c0-1.81-0.08-3.01-0.24-3.6c-0.16-0.59-0.44-1.05-0.85-1.36
				c-0.4-0.31-0.9-0.47-1.49-0.47c-0.77,0-1.43,0.26-1.98,0.77c-0.55,0.52-0.93,1.23-1.15,2.14c-0.11,0.47-0.17,1.5-0.17,3.07v6.08
				h-3.8V62.54z M24.93,77.69h-3.8V65.76h-1.35v-3.22h1.35c0.01-1.99,0.04-3.16,0.1-3.52c0.1-0.84,0.45-1.5,1.05-1.99
				c0.6-0.49,1.45-0.73,2.54-0.73c0.79,0,1.68,0.18,2.67,0.54v2.9c-0.55-0.16-1-0.24-1.35-0.24c-0.45,0-0.77,0.09-0.98,0.28
				c-0.15,0.14-0.22,0.43-0.22,0.86l-0.01,1.89h2.41v3.22h-2.41V77.69z M39.18,77.03c-1.23,0.7-2.58,1.05-4.05,1.05
				c-2.17,0-4.03-0.77-5.56-2.32c-1.54-1.55-2.31-3.42-2.31-5.63c0-2.37,0.87-4.34,2.6-5.92c1.52-1.37,3.27-2.06,5.25-2.06
				c1.43,0,2.77,0.36,4.03,1.07c1.26,0.72,2.24,1.69,2.95,2.91c0.71,1.23,1.06,2.55,1.06,3.97c0,1.43-0.36,2.77-1.07,4.01
				C41.38,75.36,40.41,76.33,39.18,77.03z M80.03,155.57c-0.01,2.92-0.48,3.41-3.3,3.42c-10.58,0.06-21.16,0.05-31.74,0
				c-3.03-0.01-3.36-0.4-3.39-3.74c-0.06-7.49-0.02-14.99-0.02-22.48c0-0.88,0-1.76,0-2.64c0-7.93-0.03-15.87,0.01-23.8
				c0.02-3.8,0.26-4.04,3.96-4.05c10.28-0.03,20.57-0.04,30.85,0c3.25,0.01,3.62,0.34,3.63,3.48
				C80.07,122.37,80.07,138.97,80.03,155.57z M90.38,77.69h-3.75v-6.64c0-1.75-0.08-2.94-0.25-3.57c-0.17-0.62-0.45-1.09-0.86-1.39
				c-0.4-0.31-0.9-0.46-1.5-0.46c-0.77,0-1.43,0.26-1.98,0.77c-0.55,0.51-0.94,1.21-1.15,2.09c-0.11,0.46-0.17,1.5-0.17,3.12v6.09
				h-3.77V56.69h3.77v7.38c0.74-0.64,1.49-1.12,2.24-1.44c0.75-0.32,1.51-0.48,2.28-0.48c1.5,0,2.77,0.52,3.8,1.56
				c0.88,0.9,1.32,2.22,1.32,3.97V77.69z M94.35,64.21c1.52-1.37,3.27-2.06,5.25-2.06c1.43,0,2.77,0.36,4.03,1.07
				c1.26,0.72,2.24,1.69,2.95,2.91c0.71,1.23,1.06,2.55,1.06,3.97c0,1.43-0.36,2.77-1.07,4.01c-0.71,1.24-1.68,2.22-2.9,2.92
				c-1.23,0.7-2.58,1.05-4.05,1.05c-2.17,0-4.03-0.77-5.56-2.32c-1.54-1.55-2.3-3.42-2.3-5.63C91.75,67.76,92.61,65.79,94.35,64.21z
				 M131.01,155.25c-0.03,3.35-0.36,3.73-3.39,3.74c-10.58,0.05-21.16,0.05-31.74,0c-2.82-0.02-3.3-0.5-3.3-3.42
				c-0.04-16.6-0.04-33.21,0-49.81c0.01-3.15,0.38-3.47,3.63-3.48c10.28-0.04,20.57-0.04,30.85,0c3.69,0.01,3.94,0.25,3.96,4.05
				c0.04,7.93,0.01,15.87,0.01,23.8c0,0.88,0,1.76,0,2.64C131.03,140.27,131.06,147.76,131.01,155.25z M132.8,76.73
				c-0.99,0.9-2.32,1.35-3.98,1.35c-2.21,0-3.97-0.86-5.29-2.59l2.34-2.55c0.45,0.52,0.97,0.94,1.57,1.26
				c0.6,0.32,1.13,0.48,1.6,0.48c0.5,0,0.9-0.12,1.21-0.36c0.31-0.24,0.46-0.52,0.46-0.84c0-0.59-0.55-1.16-1.66-1.71l-1.28-0.64
				c-2.45-1.24-3.68-2.78-3.68-4.64c0-1.2,0.46-2.22,1.39-3.07c0.92-0.85,2.11-1.27,3.54-1.27c0.98,0,1.91,0.22,2.78,0.65
				c0.87,0.43,1.6,1.05,2.21,1.86l-2.35,2.35c-0.96-0.95-1.83-1.42-2.6-1.42c-0.43,0-0.76,0.09-1,0.27
				c-0.24,0.18-0.36,0.41-0.36,0.68c0,0.21,0.08,0.39,0.23,0.56c0.15,0.17,0.53,0.41,1.14,0.7l1.39,0.7
				c1.47,0.72,2.48,1.46,3.02,2.21c0.55,0.75,0.82,1.64,0.82,2.65C134.28,74.71,133.79,75.83,132.8,76.73z M150.89,71.22h-12.22
				c0.18,1.08,0.65,1.93,1.41,2.57c0.77,0.64,1.74,0.95,2.93,0.95c1.42,0,2.64-0.5,3.66-1.49l3.2,1.5c-0.8,1.13-1.75,1.97-2.87,2.51
				c-1.11,0.54-2.44,0.81-3.97,0.81c-2.38,0-4.31-0.75-5.81-2.25c-1.5-1.5-2.24-3.38-2.24-5.63c0-2.31,0.75-4.23,2.24-5.76
				c1.49-1.53,3.36-2.29,5.61-2.29c2.39,0,4.33,0.76,5.82,2.29c1.5,1.53,2.24,3.54,2.24,6.05L150.89,71.22z"/>
		</g>
	</g>
</g>
</svg>
