<?xml version="1.0" encoding="utf-8"?>
<!-- Generator: Adobe Illustrator 23.0.2, SVG Export Plug-In . SVG Version: 6.00 Build 0)  -->
<svg version="1.1" id="Layer_1" xmlns="http://www.w3.org/2000/svg" xmlns:xlink="http://www.w3.org/1999/xlink" x="0px" y="0px"
	 viewBox="0 0 332.02 100.4" style="enable-background:new 0 0 332.02 100.4;" xml:space="preserve">
<style type="text/css">
	.st0{fill:#FFFFFF;}
	.st1{fill:none;stroke:#000000;stroke-width:3.5;stroke-miterlimit:10;}
	.st2{fill:none;stroke:#FFFFFF;stroke-width:2.4487;stroke-miterlimit:10;}
</style>
<g>
	<path class="st0" d="M323.36,78.86c0,6.73-5.51,12.24-12.24,12.24H20.29c-6.73,0-12.24-5.51-12.24-12.24v-59.6
		c0-6.73,5.51-12.24,12.24-12.24h290.83c6.73,0,12.24,5.51,12.24,12.24V78.86z"/>
	<path class="st1" d="M323.36,78.86c0,6.73-5.51,12.24-12.24,12.24H20.29c-6.73,0-12.24-5.51-12.24-12.24v-59.6
		c0-6.73,5.51-12.24,12.24-12.24h290.83c6.73,0,12.24,5.51,12.24,12.24V78.86z"/>
</g>
<g>
	<path d="M323.36,78.86c0,6.73-5.51,12.24-12.24,12.24H20.29c-6.73,0-12.24-5.51-12.24-12.24v-59.6c0-6.73,5.51-12.24,12.24-12.24
		h290.83c6.73,0,12.24,5.51,12.24,12.24V78.86z"/>
	<path class="st2" d="M323.36,78.86c0,6.73-5.51,12.24-12.24,12.24H20.29c-6.73,0-12.24-5.51-12.24-12.24v-59.6
		c0-6.73,5.51-12.24,12.24-12.24h290.83c6.73,0,12.24,5.51,12.24,12.24V78.86z"/>
</g>
<path class="st0" d="M27.82,39.31h2.84c0.02-4.18,0.09-6.65,0.2-7.41c0.22-1.76,0.95-3.15,2.21-4.17c1.26-1.02,3.04-1.54,5.34-1.54
	c1.66,0,3.53,0.38,5.62,1.14v6.09c-1.15-0.33-2.1-0.5-2.84-0.5c-0.94,0-1.62,0.2-2.05,0.58c-0.31,0.29-0.47,0.9-0.47,1.82
	l-0.03,3.98h5.06v6.76h-5.06v25.08h-7.99V46.08h-2.84V39.31z"/>
<path class="st0" d="M60.06,38.49c3,0,5.83,0.75,8.47,2.25c2.64,1.5,4.71,3.54,6.19,6.12c1.48,2.58,2.23,5.36,2.23,8.34
	c0,3.01-0.75,5.82-2.24,8.43c-1.49,2.62-3.53,4.66-6.1,6.13c-2.58,1.47-5.42,2.21-8.52,2.21c-4.57,0-8.46-1.62-11.69-4.87
	c-3.23-3.25-4.85-7.2-4.85-11.84c0-4.98,1.82-9.12,5.47-12.44C52.23,39.94,55.91,38.49,60.06,38.49z M60.19,46.02
	c-2.48,0-4.55,0.86-6.2,2.59c-1.65,1.73-2.48,3.94-2.48,6.63c0,2.77,0.82,5.01,2.45,6.73c1.63,1.72,3.7,2.58,6.2,2.58
	c2.5,0,4.58-0.87,6.24-2.61c1.66-1.74,2.49-3.97,2.49-6.7c0-2.73-0.82-4.95-2.45-6.66C64.82,46.87,62.74,46.02,60.19,46.02z"/>
<path class="st0" d="M80.18,39.31h7.99v3.26c1.81-1.53,3.45-2.59,4.93-3.19c1.47-0.6,2.98-0.9,4.52-0.9c3.16,0,5.84,1.1,8.04,3.31
	c1.85,1.87,2.78,4.64,2.78,8.31v21.05h-7.9V57.21c0-3.8-0.17-6.33-0.51-7.57c-0.34-1.25-0.93-2.2-1.78-2.85
	c-0.85-0.65-1.89-0.98-3.14-0.98c-1.62,0-3,0.54-4.16,1.62c-1.16,1.08-1.96,2.58-2.41,4.49c-0.23,1-0.35,3.15-0.35,6.46v12.78h-7.99
	V39.31z"/>
<path class="st0" d="M144.77,57.55h-25.67c0.37,2.26,1.36,4.06,2.97,5.4c1.61,1.34,3.66,2.01,6.16,2.01c2.99,0,5.55-1.04,7.7-3.13
	l6.73,3.16c-1.68,2.38-3.69,4.14-6.03,5.28c-2.34,1.14-5.12,1.71-8.34,1.71c-5,0-9.07-1.58-12.21-4.73
	c-3.14-3.15-4.71-7.1-4.71-11.84c0-4.86,1.56-8.89,4.7-12.1c3.13-3.21,7.06-4.82,11.78-4.82c5.02,0,9.09,1.61,12.24,4.82
	c3.14,3.21,4.71,7.45,4.71,12.72L144.77,57.55z M136.77,51.26c-0.53-1.77-1.57-3.22-3.12-4.33c-1.55-1.11-3.36-1.67-5.41-1.67
	c-2.23,0-4.18,0.62-5.86,1.87c-1.06,0.78-2.03,2.16-2.93,4.13H136.77z"/>
<path class="st0" d="M195.57,38.49c3.01,0,5.83,0.75,8.47,2.25c2.64,1.5,4.71,3.54,6.19,6.12c1.48,2.58,2.22,5.36,2.22,8.34
	c0,3.01-0.75,5.82-2.24,8.43c-1.49,2.62-3.53,4.66-6.1,6.13c-2.57,1.47-5.41,2.21-8.52,2.21c-4.56,0-8.46-1.62-11.69-4.87
	c-3.23-3.25-4.84-7.2-4.84-11.84c0-4.98,1.82-9.12,5.47-12.44C187.74,39.94,191.41,38.49,195.57,38.49z M195.7,46.02
	c-2.48,0-4.55,0.86-6.2,2.59c-1.65,1.73-2.48,3.94-2.48,6.63c0,2.77,0.82,5.01,2.45,6.73c1.63,1.72,3.7,2.58,6.2,2.58
	c2.5,0,4.58-0.87,6.25-2.61c1.66-1.74,2.49-3.97,2.49-6.7c0-2.73-0.82-4.95-2.45-6.66C200.33,46.87,198.24,46.02,195.7,46.02z"/>
<path class="st0" d="M215.66,39.31h8.08v15.34c0,2.99,0.21,5.06,0.62,6.22c0.41,1.16,1.07,2.06,1.98,2.71
	c0.91,0.64,2.03,0.97,3.36,0.97c1.33,0,2.46-0.32,3.39-0.95c0.93-0.63,1.62-1.57,2.07-2.79c0.33-0.92,0.5-2.88,0.5-5.88v-15.6h7.99
	v13.49c0,5.56-0.44,9.37-1.32,11.42c-1.07,2.5-2.66,4.42-4.74,5.75c-2.09,1.34-4.74,2-7.96,2c-3.49,0-6.32-0.78-8.47-2.34
	c-2.16-1.56-3.68-3.73-4.55-6.53c-0.62-1.93-0.93-5.45-0.93-10.54V39.31z"/>
<path class="st0" d="M267.86,43.76l-4.95,4.95c-2.01-1.99-3.84-2.98-5.47-2.98c-0.9,0-1.6,0.19-2.11,0.57
	c-0.51,0.38-0.76,0.85-0.76,1.42c0,0.43,0.16,0.83,0.48,1.19c0.32,0.36,1.12,0.85,2.39,1.48l2.93,1.46c3.08,1.52,5.2,3.07,6.35,4.65
	c1.15,1.58,1.73,3.44,1.73,5.56c0,2.83-1.04,5.19-3.12,7.08c-2.08,1.89-4.87,2.84-8.36,2.84c-4.64,0-8.35-1.81-11.12-5.44l4.92-5.36
	c0.94,1.09,2.04,1.98,3.29,2.65c1.26,0.67,2.38,1.01,3.35,1.01c1.05,0,1.9-0.25,2.55-0.76c0.64-0.51,0.96-1.09,0.96-1.76
	c0-1.23-1.16-2.43-3.48-3.6l-2.69-1.35c-5.15-2.6-7.73-5.84-7.73-9.75c0-2.52,0.97-4.67,2.91-6.45c1.94-1.79,4.43-2.68,7.45-2.68
	c2.07,0,4.02,0.45,5.84,1.36C265.05,40.76,266.59,42.06,267.86,43.76z"/>
<path class="st0" d="M303.35,57.55h-25.67c0.37,2.26,1.36,4.06,2.97,5.4c1.61,1.34,3.66,2.01,6.16,2.01c2.98,0,5.55-1.04,7.7-3.13
	l6.73,3.16c-1.68,2.38-3.69,4.14-6.03,5.28c-2.34,1.14-5.12,1.71-8.34,1.71c-5,0-9.06-1.58-12.21-4.73
	c-3.14-3.15-4.71-7.1-4.71-11.84c0-4.86,1.57-8.89,4.7-12.1c3.13-3.21,7.06-4.82,11.78-4.82c5.01,0,9.09,1.61,12.23,4.82
	c3.14,3.21,4.71,7.45,4.71,12.72L303.35,57.55z M295.36,51.26c-0.53-1.77-1.57-3.22-3.12-4.33c-1.55-1.11-3.36-1.67-5.41-1.67
	c-2.23,0-4.18,0.62-5.86,1.87c-1.06,0.78-2.03,2.16-2.93,4.13H295.36z"/>
<path class="st0" d="M147.73,27.79h7.94v15.53c1.56-1.35,3.14-2.36,4.72-3.03c1.58-0.67,3.18-1.01,4.8-1.01c3.16,0,5.83,1.09,8,3.28
	c1.86,1.89,2.78,4.68,2.78,8.35v21.07h-7.88V58c0-3.69-0.18-6.19-0.53-7.5c-0.35-1.31-0.95-2.28-1.8-2.93
	c-0.85-0.65-1.9-0.97-3.15-0.97c-1.62,0-3.01,0.54-4.17,1.61c-1.16,1.07-1.97,2.54-2.42,4.4c-0.23,0.96-0.35,3.14-0.35,6.56v12.8
	h-7.94V27.79z"/>
</svg>
