<?xml version="1.0" encoding="utf-8"?>
<!-- Generator: Adobe Illustrator 24.0.1, SVG Export Plug-In . SVG Version: 6.00 Build 0)  -->
<svg version="1.1" id="Layer_1" xmlns="http://www.w3.org/2000/svg" xmlns:xlink="http://www.w3.org/1999/xlink" x="0px" y="0px"
	 viewBox="0 0 344.29 389.07" style="enable-background:new 0 0 344.29 389.07;" xml:space="preserve">
<style type="text/css">
	.st0{fill:#2D68B1;}
</style>
<path class="st0" d="M326.99,342.57l-97.63-113.66c23.09-23.36,37.34-55.47,37.34-90.91c0-71.44-57.92-129.36-129.36-129.36
	S7.98,66.56,7.98,138S65.9,267.36,137.34,267.36c21.38,0,41.54-5.19,59.31-14.37l99.62,115.97c7.29,8.48,20.07,9.45,28.55,2.17
	C333.3,363.84,334.27,351.06,326.99,342.57z M36.31,138c0-55.8,45.23-101.03,101.03-101.03S238.37,82.21,238.37,138
	s-45.23,101.03-101.03,101.03S36.31,193.8,36.31,138z"/>
</svg>
