<?xml version="1.0" encoding="utf-8"?>
<!-- Generator: Adobe Illustrator 24.1.0, SVG Export Plug-In . SVG Version: 6.00 Build 0)  -->
<svg version="1.1" id="_x2014_ÎÓÈ_x5F_1" xmlns="http://www.w3.org/2000/svg" xmlns:xlink="http://www.w3.org/1999/xlink"
	 x="0px" y="0px" viewBox="0 0 281.48 216" style="enable-background:new 0 0 281.48 216;" xml:space="preserve">
<style type="text/css">
	.st0{fill:none;stroke:#000000;stroke-miterlimit:10;}
</style>
<g>
	<path d="M140.74,61.26c-39.56,0-71.63,32.07-71.63,71.63c0,39.56,32.07,71.63,71.63,71.63c39.56,0,71.63-32.07,71.63-71.63
		C212.38,93.34,180.3,61.26,140.74,61.26z M140.74,196.66c-35.21,0-63.76-28.55-63.76-63.76c0-35.21,28.55-63.76,63.76-63.76
		c35.21,0,63.76,28.55,63.76,63.76C204.5,168.11,175.96,196.66,140.74,196.66z"/>
</g>
<path d="M140.74,82.66c-27.74,0-50.24,22.49-50.24,50.24c0,27.74,22.49,50.24,50.24,50.24c27.74,0,50.24-22.49,50.24-50.24
	C190.98,105.16,168.49,82.66,140.74,82.66z M140.74,168.1c-19.44,0-35.21-15.76-35.21-35.21s15.76-35.21,35.21-35.21
	c19.44,0,35.21,15.76,35.21,35.21S160.19,168.1,140.74,168.1z"/>
<path d="M155.66,132.9c0-8.24-6.68-14.92-14.92-14.92c-8.24,0-14.92,6.68-14.92,14.92c0,8.24,6.68,14.92,14.92,14.92
	C148.98,147.82,155.66,141.14,155.66,132.9z"/>
<ellipse transform="matrix(0.431 -0.9024 0.9024 0.431 -39.838 202.6216)" class="st0" cx="140.74" cy="132.9" rx="21.68" ry="21.68"/>
<path d="M255.5,27.79h-52.51c-0.42,0-0.83-0.13-1.17-0.36l-15.55-10.72c-0.37-0.25-0.63-0.63-0.78-1.05
	c-1.72-4.84-6.34-8.31-11.76-8.31h-65.96c-5.42,0-10.04,3.47-11.76,8.31c-0.15,0.42-0.41,0.8-0.78,1.05L79.67,27.42
	c-0.34,0.24-0.75,0.36-1.17,0.36h-9.67c-0.75,0-1.43-0.41-1.8-1.06c-1.84-3.27-5.34-5.48-9.35-5.48H37.27
	c-4.01,0-7.51,2.21-9.35,5.48c-0.37,0.65-1.05,1.06-1.8,1.06h-0.15c-8.03,0-14.54,6.51-14.54,14.54V176.2
	c0,8.03,6.51,14.54,14.54,14.54h72.51c-2.32-1.7-4.52-3.53-6.62-5.48c-0.13-0.12-0.26-0.25-0.39-0.37
	c-0.88-0.83-1.74-1.69-2.57-2.56c-0.17-0.17-0.33-0.35-0.5-0.52c-0.93-1-1.84-2.01-2.72-3.06H25.98c-1.4,0-2.54-1.14-2.54-2.54
	V85.22h63.84c13.12-14.7,32.2-23.96,53.45-23.96c21.25,0,40.33,9.26,53.45,23.96h63.84v90.98c0,1.4-1.14,2.54-2.54,2.54h-59.71
	c-0.87,1.05-1.79,2.07-2.72,3.06c-0.16,0.18-0.33,0.35-0.5,0.52c-0.84,0.88-1.69,1.73-2.57,2.56c-0.13,0.12-0.26,0.25-0.39,0.37
	c-2.09,1.96-4.3,3.79-6.62,5.48h72.51c8.03,0,14.54-6.51,14.54-14.54V42.32C270.04,34.3,263.53,27.79,255.5,27.79z M249,62.52
	c0,3.57-2.9,6.47-6.47,6.47h-26.68c-3.57,0-6.47-2.9-6.47-6.47V54.5c0-3.57,2.9-6.47,6.47-6.47h26.68c3.57,0,6.47,2.9,6.47,6.47
	V62.52z"/>
</svg>
