<?xml version="1.0" encoding="utf-8"?>
<!-- Generator: Adobe Illustrator 24.1.0, SVG Export Plug-In . SVG Version: 6.00 Build 0)  -->
<svg version="1.1" id="_x2014_ÎÓÈ_x5F_1" xmlns="http://www.w3.org/2000/svg" xmlns:xlink="http://www.w3.org/1999/xlink"
	 x="0px" y="0px" viewBox="0 0 222.41 201.99" style="enable-background:new 0 0 222.41 201.99;" xml:space="preserve">
<style type="text/css">
	.st0{fill:#FFFFFF;}
	.st1{fill:none;stroke:#FFFFFF;stroke-miterlimit:10;}
	.st2{fill:none;stroke:#DDE1E1;stroke-width:3;stroke-miterlimit:10;}
	.st3{fill:none;stroke:#2E3E52;stroke-width:2;stroke-linecap:round;stroke-linejoin:round;stroke-miterlimit:10;}
	.st4{fill:#DDE1E1;}
</style>
<g>
	<g>
		<g>
			<g>
				<path d="M-173.94-211.68v3.4h31.86l-2.82-5.62c-0.64-1.27-1.93-2.07-3.35-2.07h-21.4
					C-172.03-215.96-173.94-214.04-173.94-211.68z"/>
			</g>
		</g>
	</g>
</g>
<g>
	<g>
		<g>
			<g>
				<g>
					<path d="M27.21-51.44c-4.94,0-9.76-1.84-14.37-5.51c-12-9.55-19.71-29.04-23.86-39.51c-0.92-2.32-1.64-4.15-2.12-5.11
						l-0.26-0.51c-2.02-4.05-3.62-7.24-5.62-8.98c-1.27-1.11-2.66-1.61-4.5-1.61h-2.8c-3.63,2.48-7.87,3.78-12.3,3.78
						c-4.42,0-8.66-1.31-12.29-3.78h-56.26c-3.63,2.48-7.87,3.78-12.29,3.78c-4.42,0-8.66-1.31-12.29-3.78h-2.64
						c-0.79,0-1.48,0.09-2.13,0.28l-0.2,0.07c-3.19,1.04-5.02,4.71-7.8,10.27l-0.24,0.48c-0.48,0.96-1.2,2.79-2.12,5.11
						c-5.37,13.58-17.82,45.02-38.23,45.02c-0.4,0-0.81-0.01-1.22-0.04c-1.74-0.11-3.52-0.44-5.29-1.01
						c-12.55-4-18.55-11.82-19.46-25.38c-0.83-12.36,2.46-28.71,7.02-51.35c0.6-2.96,1.21-6.01,1.84-9.17
						c3.28-16.49,7.19-31.17,11.63-43.65c1.14-3.19,2.3-6.21,3.45-8.98c1.71-4.12,3.45-7.8,5.16-10.95
						c1.87-3.44,5.46-5.58,9.37-5.58h29.23c2.82,0,5.54,1.32,7.27,3.54l0.24,0.31c2.14,2.76,3.99,5.15,9.47,5.15h94.87
						c5.48,0,7.33-2.39,9.47-5.15l0.24-0.3c1.73-2.22,4.44-3.55,7.27-3.55H14.7c3.91,0,7.51,2.14,9.38,5.58
						c2.9,5.35,7.35,14.96,12.06,30.4c0.55,1.81,1.1,3.66,1.62,5.51l0.08,0.29c2.37,8.44,4.55,17.65,6.49,27.38
						c0.63,3.15,1.24,6.21,1.84,9.17c4.56,22.64,7.85,38.99,7.02,51.35c-0.91,13.55-6.91,21.38-19.45,25.38h0
						c-0.85,0.27-1.72,0.49-2.59,0.66C29.82-51.56,28.51-51.44,27.21-51.44z M-27.69-116.95h4.18c2.88,0,5.27,0.87,7.32,2.66
						c2.63,2.3,4.39,5.83,6.63,10.29l0.25,0.51c0.56,1.12,1.28,2.94,2.27,5.45c4,10.1,11.44,28.9,22.54,37.74
						c4.86,3.86,9.7,5.26,14.81,4.27c0.71-0.14,1.41-0.32,2.1-0.54h0C43.18-60,48.11-66.45,48.9-78.14
						c0.79-11.79-2.62-28.75-6.94-50.22c-0.6-2.96-1.21-6.02-1.84-9.18c-1.93-9.71-4.11-18.89-6.48-27.28l-0.09-0.33
						c-0.49-1.72-1-3.46-1.51-5.15c-4.6-15.1-8.91-24.43-11.72-29.61c-1.12-2.06-3.27-3.34-5.61-3.34h-29.23
						c-1.51,0-2.96,0.71-3.88,1.89l-0.23,0.3c-2.35,3.04-5.27,6.81-12.86,6.81h-94.87c-7.59,0-10.51-3.78-12.86-6.81l-0.23-0.3
						c-0.92-1.18-2.37-1.89-3.88-1.89h-29.23c-2.34,0-4.49,1.28-5.61,3.34c-1.64,3.02-3.31,6.57-4.97,10.55
						c-1.13,2.7-2.26,5.65-3.37,8.77c-4.37,12.28-8.23,26.77-11.47,43.05c-0.63,3.16-1.24,6.22-1.84,9.18
						c-4.32,21.47-7.74,38.43-6.94,50.22c0.79,11.7,5.71,18.15,16.48,21.58c1.43,0.45,2.86,0.73,4.25,0.81
						c0.32,0.02,0.63,0.03,0.95,0.03c17.51,0,29.2-29.56,34.25-42.31c0.99-2.51,1.71-4.32,2.27-5.45l0.24-0.48
						c2.7-5.41,4.9-9.8,8.83-11.82v-0.13l1.48-0.49c1.12-0.37,2.35-0.55,3.66-0.55h4.02l0.56,0.41c3.02,2.21,6.6,3.37,10.35,3.37
						c3.75,0,7.33-1.17,10.35-3.37l0.56-0.41h59.02l0.56,0.41c3.02,2.21,6.6,3.37,10.35,3.37c3.75,0,7.33-1.17,10.35-3.37
						L-27.69-116.95z"/>
					<path d="M27.21-49.44c-5.4,0-10.65-2-15.61-5.94c-12.42-9.88-20.26-29.7-24.47-40.34c-0.87-2.19-1.61-4.07-2.05-4.95
						l-0.25-0.51c-1.93-3.85-3.45-6.89-5.14-8.38c-0.9-0.79-1.83-1.11-3.19-1.11h-2.2c-3.85,2.48-8.29,3.79-12.9,3.79
						c-4.6,0-9.05-1.31-12.89-3.79h-55.05c-3.85,2.48-8.29,3.79-12.89,3.79c-4.6,0-9.05-1.31-12.89-3.79h-2.04
						c-0.6,0-1.11,0.06-1.57,0.2l-0.14,0.05c-2.4,0.78-4.08,4.16-6.63,9.26l-0.24,0.49c-0.44,0.88-1.18,2.75-2.04,4.92
						c-5.49,13.88-18.33,46.31-40.1,46.32c-0.44,0-0.89-0.01-1.33-0.04c-1.91-0.12-3.85-0.48-5.77-1.09
						c-13.26-4.23-19.89-12.85-20.85-27.15c-0.85-12.63,2.47-29.09,7.05-51.88c0.6-2.96,1.21-6.01,1.84-9.16
						c3.3-16.58,7.24-31.36,11.71-43.93c1.15-3.22,2.32-6.28,3.49-9.08c1.74-4.18,3.5-7.93,5.24-11.13
						c2.22-4.09,6.48-6.63,11.13-6.63h29.23c3.44,0,6.74,1.61,8.85,4.32l0.24,0.31c2.04,2.64,3.39,4.38,7.89,4.38h94.87
						c4.5,0,5.85-1.74,7.89-4.37l0.24-0.31c2.1-2.71,5.41-4.32,8.85-4.32H14.7c4.65,0,8.91,2.54,11.13,6.63
						c2.95,5.43,7.46,15.18,12.21,30.78c0.56,1.82,1.1,3.69,1.63,5.55l0.08,0.29c2.38,8.48,4.58,17.74,6.53,27.53
						c0.58,2.89,1.14,5.7,1.69,8.42l0.15,0.74c4.59,22.79,7.9,39.25,7.05,51.88c-0.96,14.3-7.58,22.92-20.84,27.15
						c-0.92,0.29-1.86,0.54-2.81,0.72C30.08-49.58,28.63-49.44,27.21-49.44z M-26.92-114.67h3.42c2.33,0,4.18,0.67,5.82,2.1
						c2.29,2,3.97,5.35,6.09,9.6l0.25,0.51c0.52,1.04,1.26,2.9,2.19,5.27C-5.08-86.9,2.5-67.73,14.09-58.51
						c5.34,4.25,10.97,5.83,16.67,4.73c0.79-0.16,1.59-0.36,2.36-0.61c11.8-3.76,17.21-10.82,18.07-23.6
						c0.81-12.1-2.46-28.34-6.98-50.82l-0.15-0.74c-0.55-2.73-1.11-5.54-1.69-8.43c-1.93-9.69-4.1-18.85-6.45-27.23l-0.08-0.29
						c-0.52-1.83-1.05-3.67-1.6-5.47c-4.66-15.28-9.04-24.77-11.9-30.03c-1.52-2.8-4.44-4.54-7.62-4.54h-29.23
						c-2.21,0-4.34,1.04-5.69,2.77l-0.23,0.3c-2.25,2.91-4.59,5.92-11.05,5.92h-94.87c-6.47,0-8.8-3.01-11.05-5.93l-0.24-0.3
						c-1.35-1.73-3.48-2.77-5.69-2.77h-29.23c-3.18,0-6.1,1.74-7.62,4.54c-1.68,3.09-3.38,6.71-5.07,10.76
						c-1.14,2.74-2.29,5.72-3.42,8.88c-4.41,12.39-8.3,26.98-11.56,43.37c-0.63,3.16-1.24,6.21-1.84,9.17
						c-4.53,22.48-7.8,38.73-6.98,50.82c0.86,12.78,6.26,19.84,18.07,23.61c1.61,0.51,3.23,0.82,4.8,0.91
						c0.37,0.02,0.73,0.03,1.09,0.03c19.05,0,31.19-30.67,36.37-43.76c0.94-2.38,1.68-4.23,2.19-5.26l0.24-0.48
						c2.9-5.8,4.99-9.98,8.97-11.28l0.2-0.07c0.9-0.26,1.77-0.38,2.75-0.38h3.25l0.51,0.35c3.3,2.25,7.16,3.44,11.16,3.44
						c4.01,0,7.87-1.19,11.16-3.44l0.51-0.35h57.49l0.51,0.35c3.3,2.25,7.16,3.44,11.16,3.44c4.01,0,7.87-1.19,11.17-3.44
						L-26.92-114.67z M27.15-53.72c-4.41,0-8.66-1.66-12.88-5.02C2.75-67.9-4.82-87.02-8.89-97.29c-0.98-2.47-1.68-4.25-2.21-5.3
						l-0.26-0.51c-2.14-4.27-3.82-7.64-6.15-9.68c-1.69-1.48-3.6-2.17-6.01-2.17l-3.56,0.03c-3.37,2.46-7.36,3.76-11.53,3.76
						c-4.17,0-8.16-1.3-11.53-3.76l-0.04-0.03h-57.71l-0.04,0.03c-3.37,2.46-7.35,3.76-11.53,3.76c-4.17,0-8.16-1.3-11.53-3.76
						l-0.04-0.03h-3.36c-1.1,0-2.12,0.15-3.04,0.45l-0.61,0.2l-0.58,0.3c-3.34,1.71-5.38,5.78-7.95,10.93l-0.24,0.48
						c-0.53,1.05-1.26,2.92-2.2,5.29c-5.16,13.04-17.24,43.58-36.11,43.58c-0.35,0-0.71-0.01-1.06-0.03c-1.56-0.1-3.15-0.4-4.74-0.9
						c-11.52-3.67-17.03-10.87-17.87-23.35c-0.81-12.05,2.63-29.12,6.98-50.74l0.11-0.53c0.56-2.79,1.14-5.67,1.73-8.64
						c3.26-16.38,7.14-30.96,11.54-43.33c1.12-3.15,2.27-6.14,3.41-8.87c1.68-4.05,3.38-7.66,5.05-10.73
						c1.47-2.71,4.29-4.39,7.37-4.39h29.23c2.12,0,4.17,0.99,5.46,2.66l0.23,0.3c2.3,2.97,4.68,6.04,11.28,6.04h94.87
						c6.6,0,8.98-3.07,11.28-6.04l0.23-0.3c1.3-1.67,3.34-2.67,5.47-2.67H14.7c3.07,0,5.9,1.68,7.37,4.39
						c2.85,5.26,7.23,14.73,11.88,29.98c0.52,1.71,1.03,3.45,1.53,5.19l0.09,0.34c2.38,8.43,4.57,17.66,6.51,27.43
						c0.63,3.16,1.24,6.21,1.84,9.17c4.35,21.61,7.79,38.68,6.98,50.74c-0.84,12.48-6.35,19.68-17.87,23.35
						c-0.77,0.25-1.55,0.45-2.33,0.6C29.5-53.83,28.31-53.72,27.15-53.72z M-28.34-118.95h4.83c3.38,0,6.21,1.03,8.64,3.16
						c2.92,2.56,4.77,6.24,7.1,10.9l0.26,0.51c0.6,1.2,1.33,3.04,2.34,5.6c3.93,9.94,11.25,28.42,21.93,36.92
						c4.37,3.48,8.68,4.74,13.18,3.87c0.63-0.12,1.26-0.28,1.88-0.48c9.99-3.18,14.36-8.92,15.09-19.81
						c0.77-11.53-2.62-28.37-6.91-49.69c-0.6-2.96-1.21-6.02-1.84-9.18c-1.92-9.67-4.09-18.79-6.44-27.13l-0.09-0.34
						c-0.48-1.7-0.99-3.42-1.5-5.11c-4.55-14.93-8.8-24.14-11.57-29.24c-0.77-1.42-2.24-2.29-3.85-2.29h-29.23
						c-0.9,0-1.76,0.42-2.31,1.12l-0.23,0.29c-2.48,3.2-5.88,7.59-14.44,7.59h-94.87c-8.57,0-11.96-4.39-14.44-7.59l-0.23-0.29
						c-0.54-0.7-1.41-1.12-2.3-1.12h-29.23c-1.61,0-3.08,0.88-3.85,2.3c-1.6,2.96-3.25,6.44-4.88,10.36
						c-1.11,2.67-2.23,5.58-3.33,8.67c-4.34,12.19-8.17,26.58-11.39,42.77c-0.59,2.97-1.17,5.86-1.73,8.65l-0.11,0.53
						c-4.29,21.33-7.68,38.17-6.91,49.69c0.73,10.89,5.1,16.63,15.09,19.81c1.27,0.4,2.54,0.65,3.77,0.72
						c0.27,0.02,0.55,0.02,0.83,0.02c16.15,0,27.53-28.76,32.39-41.05c1.01-2.55,1.74-4.4,2.34-5.61l0.24-0.48
						c2.55-5.11,4.79-9.58,8.61-12.07v-0.43l2.85-0.94c1.32-0.43,2.76-0.65,4.29-0.65h4.67l1.09,0.8c2.68,1.95,5.85,2.99,9.17,2.99
						c3.32,0,6.49-1.03,9.17-2.99l1.09-0.8h60.32l1.09,0.8c2.68,1.95,5.85,2.99,9.17,2.99c3.32,0,6.5-1.03,9.17-2.99L-28.34-118.95z
						"/>
				</g>
			</g>
		</g>
	</g>
</g>
<g>
	<g>
		<g>
			<g>
				<path d="M16.07-211.68v3.4H-15.8l2.82-5.62c0.64-1.27,1.93-2.07,3.35-2.07h21.4C14.15-215.96,16.07-214.04,16.07-211.68z"/>
			</g>
		</g>
	</g>
</g>
<g>
	<g>
		<g>
			<g>
				<path d="M-354.66,13.57v3.34h31.29l-2.77-5.52c-0.62-1.24-1.9-2.03-3.29-2.03h-21.02C-352.78,9.37-354.66,11.25-354.66,13.57z"
					/>
			</g>
		</g>
	</g>
</g>
<g>
	<g>
		<g>
			<g>
				<path d="M-157.15,167.97c-4.85,0-9.58-1.81-14.1-5.41c-11.78-9.37-19.35-28.52-23.42-38.8c-0.9-2.28-1.61-4.08-2.08-5.02
					l-0.25-0.5c-1.99-3.97-3.56-7.11-5.51-8.82c-1.25-1.09-2.61-1.58-4.42-1.58h-2.75c-3.57,2.43-7.73,3.72-12.07,3.72
					c-4.34,0-8.5-1.28-12.07-3.72h-55.24c-3.57,2.43-7.72,3.72-12.07,3.72c-4.34,0-8.5-1.28-12.07-3.72h-2.59
					c-0.77,0-1.46,0.09-2.09,0.27l-0.2,0.07c-3.13,1.02-4.93,4.63-7.66,10.09l-0.24,0.47c-0.47,0.94-1.18,2.74-2.08,5.01
					c-5.28,13.33-17.49,44.21-37.54,44.21c-0.4,0-0.79-0.01-1.19-0.04c-1.71-0.1-3.45-0.44-5.19-0.99
					c-12.32-3.93-18.21-11.61-19.1-24.92c-0.82-12.13,2.42-28.19,6.89-50.42c0.58-2.9,1.19-5.9,1.8-9
					c3.22-16.19,7.06-30.61,11.42-42.86c1.12-3.13,2.26-6.1,3.39-8.82c1.68-4.04,3.39-7.66,5.06-10.75
					c1.84-3.38,5.36-5.48,9.21-5.48h28.7c2.77,0,5.44,1.3,7.14,3.48l0.23,0.3c2.1,2.71,3.92,5.06,9.3,5.06h93.15
					c5.39,0,7.2-2.34,9.3-5.06l0.23-0.3c1.7-2.18,4.36-3.48,7.14-3.48h28.7c3.84,0,7.37,2.1,9.21,5.48
					c2.85,5.25,7.22,14.69,11.84,29.85c0.54,1.78,1.08,3.6,1.59,5.41l0.08,0.28c2.33,8.28,7.59,32.98,8.18,35.88
					c4.47,22.23,7.71,38.28,6.89,50.42c-0.89,13.31-6.79,20.99-19.1,24.92h0c-0.83,0.27-1.69,0.48-2.54,0.65
					C-154.59,167.84-155.87,167.97-157.15,167.97z"/>
			</g>
		</g>
	</g>
</g>
<g>
	<g>
		<g>
			<g>
				<path d="M-168.09,13.57v3.34h-31.29l2.77-5.52c0.62-1.24,1.9-2.03,3.29-2.03h21.02C-169.97,9.37-168.09,11.25-168.09,13.57z"/>
			</g>
		</g>
	</g>
</g>
<circle class="st0" cx="-301.14" cy="90.33" r="12.62"/>
<circle class="st0" cx="-221.7" cy="90.33" r="12.62"/>
<circle class="st1" cx="-181.55" cy="57.7" r="24.52"/>
<circle class="st0" cx="-181.55" cy="43.29" r="6.35"/>
<circle class="st0" cx="-195.39" cy="57.7" r="6.35"/>
<circle class="st0" cx="-181.55" cy="71.4" r="6.35"/>
<circle class="st0" cx="-167.09" cy="57.7" r="6.35"/>
<circle class="st1" cx="-339.02" cy="57.48" r="24.52"/>
<path class="st0" d="M-334.38,41.75c-0.01-0.11-0.04-0.22-0.13-0.32l-3.69-4.41c-0.22-0.26-0.63-0.26-0.85,0l-3.69,4.41
	c-0.08,0.1-0.12,0.21-0.13,0.32h0v8.49c0,0.45,0.37,0.82,0.82,0.82h6.87c0.45,0,0.82-0.37,0.82-0.82L-334.38,41.75L-334.38,41.75z"
	/>
<path class="st0" d="M-334.38,73.22c-0.01,0.11-0.04,0.22-0.13,0.32l-3.69,4.41c-0.22,0.26-0.63,0.26-0.85,0l-3.69-4.41
	c-0.08-0.1-0.12-0.21-0.13-0.32h0v-8.49c0-0.45,0.37-0.82,0.82-0.82h6.87c0.45,0,0.82,0.37,0.82,0.82L-334.38,73.22L-334.38,73.22z"
	/>
<path class="st0" d="M-354.86,53.24c-0.11,0.01-0.22,0.04-0.32,0.13l-4.41,3.69c-0.26,0.22-0.26,0.63,0,0.85l4.41,3.69
	c0.1,0.08,0.21,0.12,0.32,0.13v0h8.49c0.45,0,0.82-0.37,0.82-0.82v-6.87c0-0.45-0.37-0.82-0.82-0.82L-354.86,53.24L-354.86,53.24z"
	/>
<path class="st0" d="M-323.46,52.84c0.11,0.01,0.22,0.04,0.32,0.13l4.41,3.69c0.26,0.22,0.26,0.63,0,0.85l-4.41,3.69
	c-0.1,0.08-0.21,0.12-0.32,0.13v0h-8.49c-0.45,0-0.82-0.37-0.82-0.82v-6.87c0-0.45,0.37-0.82,0.82-0.82L-323.46,52.84L-323.46,52.84
	z"/>
<circle class="st1" cx="-301.14" cy="90.33" r="18.18"/>
<circle class="st1" cx="-221.7" cy="90.33" r="18.18"/>
<g>
	<path d="M168.46,4.15c-0.1,1.25-2.79,30.85-29.11,43.46c-23.41,11.22-24.52,36.88-24.52,37.15l-5.55-0.07
		c0.04-1.21,1.29-29.4,27.69-42.05c23.42-11.22,25.91-38.05,25.93-38.33"/>
</g>
<path d="M57.16,149.67c-20.72,0-37.83-15.74-40.01-35.89L9.6,169.24l0.07,0.02c-0.04,0.58-0.07,1.17-0.07,1.76
	c0,14.45,11.71,26.16,26.16,26.16c9.79,0,18.32-5.38,22.81-13.35l26.39-45.35C77.73,145.4,67.93,149.67,57.16,149.67z"/>
<g>
	<path class="st2" d="M42.63,141.48"/>
</g>
<path d="M214.46,169.24l-7.4-54.39c-2.66,19.63-19.52,34.82-39.87,34.82c-11.09,0-21.15-4.51-28.44-11.79l26.74,45.96
	c4.49,7.96,13.01,13.35,22.81,13.35c14.45,0,26.16-11.71,26.16-26.16c0-0.59-0.03-1.18-0.07-1.76L214.46,169.24z"/>
<path class="st3" d="M155.95,159.64"/>
<g>
	<g>
		<g>
			<path class="st4" d="M122.15,87.59c-2.72,0.21-5.45,0.3-8.17,0.38c-2.72,0.09-5.45,0.1-8.17,0.12c-2.72-0.01-5.45-0.02-8.17-0.12
				l-4.08-0.14c-1.36-0.08-2.72-0.13-4.08-0.25c1.36-0.11,2.72-0.16,4.08-0.25l4.08-0.14c2.72-0.09,5.45-0.1,8.17-0.12
				c2.72,0.01,5.45,0.03,8.17,0.12C116.71,87.28,119.43,87.38,122.15,87.59z"/>
		</g>
		<g>
			<path class="st4" d="M126.81,87.59c-0.19,0.39-0.37,0.48-0.56,0.5c-0.19-0.01-0.37-0.1-0.56-0.5c0.19-0.4,0.37-0.49,0.56-0.5
				C126.44,87.1,126.63,87.19,126.81,87.59z"/>
		</g>
	</g>
</g>
<path d="M137.79,136.86c-6.72-7.2-10.84-16.85-10.84-27.44c0-9.61,3.39-18.44,9.03-25.37h-47.6c5.64,6.93,9.03,15.76,9.03,25.37
	c0,10.6-4.12,20.25-10.84,27.44H137.79z M111.89,102.38c3.89,0,7.03,3.15,7.03,7.03s-3.15,7.03-7.03,7.03
	c-3.88,0-7.03-3.15-7.03-7.03S108,102.38,111.89,102.38z"/>
<path d="M167.19,72.16c-20.54,0-37.25,16.71-37.25,37.25s16.71,37.25,37.25,37.25s37.25-16.71,37.25-37.25
	S187.74,72.16,167.19,72.16z M152.57,115.81c-3.53,0-6.4-2.86-6.4-6.4c0-3.53,2.86-6.4,6.4-6.4c3.53,0,6.4,2.86,6.4,6.4
	C158.97,112.95,156.1,115.81,152.57,115.81z M167.19,130.43c-3.53,0-6.4-2.86-6.4-6.4c0-3.53,2.86-6.4,6.4-6.4
	c3.53,0,6.4,2.86,6.4,6.4C173.59,127.57,170.73,130.43,167.19,130.43z M167.19,101.19c-3.53,0-6.4-2.86-6.4-6.4s2.86-6.4,6.4-6.4
	c3.53,0,6.4,2.86,6.4,6.4S170.73,101.19,167.19,101.19z M181.81,115.81c-3.53,0-6.4-2.86-6.4-6.4c0-3.53,2.86-6.4,6.4-6.4
	c3.53,0,6.4,2.86,6.4,6.4C188.21,112.95,185.35,115.81,181.81,115.81z"/>
<path d="M57.16,72.16c-20.54,0-37.25,16.71-37.25,37.25s16.71,37.25,37.25,37.25s37.25-16.71,37.25-37.25S77.7,72.16,57.16,72.16z
	 M71.78,115.32h-8.72v8.72c0,3.26-2.64,5.9-5.9,5.9s-5.9-2.64-5.9-5.9v-8.72h-8.72c-3.26,0-5.9-2.64-5.9-5.9s2.64-5.9,5.9-5.9h8.72
	v-8.72c0-3.26,2.64-5.9,5.9-5.9s5.9,2.64,5.9,5.9v8.72h8.72c3.26,0,5.9,2.64,5.9,5.9S75.04,115.32,71.78,115.32z"/>
</svg>
