<?xml version="1.0" encoding="utf-8"?>
<!-- Generator: Adobe Illustrator 24.3.0, SVG Export Plug-In . SVG Version: 6.00 Build 0)  -->
<svg version="1.1" id="Layer_1" xmlns="http://www.w3.org/2000/svg" xmlns:xlink="http://www.w3.org/1999/xlink" x="0px" y="0px"
	 viewBox="0 0 203.9 248.9" style="enable-background:new 0 0 203.9 248.9;" xml:space="preserve">
<style type="text/css">
	.st0{fill:#FFFFFF;}
	.st1{fill-rule:evenodd;clip-rule:evenodd;fill:none;stroke:#000000;stroke-width:8;stroke-miterlimit:10;}
	.st2{fill-rule:evenodd;clip-rule:evenodd;}
	.st3{fill:none;}
	.st4{display:none;}
	.st5{font-family:'MyriadPro-Regular';}
	.st6{font-size:12px;}
</style>
<path class="st0" d="M238.8,113c2.2,0,4,1.8,4,4.1c0,2.2-1.8,4.1-4,4c-2.2,0-4-1.9-4-4.1C234.8,114.8,236.6,113,238.8,113z
	 M236.6,117c0,0.6,0,1.1,0,1.7c0,0.5-0.1,1.1,0.7,1.1c0.8,0,0.7-0.6,0.7-1.1c0.1-0.3,0.4-0.8,0.5-0.8c0.4,0.1,0.7,0.3,1,0.6
	c0.1,0.1,0,0.5,0.2,0.7c0.2,0.2,0.5,0.4,0.7,0.6c0.2-0.3,0.5-0.5,0.5-0.8c0-0.3,0-0.8-0.2-1c-0.4-0.5-0.3-0.7,0.1-1.1
	c0.7-0.9,0.3-2-0.8-2.2c-1-0.2-2.1-0.2-3,0c-0.3,0.1-0.2,1.4-0.3,2.2C236.6,116.8,236.6,116.9,236.6,117z"/>
<path class="st1" d="M169.1,234.3H39c-11,0-20-9-20-20V34.5c0-11,9-20,20-20h130.1c11,0,20,9,20,20v179.8
	C189.1,225.3,180.1,234.3,169.1,234.3z"/>
<rect x="16.6" y="58.7" class="st2" width="175.7" height="4.7"/>
<rect x="-119.9" y="-90.2" class="st3" width="73.5" height="82.1"/>
<text transform="matrix(1 0 0 1 -119.8914 -81.7244)" class="st4 st5 st6">£</text>
<rect x="-9.4" y="6.5" class="st3" width="192.5" height="156.4"/>
<text transform="matrix(1 0 0 1 -9.4479 15.0359)" class="st4 st5 st6">12</text>
<rect x="-118.2" y="18.7" class="st3" width="104.7" height="98.6"/>
<g class="st4">
</g>
<g>
	<path d="M95.5,50.6v-2.5c2.2-1,4.2-3.3,4.2-5.9c0-0.7,0-1.3-0.1-2h-3.7v-3.1H99c-0.2-1-0.4-2.3-0.4-3.4c0-4.6,3.2-7.5,7.8-7.5
		c2,0,3.4,0.4,4.2,0.9l-0.8,3.4c-0.7-0.4-1.8-0.7-3.2-0.7c-2.7,0-3.7,1.9-3.7,4c0,1.3,0.2,2.3,0.4,3.3h5.2v3.1h-4.8
		c0,1.1,0,2.3-0.3,3.3c-0.4,1.3-1.1,2.3-2.1,3.3v0.1h10.4v3.7H95.5z"/>
</g>
<path d="M162.1,144.7l-0.1-0.3c-0.3-1.2-0.5-2.5-0.8-3.8c-0.9-4.5-1.9-8.7-3-12.6l0-0.1c-0.2-0.9-0.5-1.7-0.7-2.5
	c-2.2-7.1-4.2-11.6-5.6-14.1c-1-1.9-3-3-5.1-3h-13.3c-1.6,0-3.1,0.7-4,2l-0.1,0.1c-0.9,1.2-1.5,2-3.6,2H82.4c-2.1,0-2.7-0.8-3.6-2
	l-0.1-0.1c-1-1.2-2.5-2-4-2H61.3c-2.1,0-4.1,1.2-5.1,3c-0.8,1.5-1.6,3.2-2.4,5.1c-0.5,1.3-1.1,2.7-1.6,4.1c-2,5.7-3.8,12.5-5.4,20.1
	c-0.3,1.4-0.6,2.8-0.8,4.2c-2.1,10.4-3.6,17.9-3.2,23.7c0.4,6.5,3.5,10.5,9.5,12.4c0.9,0.3,1.8,0.4,2.6,0.5c0.2,0,0.4,0,0.6,0
	c9.9,0,15.8-14.8,18.3-21.2c0.4-1,0.7-1.8,0.9-2.2l0.1-0.2c1.2-2.3,1.9-3.9,3-4.2l0.1,0c0.2-0.1,0.4-0.1,0.7-0.1h0.9
	c1.8,1.1,3.8,1.7,5.9,1.7c2.1,0,4.1-0.6,5.9-1.7h25.2c1.8,1.1,3.8,1.7,5.9,1.7c2.1,0,4.1-0.6,5.9-1.7h1c0.6,0,1,0.1,1.5,0.5
	c0.8,0.7,1.5,2.1,2.3,3.8l0.1,0.2c0.2,0.4,0.5,1.3,0.9,2.3c1.9,4.9,5.5,13.9,11.2,18.4c2.3,1.8,4.7,2.7,7.1,2.7c0.6,0,1.3-0.1,2-0.2
	c0.4-0.1,0.9-0.2,1.3-0.3c6.1-1.9,9.1-5.9,9.5-12.4C165.7,162.6,164.2,155.1,162.1,144.7z"/>
</svg>
