<?xml version="1.0" encoding="utf-8"?>
<!-- Generator: Adobe Illustrator 24.1.0, SVG Export Plug-In . SVG Version: 6.00 Build 0)  -->
<svg version="1.1" id="_x2014_ÎÓÈ_x5F_1" xmlns="http://www.w3.org/2000/svg" xmlns:xlink="http://www.w3.org/1999/xlink"
	 x="0px" y="0px" viewBox="0 0 281.48 251" style="enable-background:new 0 0 281.48 251;" xml:space="preserve">
<g id="text__x2B__music_icon">
	<g>
		<g>
			<g id="headphone">
				<g>
					<path d="M268.91,164.56c-3.18,0-5.76-2.58-5.76-5.76c0-37.58-9.94-71.73-27.98-96.17c-21.59-29.24-53.44-44.06-94.67-44.06
						c-21.05,0-39.98,4.12-56.27,12.23C69.41,38.19,56.7,48.9,46.44,62.66c-18.44,24.72-28.6,58.87-28.6,96.15
						c0,3.18-2.58,5.76-5.76,5.76s-5.76-2.58-5.76-5.76c0-39.75,10.97-76.34,30.88-103.03C60.99,23.91,96.71,7.06,140.5,7.06
						c23.23,0,44.13,4.52,62.11,13.44c16.5,8.18,30.58,20.06,41.83,35.3c19.5,26.4,30.23,62.99,30.23,103.01
						C274.67,161.99,272.09,164.56,268.91,164.56z"/>
				</g>
				<g>
					<path d="M197.7,44.98c-1.24,0-2.49-0.33-3.62-1.01c-16.13-9.72-34.65-14.86-53.57-14.86c-18.92,0-37.44,5.14-53.57,14.86
						c-3.33,2-7.65,0.93-9.66-2.39c-2.01-3.33-0.93-7.65,2.39-9.66c18.32-11.04,39.36-16.88,60.83-16.88
						c21.48,0,42.51,5.84,60.83,16.88c3.33,2.01,4.4,6.33,2.39,9.66C202.41,43.77,200.08,44.98,197.7,44.98z"/>
				</g>
			</g>
		</g>
		<g>
			<g>
				<g>
					<path d="M17.62,199.72c0,10.03,4.89,16.27,12.22,16.27h13.18c3.98,0,3.6-3.22,3.6-7.2v-70.27c0-3.98-3.22-7.2-7.2-7.2H24.82
						c-3.98,0-7.2,3.22-7.2,7.2V199.72z"/>
					<path d="M18.95,155.85c0-3.09-2.51-5.6-5.6-5.6l0,0c-3.09,0-5.6,2.51-5.6,5.6v38.87c0,3.09,2.51,5.6,5.6,5.6l0,0
						c3.09,0,5.6-2.51,5.6-5.6V155.85z"/>
				</g>
			</g>
			<path d="M87.77,220.12c0,7.67-6.21,13.88-13.88,13.88h-9.8c-7.67,0-13.88-6.21-13.88-13.88V129.9c0-7.67,6.21-13.88,13.88-13.88
				h9.8c7.67,0,13.88,6.21,13.88,13.88V220.12z"/>
		</g>
		<g>
			<g>
				<g>
					<path d="M263.15,199.72c0,10.03-4.89,16.27-12.22,16.27h-13.18c-3.98,0-3.6-3.22-3.6-7.2v-70.27c0-3.98,3.22-7.2,7.2-7.2h14.59
						c3.98,0,7.2,3.22,7.2,7.2V199.72z"/>
					<path d="M261.82,155.85c0-3.09,2.51-5.6,5.6-5.6l0,0c3.09,0,5.6,2.51,5.6,5.6v38.87c0,3.09-2.51,5.6-5.6,5.6l0,0
						c-3.09,0-5.6-2.51-5.6-5.6V155.85z"/>
				</g>
			</g>
			<path d="M192.88,220.12c0,7.67,6.21,13.88,13.88,13.88h9.8c7.67,0,13.88-6.21,13.88-13.88V129.9c0-7.67-6.21-13.88-13.88-13.88
				h-9.8c-7.67,0-13.88,6.21-13.88,13.88V220.12z"/>
		</g>
	</g>
</g>
</svg>
