<?xml version="1.0" encoding="utf-8"?>
<!-- Generator: Adobe Illustrator 24.1.0, SVG Export Plug-In . SVG Version: 6.00 Build 0)  -->
<svg version="1.1" id="_x2014_ÎÓÈ_x5F_1" xmlns="http://www.w3.org/2000/svg" xmlns:xlink="http://www.w3.org/1999/xlink"
	 x="0px" y="0px" viewBox="0 0 156.38 201.99" style="enable-background:new 0 0 156.38 201.99;" xml:space="preserve">
<style type="text/css">
	.st0{fill:none;stroke:#DDE1E1;stroke-width:3;stroke-miterlimit:10;}
</style>
<g>
	<path class="st0" d="M42.63,143.48"/>
</g>
<g>
	<path d="M109.51,20.33l-0.4-0.06c-0.77,0-1.4,0.63-1.4,1.4l0.02,5.13c0,0.57,0.36,1.09,0.91,1.29c8.14,2.89,14.69,9.14,17.96,17.15
		c0.22,0.52,0.72,0.85,1.28,0.85l5.22-0.01c0.45,0,0.87-0.22,1.14-0.59c0.26-0.37,0.33-0.84,0.18-1.26
		C130.41,32.78,121.11,23.85,109.51,20.33z"/>
	<path d="M111.11,5.59l-0.3-0.03c-0.77,0-1.4,0.63-1.4,1.4l0.02,5.05c0,0.63,0.43,1.17,1.04,1.33
		c14.92,3.68,26.79,15.16,30.99,29.97c0.17,0.59,0.71,1,1.32,1l5.06-0.01c0.43,0,0.84-0.2,1.1-0.54c0.26-0.34,0.35-0.78,0.25-1.19
		C144.55,24.17,129.59,9.66,111.11,5.59z"/>
	<path d="M107.26,37.95h-89.9c-3.68,0-6.65,3.24-6.65,7.23v141.77c0,3.99,2.98,7.23,6.65,7.23h89.9c3.68,0,6.66-3.24,6.66-7.23
		V45.18C113.92,41.19,110.93,37.95,107.26,37.95z M62.31,49.45c15.55,0,28.17,12.61,28.17,28.18c0,15.56-12.62,28.17-28.17,28.17
		c-15.56,0-28.18-12.61-28.18-28.17C34.13,62.06,46.75,49.45,62.31,49.45z M62.31,182.68c-19.53,0-35.37-15.83-35.37-35.36
		c0-19.53,15.83-35.36,35.37-35.36c19.53,0,35.36,15.83,35.36,35.36C97.67,166.85,81.84,182.68,62.31,182.68z"/>
	<path d="M62.31,115.48c-17.61,0-31.88,14.27-31.88,31.88c0,17.6,14.27,31.87,31.88,31.87c17.6,0,31.87-14.27,31.87-31.87
		C94.18,129.75,79.91,115.48,62.31,115.48z M62.31,170.97c-13.06,0-23.65-10.59-23.65-23.65c0-13.06,10.59-23.65,23.65-23.65
		c13.06,0,23.65,10.59,23.65,23.65C85.96,160.38,75.37,170.97,62.31,170.97z"/>
	<path d="M62.31,52.74c-13.72,0-24.84,11.12-24.84,24.84c0,13.72,11.12,24.84,24.84,24.84c13.72,0,24.84-11.12,24.84-24.84
		C87.15,63.86,76.03,52.74,62.31,52.74z M62.31,94.52c-9.34,0-16.9-7.57-16.9-16.9c0-9.34,7.57-16.91,16.9-16.91
		c9.33,0,16.9,7.57,16.9,16.91C79.21,86.96,71.64,94.52,62.31,94.52z"/>
</g>
</svg>
