<?xml version="1.0" encoding="utf-8"?>
<!-- Generator: Adobe Illustrator 24.1.0, SVG Export Plug-In . SVG Version: 6.00 Build 0)  -->
<svg version="1.1" id="_x2014_ÎÓÈ_x5F_1" xmlns="http://www.w3.org/2000/svg" xmlns:xlink="http://www.w3.org/1999/xlink"
	 x="0px" y="0px" viewBox="0 0 281.48 304.94" style="enable-background:new 0 0 281.48 304.94;" xml:space="preserve">
<style type="text/css">
	.st0{fill-rule:evenodd;clip-rule:evenodd;}
</style>
<circle class="st0" cx="114.35" cy="289.89" r="6.73"/>
<g>
	<g>
		<path d="M116.53,152.8c-2.47-0.66-4.67-2.04-6.32-3.97c-4.59-5.38-3.96-13.49,1.42-18.08c5.37-4.59,13.48-3.96,18.08,1.42
			c1.02,1.2,1.82,2.58,2.34,4.07c-2.87-1.47-5.25-2.54-7.08-3.2c-3.07-2.32-7.72-2.12-10.88,0.58c-3.79,3.24-4.24,8.96-1,12.76
			c0.08,0.09,0.17,0.18,0.25,0.26C113.94,148.75,115.02,150.82,116.53,152.8z"/>
		<path d="M128.41,162.89c-9.46,3.59-20.04,0.93-26.67-6.83c-8.58-10.04-7.39-25.2,2.65-33.78c10.04-8.58,25.2-7.39,33.78,2.65
			c4.22,4.94,6.24,11.39,5.62,17.85c-1.25-0.73-2.48-1.45-3.68-2.13c0.04-4.88-1.66-9.57-4.81-13.26c-7.23-8.46-20-9.47-28.46-2.24
			c-8.46,7.23-9.47,20-2.23,28.46c4.88,5.71,12.71,8.24,20.04,6.5L128.41,162.89z"/>
		<path d="M170.04,226.47c-4.49-2.21-26.3-25.48-25.92-30.38c0.24-3.09,8.09-6.13,12.24-4.51c7.02,2.73,8.55,8.7,15.3,12.4
			c6.48,3.55,8.83-0.52,5.62-7.65c0,0-5.59-7.35-8.05-9.15c-4.14-3.02-31.7-23.22-44.44-32.69c-11.24-8.35-7.65-18.37-3.23-17.68
			c9.44,1.47,59.14,34.84,59.14,34.84l-12.78-10.59c-3.81-4.47,9.66-12.17,13.71-10.27l13.24,8.76c0,0-7.85-6.5-10.75-9.9
			c-1.62-1.9,8.99-7.42,13.94-6.23c3.39,0.81,10.98,4.03,10.98,4.03s-8.15-5.12-8.25-5.83c-0.22-1.63,10.11-4.11,15.39-2.67
			c17.09,4.68,25.6,19.03,35.17,34.15c6.86,10.84,7.41,22.01,7.16,27.47c-0.09,2.1-1.05,4.06-2.65,5.43l-29.62,25.31
			c-1.48,1.26-3.39,1.72-5.33,1.81C202.15,234,186.38,234.5,170.04,226.47z"/>
	</g>
</g>
<path d="M275.12,226.04l-29.21,25c-2.64,2.26-6.66,1.95-8.93-0.69l-6.73-7.86c-2.26-2.64-1.95-6.66,0.69-8.93l29.21-25
	c2.64-2.26,6.66-1.95,8.93,0.69l6.73,7.86C278.08,219.76,277.76,223.78,275.12,226.04z"/>
<path class="st0" d="M205.35,20.46l0.01,113.66c4.95-1.34,8.26-1.15,12.29-0.02V18.22c0-5.53-4.6-10.04-10.22-10.04H23.69
	c-5.62,0-10.22,4.52-10.22,10.04V288.9c0,5.53,4.6,10.04,10.22,10.04h183.74c5.62,0,10.22-4.52,10.22-10.04v-4.31l-10.1,1.93
	l4.88-0.93l5.22-1v-44.48c-4.05,0.4-7.84,0.41-12.16,0.24l-0.15,40.81H25.97l0-260.2L205.35,20.46z M141.04,12.26
	c1.41,0,2.56,1.14,2.56,2.56c0,1.41-1.14,2.56-2.56,2.56c-1.41,0-2.56-1.14-2.56-2.56C138.49,13.4,139.63,12.26,141.04,12.26z
	 M102.63,13.41H131c0.78,0,1.42,0.64,1.42,1.42s-0.64,1.42-1.42,1.42h-28.37c-0.78,0-1.42-0.64-1.42-1.42S101.85,13.41,102.63,13.41
	z"/>
</svg>
