<?xml version="1.0" encoding="utf-8"?>
<!-- Generator: Adobe Illustrator 24.1.0, SVG Export Plug-In . SVG Version: 6.00 Build 0)  -->
<svg version="1.1" id="_x2014_ÎÓÈ_x5F_1" xmlns="http://www.w3.org/2000/svg" xmlns:xlink="http://www.w3.org/1999/xlink"
	 x="0px" y="0px" viewBox="0 0 396.81 304.94" style="enable-background:new 0 0 396.81 304.94;" xml:space="preserve">
<style type="text/css">
	.st0{fill-rule:evenodd;clip-rule:evenodd;fill:#1A171B;}
	.st1{fill:#1A171B;}
</style>
<g>
	<g>
		<g>
			<path class="st0" d="M198.05,278.21c-40.32,0-73.02-4.59-73.02-10.23c0,0.75,0,3.62,0,4.37c0,5.65,32.71,10.23,73.02,10.23
				c40.34,0,73-4.57,73-10.23c0-0.75,0-3.62,0-4.37C271.05,273.62,238.39,278.21,198.05,278.21z"/>
			<path class="st0" d="M183,237.29l-2.57,19.7c-29.81,0.87-50.32,4.29-54.62,8.55c5.16,4.93,35.52,8.74,72.23,8.74
				c36.7,0,67.06-3.81,72.24-8.74c-4.3-4.26-24.77-7.68-54.59-8.55l-2.57-19.7h-18.79l-2.57,17.96c0,1.26-1.4,2.27-3.1,2.27
				c-1.7,0-3.06-1.01-3.06-2.27l2.57-17.96L183,237.29L183,237.29z"/>
		</g>
		<path class="st1" d="M117.2,200.53c1.14-3.72-0.95-7.68-4.68-8.82l-29.14-8.93c-3.72-1.14-7.68,0.96-8.82,4.68l-26.72,87.18
			l-0.07-0.02c-3.62,11.81,4.31,20.09,16.13,23.71s23.03,1.2,26.65-10.61l-0.07-0.02L117.2,200.53z M98.13,244.54
			c-1.06,3.46-3.13,6.32-5.77,8.39l-2.84-5.33c1.34-1.27,2.39-2.89,2.97-4.78s0.62-3.82,0.22-5.63l5.34-2.83
			C99.08,237.54,99.19,241.08,98.13,244.54z M79.97,245.91c-3.49-1.07-5.47-4.79-4.4-8.29s4.79-5.47,8.28-4.4
			c3.5,1.07,5.47,4.78,4.4,8.28C87.19,245.01,83.47,246.98,79.97,245.91z M87.14,255.69c-3.2,1.04-6.73,1.14-10.19,0.08
			c-3.46-1.06-6.33-3.13-8.39-5.78l5.34-2.84c1.27,1.35,2.88,2.4,4.78,2.98c1.89,0.58,3.82,0.62,5.63,0.21L87.14,255.69z M85.16,229
			c-1.89-0.58-3.82-0.61-5.62-0.21l-2.84-5.34c3.19-1.04,6.73-1.14,10.19-0.08c3.45,1.06,6.32,3.13,8.4,5.78l-5.35,2.84
			C88.67,230.63,87.05,229.58,85.16,229z M91.88,207.07c-1.76-0.54-2.74-2.39-2.2-4.14s2.39-2.73,4.14-2.2
			c1.75,0.54,2.74,2.39,2.2,4.14C95.49,206.62,93.63,207.61,91.88,207.07z M104.63,218.56c-0.54,1.75-2.39,2.73-4.14,2.2
			c-1.75-0.54-2.74-2.39-2.2-4.14s2.39-2.74,4.14-2.2C104.18,214.95,105.16,216.8,104.63,218.56z M105.52,204.32
			c1.75,0.54,2.74,2.39,2.2,4.14s-2.39,2.74-4.15,2.2c-1.75-0.54-2.73-2.39-2.2-4.14C101.92,204.77,103.77,203.78,105.52,204.32z
			 M90.02,190.88l0.24-0.81c0.3-0.97,1.34-1.52,2.32-1.22l0.33,0.1l8.28,2.53l0.33,0.11c0.98,0.3,1.52,1.34,1.23,2.31l-0.25,0.81
			c-0.08,0.26-0.21,0.48-0.38,0.67c-0.51,0.7-1.45,1.03-2.35,0.75l-8.27-2.54c-0.91-0.28-1.49-1.08-1.53-1.94
			C89.92,191.39,89.94,191.13,90.02,190.88z M86.59,213.03c0.54-1.75,2.39-2.74,4.14-2.2c1.75,0.54,2.74,2.39,2.2,4.15
			c-0.54,1.75-2.39,2.74-4.15,2.2C87.03,216.64,86.05,214.79,86.59,213.03z M77.98,199.35c0.54-1.76,2.39-2.74,4.15-2.2
			c1.75,0.54,2.74,2.39,2.2,4.14s-2.39,2.73-4.14,2.2C78.43,202.95,77.44,201.1,77.98,199.35z M74.89,209.45
			c0.53-1.75,2.39-2.74,4.14-2.2c1.75,0.54,2.74,2.39,2.2,4.15c-0.54,1.75-2.39,2.73-4.14,2.2
			C75.34,213.05,74.35,211.2,74.89,209.45z M65.72,234.6c1.06-3.46,3.13-6.33,5.78-8.39l2.83,5.34c-1.35,1.27-2.4,2.89-2.98,4.78
			c-0.58,1.89-0.61,3.82-0.21,5.63l-5.34,2.83C64.76,241.6,64.65,238.06,65.72,234.6z M63.8,270.64l-0.34,1.12
			c-0.23,0.74-1.02,1.16-1.76,0.93l-5.81-1.78c-0.74-0.23-1.16-1.02-0.94-1.76l0.34-1.12c0.23-0.74,1.02-1.16,1.76-0.93l5.81,1.79
			C63.61,269.11,64.03,269.9,63.8,270.64z M66.47,261.94l-0.35,1.13c-0.23,0.74-1.02,1.16-1.76,0.93l-5.81-1.78
			c-0.74-0.23-1.17-1.01-0.94-1.75l0.35-1.13c0.23-0.73,1.03-1.16,1.76-0.93l5.81,1.78C66.28,260.42,66.7,261.21,66.47,261.94z
			 M75.91,274.35l-0.35,1.12c-0.23,0.74-1.01,1.16-1.76,0.93l-5.8-1.77c-0.74-0.23-1.16-1.02-0.93-1.76l0.35-1.12
			c0.23-0.74,1.02-1.16,1.76-0.93l5.81,1.78C75.72,272.82,76.14,273.62,75.91,274.35z M78.58,265.65l-0.35,1.13
			c-0.23,0.74-1.02,1.16-1.76,0.93l-5.81-1.78c-0.74-0.23-1.16-1.02-0.94-1.76l0.35-1.13c0.23-0.73,1.02-1.16,1.76-0.93l5.81,1.78
			C78.39,264.12,78.8,264.92,78.58,265.65z M88.02,278.07l-0.34,1.12c-0.23,0.74-1.01,1.16-1.75,0.93l-5.81-1.78
			c-0.74-0.23-1.16-1.02-0.94-1.76l0.35-1.12c0.23-0.74,1.02-1.16,1.76-0.93l5.81,1.78C87.83,276.54,88.25,277.33,88.02,278.07z
			 M90.69,269.36l-0.35,1.13c-0.23,0.74-1.01,1.15-1.75,0.93l-5.82-1.78c-0.74-0.23-1.16-1.01-0.94-1.75l0.34-1.13
			c0.23-0.73,1.02-1.16,1.76-0.93l5.82,1.78C90.5,267.84,90.91,268.63,90.69,269.36z"/>
		<g>
			<path class="st1" d="M94.38,173.41c5.18-0.82,10.46,0.79,14.29,4.38c1.26-1.35,2.53-2.7,3.79-4.05
				c-5.08-4.76-12.08-6.91-18.96-5.81C93.79,169.77,94.09,171.59,94.38,173.41z"/>
			<path class="st1" d="M122.72,163.84c-8.62-8.08-20.5-11.72-32.17-9.86c0.29,1.83,0.58,3.65,0.87,5.48
				c9.98-1.59,20.13,1.52,27.51,8.43C120.19,166.54,121.46,165.19,122.72,163.84z"/>
			<path class="st1" d="M131.65,152.07c-11.23-10.52-26.7-15.27-41.9-12.84c0.29,1.82,0.59,3.65,0.87,5.48
				c13.51-2.15,27.25,2.06,37.23,11.41C129.12,154.77,130.39,153.42,131.65,152.07z"/>
		</g>
	</g>
</g>
<g>
	<path d="M144.11,89.11h-27.84v-13.2h71.28v13.2h-27.84v70.8h-15.6V89.11z"/>
	<path d="M278.51,75.91l-36.6,84h-15.36l-36.72-84h16.92l27.96,64.8l28.2-64.8H278.51z"/>
</g>
<g>
	<g>
		<rect x="14" y="93.49" class="st0" width="15.89" height="30.41"/>
	</g>
</g>
<path class="st0" d="M370.25,16H26.75C19.73,16,14,21,14,27.1v199.56c0,6.11,5.73,11.1,12.75,11.1h22.33l6.97-23.49H30.73V30.82
	h336.71V211.8l-242.8-1.44l-8.13,27.4h253.75c7.01,0,12.75-4.99,12.75-11.1V27.1C383,21,377.27,16,370.25,16z M179.38,227.78
	c-2.42,0-4.38-1.96-4.38-4.38c0-2.42,1.96-4.38,4.38-4.38c2.42,0,4.38,1.96,4.38,4.38C183.76,225.83,181.8,227.78,179.38,227.78z
	 M198.49,227.78c-2.42,0-4.38-1.96-4.38-4.38c0-2.42,1.96-4.38,4.38-4.38c2.42,0,4.38,1.96,4.38,4.38
	C202.87,225.83,200.91,227.78,198.49,227.78z M217.43,227.78c-2.42,0-4.38-1.96-4.38-4.38c0-2.42,1.96-4.38,4.38-4.38
	c2.42,0,4.38,1.96,4.38,4.38C221.81,225.83,219.85,227.78,217.43,227.78z"/>
</svg>
