<?xml version="1.0" encoding="utf-8"?>
<!-- Generator: Adobe Illustrator 24.1.0, SVG Export Plug-In . SVG Version: 6.00 Build 0)  -->
<svg version="1.1" id="_x2014_ÎÓÈ_x5F_1" xmlns="http://www.w3.org/2000/svg" xmlns:xlink="http://www.w3.org/1999/xlink"
	 x="0px" y="0px" viewBox="0 0 281.48 214.04" style="enable-background:new 0 0 281.48 214.04;" xml:space="preserve">
<style type="text/css">
	.st0{fill:#FFFFFF;}
</style>
<path class="st0" d="M58.22,137.45l-7.46,0.88l0.41,3.45l3.29-0.39l0.65,5.55c-0.19,0.11-0.46,0.23-0.85,0.33
	c-0.38,0.11-0.83,0.19-1.37,0.26c-1.92,0.22-3.56-0.26-4.93-1.43c-1.37-1.18-2.23-3.08-2.57-5.71c-0.28-2.74,0.17-4.84,1.34-6.29
	c1.17-1.45,2.79-2.29,4.86-2.53c1-0.11,1.86-0.13,2.58-0.06c0.71,0.07,1.34,0.2,1.88,0.38l0.5-3.71c-0.59-0.2-1.35-0.34-2.29-0.41
	c-0.93-0.06-1.99-0.03-3.15,0.1c-3.35,0.4-5.99,1.73-7.93,3.98c-1.94,2.25-2.73,5.31-2.35,9.16c0.22,1.82,0.68,3.43,1.39,4.85
	c0.71,1.42,1.61,2.56,2.71,3.41c1.07,0.83,2.3,1.39,3.68,1.69c1.39,0.3,2.94,0.35,4.67,0.14c1.31-0.17,2.53-0.44,3.67-0.81
	c1.13-0.37,2.03-0.73,2.69-1.07L58.22,137.45z"/>
<rect x="62.49" y="126.59" transform="matrix(0.9931 -0.1169 0.1169 0.9931 -15.6854 8.5059)" class="st0" width="4.41" height="22.86"/>
<polygon class="st0" points="77.31,148.05 76.19,138.57 83.48,137.71 83.06,134.14 75.77,135 75.07,129.01 82.89,128.09 
	82.46,124.43 70.26,125.86 72.93,148.56 "/>
<polygon class="st0" points="100.17,122.35 84.57,124.18 85.01,127.96 90.61,127.3 92.83,146.23 97.21,145.71 94.99,126.79 
	100.62,126.13 "/>
<path d="M270.34,152.1l-8.97-76.39c-0.37,0.15-0.76,0.26-1.17,0.31l-59.51,6.99c2.86,5.38,8.81,10.08,22.12,14.23
	c2.43,0.76,3.79,3.35,3.03,5.78c-0.62,1.98-2.44,3.24-4.4,3.24c-0.46,0-0.92-0.07-1.38-0.21c-8.19-2.55-14.18-5.55-18.59-8.79
	l9.65,82.2l41.39-4.86C263.7,173.29,271.65,163.25,270.34,152.1z"/>
<g>
	<path d="M138.63,63.56c-3.66-9.18-0.51-19.51,7.31-24.02c5.66-3.27,12.98-3.15,20.62,0.31c6.22,2.82,12.65,7.79,19.19,14.79
		l-3.88-33.09L28.97,39.51c-11.19,1.31-19.14,11.35-17.83,22.5l3.88,33.08l141.72-16.64C147.05,75.86,141.19,69.97,138.63,63.56z"/>
	<path d="M183.8,66.45c-12.14-14.88-22.13-20.05-28.62-20.05c-1.83,0-3.38,0.41-4.62,1.13c-3.88,2.24-5.32,7.66-3.35,12.61
		c2.99,7.5,13.72,13.7,34.88,8.62c0.45-0.11,0.9-0.14,1.34-0.12C183.53,67.92,183.66,67.19,183.8,66.45z"/>
</g>
<g>
	<path d="M256.39,33.22c-1.31-11.15-11.37-19.07-22.56-17.76l-41.39,4.86l3.22,27.44c5.9-6.33,11.73-10.91,17.42-13.66
		c7.56-3.64,14.88-3.93,20.61-0.79c7.92,4.33,11.29,14.58,7.85,23.83c-1.81,4.87-5.52,9.5-11.34,12.69l28.88-3.39
		c0.41-0.05,0.82-0.03,1.21,0.03L256.39,33.22z"/>
	<path d="M198.69,73.52l2.24-0.26c-0.76-0.12-1.54-0.25-2.32-0.4L198.69,73.52z"/>
	<path d="M229.27,41.41c-5.64-3.09-17.32,0.16-32.14,18.83l0.36,3.05c0.24,0.01,0.48,0.04,0.72,0.09
		c21.28,4.58,31.87-1.88,34.69-9.45C234.75,48.93,233.19,43.55,229.27,41.41z"/>
</g>
<g>
	<path d="M98.42,166.17l-3.36,0.39l1.15,9.85l3.36-0.39c3.15-0.37,5-2.49,4.65-5.53C103.86,167.45,101.57,165.8,98.42,166.17z"/>
	<polygon points="62.35,177.13 67.38,176.54 64.16,170.75 	"/>
	<path d="M81.37,168.13l-3,0.35l0.64,5.54l3-0.35c2.25-0.26,3.26-1.44,3.06-3.16C84.87,168.76,83.61,167.87,81.37,168.13z"/>
	<path d="M189.78,88.95c-2.86,8.3-9.87,16.68-28.6,23c-0.49,0.17-0.99,0.24-1.48,0.24c-1.93,0-3.72-1.21-4.37-3.14
		c-0.81-2.41,0.48-5.03,2.9-5.85c15.73-5.31,21.02-11.15,23.06-17.92L16.14,104.68l8.95,76.22c1.31,11.16,11.37,19.08,22.56,17.76
		l152.9-17.95L189.78,88.95z M89.09,142l0.35,3l-5.08,0.59l1.5,12.89l-3.68,0.43l-1.5-12.89l-5.08,0.59l-0.35-3L89.09,142z
		 M74.42,143.7l0.34,2.95l-8.33,0.97l0.49,4.2l7.35-0.85l0.34,2.95l-7.35,0.85l0.67,5.79l-3.68,0.43l-1.85-15.89L74.42,143.7z
		 M58.64,145.54l1.85,15.89l-3.68,0.43l-1.85-15.89L58.64,145.54z M37.39,156.06c-0.56-4.79,2.72-8.64,7.78-9.23
		c2.79-0.32,5.22,0.36,6.97,1.97l-2.11,2.45c-1.3-1.09-2.7-1.5-4.32-1.31c-3.09,0.36-4.96,2.67-4.61,5.69
		c0.35,2.97,2.7,4.84,5.74,4.48c1-0.12,1.91-0.41,2.78-1.01l-0.54-4.65l3.36-0.39l0.75,6.45c-1.59,1.52-3.92,2.5-6.19,2.77
		C42.02,163.84,37.94,160.85,37.39,156.06z M50.11,185.1c-4.92,0.57-9-2.43-9.56-7.21c-0.56-4.79,2.72-8.64,7.67-9.22
		c2.75-0.32,5.15,0.41,6.86,2.05l-2.11,2.45c-1.21-1.1-2.62-1.58-4.21-1.4c-2.97,0.35-4.84,2.68-4.49,5.67
		c0.35,3,2.7,4.84,5.67,4.49c1.59-0.18,2.85-0.98,3.77-2.35l2.61,1.9C55.05,183.52,52.88,184.78,50.11,185.1z M70.67,182.44
		l-1.8-3.24l-7.38,0.86l-1.01,3.57l-3.77,0.44l5.23-16.71l3.63-0.42l8.95,15.06L70.67,182.44z M86.31,180.62l-3.58-4.07l-0.18,0.02
		l-3.2,0.37l0.51,4.43l-3.68,0.43l-1.85-15.89l6.88-0.8c4.24-0.49,7.15,1.4,7.57,4.96c0.28,2.38-0.72,4.27-2.68,5.39l4.16,4.69
		L86.31,180.62z M100.1,179.02l-7.22,0.84l-1.85-15.89l7.22-0.84c5.2-0.6,9.12,2.11,9.68,6.93
		C108.49,174.86,105.29,178.41,100.1,179.02z"/>
</g>
</svg>
