<?xml version="1.0" encoding="utf-8"?>
<!-- Generator: Adobe Illustrator 24.1.0, SVG Export Plug-In . SVG Version: 6.00 Build 0)  -->
<svg version="1.1" id="Layer_1" xmlns="http://www.w3.org/2000/svg" xmlns:xlink="http://www.w3.org/1999/xlink" x="0px" y="0px"
	 viewBox="0 0 225 225" style="enable-background:new 0 0 225 225;" xml:space="preserve">
<path d="M56.14,175.34h3.79c5.99,32.87,13.67,44.81,21.14,44.81h56.4c7.49,0,15.19-12.15,21.14-44.81h3.79
	c6.43,0,11.65-5.21,11.65-11.65V121h2.29c1.74,0,3.16-1.41,3.16-3.16v-10.9c0-1.74-1.41-3.16-3.16-3.16h-2.29v-42.7
	c0-6.43-5.21-11.65-11.65-11.65h-3.79c-5.99-32.87-13.67-44.81-21.14-44.81h-56.4c-7.49,0-15.19,12.15-21.14,44.81h-3.79
	c-6.43,0-11.65,5.21-11.65,11.65v102.61C44.49,170.13,49.71,175.34,56.14,175.34z M51.76,61.09c0-2.42,1.97-4.38,4.38-4.38h106.27
	c2.42,0,4.38,1.97,4.38,4.38V163.7c0,2.42-1.97,4.38-4.38,4.38H56.14c-2.42,0-4.38-1.97-4.38-4.38V61.09z"/>
<path d="M114.61,157.97c0.92,0.31,1.87,0.45,2.82,0.45c2.2,0,4.36-0.8,6.04-2.32l3.9-3.52c4.84-4.36-8.23-19.57-14.41-19.57
	c-0.62,0-1.16,0.15-1.61,0.48l-3.77,2.73c-6.02-0.48-11.72-5.4-15.28-11.56c-3.56-6.16-4.98-13.56-2.38-19.01l4.25-1.91
	c5.38-2.42-1.08-23.57-7.6-23.57c-0.31,0-0.62,0.05-0.93,0.15l-5,1.62c-3.08,1-5.39,3.58-6.04,6.74
	c-2.64,12.69,1.23,27.98,8.82,41.11C90.99,142.92,102.3,153.91,114.61,157.97z"/>
<path d="M118.38,68.63c9.79,3.2,17.75,10.02,22.42,19.2c4.66,9.19,5.47,19.64,2.27,29.43c-0.27,0.82,0.18,1.69,1,1.96
	c0.16,0.05,0.32,0.08,0.48,0.08c0.66,0,1.26-0.42,1.48-1.07c3.46-10.58,2.58-21.88-2.46-31.8c-5.04-9.93-13.64-17.3-24.22-20.75
	c-0.82-0.27-1.69,0.18-1.96,1C117.11,67.49,117.56,68.36,118.38,68.63z"/>
<path d="M114,82.03c6.2,2.03,11.25,6.36,14.22,12.19c2.96,5.84,3.48,12.47,1.45,18.67c-0.27,0.82,0.18,1.69,1,1.96
	c0.16,0.05,0.32,0.08,0.48,0.08c0.66,0,1.26-0.42,1.48-1.07c2.28-6.99,1.7-14.47-1.64-21.04c-3.34-6.58-9.03-11.46-16.02-13.74
	c-0.82-0.27-1.69,0.18-1.96,1C112.74,80.88,113.19,81.76,114,82.03z"/>
<path d="M109.63,95.42c5.44,1.78,8.42,7.65,6.65,13.09c-0.27,0.82,0.18,1.69,1,1.96c0.16,0.05,0.32,0.08,0.48,0.08
	c0.65,0,1.26-0.42,1.48-1.07c2.31-7.07-1.56-14.71-8.64-17.02c-0.82-0.27-1.69,0.18-1.96,0.99
	C108.37,94.28,108.81,95.16,109.63,95.42z"/>
</svg>
