<?xml version="1.0" encoding="utf-8"?>
<svg version="1.1" xmlns:xlink="http://www.w3.org/1999/xlink" width="31px" height="31px" xmlns="http://www.w3.org/2000/svg">
  <g transform="matrix(1 0 0 1 -52 -270 )">
    <path d="M 30.933948863636367 24.020596590909093  C 30.977982954545453 24.1233428030303  31 24.277462121212118  31 24.482954545454547  C 31 24.879261363636363  30.92660984848485 25.39666193181818  30.779829545454547 26.03515625  C 30.633049242424246 26.67365056818182  30.478929924242426 27.176373106060606  30.317471590909093 27.543323863636363  C 30.009232954545453 28.277225378787875  29.113873106060613 29.055160984848484  27.631392045454547 29.87713068181818  C 26.2516571969697 30.625710227272727  24.88660037878788 31  23.536221590909093 31  C 23.139914772727273 31  22.750946969696972 30.974313446969695  22.36931818181818 30.922940340909093  C 21.987689393939394 30.871567234848488  21.565696022727277 30.779829545454547  21.10333806818182 30.647727272727273  C 20.640980113636367 30.515625  20.296046401515152 30.40920928030303  20.06853693181818 30.328480113636367  C 19.841027462121215 30.247750946969695  19.433712121212125 30.097301136363633  18.846590909090907 29.87713068181818  C 18.2594696969697 29.656960227272727  17.899857954545457 29.524857954545453  17.76775568181818 29.480823863636367  C 16.329308712121215 28.967092803030305  15.044981060606062 28.357954545454547  13.914772727272727 27.653409090909093  C 12.050662878787879 26.493844696969695  10.113162878787879 24.908617424242422  8.102272727272727 22.897727272727273  C 6.091382575757576 20.886837121212118  4.506155303030304 18.949337121212125  3.346590909090909 17.085227272727273  C 2.642045454545454 15.955018939393938  2.0329071969696972 14.670691287878785  1.5191761363636362 13.232244318181818  C 1.4751420454545454 13.100142045454543  1.343039772727273 12.740530303030301  1.1228693181818183 12.153409090909092  C 0.9026988636363635 11.566287878787877  0.7522490530303031 11.158972537878785  0.6715198863636365 10.931463068181818  C 0.5907907196969697 10.703953598484846  0.484375 10.359019886363635  0.3522727272727273 9.896661931818182  C 0.22017045454545453 9.434303977272723  0.12843276515151517 9.012310606060604  0.07705965909090909 8.630681818181818  C 0.02568655303030303 8.249053030303028  0 7.860085227272727  0 7.463778409090908  C 0 6.113399621212119  0.3742897727272727 4.7483428030303  1.1228693181818183 3.368607954545454  C 1.9448390151515154 1.8861268939393891  2.722774621212121 0.9907670454545461  3.4566761363636367 0.6825284090909078  C 3.823626893939394 0.5210700757575734  4.326349431818182 0.36695075757575424  4.96484375 0.22017045454545392  C 5.603338068181818 0.07339015151515016  6.120738636363637 0  6.517045454545455 0  C 6.72253787878788 0  6.876657196969698 0.02201704545454608  6.979403409090908 0.0660511363636348  C 7.243607954545455 0.15411931818181912  7.632575757575758 0.7118844696969693  8.146306818181817 1.7393465909090922  C 8.307765151515152 2.018229166666662  8.527935606060607 2.4145359848484813  8.806818181818183 2.928267045454546  C 9.085700757575758 3.441998106060604  9.342566287878789 3.9080255681818192  9.577414772727273 4.326349431818181  C 9.812263257575758 4.744673295454546  10.039772727272727 5.137310606060604  10.259943181818183 5.504261363636365  C 10.303977272727273 5.562973484848481  10.432410037878789 5.746448863636365  10.645241477272727 6.0546875  C 10.85807291666667 6.362926136363635  11.015861742424244 6.623461174242423  11.118607954545453 6.836292613636365  C 11.221354166666668 7.0491240530303  11.272727272727273 7.258285984848481  11.272727272727273 7.463778409090908  C 11.272727272727273 7.757339015151512  11.06356534090909 8.124289772727273  10.645241477272727 8.564630681818182  C 10.226917613636363 9.004971590909092  9.771898674242426 9.408617424242424  9.28018465909091 9.775568181818182  C 8.788470643939394 10.142518939393936  8.333451704545453 10.531486742424242  7.915127840909091 10.942471590909092  C 7.496803977272727 11.353456439393938  7.287642045454545 11.691051136363635  7.287642045454545 11.955255681818182  C 7.287642045454545 12.087357954545453  7.324337121212122 12.252485795454547  7.397727272727273 12.450639204545453  C 7.471117424242425 12.648792613636365  7.533499053030304 12.799242424242424  7.584872159090908 12.901988636363635  C 7.6362452651515165 13.004734848484846  7.738991477272727 13.180871212121211  7.893110795454546 13.430397727272727  C 8.047230113636363 13.679924242424242  8.131628787878789 13.819365530303031  8.146306818181817 13.848721590909092  C 9.261837121212121 15.859611742424239  10.538825757575758 17.5842803030303  11.977272727272727 19.022727272727273  C 13.415719696969697 20.46117424242424  15.14038825757576 21.738162878787875  17.151278409090907 22.853693181818183  C 17.18063446969697 22.868371212121207  17.320075757575758 22.952769886363637  17.569602272727273 23.106889204545453  C 17.81912878787879 23.261008522727273  17.995265151515152 23.36375473484848  18.098011363636367 23.415127840909093  C 18.200757575757578 23.466500946969695  18.351207386363633 23.528882575757574  18.549360795454547 23.602272727272727  C 18.747514204545453 23.675662878787875  18.912642045454547 23.712357954545453  19.04474431818182 23.712357954545453  C 19.308948863636367 23.712357954545453  19.646543560606062 23.503196022727273  20.057528409090907 23.084872159090907  C 20.468513257575758 22.666548295454547  20.857481060606066 22.211529356060606  21.22443181818182 21.719815340909093  C 21.591382575757578 21.22810132575757  21.995028409090907 20.773082386363637  22.43536931818182 20.354758522727273  C 22.875710227272727 19.936434659090907  23.242660984848488 19.727272727272727  23.536221590909093 19.727272727272727  C 23.74171401515152 19.727272727272727  23.9508759469697 19.778645833333332  24.163707386363633 19.881392045454547  C 24.376538825757578 19.984138257575754  24.637073863636367 20.141927083333332  24.9453125 20.354758522727273  C 25.253551136363633 20.567589962121207  25.43702651515152 20.696022727272727  25.495738636363633 20.740056818181817  C 25.862689393939394 20.960227272727273  26.255326704545453 21.18773674242424  26.67365056818182 21.422585227272727  C 27.09197443181818 21.657433712121207  27.558001893939394 21.91429924242424  28.071732954545453 22.193181818181817  C 28.58546401515152 22.47206439393939  28.98177083333334 22.692234848484848  29.260653409090907 22.853693181818183  C 30.28811553030303 23.36742424242424  30.84588068181818 23.756392045454547  30.933948863636367 24.020596590909093  Z " fill-rule="nonzero" fill="#000000" stroke="none" transform="matrix(1 0 0 1 52 270 )" />
  </g>
</svg>