<?xml version="1.0" encoding="utf-8"?>
<!-- Generator: Adobe Illustrator 23.0.2, SVG Export Plug-In . SVG Version: 6.00 Build 0)  -->
<svg version="1.1" id="Layer_1" xmlns="http://www.w3.org/2000/svg" xmlns:xlink="http://www.w3.org/1999/xlink" x="0px" y="0px"
	 viewBox="0 0 400 400" style="enable-background:new 0 0 400 400;" xml:space="preserve">
<style type="text/css">
	.st0{fill:#020203;}
</style>
<path class="st0" d="M132.08,350.73c-39.44,4.14-73.61-19.61-82.45-57.59c-1.29-5.55-1.88-11.37-1.94-17.07
	c-0.23-20.25-0.09-40.5-0.09-60.75c0-21.4-0.12-42.8,0.05-64.2c0.09-11.34,7.47-19.62,18.52-21.56c9.15-1.6,19.33,4.1,22.45,13.34
	c1.35,4.01,1.52,8.57,1.54,12.88c0.11,39.35,0.01,78.7,0.1,118.05c0.04,16.19,7.99,28.2,21.37,32.96
	c14.82,5.27,31.51-1.26,38.9-15.21c7.38-13.94,3.34-31.33-9.48-40.66c-1.48-1.08-3.11-1.96-4.67-2.93
	c-10.76-6.73-14.25-18.81-8.44-29.21c5.83-10.42,18.76-14,29.89-7.64c26.02,14.87,39.48,37.56,38.85,67.48
	C195.93,315.83,167.42,347.02,132.08,350.73z"/>
<path class="st0" d="M254.04,298.13c-11.66,0.72-21.46-8.16-22.12-21.51c-0.8-16.27-3.42-31.99-10.67-46.63
	c-15.85-32.01-41.07-52.37-76.09-60.24c-14.76-3.32-22.38-13.85-19.18-26.59c2.79-11.09,12.52-18.07,23.84-15.84
	c54.46,10.74,92.13,42.3,113.81,93.13c7.29,17.09,10.19,35.21,10.96,55.31C274.72,287.63,266.37,297.38,254.04,298.13z"/>
<path class="st0" d="M352.43,280.67c-0.8,1.61-1.62,3.22-2.4,4.84c-4.2,8.81-13.71,14-22.55,12.31c-10.45-2-17.5-9.32-17.83-19.81
	c-0.89-28.35-5.68-55.82-18.45-81.35c-30.17-60.34-78.75-95.56-145.53-105.42c-12.58-1.86-21.43-11.26-20.53-22.61
	c1-12.59,10.7-21.05,24.26-19.68c35.61,3.59,68.54,15.43,98.25,35.28c59.48,39.73,93.41,95.54,102.94,166.31
	c0.61,4.52,1.23,9.04,1.84,13.55C352.43,269.62,352.43,275.15,352.43,280.67z"/>
</svg>
