<?xml version="1.0" encoding="utf-8"?>
<!-- Generator: Adobe Illustrator 23.0.2, SVG Export Plug-In . SVG Version: 6.00 Build 0)  -->
<svg version="1.1" id="Layer_1" xmlns="http://www.w3.org/2000/svg" xmlns:xlink="http://www.w3.org/1999/xlink" x="0px" y="0px"
	 viewBox="0 0 400 400" style="enable-background:new 0 0 400 400;" xml:space="preserve">
<style type="text/css">
	.st0{fill:#010202;}
</style>
<path class="st0" d="M251.07,49.69h-94.23c-15.61,0-28.38,12.77-28.38,28.38v256.29c0,15.61,12.77,28.38,28.38,28.38h94.23
	c15.61,0,28.38-12.77,28.38-28.38V78.07C279.45,62.46,266.68,49.69,251.07,49.69z M203.95,58.29c0.79,0,1.43,0.64,1.43,1.43
	c0,0.79-0.64,1.43-1.43,1.43s-1.43-0.64-1.43-1.43C202.53,58.93,203.16,58.29,203.95,58.29z M191.95,68.83h24.01
	c0.56,0,1.02,0.46,1.02,1.02c0,0.56-0.46,1.02-1.02,1.02h-24.01c-0.56,0-1.02-0.46-1.02-1.02
	C190.92,69.29,191.39,68.83,191.95,68.83z M180.18,67.22c1.46,0,2.63,1.18,2.63,2.63s-1.18,2.63-2.63,2.63
	c-1.46,0-2.63-1.18-2.63-2.63S178.73,67.22,180.18,67.22z M203.95,354.37c-6.09,0-11.03-4.94-11.03-11.03
	c0-6.09,4.94-11.03,11.03-11.03c6.09,0,11.03,4.94,11.03,11.03C214.98,349.43,210.05,354.37,203.95,354.37z M272.31,108.15v217.33
	H135.59v-81.55V87.16h136.72V108.15z"/>
<path class="st0" d="M62.93,203.55h46.57c1.09,0,1.98-0.89,1.98-1.98v-0.31c0-1.09-0.89-1.98-1.98-1.98H62.93
	c-1.09,0-1.98,0.89-1.98,1.98v0.31C60.96,202.66,61.85,203.55,62.93,203.55z"/>
<path class="st0" d="M70.07,246.74l40.46-26.17c0.91-0.59,1.22-1.9,0.7-2.91l0,0c-0.52-1.01-1.69-1.37-2.6-0.78l-40.46,26.17
	c-0.91,0.59-1.22,1.9-0.7,2.91l0,0C67.99,246.97,69.16,247.33,70.07,246.74z"/>
<path class="st0" d="M70.07,156.1l40.46,26.17c0.91,0.59,1.22,1.9,0.7,2.91l0,0c-0.52,1.01-1.69,1.37-2.6,0.78l-40.46-26.17
	c-0.91-0.59-1.22-1.9-0.7-2.91l0,0C67.99,155.86,69.16,155.51,70.07,156.1z"/>
<path class="st0" d="M344.97,203.55h-46.57c-1.09,0-1.98-0.89-1.98-1.98v-0.31c0-1.09,0.89-1.98,1.98-1.98h46.57
	c1.09,0,1.98,0.89,1.98,1.98v0.31C346.95,202.66,346.06,203.55,344.97,203.55z"/>
<path class="st0" d="M337.84,246.74l-40.46-26.17c-0.91-0.59-1.22-1.9-0.7-2.91l0,0c0.52-1.01,1.69-1.37,2.6-0.78l40.46,26.17
	c0.91,0.59,1.22,1.9,0.7,2.91h0C339.91,246.97,338.74,247.33,337.84,246.74z"/>
<path class="st0" d="M337.84,156.1l-40.46,26.17c-0.91,0.59-1.22,1.9-0.7,2.91l0,0c0.52,1.01,1.69,1.37,2.6,0.78l40.46-26.17
	c0.91-0.59,1.22-1.9,0.7-2.91h0C339.91,155.86,338.74,155.51,337.84,156.1z"/>
</svg>
