<?xml version="1.0" encoding="utf-8"?>
<!-- Generator: Adobe Illustrator 23.0.2, SVG Export Plug-In . SVG Version: 6.00 Build 0)  -->
<svg version="1.1" id="Layer_1" xmlns="http://www.w3.org/2000/svg" xmlns:xlink="http://www.w3.org/1999/xlink" x="0px" y="0px"
	 viewBox="0 0 314.73 315" style="enable-background:new 0 0 314.73 315;" xml:space="preserve">
<style type="text/css">
	.st0{fill:url(#SVGID_1_);}
	.st1{fill:#FFFFFF;stroke:#000000;stroke-width:4;stroke-miterlimit:10;}
	.st2{fill:url(#SVGID_2_);}
	.st3{fill:#FFFFFF;}
	.st4{fill:url(#SVGID_3_);}
	.st5{fill:url(#SVGID_4_);}
	.st6{fill:url(#SVGID_5_);}
	.st7{fill:none;}
	.st8{fill:#EC008C;}
</style>
<g>
	<g>
		
			<radialGradient id="SVGID_1_" cx="-51.7778" cy="-926.9539" r="156.5336" gradientTransform="matrix(0.9684 -0.2494 0.2494 0.9684 437.8227 1042.671)" gradientUnits="userSpaceOnUse">
			<stop  offset="0.5744" style="stop-color:#130C0E"/>
			<stop  offset="0.7977" style="stop-color:#130C0E"/>
			<stop  offset="1" style="stop-color:#130C0E"/>
		</radialGradient>
		<polygon class="st0" points="303.83,126.09 308.09,118.88 300.88,114.63 304.56,107.11 297.04,103.43 300.11,95.65 292.33,92.57 
			294.79,84.57 286.78,82.12 288.6,73.95 280.44,72.13 281.61,63.84 273.32,62.67 273.84,54.32 265.49,53.8 265.35,45.43 
			256.98,45.57 256.19,37.24 247.86,38.03 246.41,29.79 238.17,31.23 236.08,23.13 227.98,25.21 225.26,17.3 217.35,20.02 
			214.02,12.34 206.34,15.67 202.42,8.27 195.02,12.2 190.53,5.13 183.47,9.62 178.44,2.93 171.75,7.96 166.21,1.69 159.94,7.23 
			153.93,1.41 148.11,7.42 141.65,2.09 136.32,8.54 129.47,3.74 124.67,10.59 117.46,6.33 113.21,13.54 105.69,9.86 102.01,17.38 
			94.23,14.31 91.15,22.09 83.15,19.64 80.7,27.64 72.53,25.82 70.71,33.99 62.42,32.81 61.25,41.1 52.9,40.58 52.38,48.93 
			44.01,49.07 44.15,57.44 35.81,58.23 36.61,66.56 28.37,68.01 29.81,76.25 21.71,78.34 23.79,86.44 15.88,89.16 18.59,97.07 
			10.91,100.4 14.24,108.08 6.85,112 10.77,119.4 3.71,123.89 8.2,130.95 1.51,135.98 6.54,142.67 0.27,148.21 5.81,154.48 
			-0.01,160.49 6,166.31 0.67,172.77 7.12,178.1 2.32,184.95 9.17,189.75 4.91,196.96 12.12,201.22 8.44,208.73 15.96,212.41 
			12.88,220.19 20.67,223.27 18.21,231.27 26.21,233.72 24.4,241.89 32.56,243.71 31.39,252 39.68,253.17 39.16,261.53 
			47.51,262.05 47.65,270.41 56.02,270.28 56.81,278.61 65.14,277.81 66.59,286.06 74.83,284.61 76.92,292.71 85.02,290.63 
			87.74,298.54 95.69,295.82 98.93,303.13 106.7,300.16 110.79,306.71 117.97,303.65 122.47,310.71 129.53,306.22 134.56,312.91 
			141.25,307.88 146.79,314.15 153.06,308.61 159.07,314.43 164.89,308.42 171.34,313.75 176.67,307.3 183.52,312.11 188.33,305.25 
			195.54,309.51 199.79,302.3 207.31,305.98 210.99,298.46 218.77,301.54 221.85,293.75 229.85,296.21 232.3,288.21 240.47,290.03 
			242.29,281.86 250.58,283.03 251.75,274.74 260.1,275.26 260.62,266.91 268.99,266.77 268.85,258.41 277.18,257.61 276.39,249.28 
			284.63,247.84 283.19,239.59 291.29,237.5 289.21,229.4 297.12,226.68 294.41,218.77 302.08,215.44 298.75,207.76 306.15,203.84 
			302.23,196.45 309.29,191.96 304.8,184.89 311.49,179.86 306.46,173.18 312.73,167.64 307.19,161.36 313.01,155.35 307,149.53 
			312.33,143.08 305.88,137.75 310.68,130.9 		"/>
	</g>
</g>
<g>
	<g>
		<g>
			<path class="st1" d="M193.51,298.83c-37.65,9.7-76.82,4.15-110.3-15.62c-33.48-19.77-57.26-51.39-66.95-89.03
				c-9.7-37.65-4.15-76.82,15.62-110.3c19.74-33.43,51.36-57.18,89.05-66.89c37.69-9.71,76.86-4.18,110.28,15.55
				c33.48,19.77,57.26,51.39,66.95,89.04c9.7,37.65,4.15,76.82-15.62,110.3C262.79,265.35,231.17,289.13,193.51,298.83z"/>
		</g>
		<g>
			
				<radialGradient id="SVGID_2_" cx="-51.0741" cy="-926.7863" r="147.7498" gradientTransform="matrix(0.9684 -0.2494 0.2494 0.9684 437.8227 1042.671)" gradientUnits="userSpaceOnUse">
				<stop  offset="0.5744" style="stop-color:#130C0E"/>
				<stop  offset="0.7977" style="stop-color:#130C0E"/>
				<stop  offset="1" style="stop-color:#130C0E"/>
			</radialGradient>
			<path class="st2" d="M121.48,19.13c37.12-9.56,75.69-4.12,108.61,15.31c32.97,19.47,56.39,50.61,65.94,87.69
				c9.55,37.08,4.09,75.65-15.38,108.62c-19.46,32.97-50.6,56.38-87.68,65.93c-37.08,9.55-75.65,4.09-108.62-15.38
				c-32.97-19.47-56.39-50.6-65.93-87.68C8.86,156.55,14.32,117.97,33.78,85C53.22,52.08,84.37,28.69,121.48,19.13 M120.38,14.84
				C82.12,24.7,50.01,48.81,29.97,82.75C9.9,116.74,4.27,156.51,14.12,194.73c9.84,38.22,33.98,70.32,67.97,90.39
				c33.99,20.07,73.76,25.7,111.98,15.85c38.23-9.85,70.33-33.98,90.39-67.97c20.07-33.99,25.7-73.76,15.85-111.98
				c-9.84-38.22-33.98-70.33-67.97-90.39C198.4,10.6,158.64,4.99,120.38,14.84L120.38,14.84z"/>
		</g>
	</g>
	<g>
		<g>
			<path class="st3" d="M191.99,292.92c-36,9.27-73.46,3.97-105.48-14.93c-32.01-18.9-54.75-49.14-64.02-85.14
				c-9.27-36-3.97-73.46,14.93-105.48C56.3,55.4,86.54,32.68,122.58,23.4c36.04-9.28,73.49-4,105.46,14.87
				c32.02,18.9,54.75,49.14,64.02,85.14c9.27,36,3.97,73.46-14.93,105.48C258.24,260.91,228,283.64,191.99,292.92z"/>
		</g>
		<g>
			
				<radialGradient id="SVGID_3_" cx="-51.0741" cy="-926.5278" r="139.1717" gradientTransform="matrix(0.9684 -0.2494 0.2494 0.9684 437.8227 1042.671)" gradientUnits="userSpaceOnUse">
				<stop  offset="0.5744" style="stop-color:#130C0E"/>
				<stop  offset="0.7977" style="stop-color:#130C0E"/>
				<stop  offset="1" style="stop-color:#130C0E"/>
			</radialGradient>
			<path class="st4" d="M122.58,23.4c-0.02,0-0.03,0.01-0.05,0.01c0,0-0.01,0-0.01,0c-0.01,0-0.02,0.01-0.04,0.01c0,0-0.01,0-0.01,0
				c-0.02,0-0.03,0.01-0.05,0.01c0,0,0,0,0,0c-0.02,0-0.03,0.01-0.05,0.01c0,0-0.01,0-0.01,0c-0.01,0-0.02,0.01-0.04,0.01
				c0,0-0.01,0-0.01,0c-0.01,0-0.03,0.01-0.04,0.01c0,0-0.01,0-0.01,0c-0.01,0-0.03,0.01-0.05,0.01c0,0-0.01,0-0.01,0
				c-0.01,0-0.02,0.01-0.03,0.01c-0.01,0-0.01,0-0.02,0c-0.01,0-0.02,0.01-0.03,0.01c0,0-0.01,0-0.01,0c-0.02,0-0.03,0.01-0.05,0.01
				c0,0-0.01,0-0.01,0c-0.01,0-0.02,0.01-0.03,0.01c-0.01,0-0.01,0-0.02,0c-0.01,0-0.02,0.01-0.03,0.01c-0.01,0-0.01,0-0.02,0
				c-0.02,0-0.03,0.01-0.05,0.01c0,0-0.01,0-0.01,0c-0.01,0-0.02,0.01-0.03,0.01c-0.01,0-0.01,0-0.02,0.01c-0.01,0-0.02,0-0.03,0.01
				c-0.01,0-0.01,0-0.02,0.01c-0.01,0-0.02,0-0.03,0.01c-0.01,0-0.02,0.01-0.04,0.01c-0.01,0-0.02,0-0.03,0.01
				c-0.01,0-0.02,0-0.02,0.01c-0.01,0-0.01,0-0.02,0.01c-0.01,0-0.02,0-0.02,0.01c-0.01,0-0.02,0-0.02,0.01
				c-0.01,0-0.03,0.01-0.04,0.01c-0.01,0-0.01,0-0.02,0.01c-0.01,0-0.02,0.01-0.03,0.01c-0.01,0-0.01,0-0.02,0
				c-0.01,0-0.02,0.01-0.03,0.01c0,0-0.01,0-0.02,0c-0.03,0.01-0.07,0.02-0.1,0.03c0,0-0.01,0-0.01,0c-0.01,0-0.02,0.01-0.04,0.01
				c0,0-0.01,0-0.01,0c-0.05,0.01-0.1,0.03-0.15,0.04c0,0,0,0,0,0c-0.37,0.1-0.75,0.2-1.12,0.31l0.71,2.56
				c0.84-0.23,1.68-0.46,2.52-0.67L122.58,23.4L122.58,23.4L122.58,23.4z M117.46,24.82c-0.28,0.08-0.56,0.17-0.84,0.25c0,0,0,0,0,0
				c-0.02,0-0.03,0.01-0.05,0.01c0,0-0.01,0-0.01,0c-0.01,0-0.02,0.01-0.03,0.01c-0.01,0-0.01,0-0.02,0c-0.01,0-0.03,0.01-0.04,0.01
				c-0.01,0-0.02,0.01-0.03,0.01c0,0-0.01,0-0.01,0c-0.01,0-0.02,0.01-0.03,0.01c0,0,0,0,0,0c-0.49,0.15-0.98,0.3-1.46,0.46
				l0.8,2.53c0.83-0.26,1.66-0.52,2.49-0.77L117.46,24.82L117.46,24.82z M112.4,26.43c-0.84,0.28-1.68,0.58-2.51,0.88l0.9,2.5
				c0.82-0.29,1.64-0.58,2.46-0.86L112.4,26.43L112.4,26.43z M107.4,28.23c-0.05,0.02-0.1,0.04-0.15,0.06c0,0,0,0,0,0
				c-0.01,0-0.02,0.01-0.03,0.01c-0.01,0-0.01,0-0.02,0.01c-0.01,0-0.02,0.01-0.03,0.01c-0.01,0-0.02,0.01-0.02,0.01
				c-0.01,0-0.01,0.01-0.02,0.01c-0.01,0.01-0.03,0.01-0.04,0.02c0,0-0.01,0-0.01,0c-0.01,0-0.03,0.01-0.04,0.02c0,0-0.01,0-0.01,0
				c-0.01,0.01-0.03,0.01-0.04,0.02c0,0,0,0,0,0c-0.28,0.11-0.57,0.22-0.85,0.33c0,0,0,0,0,0c-0.03,0.01-0.06,0.02-0.1,0.04
				c0,0,0,0,0,0c-0.01,0.01-0.03,0.01-0.04,0.02c0,0-0.01,0-0.01,0c-0.01,0.01-0.03,0.01-0.04,0.02c0,0,0,0,0,0
				c-0.02,0.01-0.03,0.01-0.05,0.02c0,0-0.01,0-0.01,0c-0.01,0-0.02,0.01-0.03,0.01c-0.01,0-0.01,0-0.01,0.01
				c-0.01,0-0.02,0.01-0.03,0.01c0,0-0.01,0-0.01,0.01c-0.01,0-0.03,0.01-0.04,0.02c-0.01,0-0.01,0-0.02,0.01
				c-0.01,0-0.02,0.01-0.03,0.01c-0.01,0-0.01,0.01-0.02,0.01c-0.01,0-0.02,0.01-0.02,0.01c-0.01,0-0.01,0.01-0.02,0.01
				c-0.01,0-0.02,0.01-0.03,0.01c-0.01,0.01-0.02,0.01-0.04,0.01c-0.01,0-0.01,0.01-0.02,0.01c-0.01,0-0.02,0.01-0.03,0.01
				c-0.01,0-0.01,0-0.02,0.01c-0.01,0-0.02,0.01-0.03,0.01c0,0-0.01,0-0.02,0.01c-0.03,0.01-0.07,0.03-0.1,0.04l0,0
				c-0.01,0-0.02,0.01-0.04,0.01c0,0,0,0-0.01,0c-0.05,0.02-0.1,0.04-0.15,0.06c0,0,0,0,0,0c-0.05,0.02-0.1,0.04-0.15,0.06
				c0,0,0,0-0.01,0c-0.01,0-0.02,0.01-0.03,0.01c0,0-0.01,0-0.01,0c-0.01,0-0.02,0.01-0.03,0.01l0.99,2.46
				c0.8-0.33,1.61-0.64,2.43-0.95L107.4,28.23L107.4,28.23z M102.48,30.21c-0.69,0.29-1.37,0.59-2.05,0.89c0,0-0.01,0-0.01,0
				c-0.01,0-0.02,0.01-0.03,0.01c0,0-0.01,0.01-0.02,0.01c-0.01,0-0.02,0.01-0.02,0.01c-0.01,0.01-0.02,0.01-0.03,0.01
				c-0.01,0-0.01,0.01-0.02,0.01c-0.01,0.01-0.03,0.01-0.04,0.02c0,0-0.01,0-0.01,0.01c-0.01,0.01-0.02,0.01-0.03,0.01
				c0,0-0.01,0-0.01,0.01c-0.05,0.02-0.11,0.05-0.16,0.07l1.09,2.42c0.79-0.35,1.59-0.7,2.39-1.04L102.48,30.21L102.48,30.21z
				 M97.63,32.38c-0.78,0.37-1.55,0.74-2.32,1.12c0,0,0,0,0,0c-0.01,0.01-0.02,0.01-0.03,0.02c0,0,0,0-0.01,0
				c-0.01,0-0.02,0.01-0.03,0.02l1.18,2.38c0.78-0.39,1.56-0.76,2.35-1.13L97.63,32.38L97.63,32.38z M92.87,34.74
				c-0.79,0.41-1.57,0.82-2.35,1.25l1.27,2.33c0.76-0.41,1.53-0.82,2.3-1.22L92.87,34.74L92.87,34.74z M88.2,37.28
				c-0.14,0.08-0.29,0.16-0.43,0.25c0,0,0,0-0.01,0c-0.04,0.02-0.09,0.05-0.13,0.08c-0.01,0-0.01,0-0.01,0.01
				c-0.01,0-0.02,0.01-0.03,0.01c-0.01,0-0.01,0.01-0.01,0.01c-0.01,0-0.02,0.01-0.02,0.01c-0.01,0-0.01,0.01-0.02,0.01
				c-0.01,0.01-0.02,0.01-0.03,0.02c-0.01,0.01-0.02,0.01-0.03,0.01c-0.01,0-0.01,0.01-0.02,0.01c-0.01,0-0.02,0.01-0.03,0.02
				c-0.01,0-0.01,0.01-0.01,0.01c-0.01,0.01-0.02,0.01-0.04,0.02c0,0,0,0,0,0c-0.02,0.01-0.03,0.02-0.04,0.03c0,0,0,0,0,0
				c-0.01,0.01-0.03,0.01-0.04,0.02c0,0,0,0-0.01,0c-0.46,0.27-0.92,0.54-1.38,0.81l1.36,2.28c0.75-0.44,1.5-0.88,2.25-1.31
				L88.2,37.28L88.2,37.28z M83.63,39.99c-0.42,0.26-0.84,0.53-1.27,0.79l0,0c-0.04,0.03-0.09,0.06-0.13,0.08
				c0,0-0.01,0.01-0.02,0.01c-0.01,0-0.01,0.01-0.02,0.01c-0.01,0.01-0.01,0.01-0.02,0.01c-0.01,0-0.01,0.01-0.02,0.01
				c-0.01,0.01-0.02,0.01-0.03,0.02c0,0,0,0,0,0c-0.01,0.01-0.03,0.02-0.04,0.03c0,0,0,0-0.01,0c-0.01,0.01-0.03,0.02-0.04,0.03
				c0,0,0,0,0,0c-0.22,0.14-0.43,0.28-0.64,0.41l1.44,2.23c0.73-0.47,1.46-0.94,2.2-1.4L83.63,39.99L83.63,39.99z M79.18,42.88
				c-0.73,0.5-1.46,1-2.19,1.51l1.53,2.17c0.71-0.5,1.42-0.99,2.14-1.48L79.18,42.88L79.18,42.88z M74.83,45.94
				c-0.29,0.21-0.58,0.42-0.86,0.64c0,0-0.01,0-0.01,0.01c-0.01,0.01-0.02,0.01-0.02,0.02c0,0-0.01,0.01-0.02,0.01
				c-0.01,0.01-0.01,0.01-0.02,0.01c-0.01,0.01-0.02,0.02-0.04,0.03c0,0,0,0-0.01,0.01c-0.01,0.01-0.02,0.02-0.03,0.03
				c0,0,0,0-0.01,0c-0.37,0.28-0.74,0.56-1.11,0.84l1.61,2.11c0.69-0.53,1.39-1.05,2.09-1.56L74.83,45.94L74.83,45.94z M70.61,49.16
				c-0.57,0.45-1.13,0.91-1.7,1.37c0,0,0,0,0,0c-0.01,0.01-0.02,0.02-0.04,0.03c0,0,0,0,0,0c-0.01,0.01-0.02,0.02-0.03,0.03
				c-0.01,0.01-0.02,0.01-0.03,0.02c0,0,0,0-0.01,0.01c-0.08,0.07-0.17,0.14-0.25,0.21l1.69,2.05c0.67-0.55,1.34-1.1,2.02-1.64
				L70.61,49.16L70.61,49.16z M66.52,52.54c-0.67,0.58-1.34,1.16-2,1.75l1.77,1.98c0.65-0.58,1.3-1.15,1.96-1.72L66.52,52.54
				L66.52,52.54z M62.56,56.08c-0.46,0.43-0.91,0.85-1.37,1.29c0,0,0,0,0,0c-0.01,0.01-0.02,0.02-0.03,0.03c0,0-0.01,0.01-0.02,0.01
				c0,0-0.01,0.01-0.02,0.01c-0.01,0.01-0.01,0.01-0.02,0.02c0,0,0,0,0,0c-0.16,0.15-0.32,0.31-0.48,0.46l1.84,1.91
				c0.63-0.6,1.26-1.2,1.89-1.79L62.56,56.08L62.56,56.08z M58.73,59.77c-0.41,0.42-0.83,0.84-1.23,1.26l0,0
				c-0.01,0.01-0.02,0.02-0.03,0.03c0,0,0,0-0.01,0.01c-0.01,0.01-0.02,0.02-0.03,0.03c0,0,0,0,0,0c-0.01,0.01-0.02,0.02-0.03,0.03
				c-0.01,0.01-0.01,0.01-0.02,0.02c0,0-0.01,0.01-0.01,0.01c-0.01,0.01-0.02,0.02-0.02,0.03l0,0c-0.15,0.16-0.31,0.32-0.46,0.48
				l1.92,1.84c0.6-0.63,1.21-1.25,1.82-1.86L58.73,59.77L58.73,59.77z M55.06,63.61c-0.01,0.01-0.03,0.03-0.04,0.04
				c0,0,0,0-0.01,0.01c-0.01,0.01-0.02,0.02-0.03,0.03c0,0,0,0,0,0.01c-0.02,0.02-0.05,0.05-0.07,0.07c0,0-0.01,0.01-0.01,0.01
				c-0.01,0.01-0.02,0.02-0.02,0.03c0,0-0.01,0.01-0.01,0.01c-0.01,0.01-0.02,0.02-0.02,0.03c0,0-0.01,0.01-0.01,0.01
				c-0.01,0.01-0.02,0.02-0.03,0.03c0,0-0.01,0.01-0.01,0.02c-0.01,0.01-0.01,0.01-0.02,0.02c-0.01,0.01-0.01,0.01-0.02,0.02
				c-0.01,0-0.01,0.01-0.01,0.02c-0.01,0.01-0.01,0.01-0.02,0.02c0,0-0.01,0.01-0.01,0.02c-0.01,0.01-0.03,0.03-0.04,0.04
				c0,0,0,0-0.01,0.01c-0.01,0.01-0.01,0.02-0.02,0.02c0,0-0.01,0.01-0.01,0.01c-0.01,0.01-0.02,0.02-0.02,0.02
				c0,0-0.01,0.01-0.01,0.01c-0.03,0.04-0.07,0.08-0.1,0.11c0,0,0,0,0,0c-0.04,0.04-0.07,0.08-0.11,0.12l0,0
				c-0.13,0.14-0.26,0.29-0.39,0.43c0,0,0,0,0,0.01c-0.01,0.01-0.02,0.02-0.02,0.03c0,0,0,0,0,0c-0.02,0.03-0.05,0.05-0.07,0.08
				c0,0-0.01,0.01-0.01,0.01c-0.01,0.01-0.01,0.01-0.02,0.02c0,0-0.01,0.01-0.01,0.02c-0.01,0.01-0.01,0.01-0.02,0.02
				c-0.01,0.01-0.02,0.02-0.03,0.03c0,0-0.01,0.01-0.01,0.01c-0.01,0.01-0.02,0.02-0.03,0.03c0,0,0,0-0.01,0.01
				c-0.01,0.01-0.02,0.02-0.03,0.03c0,0,0,0,0,0c-0.15,0.17-0.3,0.34-0.45,0.51l1.99,1.76c0.58-0.65,1.16-1.29,1.75-1.93
				L55.06,63.61L55.06,63.61z M51.53,67.58c-0.58,0.67-1.14,1.35-1.71,2.04l2.05,1.68c0.55-0.67,1.11-1.34,1.67-2L51.53,67.58
				L51.53,67.58z M48.16,71.69c-0.36,0.46-0.72,0.92-1.08,1.38c0,0,0,0,0,0c-0.01,0.01-0.02,0.03-0.03,0.04c0,0,0,0,0,0
				c-0.03,0.04-0.06,0.08-0.1,0.12c0,0,0,0,0,0c-0.03,0.04-0.06,0.08-0.1,0.12c0,0,0,0,0,0.01c-0.01,0.01-0.02,0.02-0.03,0.04
				c0,0,0,0,0,0.01c-0.02,0.03-0.04,0.05-0.06,0.08c0,0,0,0,0,0.01c-0.01,0.01-0.02,0.03-0.03,0.04c0,0,0,0-0.01,0.01
				c-0.01,0.01-0.02,0.02-0.03,0.03c0,0,0,0,0,0.01c-0.01,0.01-0.02,0.03-0.03,0.04c0,0,0,0,0,0c-0.01,0.01-0.02,0.03-0.03,0.04
				c0,0,0,0.01-0.01,0.01c-0.01,0.01-0.01,0.02-0.02,0.03c0,0-0.01,0.01-0.01,0.01c-0.01,0.01-0.02,0.02-0.02,0.03
				c0,0-0.01,0.01-0.01,0.01c-0.01,0.01-0.01,0.02-0.02,0.03l2.12,1.61c0.53-0.69,1.06-1.38,1.6-2.06L48.16,71.69L48.16,71.69z
				 M44.95,75.92c-0.52,0.71-1.04,1.43-1.55,2.16l2.18,1.52c0.5-0.71,1-1.42,1.52-2.12L44.95,75.92L44.95,75.92z M41.9,80.27
				c0,0.01-0.01,0.01-0.01,0.02c-0.01,0.01-0.01,0.01-0.01,0.02c0,0.01-0.01,0.01-0.01,0.02c-0.01,0.01-0.01,0.02-0.02,0.02
				c0,0-0.01,0.01-0.01,0.01c-0.01,0.01-0.02,0.02-0.02,0.03c0,0,0,0,0,0.01c-0.02,0.03-0.04,0.06-0.06,0.09c0,0,0,0,0,0
				c-0.1,0.15-0.2,0.3-0.3,0.45c0,0,0,0,0,0c-0.03,0.04-0.06,0.09-0.09,0.13c0,0,0,0,0,0c-0.01,0.01-0.02,0.02-0.02,0.04
				c0,0,0,0.01-0.01,0.01c-0.02,0.03-0.04,0.06-0.05,0.08c0,0.01-0.01,0.01-0.01,0.02c-0.01,0.01-0.01,0.02-0.02,0.03
				c0,0.01-0.01,0.01-0.01,0.02c0,0.01-0.01,0.01-0.01,0.02c-0.01,0.01-0.02,0.03-0.03,0.04c0,0.01-0.01,0.01-0.01,0.02
				c-0.01,0.01-0.01,0.02-0.02,0.02c0,0.01-0.01,0.01-0.01,0.01c-0.01,0.01-0.01,0.02-0.02,0.03c0,0,0,0.01-0.01,0.01
				c-0.24,0.36-0.47,0.71-0.7,1.07l2.23,1.44c0.47-0.73,0.95-1.46,1.44-2.18L41.9,80.27L41.9,80.27z M39.02,84.73
				c-0.25,0.4-0.49,0.8-0.74,1.2c0,0,0,0.01,0,0.01c-0.01,0.02-0.02,0.04-0.04,0.06c0,0,0,0.01-0.01,0.01
				c-0.01,0.02-0.02,0.04-0.04,0.06c0,0.01-0.01,0.01-0.01,0.02c-0.01,0.01-0.02,0.03-0.03,0.04c0,0.01-0.01,0.01-0.01,0.02
				c-0.01,0.02-0.02,0.03-0.03,0.05c-0.01,0.01-0.01,0.02-0.02,0.03c-0.01,0.01-0.01,0.02-0.02,0.03c-0.01,0.02-0.02,0.04-0.03,0.06
				c0,0.01-0.01,0.01-0.01,0.02c-0.01,0.01-0.02,0.03-0.02,0.04c0,0.01-0.01,0.01-0.01,0.02c-0.02,0.03-0.03,0.05-0.04,0.07
				c0,0,0,0.01-0.01,0.01c-0.01,0.02-0.02,0.03-0.03,0.04c0,0,0,0.01-0.01,0.01c-0.02,0.03-0.03,0.05-0.05,0.08
				c0,0-0.01,0.01-0.01,0.01c-0.01,0.01-0.02,0.03-0.02,0.04c0,0,0,0,0,0.01c-0.01,0.03-0.03,0.05-0.05,0.08
				c0,0.01-0.01,0.01-0.01,0.01c-0.01,0.01-0.02,0.03-0.02,0.04c0,0.01-0.01,0.01-0.01,0.01c-0.01,0.02-0.03,0.04-0.04,0.07
				c0,0.01-0.01,0.02-0.02,0.03c-0.01,0.01-0.01,0.02-0.02,0.03c-0.01,0.02-0.02,0.03-0.03,0.05c0,0,0,0.01,0,0.01l2.28,1.36
				c0.45-0.75,0.9-1.49,1.35-2.23L39.02,84.73L39.02,84.73z M36.3,89.3c-0.11,0.2-0.23,0.4-0.34,0.61c0,0-0.01,0.01-0.01,0.02
				c-0.01,0.01-0.02,0.03-0.03,0.05c-0.01,0.01-0.02,0.03-0.02,0.04c0,0.01-0.01,0.02-0.01,0.02c-0.01,0.02-0.02,0.03-0.03,0.05
				c0,0,0,0.01,0,0.01c-0.01,0.02-0.03,0.04-0.04,0.07c0,0,0,0.01,0,0.01c-0.27,0.48-0.54,0.96-0.8,1.45l2.33,1.27
				c0.42-0.76,0.84-1.52,1.27-2.28L36.3,89.3L36.3,89.3z M33.76,93.96c-0.15,0.28-0.29,0.57-0.44,0.85l0,0
				c0,0.01-0.01,0.02-0.01,0.03c0,0.01-0.01,0.01-0.01,0.02c0,0.01-0.01,0.01-0.01,0.02c0,0.01-0.01,0.02-0.01,0.03
				c0,0,0,0.01-0.01,0.01c-0.01,0.02-0.01,0.03-0.02,0.05c0,0,0,0,0,0c-0.23,0.45-0.46,0.91-0.69,1.36l2.38,1.18
				c0.39-0.78,0.78-1.55,1.18-2.32L33.76,93.96L33.76,93.96z M31.4,98.72c-0.32,0.68-0.64,1.37-0.96,2.06c0,0,0,0,0,0.01
				c-0.01,0.01-0.01,0.03-0.02,0.04c0,0.01-0.01,0.02-0.01,0.02c0,0.01,0,0.01-0.01,0.02c-0.01,0.01-0.01,0.02-0.02,0.03
				c0,0,0,0,0,0c-0.03,0.07-0.07,0.15-0.1,0.23l2.42,1.09c0.36-0.79,0.72-1.58,1.09-2.37L31.4,98.72L31.4,98.72z M29.21,103.56
				c-0.02,0.06-0.05,0.11-0.07,0.17c0,0,0,0,0,0c-0.01,0.02-0.01,0.03-0.02,0.05c0,0,0,0,0,0c-0.01,0.03-0.03,0.06-0.04,0.09
				c0,0.01-0.01,0.01-0.01,0.02c0,0.01-0.01,0.02-0.01,0.03c0,0.01-0.01,0.02-0.01,0.02c0,0.01-0.01,0.01-0.01,0.02
				c-0.01,0.03-0.03,0.07-0.04,0.1l0,0c-0.01,0.01-0.01,0.02-0.02,0.04c0,0,0,0,0,0c-0.16,0.38-0.32,0.76-0.47,1.13
				c0,0.01-0.01,0.02-0.01,0.02c0,0.01,0,0.01-0.01,0.02c-0.01,0.01-0.01,0.02-0.01,0.04c0,0,0,0.01,0,0.01
				c-0.1,0.24-0.19,0.47-0.29,0.7l2.46,1c0.33-0.8,0.66-1.61,1-2.4L29.21,103.56L29.21,103.56z M27.21,108.48
				c-0.05,0.13-0.1,0.26-0.15,0.4c0,0,0,0,0,0.01c-0.01,0.01-0.01,0.03-0.02,0.04c0,0,0,0.01,0,0.01c0,0.01-0.01,0.02-0.01,0.04
				c0,0.01,0,0.01-0.01,0.02c0,0.01-0.01,0.02-0.01,0.03c0,0.01-0.01,0.02-0.01,0.03c0,0,0,0.01,0,0.01c0,0.01-0.01,0.02-0.01,0.03
				l0,0c-0.24,0.62-0.47,1.24-0.69,1.86l2.5,0.9c0.3-0.82,0.6-1.63,0.91-2.44L27.21,108.48L27.21,108.48z M25.4,113.48
				c-0.24,0.71-0.48,1.41-0.7,2.12c0,0,0,0,0,0.01c0,0.01-0.01,0.02-0.01,0.03c0,0,0,0.01,0,0.01c0,0.01-0.01,0.02-0.01,0.03
				c0,0.01,0,0.01-0.01,0.02c0,0.01-0.01,0.03-0.01,0.04c0,0.01-0.01,0.02-0.01,0.03c0,0.01,0,0.01-0.01,0.02
				c0,0.01-0.01,0.02-0.01,0.03c0,0.01,0,0.01-0.01,0.02c0,0.01-0.01,0.02-0.01,0.03c0,0,0,0.01,0,0.01
				c-0.01,0.03-0.02,0.06-0.03,0.1c0,0,0,0,0,0c0,0.01,0,0.02-0.01,0.02l2.53,0.81c0.26-0.83,0.54-1.65,0.82-2.47L25.4,113.48
				L25.4,113.48z M23.79,118.54c-0.09,0.29-0.18,0.59-0.26,0.89c0,0,0,0.01,0,0.01c0,0.01-0.01,0.02-0.01,0.03c0,0.01,0,0.01,0,0.02
				c0,0.01-0.01,0.02-0.01,0.03c-0.01,0.03-0.02,0.06-0.03,0.09c0,0,0,0.01,0,0.01c0,0.01-0.01,0.02-0.01,0.03c0,0,0,0.01,0,0.01
				c-0.14,0.48-0.27,0.95-0.41,1.43l2.56,0.71c0.23-0.84,0.47-1.67,0.72-2.5L23.79,118.54L23.79,118.54z M22.36,123.65
				c-0.22,0.86-0.43,1.72-0.64,2.58l2.58,0.61c0.2-0.84,0.41-1.69,0.62-2.53L22.36,123.65L22.36,123.65z M21.14,128.82
				c-0.07,0.34-0.15,0.69-0.22,1.03c0,0,0,0,0,0.01c0,0.01-0.01,0.03-0.01,0.04c0,0,0,0,0,0.01c0,0.02-0.01,0.03-0.01,0.05
				c0,0,0,0,0,0c0,0.02-0.01,0.03-0.01,0.04c0,0.01,0,0.02,0,0.02c0,0.01,0,0.01,0,0.02c0,0.01,0,0.02-0.01,0.03c0,0,0,0.01,0,0.01
				c-0.09,0.44-0.18,0.89-0.27,1.33l2.61,0.51c0.17-0.85,0.34-1.7,0.53-2.55L21.14,128.82L21.14,128.82z M20.12,134.04
				c-0.07,0.38-0.13,0.76-0.2,1.15l0,0c-0.01,0.05-0.02,0.1-0.03,0.16c0,0,0,0.01,0,0.01c0,0.01,0,0.02-0.01,0.03c0,0,0,0.01,0,0.02
				c0,0.01,0,0.02,0,0.03l0,0c0,0.02-0.01,0.04-0.01,0.06c0,0.01,0,0.02,0,0.02c0,0.01,0,0.02,0,0.02c0,0.01,0,0.02,0,0.03
				c0,0.01,0,0.01,0,0.02c0,0.01,0,0.02,0,0.03c0,0.01,0,0.01,0,0.02c0,0.01-0.01,0.03-0.01,0.04c0,0.01,0,0.01,0,0.02
				c0,0.01,0,0.02,0,0.03c0,0.01,0,0.01,0,0.02c0,0.01,0,0.02,0,0.03c0,0.01,0,0.01,0,0.02c0,0.01,0,0.03-0.01,0.04
				c0,0.01,0,0.01,0,0.02c0,0.01,0,0.02,0,0.03c0,0.01,0,0.01,0,0.02c0,0.01,0,0.01,0,0.02c0,0.01,0,0.01,0,0.02
				c0,0.01,0,0.02,0,0.02c-0.01,0.04-0.01,0.07-0.02,0.11l0,0c-0.03,0.19-0.06,0.38-0.09,0.57l2.62,0.41
				c0.13-0.86,0.28-1.71,0.43-2.57L20.12,134.04L20.12,134.04z M19.3,139.28c-0.01,0.09-0.02,0.17-0.03,0.26c0,0.01,0,0.01,0,0.02
				c0,0.01,0,0.02,0,0.03c0,0.01,0,0.01,0,0.02c0,0,0,0.01,0,0.01c-0.1,0.76-0.2,1.53-0.29,2.29l2.64,0.31
				c0.1-0.86,0.21-1.72,0.33-2.58L19.3,139.28L19.3,139.28z M18.68,144.56c-0.04,0.43-0.08,0.86-0.12,1.3c0,0,0,0,0,0
				c0,0.02,0,0.03,0,0.05c0,0,0,0,0,0c0,0.02,0,0.03,0,0.05c0,0,0,0,0,0.01c0,0.02,0,0.03,0,0.05c0,0.01,0,0.01,0,0.02
				c0,0.01,0,0.02,0,0.02c0,0.01,0,0.02,0,0.03c0,0,0,0.01,0,0.01c-0.03,0.37-0.06,0.74-0.09,1.11l2.65,0.21
				c0.07-0.87,0.14-1.73,0.23-2.59L18.68,144.56L18.68,144.56z M18.27,149.86c0,0.01,0,0.03,0,0.04c0,0,0,0,0,0
				c0,0.01,0,0.02,0,0.04l0,0.01c0,0.04,0,0.07-0.01,0.11c0,0,0,0.01,0,0.01c0,0.01,0,0.02,0,0.03c0,0,0,0.01,0,0.01
				c0,0.01,0,0.02,0,0.03c0,0,0,0.01,0,0.01c0,0.04,0,0.07-0.01,0.11c0,0,0,0.01,0,0.01c0,0.01,0,0.02,0,0.03c0,0.01,0,0.01,0,0.01
				c0,0.01,0,0.02,0,0.03c0,0,0,0,0,0.01c0,0.02,0,0.05,0,0.07c0,0,0,0.01,0,0.01c0,0.01,0,0.02,0,0.03c0,0,0,0.01,0,0.01
				c0,0.01,0,0.02,0,0.03c0,0,0,0.01,0,0.01c0,0.04,0,0.07-0.01,0.11c0,0,0,0,0,0.01c0,0.01,0,0.02,0,0.04c0,0,0,0.01,0,0.01
				c-0.03,0.61-0.06,1.21-0.08,1.82l2.65,0.1c0.03-0.87,0.08-1.73,0.13-2.6L18.27,149.86L18.27,149.86z M18.06,155.16
				c-0.01,0.28-0.01,0.55-0.01,0.83l0,0c0,0.01,0,0.02,0,0.04c0,0,0,0,0,0.01c0,0.01,0,0.02,0,0.04c0,0,0,0,0,0.01
				c0,0.02,0,0.05,0,0.07c0,0,0,0,0,0.01c0,0.01,0,0.02,0,0.03c0,0.01,0,0.01,0,0.02c0,0.01,0,0.02,0,0.03c0,0.01,0,0.01,0,0.02
				c0,0.01,0,0.02,0,0.03c0,0,0,0.01,0,0.01c0,0.02,0,0.04,0,0.06c0,0,0,0.01,0,0.02c0,0.01,0,0.02,0,0.03c0,0.01,0,0.01,0,0.02
				c0,0.01,0,0.02,0,0.03c0,0.01,0,0.01,0,0.02c0,0.01,0,0.02,0,0.03c0,0,0,0,0,0.01c0,0.02,0,0.04,0,0.07c0,0.01,0,0.01,0,0.02
				c0,0.01,0,0.02,0,0.03c0,0.01,0,0.01,0,0.02c0,0.01,0,0.02,0,0.03c0,0.01,0,0.01,0,0.02c0,0.02,0,0.04,0,0.06l0,0.01
				c0,0.01,0,0.02,0,0.03c0,0,0,0.01,0,0.01c0,0.01,0,0.02,0,0.03c0,0.01,0,0.01,0,0.02c0,0.04,0,0.07,0,0.11c0,0,0,0.01,0,0.01
				c0,0.01,0,0.02,0,0.03c0,0,0,0.01,0,0.01c0,0.01,0,0.02,0,0.03c0,0,0,0.01,0,0.01c0,0.02,0,0.04,0,0.07c0,0,0,0.01,0,0.01
				c0,0.01,0,0.02,0,0.03c0,0.01,0,0.01,0,0.02c0,0.01,0,0.02,0,0.03c0,0.01,0,0.02,0,0.02c0,0.01,0,0.02,0,0.02
				c0,0.01,0,0.03,0,0.04c0,0.01,0,0.01,0,0.02c0,0.01,0,0.03,0,0.04c0,0,0,0.01,0,0.01c0,0.01,0,0.03,0,0.04c0,0,0,0.01,0,0.01
				c0,0.14,0,0.29,0,0.43l2.66,0c0-0.87,0.01-1.74,0.03-2.6L18.06,155.16L18.06,155.16z M18.26,165.78
				c0.02,0.33,0.04,0.66,0.06,0.99c0,0,0,0,0,0.01c0,0.01,0,0.02,0,0.03c0,0,0,0.01,0,0.01c0,0.01,0,0.02,0,0.03
				c0,0.01,0,0.01,0,0.02c0,0.01,0,0.02,0,0.03c0,0.01,0,0.03,0,0.04c0,0.01,0,0.01,0,0.02c0,0.01,0,0.02,0,0.03
				c0,0.01,0,0.01,0,0.02c0,0.01,0,0.02,0,0.03c0,0,0,0.01,0,0.01c0,0.03,0,0.07,0.01,0.1c0,0,0,0.01,0,0.01c0,0.01,0,0.03,0,0.04
				c0,0,0,0.01,0,0.01c0,0.04,0,0.07,0.01,0.1l0,0c0,0.02,0,0.03,0,0.05c0,0,0,0.01,0,0.01c0,0.01,0,0.03,0,0.05c0,0,0,0,0,0
				c0,0.05,0.01,0.11,0.01,0.16l0,0c0.02,0.28,0.04,0.56,0.06,0.84l2.65-0.2c-0.07-0.87-0.12-1.73-0.17-2.6L18.26,165.78
				L18.26,165.78z M18.66,171.08c0.03,0.3,0.06,0.6,0.09,0.9c0,0,0,0.01,0,0.01c0,0.01,0,0.02,0,0.03c0,0.01,0,0.01,0,0.02
				c0,0.01,0,0.02,0,0.02c0,0.01,0,0.03,0,0.04c0,0,0,0,0,0.01c0,0.02,0,0.03,0.01,0.05c0,0,0,0.01,0,0.01
				c0.05,0.51,0.11,1.02,0.17,1.53c0,0,0,0.01,0,0.01c0,0,0,0.01,0,0.01l2.64-0.3c-0.1-0.86-0.19-1.73-0.27-2.59L18.66,171.08
				L18.66,171.08z M19.27,176.36c0.09,0.68,0.19,1.35,0.29,2.02c0,0,0,0,0,0.01c0,0.01,0,0.03,0.01,0.04c0,0.01,0,0.01,0,0.02
				c0,0.01,0,0.02,0,0.03c0.03,0.17,0.05,0.34,0.08,0.52l2.63-0.4c-0.13-0.86-0.26-1.72-0.37-2.58L19.27,176.36L19.27,176.36z
				 M20.08,181.61c0.01,0.05,0.02,0.11,0.03,0.16c0,0,0,0,0,0c0,0.01,0,0.02,0.01,0.03c0,0.01,0,0.01,0,0.02
				c0,0.01,0,0.02,0.01,0.03c0,0.01,0,0.01,0,0.02c0,0.01,0,0.02,0,0.02c0,0.02,0.01,0.03,0.01,0.05c0,0,0,0.01,0,0.01
				c0,0.01,0,0.02,0.01,0.04c0,0.01,0,0.01,0,0.02c0,0.01,0,0.02,0.01,0.03c0,0.01,0,0.01,0,0.01c0.01,0.03,0.01,0.07,0.02,0.1
				c0,0,0,0.01,0,0.01c0,0.01,0.01,0.03,0.01,0.04c0,0,0,0,0,0.01c0.01,0.04,0.01,0.07,0.02,0.1c0,0,0,0,0,0
				c0,0.02,0.01,0.03,0.01,0.05c0,0,0,0,0,0.01c0.01,0.05,0.02,0.1,0.03,0.15c0,0,0,0.01,0,0.01c0,0.01,0.01,0.03,0.01,0.04
				c0,0,0,0,0,0.01c0.01,0.03,0.01,0.07,0.02,0.1c0,0,0,0.01,0,0.01c0,0.01,0,0.02,0.01,0.04c0,0,0,0.01,0,0.01
				c0,0.01,0.01,0.03,0.01,0.05c0,0,0,0,0,0c0,0.02,0.01,0.03,0.01,0.05c0,0,0,0.01,0,0.01c0,0.01,0,0.03,0.01,0.04
				c0,0,0,0.01,0,0.01c0,0.01,0,0.03,0.01,0.04c0,0,0,0.01,0,0.01c0,0.02,0.01,0.03,0.01,0.05c0,0,0,0.01,0,0.01
				c0,0.01,0,0.02,0.01,0.04c0,0.01,0,0.01,0,0.02c0,0.01,0,0.02,0.01,0.04c0,0.01,0,0.01,0,0.01c0,0.02,0.01,0.03,0.01,0.05
				c0,0,0,0,0,0c0,0.02,0.01,0.03,0.01,0.05c0,0,0,0.01,0,0.01c0,0.01,0,0.03,0.01,0.04c0,0,0,0.01,0,0.01
				c0,0.02,0.01,0.03,0.01,0.05c0,0,0,0,0,0c0,0.02,0.01,0.03,0.01,0.05c0,0,0,0,0,0.01c0,0.01,0.01,0.03,0.01,0.04
				c0,0,0,0.01,0,0.01c0.05,0.26,0.1,0.53,0.15,0.79l2.61-0.5c-0.16-0.85-0.32-1.71-0.47-2.56L20.08,181.61L20.08,181.61z
				 M21.08,186.83c0.03,0.13,0.06,0.27,0.09,0.4c0,0,0,0,0,0.01c0,0.01,0,0.02,0.01,0.03c0,0.01,0,0.01,0,0.02c0,0.01,0,0.02,0,0.02
				c0,0.01,0,0.02,0.01,0.03c0,0,0,0.01,0,0.01c0,0.02,0.01,0.03,0.01,0.05c0,0,0,0,0,0.01c0,0.02,0.01,0.03,0.01,0.05c0,0,0,0,0,0
				c0.06,0.28,0.12,0.56,0.19,0.84c0,0,0,0,0,0c0,0.02,0.01,0.03,0.01,0.05c0,0,0,0,0,0c0.01,0.04,0.02,0.07,0.02,0.1c0,0,0,0,0,0
				c0,0.02,0.01,0.03,0.01,0.05c0,0,0,0.01,0,0.01c0.01,0.04,0.02,0.06,0.02,0.1c0,0,0,0.01,0,0.01c0,0.01,0.01,0.03,0.01,0.04
				c0,0,0,0.01,0,0.01c0,0.02,0.01,0.03,0.01,0.05c0,0,0,0,0,0c0.01,0.03,0.02,0.07,0.02,0.1c0,0,0,0,0,0.01
				c0,0.02,0.01,0.03,0.01,0.05l0,0c0.01,0.04,0.02,0.07,0.02,0.1c0,0,0,0,0,0c0.03,0.14,0.07,0.29,0.1,0.43l2.59-0.6
				c-0.2-0.85-0.38-1.7-0.56-2.54L21.08,186.83L21.08,186.83z M22.28,192c0.07,0.28,0.14,0.56,0.21,0.84l0,0
				c0,0.02,0.01,0.04,0.01,0.05c0,0,0,0,0,0.01c0,0.02,0.01,0.03,0.01,0.05c0,0.01,0,0.01,0,0.02c0,0.01,0.01,0.03,0.01,0.04
				c0,0.01,0,0.01,0,0.01c0,0.01,0.01,0.03,0.01,0.04c0,0,0,0.01,0,0.01c0,0.01,0.01,0.03,0.01,0.04c0,0,0,0.01,0,0.01
				c0,0.01,0.01,0.03,0.01,0.04c0,0,0,0.01,0,0.01c0,0.02,0.01,0.03,0.01,0.05c0,0,0,0.01,0,0.01c0,0.02,0.01,0.03,0.01,0.05l0,0.01
				c0,0.02,0.01,0.03,0.01,0.05l0,0c0.11,0.41,0.22,0.83,0.33,1.24l2.56-0.7c-0.15-0.56-0.3-1.13-0.45-1.7
				c-0.07-0.28-0.14-0.55-0.21-0.83L22.28,192L22.28,192z M26.22,196.39l-2.55,0.74c0.25,0.85,0.5,1.7,0.77,2.54l2.54-0.79
				C26.71,198.05,26.46,197.22,26.22,196.39L26.22,196.39z M27.77,201.36l-2.52,0.84c0.12,0.37,0.25,0.73,0.37,1.1l0,0
				c0.02,0.06,0.04,0.13,0.07,0.19c0,0,0,0,0,0.01c0.02,0.05,0.03,0.1,0.05,0.15c0,0,0,0,0,0.01c0,0.01,0.01,0.02,0.01,0.03
				c0,0,0,0,0,0.01c0.01,0.03,0.02,0.07,0.04,0.1c0,0.01,0,0.01,0.01,0.02c0,0.01,0.01,0.02,0.01,0.03c0,0.01,0,0.01,0.01,0.02
				c0,0.01,0.01,0.01,0.01,0.02c0.01,0.01,0.01,0.03,0.02,0.04c0,0,0,0.01,0,0.01c0,0.01,0.01,0.02,0.01,0.04c0,0,0,0.01,0.01,0.01
				c0,0.01,0.01,0.02,0.01,0.03c0,0,0,0.01,0,0.01c0.08,0.22,0.16,0.45,0.24,0.67l2.5-0.88C28.32,203.01,28.04,202.19,27.77,201.36
				L27.77,201.36z M29.5,206.28l-2.49,0.93c0.31,0.83,0.63,1.66,0.96,2.48l2.47-0.98C30.12,207.9,29.81,207.09,29.5,206.28
				L29.5,206.28z M31.42,211.12l-2.45,1.03c0.34,0.82,0.69,1.63,1.05,2.44l2.43-1.07C32.1,212.72,31.76,211.92,31.42,211.12
				L31.42,211.12z M33.53,215.89l-2.41,1.12c0.13,0.28,0.26,0.55,0.39,0.83l0,0c0.01,0.01,0.01,0.02,0.02,0.03c0,0,0,0,0,0.01
				c0.01,0.02,0.02,0.05,0.03,0.07l0,0c0,0.01,0.01,0.02,0.01,0.02c0,0.01,0.01,0.01,0.01,0.02c0,0.01,0.01,0.02,0.01,0.02
				c0,0.01,0.01,0.01,0.01,0.02c0,0.01,0.01,0.01,0.01,0.02c0.01,0.01,0.01,0.02,0.02,0.03c0,0.01,0.01,0.01,0.01,0.02
				c0.01,0.01,0.01,0.02,0.02,0.03c0,0.01,0,0.01,0.01,0.02c0.01,0.01,0.01,0.02,0.01,0.03c0,0,0,0.01,0.01,0.01
				c0.01,0.01,0.01,0.03,0.02,0.04c0,0,0,0,0,0.01c0.01,0.02,0.01,0.03,0.02,0.04c0,0,0,0.01,0.01,0.01c0,0.01,0.01,0.02,0.02,0.03
				c0,0,0,0.01,0.01,0.01c0,0.01,0.01,0.02,0.01,0.03c0,0,0,0.01,0.01,0.01c0.01,0.03,0.03,0.06,0.04,0.09c0,0,0,0.01,0.01,0.02
				c0.01,0.01,0.01,0.02,0.01,0.03c0,0.01,0.01,0.01,0.01,0.02c0,0.01,0.01,0.02,0.01,0.03c0,0.01,0.01,0.01,0.01,0.02
				c0.01,0.01,0.01,0.03,0.02,0.04c0,0.01,0.01,0.01,0.01,0.02c0,0.01,0.01,0.02,0.01,0.02c0,0.01,0.01,0.02,0.01,0.02
				c0,0.01,0.01,0.01,0.01,0.02c0,0.01,0.01,0.02,0.01,0.02c0,0.01,0.01,0.01,0.01,0.02c0.01,0.02,0.01,0.03,0.02,0.04
				c0,0.01,0.01,0.01,0.01,0.02c0,0.01,0.01,0.02,0.01,0.03c0,0,0.01,0.01,0.01,0.02c0,0.01,0.01,0.02,0.01,0.03
				c0,0,0,0.01,0.01,0.01c0.02,0.05,0.04,0.09,0.07,0.14c0,0,0,0,0,0c0.06,0.12,0.12,0.25,0.18,0.37l2.39-1.16
				C34.26,217.46,33.89,216.68,33.53,215.89L33.53,215.89z M38.27,225.16l-2.32,1.3c0,0,0.01,0.01,0.01,0.01
				c0.11,0.2,0.23,0.4,0.34,0.6c0,0,0,0,0,0c0.01,0.01,0.01,0.02,0.02,0.03c0,0,0,0,0,0c0.01,0.02,0.03,0.05,0.04,0.07l0,0
				c0,0.01,0.01,0.02,0.01,0.02c0,0.01,0.01,0.01,0.01,0.02c0,0.01,0.01,0.01,0.01,0.02c0,0.01,0.01,0.02,0.01,0.02
				c0,0,0.01,0.01,0.01,0.02c0.02,0.03,0.03,0.06,0.05,0.09c0,0,0,0,0,0c0.01,0.02,0.02,0.03,0.02,0.04c0,0,0,0,0,0
				c0.26,0.45,0.52,0.9,0.78,1.34l2.29-1.34C39.13,226.68,38.7,225.92,38.27,225.16L38.27,225.16z M40.91,229.66l-2.26,1.39
				c0.02,0.03,0.04,0.07,0.06,0.1c0,0,0,0,0,0.01c0,0.01,0.01,0.01,0.01,0.02c0,0.01,0.01,0.02,0.01,0.02
				c0,0.01,0.01,0.01,0.01,0.02c0.01,0.01,0.01,0.02,0.02,0.03c0,0,0,0.01,0.01,0.01c0.01,0.01,0.02,0.03,0.03,0.04l0,0
				c0.01,0.02,0.02,0.03,0.03,0.04c0,0,0,0,0,0.01c0.01,0.01,0.02,0.03,0.02,0.04c0,0,0,0,0,0c0.03,0.05,0.05,0.09,0.08,0.13
				c0,0,0,0,0,0c0.03,0.04,0.05,0.09,0.08,0.13c0,0,0,0,0,0c0.01,0.01,0.02,0.02,0.02,0.04c0,0,0,0.01,0.01,0.01
				c0.01,0.01,0.02,0.02,0.02,0.04c0,0,0,0,0,0.01c0.01,0.02,0.02,0.03,0.03,0.04c0,0,0.01,0.01,0.01,0.01
				c0.01,0.01,0.01,0.02,0.02,0.03c0,0.01,0.01,0.01,0.01,0.02c0,0.01,0.01,0.01,0.01,0.02c0,0.01,0.01,0.01,0.01,0.02
				c0,0.01,0.01,0.01,0.01,0.02c0.29,0.47,0.58,0.93,0.88,1.39l2.24-1.43C41.82,231.13,41.36,230.4,40.91,229.66L40.91,229.66z
				 M43.71,234.05l-2.21,1.47c0.49,0.74,0.99,1.47,1.5,2.2l2.18-1.52C44.69,235.49,44.2,234.77,43.71,234.05L43.71,234.05z
				 M46.69,238.32l-2.15,1.56c0.03,0.04,0.06,0.08,0.08,0.12c0,0,0,0,0,0c0.01,0.01,0.02,0.02,0.03,0.04c0,0,0,0.01,0.01,0.01
				c0.01,0.01,0.01,0.02,0.02,0.03c0.01,0.01,0.02,0.03,0.03,0.04c0,0,0,0,0,0c0.01,0.01,0.01,0.02,0.02,0.03c0,0,0,0,0,0.01
				c0.33,0.45,0.67,0.91,1,1.36c0,0,0.01,0.01,0.01,0.01c0.01,0.01,0.01,0.01,0.02,0.02c0.01,0.01,0.01,0.02,0.02,0.02
				c0,0,0.01,0.01,0.01,0.01c0.11,0.15,0.22,0.29,0.33,0.44l2.12-1.6C47.72,239.72,47.2,239.03,46.69,238.32L46.69,238.32z
				 M49.83,242.48l-2.09,1.64c0.41,0.52,0.81,1.03,1.23,1.54c0,0,0,0,0,0c0.01,0.01,0.02,0.02,0.03,0.04c0,0,0,0,0,0
				c0.02,0.03,0.04,0.05,0.06,0.08c0,0,0.01,0.01,0.01,0.01c0.01,0.01,0.01,0.01,0.02,0.02c0.01,0.01,0.01,0.01,0.02,0.02
				c0,0.01,0.01,0.01,0.01,0.02c0.01,0.01,0.01,0.01,0.02,0.02c0,0,0,0,0,0.01c0.01,0.02,0.03,0.04,0.04,0.05c0,0,0,0.01,0.01,0.01
				c0.01,0.01,0.01,0.02,0.02,0.03l0,0.01c0.06,0.07,0.12,0.15,0.18,0.22l2.06-1.68C50.91,243.84,50.36,243.16,49.83,242.48
				L49.83,242.48z M53.12,246.51l-2.02,1.72c0.16,0.19,0.32,0.37,0.47,0.55c0,0,0,0,0,0c0.03,0.04,0.07,0.08,0.1,0.12c0,0,0,0,0,0
				c0.38,0.45,0.77,0.89,1.16,1.33l1.99-1.76C54.25,247.83,53.69,247.18,53.12,246.51L53.12,246.51z M56.57,250.42l-1.96,1.8
				c0.17,0.18,0.33,0.36,0.5,0.54c0,0,0,0,0.01,0.01c0.01,0.01,0.01,0.01,0.02,0.02c0.01,0.01,0.01,0.01,0.01,0.01
				c0.01,0.01,0.01,0.01,0.02,0.02c0.01,0.01,0.02,0.02,0.03,0.03c0,0,0,0,0.01,0.01c0.01,0.01,0.02,0.02,0.04,0.04c0,0,0,0,0,0
				c0.19,0.21,0.38,0.41,0.58,0.62c0,0,0,0,0,0c0.02,0.02,0.05,0.05,0.07,0.07c0,0,0.01,0.01,0.01,0.01
				c0.01,0.01,0.02,0.02,0.02,0.02c0.01,0.01,0.01,0.01,0.02,0.02c0,0.01,0.01,0.01,0.01,0.02c0.01,0.01,0.01,0.01,0.02,0.02
				c0,0,0,0,0,0c0.15,0.16,0.3,0.32,0.46,0.48l1.92-1.83C57.75,251.69,57.16,251.06,56.57,250.42L56.57,250.42z M60.17,254.18
				l-1.89,1.87c0.31,0.32,0.63,0.63,0.94,0.94c0,0,0.01,0.01,0.01,0.01c0.01,0.01,0.02,0.02,0.02,0.02
				c0.01,0.01,0.01,0.01,0.02,0.02c0,0,0.01,0.01,0.01,0.01c0.29,0.29,0.59,0.58,0.88,0.86l1.85-1.91
				C61.4,255.41,60.78,254.8,60.17,254.18L60.17,254.18z M63.91,257.81l-1.81,1.94c0.32,0.3,0.65,0.61,0.98,0.91
				c0,0,0.01,0.01,0.01,0.01c0.01,0.01,0.02,0.01,0.02,0.02c0.01,0.01,0.01,0.01,0.02,0.02c0,0,0.01,0.01,0.01,0.01
				c0.3,0.28,0.61,0.55,0.91,0.83l1.77-1.98C65.19,258.99,64.55,258.4,63.91,257.81L63.91,257.81z M67.79,261.29l-1.74,2.01
				c0,0,0.01,0.01,0.01,0.01c0,0,0.01,0.01,0.01,0.01c0.01,0.01,0.02,0.01,0.03,0.02c0,0,0.01,0.01,0.01,0.01
				c0.01,0.01,0.02,0.02,0.03,0.03c0.01,0,0.01,0.01,0.02,0.01c0,0.01,0.01,0.01,0.02,0.02c0.01,0.01,0.02,0.01,0.02,0.02
				c0,0,0.01,0.01,0.01,0.01c0.52,0.45,1.05,0.9,1.58,1.34c0,0,0,0,0.01,0.01c0.01,0.01,0.02,0.01,0.03,0.02
				c0,0,0.01,0.01,0.01,0.01c0.01,0.01,0.03,0.02,0.04,0.03c0.01,0.01,0.02,0.01,0.02,0.02c0,0,0.01,0.01,0.01,0.01
				c0.01,0.01,0.02,0.02,0.04,0.03l0,0c0.05,0.04,0.09,0.08,0.14,0.11l1.7-2.04C69.11,262.42,68.45,261.86,67.79,261.29
				L67.79,261.29z M71.8,264.62l-1.66,2.08c0.5,0.4,1,0.79,1.5,1.18c0,0,0,0,0,0c0.01,0.01,0.02,0.02,0.03,0.02c0,0,0,0,0,0
				c0.04,0.03,0.08,0.07,0.13,0.1c0,0,0,0,0.01,0c0.01,0.01,0.02,0.02,0.03,0.02c0,0,0,0,0,0c0.03,0.02,0.06,0.05,0.1,0.07l0,0
				c0.01,0.01,0.02,0.02,0.03,0.02c0,0,0,0,0,0c0.09,0.07,0.17,0.13,0.26,0.2l1.62-2.11C73.16,265.7,72.48,265.16,71.8,264.62
				L71.8,264.62z M75.93,267.8l-1.58,2.14c0.13,0.09,0.25,0.19,0.38,0.28c0,0,0,0,0,0c0.01,0.01,0.03,0.02,0.04,0.03c0,0,0,0,0.01,0
				c0.01,0.01,0.02,0.02,0.04,0.03c0,0,0.01,0.01,0.01,0.01c0.01,0.01,0.02,0.01,0.03,0.02c0.01,0.01,0.01,0.01,0.02,0.01
				c0.01,0.01,0.01,0.01,0.02,0.01c0.01,0.01,0.01,0.01,0.02,0.02c0,0,0.01,0,0.01,0.01c0.52,0.38,1.05,0.76,1.58,1.14l1.54-2.17
				C77.33,268.82,76.63,268.31,75.93,267.8L75.93,267.8z M80.18,270.81l-1.5,2.19c0.3,0.2,0.6,0.41,0.9,0.61c0,0,0.01,0,0.01,0.01
				c0.01,0.01,0.02,0.01,0.03,0.02c0,0,0.01,0.01,0.02,0.01c0.01,0.01,0.02,0.01,0.03,0.02c0,0,0.01,0.01,0.01,0.01
				c0.01,0.01,0.02,0.02,0.04,0.02c0.01,0.01,0.01,0.01,0.02,0.02c0.01,0,0.01,0.01,0.01,0.01c0.01,0,0.02,0.01,0.03,0.02
				c0,0,0.01,0.01,0.01,0.01c0.37,0.24,0.73,0.49,1.1,0.73l1.46-2.22C81.62,271.79,80.9,271.3,80.18,270.81L80.18,270.81z
				 M84.54,273.67l-1.41,2.25c0.75,0.47,1.5,0.93,2.26,1.39l1.37-2.27C86.01,274.59,85.27,274.13,84.54,273.67L84.54,273.67z
				 M89.01,276.36l-1.33,2.3c0.03,0.02,0.07,0.04,0.1,0.06c0,0,0.01,0,0.01,0.01c0.03,0.02,0.06,0.03,0.08,0.05c0,0,0,0,0.01,0
				c0.01,0.01,0.02,0.01,0.04,0.02c0.01,0,0.02,0.01,0.03,0.01c0.01,0.01,0.03,0.02,0.04,0.02c0.01,0.01,0.03,0.02,0.04,0.02
				c0.01,0.01,0.02,0.01,0.03,0.02c0.01,0.01,0.03,0.02,0.04,0.02c0.01,0,0.02,0.01,0.02,0.01c0.02,0.01,0.04,0.02,0.06,0.03
				c0.01,0,0.01,0.01,0.02,0.01c0.02,0.01,0.03,0.02,0.05,0.03c0,0,0.01,0.01,0.01,0.01c0.02,0.01,0.04,0.02,0.06,0.03
				c0.01,0,0.01,0.01,0.02,0.01c0.04,0.02,0.09,0.05,0.13,0.07c0,0,0.01,0.01,0.01,0.01c0.02,0.01,0.04,0.02,0.07,0.04
				c0,0,0,0,0.01,0c0.02,0.01,0.04,0.02,0.06,0.03c0,0,0.01,0,0.01,0.01c0.02,0.01,0.04,0.02,0.07,0.04c0,0,0,0,0,0
				c0.02,0.01,0.04,0.02,0.06,0.04c0,0,0,0,0.01,0c0.02,0.01,0.04,0.02,0.07,0.04c0,0,0.01,0,0.01,0c0.02,0.01,0.04,0.02,0.06,0.03
				c0,0,0.01,0,0.01,0.01c0.02,0.01,0.04,0.02,0.07,0.04c0,0,0.01,0,0.01,0.01c0.02,0.01,0.04,0.02,0.06,0.03c0,0,0.01,0,0.01,0.01
				c0.02,0.01,0.04,0.02,0.06,0.04c0,0,0.01,0.01,0.01,0.01c0.02,0.01,0.04,0.02,0.06,0.03c0,0,0.01,0,0.01,0.01
				c0.02,0.01,0.04,0.02,0.06,0.04c0.01,0,0.01,0.01,0.02,0.01c0.02,0.01,0.03,0.02,0.05,0.03c0.01,0,0.01,0,0.01,0.01
				c0.02,0.01,0.04,0.02,0.06,0.03c0.01,0,0.02,0.01,0.02,0.01c0.01,0.01,0.03,0.02,0.05,0.03c0.01,0,0.01,0.01,0.02,0.01
				c0.02,0.01,0.04,0.02,0.05,0.03c0.01,0,0.02,0.01,0.03,0.01c0.01,0.01,0.03,0.02,0.04,0.02c0.01,0.01,0.03,0.01,0.04,0.02
				c0.01,0.01,0.02,0.01,0.03,0.02c0.01,0.01,0.02,0.01,0.03,0.02c0.01,0,0.02,0.01,0.03,0.02c0.02,0.01,0.04,0.02,0.06,0.03
				c0.01,0,0.01,0.01,0.02,0.01c0.01,0.01,0.03,0.01,0.04,0.02c0,0,0.01,0,0.01,0.01c0.03,0.02,0.05,0.03,0.08,0.05c0,0,0,0,0.01,0
				c0.01,0,0.02,0.01,0.03,0.02l1.29-2.32C90.52,277.23,89.76,276.8,89.01,276.36L89.01,276.36z M93.57,278.89l-1.24,2.35
				c0.27,0.14,0.54,0.28,0.8,0.42c0,0,0.01,0,0.01,0.01c0.01,0,0.02,0.01,0.03,0.01c0,0,0.01,0.01,0.01,0.01
				c0.01,0.01,0.02,0.01,0.03,0.01c0.01,0.01,0.03,0.01,0.04,0.02c0.01,0,0.01,0.01,0.02,0.01c0.01,0.01,0.02,0.01,0.03,0.01
				c0.01,0,0.01,0.01,0.02,0.01c0.01,0.01,0.02,0.01,0.03,0.02c0,0,0.01,0,0.01,0.01c0.03,0.02,0.06,0.03,0.09,0.05c0,0,0,0,0,0
				c0.41,0.21,0.83,0.43,1.24,0.63l1.2-2.37C95.11,279.69,94.34,279.29,93.57,278.89L93.57,278.89z M98.22,281.24l-1.15,2.39
				c0.01,0.01,0.03,0.01,0.04,0.02c0,0,0,0,0.01,0c0.01,0.01,0.02,0.01,0.04,0.02c0,0,0.01,0,0.01,0.01
				c0.01,0.01,0.02,0.01,0.04,0.02c0,0,0.01,0,0.01,0c0.03,0.02,0.06,0.03,0.09,0.04c0,0,0,0,0.01,0c0.01,0.01,0.03,0.01,0.04,0.02
				c0,0,0,0,0,0c0.05,0.02,0.09,0.04,0.14,0.07c0,0,0,0,0,0c0.05,0.02,0.09,0.05,0.14,0.07c0,0,0,0,0,0
				c0.05,0.02,0.1,0.05,0.14,0.07c0,0,0,0,0,0c0.02,0.01,0.03,0.01,0.05,0.02c0,0,0,0,0,0c0.03,0.02,0.06,0.03,0.1,0.05c0,0,0,0,0,0
				c0.01,0.01,0.03,0.01,0.04,0.02c0,0,0.01,0,0.01,0c0.01,0.01,0.03,0.01,0.04,0.02c0,0,0,0,0,0c0.03,0.01,0.06,0.03,0.09,0.04
				c0,0,0.01,0,0.01,0.01c0.01,0,0.02,0.01,0.04,0.02c0,0,0.01,0,0.01,0.01c0.01,0.01,0.03,0.01,0.04,0.02c0,0,0,0,0,0
				c0.01,0.01,0.03,0.01,0.04,0.02c0,0,0.01,0,0.01,0.01c0.01,0,0.02,0.01,0.03,0.01c0.01,0,0.01,0.01,0.02,0.01
				c0.01,0,0.02,0.01,0.02,0.01c0.01,0,0.01,0.01,0.02,0.01c0.01,0.01,0.03,0.01,0.04,0.02c0.01,0,0.02,0.01,0.03,0.01
				c0.01,0,0.01,0,0.02,0.01c0.01,0,0.02,0.01,0.03,0.01c0.01,0,0.01,0.01,0.01,0.01c0.05,0.02,0.09,0.04,0.14,0.07l0,0
				c0.28,0.13,0.55,0.26,0.83,0.38l1.11-2.41C99.79,281.98,99,281.61,98.22,281.24L98.22,281.24z M102.96,283.41l-1.06,2.44
				c0.81,0.35,1.63,0.7,2.44,1.04l1.01-2.45C104.55,284.1,103.75,283.76,102.96,283.41L102.96,283.41z M107.77,285.4l-0.97,2.47
				c0.83,0.32,1.65,0.64,2.48,0.94l0.92-2.49C109.39,286.03,108.58,285.72,107.77,285.4L107.77,285.4z M112.66,287.21l-0.87,2.51
				c0.32,0.11,0.64,0.22,0.96,0.33c0,0,0,0,0.01,0c0.02,0.01,0.03,0.01,0.05,0.02c0,0,0,0,0,0c0.03,0.01,0.07,0.02,0.1,0.03
				c0,0,0,0,0.01,0c0.02,0,0.03,0.01,0.04,0.01c0,0,0,0,0,0c0.05,0.02,0.1,0.03,0.15,0.05c0,0,0,0,0,0c0.4,0.13,0.8,0.27,1.2,0.4
				l0.83-2.52C114.3,287.77,113.48,287.49,112.66,287.21L112.66,287.21z M117.61,288.83l-0.78,2.54c0.13,0.04,0.26,0.08,0.39,0.12
				c0,0,0.01,0,0.01,0c0.01,0,0.02,0,0.02,0.01c0.01,0,0.02,0.01,0.03,0.01c0,0,0.01,0,0.01,0c0.69,0.21,1.38,0.41,2.08,0.61
				l0.73-2.55C119.28,289.32,118.44,289.08,117.61,288.83L117.61,288.83z M122.62,290.25l-0.68,2.57c0.86,0.23,1.71,0.44,2.57,0.65
				l0.63-2.58C124.3,290.69,123.46,290.47,122.62,290.25L122.62,290.25z M127.68,291.48l-0.58,2.59c0.28,0.06,0.57,0.13,0.85,0.19
				l0,0c0.01,0,0.02,0,0.03,0.01c0,0,0.01,0,0.01,0c0.01,0,0.02,0,0.03,0.01c0,0,0.01,0,0.01,0c0.02,0,0.03,0.01,0.05,0.01
				c0.01,0,0.01,0,0.02,0.01c0.01,0,0.02,0,0.02,0c0.01,0,0.02,0,0.02,0.01c0.01,0,0.02,0,0.02,0c0.01,0,0.02,0,0.03,0.01
				c0,0,0.01,0,0.01,0c0.02,0,0.03,0.01,0.05,0.01c0,0,0,0,0,0c0.02,0,0.03,0.01,0.05,0.01c0,0,0.01,0,0.01,0
				c0.01,0,0.03,0.01,0.04,0.01c0,0,0,0,0.01,0c0.44,0.09,0.88,0.18,1.31,0.27l0.53-2.6C129.38,291.85,128.53,291.67,127.68,291.48
				L127.68,291.48z M132.79,292.52l-0.48,2.61c0.69,0.13,1.39,0.25,2.09,0.36l0,0c0.01,0,0.02,0,0.04,0.01c0,0,0.01,0,0.01,0
				c0.01,0,0.02,0,0.03,0.01l0,0c0.02,0,0.04,0.01,0.06,0.01c0.01,0,0.01,0,0.02,0c0.01,0,0.02,0,0.02,0c0.01,0,0.02,0,0.03,0
				c0.01,0,0.01,0,0.02,0c0.01,0,0.02,0,0.03,0.01c0,0,0.01,0,0.01,0c0.02,0,0.03,0.01,0.05,0.01c0,0,0,0,0,0
				c0.02,0,0.03,0.01,0.05,0.01c0,0,0,0,0.01,0c0.02,0,0.03,0,0.05,0.01c0,0,0,0,0,0c0.03,0,0.06,0.01,0.09,0.01l0.43-2.62
				C134.5,292.82,133.64,292.68,132.79,292.52L132.79,292.52z M137.93,293.36l-0.38,2.63c0.29,0.04,0.57,0.08,0.86,0.12
				c0,0,0,0,0.01,0c0.01,0,0.02,0,0.03,0c0,0,0.01,0,0.01,0c0.01,0,0.02,0,0.03,0c0.02,0,0.03,0,0.04,0.01c0,0,0.01,0,0.01,0
				c0.01,0,0.02,0,0.04,0.01c0.01,0,0.01,0,0.01,0c0.01,0,0.03,0,0.04,0.01c0,0,0.01,0,0.01,0c0.51,0.07,1.02,0.14,1.54,0.2
				l0.32-2.64C139.65,293.6,138.79,293.48,137.93,293.36L137.93,293.36z M143.1,294l-0.27,2.64c0.88,0.09,1.76,0.17,2.64,0.25
				l0.22-2.65C144.83,294.17,143.96,294.08,143.1,294L143.1,294z M148.29,294.43l-0.17,2.65c0.62,0.04,1.23,0.08,1.85,0.11
				c0,0,0,0,0,0c0.03,0,0.07,0,0.1,0.01c0,0,0.01,0,0.01,0c0.01,0,0.02,0,0.03,0c0.01,0,0.01,0,0.02,0c0.01,0,0.01,0,0.02,0
				c0.2,0.01,0.41,0.02,0.61,0.03l0.12-2.65C150.02,294.54,149.16,294.49,148.29,294.43L148.29,294.43z M153.5,294.67l-0.07,2.66
				c0.55,0.01,1.11,0.03,1.66,0.03l0,0c0.07,0,0.14,0,0.21,0l0,0c0.26,0,0.53,0.01,0.79,0.01l0.02-2.66
				C155.23,294.71,154.36,294.69,153.5,294.67L153.5,294.67z M158.71,294.71l0.03,2.66c0.5-0.01,0.99-0.01,1.49-0.03c0,0,0,0,0,0
				c0.05,0,0.1,0,0.16,0c0,0,0.01,0,0.01,0c0.01,0,0.02,0,0.03,0c0,0,0.01,0,0.01,0c0.01,0,0.02,0,0.03,0c0,0,0.01,0,0.02,0
				c0.02,0,0.03,0,0.05,0c0.01,0,0.02,0,0.02,0c0.01,0,0.02,0,0.02,0c0.01,0,0.02,0,0.03,0c0.01,0,0.01,0,0.02,0
				c0.01,0,0.03,0,0.04,0c0,0,0,0,0,0c0.24-0.01,0.48-0.01,0.71-0.02l-0.08-2.66C160.44,294.68,159.57,294.7,158.71,294.71
				L158.71,294.71z M163.91,294.54l0.13,2.65c0.16-0.01,0.33-0.02,0.49-0.03c0,0,0.01,0,0.01,0c0.01,0,0.02,0,0.03,0
				c0,0,0.01,0,0.01,0c0.01,0,0.02,0,0.03,0c0,0,0.01,0,0.01,0c0.02,0,0.03,0,0.05,0c0.01,0,0.02,0,0.02,0c0.01,0,0.02,0,0.03,0
				c0.01,0,0.01,0,0.02,0c0.01,0,0.02,0,0.03,0c0.01,0,0.01,0,0.02,0c0.01,0,0.02,0,0.03,0c0,0,0.01,0,0.01,0c0.02,0,0.04,0,0.06,0
				c0.01,0,0.01,0,0.02,0c0.01,0,0.02,0,0.03,0c0.01,0,0.01,0,0.02,0c0.01,0,0.02,0,0.02,0c0.01,0,0.01,0,0.02,0
				c0.01,0,0.03,0,0.04,0c0.01,0,0.01,0,0.02,0c0.01,0,0.02,0,0.03,0c0.01,0,0.01,0,0.02,0c0.01,0,0.02,0,0.03,0
				c0.01,0,0.01,0,0.02,0c0.01,0,0.02,0,0.03,0c0,0,0,0,0.01,0c0.02,0,0.05,0,0.07,0c0,0,0.01,0,0.01,0c0.01,0,0.02,0,0.03,0
				c0,0,0.01,0,0.01,0c0.01,0,0.02,0,0.03,0c0,0,0.01,0,0.01,0c0.04,0,0.08,0,0.12-0.01l0,0c0.01,0,0.03,0,0.04,0c0,0,0,0,0.01,0
				c0.18-0.01,0.36-0.02,0.54-0.03l0,0c0.05,0,0.1-0.01,0.16-0.01c0,0,0.01,0,0.01,0c0.01,0,0.02,0,0.03,0c0.01,0,0.01,0,0.02,0
				c0.01,0,0.02,0,0.03,0c0.02,0,0.03,0,0.04,0c0,0,0,0,0,0c0.02,0,0.03,0,0.05,0c0,0,0.01,0,0.01,0c0.01,0,0.03,0,0.04,0
				c0,0,0.01,0,0.01,0c0.08-0.01,0.15-0.01,0.22-0.02l-0.19-2.65C165.65,294.45,164.78,294.5,163.91,294.54L163.91,294.54z
				 M169.11,294.18l0.24,2.65c0.1-0.01,0.21-0.02,0.32-0.03c0,0,0,0,0.01,0c0.01,0,0.03,0,0.04,0c0.02,0,0.03,0,0.05-0.01l0,0
				c0.51-0.05,1.02-0.1,1.52-0.15c0,0,0.01,0,0.01,0c0.01,0,0.02,0,0.03,0c0.01,0,0.02,0,0.03,0c0,0,0.01,0,0.01,0
				c0.02,0,0.03,0,0.05-0.01c0,0,0,0,0,0c0.19-0.02,0.38-0.04,0.57-0.06l-0.29-2.64C170.84,294.02,169.98,294.1,169.11,294.18
				L169.11,294.18z M174.29,293.62l0.34,2.63c0.67-0.08,1.34-0.18,2-0.27c0,0,0,0,0,0c0.02,0,0.03-0.01,0.05-0.01c0,0,0,0,0,0
				c0.01,0,0.03,0,0.04-0.01c0.01,0,0.02,0,0.03-0.01c0,0,0,0,0.01,0c0.16-0.02,0.33-0.05,0.49-0.07l-0.39-2.63
				C176.01,293.39,175.15,293.51,174.29,293.62L174.29,293.62z M179.45,292.86l0.44,2.62c0.22-0.04,0.43-0.07,0.65-0.11
				c0,0,0.01,0,0.01,0c0.01,0,0.02,0,0.03-0.01c0,0,0,0,0.01,0c0.04-0.01,0.07-0.01,0.11-0.02c0,0,0.01,0,0.02,0
				c0.01,0,0.02,0,0.03,0c0.01,0,0.01,0,0.02,0c0.01,0,0.02,0,0.03-0.01c0,0,0,0,0.01,0c0.02,0,0.04-0.01,0.06-0.01
				c0.01,0,0.01,0,0.02,0c0.01,0,0.02,0,0.03,0c0.01,0,0.01,0,0.02,0c0.01,0,0.02,0,0.03,0c0,0,0.01,0,0.01,0
				c0.02,0,0.04-0.01,0.06-0.01c0.01,0,0.01,0,0.02,0c0.01,0,0.02,0,0.03,0c0.01,0,0.01,0,0.02,0c0.01,0,0.02,0,0.03-0.01
				c0.01,0,0.01,0,0.02,0c0.01,0,0.02,0,0.03-0.01c0.01,0,0.03,0,0.04-0.01c0.01,0,0.02,0,0.03,0c0.01,0,0.01,0,0.02,0
				c0.01,0,0.02,0,0.03,0c0.01,0,0.01,0,0.02,0c0.01,0,0.02,0,0.03,0c0.01,0,0.02,0,0.03,0c0.01,0,0.03,0,0.04-0.01
				c0.01,0,0.02,0,0.02,0c0.01,0,0.02,0,0.03-0.01c0.01,0,0.01,0,0.02,0c0.01,0,0.02,0,0.02,0c0.01,0,0.02,0,0.03-0.01
				c0,0,0.01,0,0.01,0c0.02,0,0.03-0.01,0.05-0.01c0.01,0,0.01,0,0.02,0c0.01,0,0.02,0,0.03-0.01c0.01,0,0.01,0,0.02,0
				c0.01,0,0.02,0,0.04-0.01c0,0,0.01,0,0.01,0c0.02,0,0.03-0.01,0.05-0.01c0,0,0,0,0.01,0c0.01,0,0.03-0.01,0.04-0.01
				c0,0,0.01,0,0.01,0c0.02,0,0.03-0.01,0.05-0.01c0,0,0,0,0,0c0.22-0.04,0.44-0.08,0.66-0.12l-0.49-2.61
				C181.16,292.57,180.3,292.72,179.45,292.86L179.45,292.86z M184.57,291.91l0.53,2.6c0.87-0.18,1.73-0.36,2.6-0.56l-0.58-2.59
				C186.27,291.55,185.42,291.73,184.57,291.91L184.57,291.91z M189.66,290.76l0.63,2.58c0.53-0.13,1.07-0.26,1.6-0.4
				c0.04-0.01,0.07-0.02,0.11-0.03c0.02,0,0.04-0.01,0.05-0.01c0.27-0.07,0.55-0.14,0.82-0.21l-0.68-2.57
				c-0.28,0.08-0.57,0.15-0.86,0.22C190.77,290.49,190.22,290.63,189.66,290.76L189.66,290.76z M197.2,288.7
				c-0.83,0.25-1.66,0.5-2.5,0.74l0.73,2.56c0.44-0.13,0.89-0.25,1.33-0.38c0,0,0.01,0,0.01,0c0.01,0,0.02-0.01,0.03-0.01
				c0.01,0,0.02-0.01,0.02-0.01c0,0,0.01,0,0.01,0c0.38-0.11,0.76-0.23,1.14-0.34L197.2,288.7L197.2,288.7z M202.16,287.08
				c-0.82,0.28-1.64,0.56-2.47,0.83l0.82,2.53c0.13-0.04,0.26-0.09,0.4-0.13l0,0c0.02,0,0.03-0.01,0.05-0.02
				c0.01,0,0.02-0.01,0.03-0.01c0,0,0.01,0,0.01,0c0.01,0,0.03-0.01,0.04-0.01c0,0,0,0,0,0c0.66-0.22,1.32-0.44,1.98-0.67
				L202.16,287.08L202.16,287.08z M207.05,285.29c-0.81,0.31-1.62,0.62-2.44,0.92l0.92,2.49c0.83-0.31,1.66-0.62,2.49-0.94
				L207.05,285.29L207.05,285.29z M211.87,283.31c-0.8,0.35-1.6,0.68-2.4,1.01l1.01,2.46c0.02-0.01,0.05-0.02,0.07-0.03
				c0,0,0,0,0.01,0c0.01,0,0.02-0.01,0.02-0.01c0.01,0,0.02-0.01,0.03-0.01c0,0,0.01,0,0.01-0.01c0.44-0.18,0.88-0.37,1.32-0.55
				c0,0,0,0,0,0c0.01-0.01,0.03-0.01,0.04-0.02c0,0,0.01,0,0.01,0c0.01-0.01,0.03-0.01,0.04-0.02c0,0,0,0,0.01,0
				c0.01-0.01,0.03-0.01,0.04-0.02c0.01,0,0.01-0.01,0.02-0.01c0.01,0,0.02-0.01,0.02-0.01c0.01,0,0.02-0.01,0.02-0.01
				c0,0,0.01,0,0.01-0.01c0.25-0.11,0.5-0.22,0.75-0.32L211.87,283.31L211.87,283.31z M216.61,281.14c-0.78,0.38-1.57,0.74-2.36,1.1
				l1.1,2.42c0,0,0.01,0,0.01,0c0.01,0,0.01-0.01,0.02-0.01c0.01,0,0.01-0.01,0.02-0.01c0.01,0,0.02-0.01,0.03-0.01
				c0,0,0.01,0,0.01,0c0.03-0.02,0.07-0.03,0.1-0.05c0,0,0,0,0,0c0.39-0.18,0.78-0.36,1.16-0.54c0,0,0,0,0,0
				c0.01-0.01,0.02-0.01,0.03-0.01c0,0,0.01,0,0.01-0.01c0.01,0,0.02-0.01,0.03-0.01c0,0,0.01,0,0.01,0
				c0.02-0.01,0.03-0.02,0.05-0.02c0.01,0,0.01-0.01,0.02-0.01c0.01,0,0.02-0.01,0.02-0.01c0.01,0,0.01-0.01,0.02-0.01
				c0.01,0,0.01-0.01,0.02-0.01c0.01,0,0.02-0.01,0.02-0.01c0.01,0,0.01-0.01,0.02-0.01c0.01-0.01,0.03-0.01,0.04-0.02
				c0,0,0.01,0,0.01,0c0.01-0.01,0.02-0.01,0.04-0.02c0,0,0.01,0,0.01-0.01c0.01-0.01,0.03-0.01,0.04-0.02c0,0,0,0,0.01,0
				c0.22-0.1,0.43-0.2,0.65-0.31L216.61,281.14L216.61,281.14z M221.26,278.8c-0.77,0.4-1.54,0.8-2.32,1.19l1.19,2.37
				c0.27-0.14,0.54-0.27,0.81-0.41c0,0,0,0,0,0c0.01-0.01,0.02-0.01,0.03-0.02l0.01,0c0.03-0.02,0.06-0.03,0.09-0.05
				c0.01,0,0.01-0.01,0.02-0.01c0.01,0,0.01-0.01,0.02-0.01c0.01,0,0.02-0.01,0.03-0.01c0.01,0,0.01-0.01,0.01-0.01
				c0.03-0.02,0.06-0.03,0.09-0.05c0,0,0,0,0,0c0.42-0.21,0.83-0.43,1.24-0.65L221.26,278.8L221.26,278.8z M225.82,276.28
				c-0.75,0.43-1.51,0.86-2.27,1.28l1.29,2.32c0.38-0.21,0.76-0.42,1.14-0.64l0,0c0.01-0.01,0.03-0.02,0.04-0.03c0,0,0,0,0,0
				c0.03-0.02,0.06-0.03,0.09-0.05c0.01,0,0.01-0.01,0.02-0.01c0.01,0,0.02-0.01,0.02-0.01c0.01,0,0.01-0.01,0.02-0.01
				c0.01,0,0.01-0.01,0.02-0.01c0.03-0.02,0.06-0.03,0.09-0.05c0,0,0,0,0,0c0.29-0.16,0.58-0.33,0.86-0.49L225.82,276.28
				L225.82,276.28z M230.28,273.59c-0.73,0.46-1.47,0.92-2.22,1.37l1.37,2.27c0.26-0.16,0.53-0.32,0.79-0.48c0,0,0,0,0.01,0
				c0.01-0.01,0.02-0.02,0.04-0.02c0,0,0.01,0,0.01-0.01c0.01-0.01,0.02-0.01,0.03-0.02c0,0,0.01,0,0.01-0.01
				c0.01-0.01,0.03-0.02,0.04-0.03c0,0,0.01,0,0.01-0.01c0.01-0.01,0.02-0.01,0.03-0.02c0.01,0,0.01-0.01,0.02-0.01
				c0.01,0,0.01-0.01,0.02-0.01c0.01,0,0.01-0.01,0.02-0.01c0.01,0,0.01-0.01,0.02-0.01c0.03-0.02,0.06-0.03,0.08-0.05
				c0.01,0,0.01-0.01,0.01-0.01c0.01-0.01,0.02-0.01,0.03-0.02c0,0,0.01-0.01,0.01-0.01c0.01-0.01,0.02-0.01,0.03-0.02l0,0
				c0.03-0.02,0.07-0.04,0.1-0.06c0,0,0,0,0,0c0.01-0.01,0.02-0.01,0.03-0.02l0,0c0.31-0.19,0.61-0.38,0.91-0.57L230.28,273.59
				L230.28,273.59z M234.63,270.72c-0.72,0.49-1.44,0.98-2.16,1.45l1.46,2.22c0.23-0.15,0.46-0.3,0.69-0.46l0,0
				c0.01-0.01,0.02-0.01,0.03-0.02c0,0,0,0,0,0c0.05-0.03,0.09-0.06,0.13-0.09c0,0,0,0,0,0c0.01-0.01,0.02-0.01,0.03-0.02
				c0,0,0,0,0,0c0.03-0.02,0.07-0.04,0.1-0.07c0,0,0,0,0,0c0.01-0.01,0.02-0.01,0.03-0.02c0,0,0,0,0.01,0
				c0.01-0.01,0.02-0.01,0.03-0.02l0,0c0.03-0.02,0.07-0.05,0.1-0.07l0,0c0.01-0.01,0.02-0.01,0.03-0.02l0,0
				c0.04-0.03,0.09-0.06,0.13-0.09c0,0,0,0,0,0c0.01-0.01,0.02-0.01,0.03-0.02c0,0,0,0,0,0c0.03-0.02,0.06-0.04,0.1-0.07
				c0,0,0,0,0.01,0c0.01-0.01,0.02-0.01,0.03-0.02c0,0,0.01,0,0.01-0.01c0.01-0.01,0.02-0.01,0.03-0.02c0,0,0,0,0,0
				c0.02-0.01,0.03-0.02,0.05-0.03c0.01,0,0.01-0.01,0.02-0.01c0.01,0,0.01-0.01,0.02-0.01c0.01-0.01,0.01-0.01,0.02-0.02
				c0,0,0.01-0.01,0.01-0.01c0.01-0.01,0.02-0.01,0.03-0.02c0,0,0,0,0.01-0.01c0.16-0.11,0.32-0.22,0.49-0.33L234.63,270.72
				L234.63,270.72z M238.87,267.69c-0.7,0.52-1.4,1.03-2.1,1.53l1.54,2.16c0.35-0.25,0.7-0.51,1.05-0.76c0,0,0,0,0,0
				c0.01-0.01,0.03-0.02,0.04-0.03l0,0c0.04-0.03,0.08-0.06,0.13-0.09c0,0,0,0,0.01-0.01c0.01-0.01,0.02-0.02,0.03-0.03
				c0,0,0,0,0.01-0.01c0.03-0.02,0.05-0.04,0.08-0.06c0,0,0,0,0,0c0.01-0.01,0.02-0.02,0.04-0.03c0,0,0,0,0.01-0.01
				c0.01-0.01,0.03-0.02,0.04-0.03l0,0c0.24-0.17,0.47-0.35,0.71-0.52L238.87,267.69L238.87,267.69z M242.99,264.5
				c-0.68,0.55-1.36,1.08-2.04,1.62l1.63,2.1c0.22-0.17,0.45-0.35,0.67-0.52c0,0,0,0,0,0c0.01-0.01,0.02-0.02,0.04-0.03c0,0,0,0,0,0
				c0.01-0.01,0.03-0.02,0.04-0.03c0,0,0,0,0.01-0.01c0.01-0.01,0.02-0.02,0.03-0.02c0,0,0.01-0.01,0.01-0.01
				c0.01-0.01,0.02-0.01,0.03-0.02c0,0,0.01-0.01,0.01-0.01c0.01-0.01,0.02-0.01,0.03-0.02c0,0,0.01-0.01,0.01-0.01
				c0.01-0.01,0.02-0.02,0.04-0.03c0.01,0,0.01-0.01,0.02-0.01c0.01,0,0.01-0.01,0.02-0.01c0.01-0.01,0.01-0.01,0.02-0.02
				c0.01,0,0.01-0.01,0.02-0.01c0.01-0.01,0.01-0.01,0.02-0.02c0,0,0.01-0.01,0.02-0.01c0.01-0.01,0.03-0.02,0.04-0.03
				c0,0,0.01-0.01,0.01-0.01c0.01-0.01,0.02-0.01,0.02-0.02c0.01,0,0.01-0.01,0.02-0.01c0.01-0.01,0.01-0.01,0.02-0.02
				c0.01,0,0.01-0.01,0.02-0.01c0.01-0.01,0.01-0.01,0.02-0.01c0.01-0.01,0.02-0.02,0.03-0.03c0.01,0,0.01-0.01,0.02-0.01
				c0.01-0.01,0.01-0.01,0.02-0.02c0.01,0,0.01-0.01,0.02-0.01c0.01-0.01,0.02-0.01,0.02-0.02c0,0,0.01-0.01,0.01-0.01
				c0.01-0.01,0.02-0.02,0.03-0.03c0,0,0,0,0,0c0.01-0.01,0.03-0.02,0.04-0.03c0,0,0,0,0.01,0c0.01-0.01,0.02-0.02,0.03-0.03
				c0,0,0,0,0.01,0c0.22-0.18,0.44-0.35,0.66-0.53L242.99,264.5L242.99,264.5z M246.98,261.16c-0.65,0.57-1.31,1.13-1.98,1.69
				l1.71,2.04c0.34-0.28,0.68-0.57,1.01-0.86c0,0,0,0,0,0c0.03-0.03,0.06-0.05,0.09-0.07c0,0,0,0,0.01-0.01
				c0.01-0.01,0.01-0.01,0.02-0.02c0.01,0,0.01-0.01,0.02-0.02c0.01-0.01,0.01-0.01,0.02-0.02c0.01-0.01,0.01-0.01,0.02-0.02
				c0.01,0,0.01-0.01,0.01-0.01c0.01-0.01,0.02-0.02,0.04-0.03c0,0,0,0,0,0c0.01-0.01,0.02-0.02,0.04-0.03c0,0,0,0,0,0
				c0.01-0.01,0.02-0.02,0.04-0.03c0,0,0,0,0,0c0.23-0.2,0.47-0.4,0.7-0.61L246.98,261.16L246.98,261.16z M250.84,257.66
				c-0.63,0.6-1.27,1.19-1.91,1.77l1.78,1.97c0.38-0.35,0.76-0.7,1.14-1.05c0,0,0,0,0.01-0.01c0.01-0.01,0.02-0.02,0.03-0.03
				c0,0,0,0,0.01,0c0.02-0.02,0.05-0.05,0.07-0.07c0,0,0.01-0.01,0.01-0.01c0.01-0.01,0.02-0.02,0.02-0.02
				c0.01-0.01,0.01-0.01,0.02-0.02c0.01-0.01,0.01-0.01,0.02-0.02c0.01,0,0.01-0.01,0.02-0.02c0.01-0.01,0.01-0.01,0.02-0.02
				c0.01-0.01,0.03-0.02,0.04-0.03c0,0,0.01-0.01,0.01-0.01c0.01-0.01,0.02-0.01,0.02-0.02c0,0,0.01-0.01,0.01-0.01
				c0.01-0.01,0.02-0.01,0.02-0.02c0,0,0,0,0.01-0.01c0.16-0.15,0.32-0.3,0.48-0.45L250.84,257.66L250.84,257.66z M254.56,254.01
				c-0.61,0.62-1.22,1.23-1.84,1.84l1.86,1.9c0.15-0.15,0.3-0.3,0.45-0.45c0,0,0,0,0,0c0.01-0.01,0.02-0.02,0.03-0.03
				c0,0,0.01-0.01,0.01-0.01c0.01-0.01,0.02-0.02,0.03-0.03c0,0,0,0,0.01-0.01c0.01-0.01,0.02-0.02,0.03-0.03
				c0,0,0.01-0.01,0.01-0.01c0.01-0.01,0.01-0.01,0.02-0.02c0.01-0.01,0.01-0.01,0.02-0.02c0.01,0,0.01-0.01,0.02-0.02
				c0.01-0.01,0.01-0.01,0.02-0.02c0.01-0.01,0.01-0.01,0.02-0.02c0.01-0.01,0.02-0.02,0.03-0.03c0.01-0.01,0.01-0.01,0.02-0.02
				c0.01-0.01,0.01-0.01,0.02-0.02c0.01-0.01,0.01-0.01,0.02-0.02c0-0.01,0.01-0.01,0.02-0.02c0.01-0.01,0.01-0.01,0.02-0.02
				c0.01,0,0.01-0.01,0.02-0.02c0.01-0.01,0.02-0.02,0.03-0.03c0,0,0.01-0.01,0.01-0.01c0.01-0.01,0.02-0.02,0.02-0.02
				c0,0,0.01-0.01,0.01-0.01c0.01-0.01,0.02-0.02,0.03-0.03c0,0,0,0,0.01-0.01c0.02-0.02,0.05-0.05,0.07-0.07c0,0,0,0,0,0
				c0.01-0.01,0.02-0.02,0.03-0.03c0,0,0,0,0.01-0.01c0.29-0.29,0.57-0.58,0.86-0.87L254.56,254.01L254.56,254.01z M258.14,250.22
				c-0.58,0.64-1.18,1.28-1.77,1.91l1.93,1.82c0.11-0.11,0.22-0.23,0.32-0.34c0,0,0,0,0.01-0.01c0.01-0.01,0.02-0.02,0.03-0.03
				c0,0,0,0,0,0c0.01-0.01,0.02-0.02,0.03-0.04c0,0,0,0,0,0c0.01-0.01,0.02-0.02,0.03-0.03c0,0,0.01-0.01,0.01-0.01
				c0.01-0.01,0.01-0.02,0.02-0.03c0,0,0.01-0.01,0.01-0.01c0.01-0.01,0.02-0.02,0.02-0.03c0,0,0.01-0.01,0.01-0.01
				c0.01-0.01,0.02-0.02,0.03-0.03c0,0,0.01-0.01,0.01-0.01c0.01-0.01,0.01-0.02,0.02-0.02c0,0,0.01-0.01,0.01-0.02
				c0,0,0.01-0.01,0.02-0.02c0.01-0.01,0.01-0.01,0.02-0.02c0.01-0.01,0.01-0.01,0.02-0.02c0.01-0.01,0.02-0.02,0.03-0.03
				c0.01-0.01,0.01-0.01,0.02-0.02c0.01-0.01,0.01-0.01,0.02-0.02c0,0,0.01-0.01,0.01-0.01c0.01-0.01,0.01-0.01,0.02-0.02
				c0.01,0,0.01-0.01,0.01-0.01c0.01-0.01,0.02-0.03,0.04-0.04c0,0,0.01-0.01,0.01-0.01c0.01-0.01,0.01-0.01,0.02-0.02
				c0,0,0.01-0.01,0.01-0.01c0.01-0.01,0.01-0.01,0.02-0.02c0,0,0.01-0.01,0.01-0.01c0.01-0.01,0.01-0.02,0.02-0.02
				c0,0,0.01-0.01,0.01-0.01c0.01-0.01,0.03-0.03,0.04-0.04c0,0,0.01-0.01,0.01-0.01c0.01-0.01,0.01-0.01,0.02-0.02
				c0-0.01,0.01-0.01,0.01-0.01c0.01-0.01,0.01-0.01,0.02-0.02c0,0,0.01-0.01,0.01-0.01c0.01-0.01,0.01-0.01,0.02-0.02
				c0,0,0.01-0.01,0.01-0.02c0.01-0.01,0.02-0.02,0.03-0.04c0.01,0,0.01-0.01,0.01-0.02c0.01-0.01,0.01-0.01,0.02-0.02
				c0,0,0.01-0.01,0.01-0.02c0.01-0.01,0.01-0.01,0.02-0.02c0.01-0.01,0.01-0.01,0.01-0.02c0.01-0.01,0.03-0.03,0.04-0.04
				c0,0,0,0,0.01-0.01c0.01-0.01,0.01-0.02,0.02-0.02c0.01-0.01,0.01-0.01,0.01-0.01c0.01-0.01,0.01-0.01,0.02-0.02
				c0,0,0.01-0.01,0.01-0.01c0.02-0.03,0.05-0.05,0.07-0.08c0,0,0,0,0.01-0.01c0.01-0.01,0.01-0.02,0.02-0.02
				c0,0,0.01-0.01,0.01-0.01c0.01-0.01,0.01-0.02,0.02-0.02c0,0,0,0,0,0c0.03-0.03,0.05-0.06,0.08-0.09l0,0
				c0.11-0.12,0.22-0.25,0.34-0.37L258.14,250.22L258.14,250.22z M261.57,246.3c-0.56,0.67-1.13,1.32-1.7,1.98l2,1.75
				c0.51-0.59,1.03-1.19,1.53-1.78c0,0,0,0,0,0c0.01-0.01,0.02-0.02,0.03-0.03c0.01-0.01,0.01-0.02,0.02-0.02
				c0,0,0.01-0.01,0.01-0.01c0.01-0.01,0.01-0.02,0.02-0.03c0,0,0,0,0.01-0.01c0.04-0.04,0.07-0.08,0.11-0.12L261.57,246.3
				L261.57,246.3z M264.85,242.25c-0.53,0.69-1.07,1.37-1.62,2.04l2.06,1.67c0.11-0.13,0.21-0.27,0.32-0.4c0,0,0-0.01,0.01-0.01
				c0.01-0.01,0.02-0.02,0.03-0.03c0,0,0,0,0.01-0.01c0.02-0.03,0.04-0.05,0.06-0.08c0,0,0,0,0.01-0.01
				c0.01-0.01,0.02-0.02,0.02-0.03c0,0,0.01-0.01,0.01-0.01c0.01-0.01,0.02-0.02,0.03-0.04c0,0,0,0,0,0
				c0.01-0.01,0.02-0.03,0.03-0.04c0,0,0,0,0,0c0.01-0.01,0.02-0.02,0.03-0.04c0,0,0,0,0.01-0.01c0.01-0.01,0.02-0.02,0.03-0.03
				c0,0,0,0,0-0.01c0.36-0.45,0.71-0.89,1.06-1.34L264.85,242.25L264.85,242.25z M267.97,238.08c-0.51,0.71-1.02,1.41-1.54,2.1
				l2.13,1.59c0.13-0.18,0.27-0.36,0.4-0.54c0,0,0-0.01,0.01-0.01c0.01-0.01,0.01-0.02,0.02-0.03c0-0.01,0.01-0.01,0.01-0.02
				c0-0.01,0.01-0.01,0.01-0.01c0.38-0.51,0.75-1.02,1.12-1.53L267.97,238.08L267.97,238.08z M270.93,233.79
				c-0.48,0.72-0.97,1.44-1.46,2.16l2.19,1.51c0.5-0.73,1-1.46,1.49-2.2L270.93,233.79L270.93,233.79z M273.74,229.4
				c-0.45,0.74-0.91,1.48-1.38,2.21l2.24,1.43c0.28-0.44,0.56-0.89,0.84-1.33l0,0c0.03-0.04,0.06-0.09,0.09-0.14c0,0,0,0,0,0
				c0.01-0.02,0.03-0.05,0.04-0.07l0,0c0.01-0.02,0.03-0.05,0.04-0.07l0,0c0.01-0.02,0.03-0.05,0.04-0.07c0,0,0,0,0,0
				c0.12-0.19,0.23-0.38,0.35-0.56L273.74,229.4L273.74,229.4z M276.37,224.9c-0.42,0.76-0.86,1.51-1.3,2.26l2.29,1.34
				c0.17-0.29,0.33-0.57,0.5-0.86c0,0,0,0,0,0c0.01-0.02,0.03-0.05,0.04-0.07c0,0,0,0,0-0.01c0.01-0.02,0.02-0.04,0.03-0.05
				c0-0.01,0.01-0.01,0.01-0.02c0.01-0.02,0.02-0.04,0.03-0.05c0.01-0.01,0.01-0.02,0.02-0.03c0-0.01,0.01-0.02,0.01-0.03
				c0.23-0.39,0.45-0.79,0.67-1.18L276.37,224.9L276.37,224.9z M278.84,220.31c-0.4,0.77-0.8,1.54-1.21,2.31l2.34,1.26
				c0.42-0.78,0.83-1.57,1.23-2.35L278.84,220.31L278.84,220.31z M281.13,215.62c-0.37,0.79-0.74,1.57-1.12,2.35l2.39,1.17
				c0.39-0.8,0.77-1.59,1.15-2.4L281.13,215.62L281.13,215.62z M283.24,210.86c-0.34,0.8-0.68,1.6-1.03,2.39l2.43,1.08
				c0.09-0.2,0.18-0.41,0.27-0.61c0,0,0-0.01,0.01-0.01c0-0.01,0.01-0.02,0.01-0.03c0-0.01,0.01-0.02,0.01-0.02
				c0,0,0.01-0.01,0.01-0.02c0.25-0.58,0.5-1.16,0.75-1.74L283.24,210.86L283.24,210.86z M285.17,206.02
				c-0.31,0.81-0.62,1.62-0.94,2.43l2.47,0.98c0.1-0.24,0.19-0.48,0.28-0.71l0,0c0.02-0.05,0.04-0.1,0.06-0.15c0,0,0-0.01,0-0.01
				c0-0.01,0.01-0.03,0.02-0.04c0,0,0,0,0-0.01c0.01-0.03,0.02-0.06,0.04-0.1c0,0,0,0,0-0.01c0-0.01,0.01-0.02,0.01-0.04
				c0,0,0-0.01,0-0.01c0-0.01,0.01-0.03,0.02-0.04c0,0,0,0,0-0.01c0.01-0.02,0.01-0.03,0.02-0.05c0,0,0,0,0,0
				c0.01-0.01,0.01-0.03,0.02-0.04c0,0,0-0.01,0-0.01c0.01-0.01,0.01-0.02,0.01-0.04c0,0,0-0.01,0-0.01
				c0.01-0.03,0.02-0.06,0.04-0.09c0-0.01,0-0.01,0.01-0.01c0-0.01,0.01-0.02,0.01-0.03c0-0.01,0-0.01,0.01-0.01
				c0-0.01,0.01-0.02,0.01-0.03c0-0.01,0-0.01,0.01-0.02c0.01-0.01,0.01-0.03,0.02-0.04c0-0.01,0-0.01,0.01-0.01
				c0-0.01,0.01-0.02,0.01-0.03c0-0.01,0.01-0.01,0.01-0.02c0-0.01,0.01-0.02,0.01-0.03c0-0.01,0.01-0.01,0.01-0.02
				c0-0.01,0.01-0.02,0.01-0.02c0.01-0.01,0.01-0.03,0.02-0.04c0-0.01,0-0.01,0.01-0.02c0-0.01,0.01-0.02,0.01-0.03
				c0-0.01,0-0.01,0.01-0.02c0-0.01,0.01-0.02,0.01-0.03c0,0,0-0.01,0.01-0.01c0.09-0.23,0.17-0.46,0.26-0.69L285.17,206.02
				L285.17,206.02z M286.92,201.11c-0.27,0.82-0.56,1.64-0.85,2.46l2.5,0.89c0-0.01,0.01-0.02,0.01-0.03c0-0.01,0.01-0.02,0.01-0.03
				c0-0.01,0-0.01,0.01-0.02c0-0.01,0.01-0.02,0.01-0.03c0,0,0-0.01,0.01-0.01c0-0.01,0.01-0.02,0.01-0.03c0,0,0-0.01,0.01-0.01
				c0.01-0.03,0.02-0.07,0.04-0.1c0,0,0,0,0-0.01c0-0.01,0.01-0.02,0.01-0.03c0,0,0-0.01,0-0.01c0.02-0.05,0.03-0.1,0.05-0.15l0,0
				c0.02-0.05,0.03-0.1,0.05-0.15c0,0,0,0,0-0.01c0-0.01,0.01-0.02,0.01-0.03c0,0,0,0,0-0.01c0.01-0.04,0.03-0.07,0.04-0.11
				c0,0,0,0,0-0.01c0-0.01,0.01-0.02,0.01-0.03c0,0,0-0.01,0-0.01c0-0.01,0.01-0.02,0.01-0.03c0,0,0-0.01,0.01-0.01
				c0.01-0.01,0.01-0.03,0.02-0.04c0-0.01,0.01-0.02,0.01-0.03c0-0.01,0-0.01,0.01-0.02c0-0.01,0.01-0.02,0.01-0.02
				c0-0.01,0-0.01,0.01-0.02c0-0.01,0.01-0.02,0.01-0.03c0-0.01,0-0.01,0.01-0.02c0.01-0.03,0.02-0.06,0.03-0.09c0,0,0-0.01,0-0.01
				c0.01-0.01,0.01-0.03,0.01-0.04c0,0,0-0.01,0-0.01c0.15-0.43,0.3-0.88,0.44-1.31L286.92,201.11L286.92,201.11z M288.47,196.14
				c-0.24,0.83-0.49,1.66-0.75,2.49l2.54,0.79c0.03-0.09,0.06-0.18,0.09-0.28l0,0c0.02-0.05,0.03-0.1,0.05-0.15c0,0,0-0.01,0-0.01
				c0-0.01,0.01-0.02,0.01-0.03c0-0.01,0-0.01,0-0.01c0.01-0.03,0.02-0.07,0.03-0.1c0,0,0-0.01,0-0.01c0-0.01,0.01-0.02,0.01-0.03
				c0,0,0-0.01,0.01-0.02c0-0.01,0.01-0.02,0.01-0.03c0,0,0-0.01,0-0.01c0.01-0.04,0.02-0.07,0.03-0.1c0-0.01,0-0.01,0-0.01
				c0-0.01,0.01-0.02,0.01-0.03c0,0,0-0.01,0-0.01c0.02-0.05,0.03-0.1,0.05-0.15l0,0c0.16-0.52,0.31-1.03,0.46-1.55L288.47,196.14
				L288.47,196.14z M289.84,191.11c-0.21,0.84-0.43,1.68-0.66,2.52l2.56,0.69c0.01-0.03,0.02-0.06,0.03-0.1c0,0,0,0,0,0
				c0-0.02,0.01-0.03,0.01-0.04c0,0,0-0.01,0-0.01c0-0.01,0.01-0.02,0.01-0.03c0.21-0.79,0.42-1.59,0.62-2.39L289.84,191.11
				L289.84,191.11z M291,186.03c-0.18,0.85-0.36,1.7-0.56,2.54l2.59,0.6c0.07-0.3,0.13-0.59,0.2-0.89c0,0,0-0.01,0-0.01
				c0-0.01,0.01-0.02,0.01-0.03c0,0,0-0.01,0-0.01c0-0.01,0-0.02,0.01-0.03c0-0.01,0-0.01,0-0.02c0-0.01,0.01-0.03,0.01-0.04
				c0-0.01,0-0.02,0.01-0.03c0-0.01,0-0.01,0-0.02c0-0.01,0-0.02,0.01-0.03c0-0.01,0-0.01,0-0.02c0-0.01,0.01-0.02,0.01-0.04
				c0,0,0-0.01,0-0.01c0-0.02,0.01-0.03,0.01-0.05c0,0,0,0,0,0c0-0.02,0.01-0.03,0.01-0.05c0,0,0,0,0-0.01
				c0-0.02,0.01-0.03,0.01-0.05c0,0,0,0,0,0c0.07-0.31,0.13-0.62,0.2-0.93c0,0,0,0,0,0c0-0.02,0.01-0.03,0.01-0.05c0,0,0,0,0,0
				c0-0.02,0.01-0.03,0.01-0.05c0-0.01,0-0.01,0-0.02c0-0.01,0-0.02,0.01-0.03c0-0.01,0-0.02,0-0.02c0-0.01,0-0.01,0-0.02
				c0.01-0.05,0.02-0.1,0.03-0.15L291,186.03L291,186.03z M291.97,180.91c-0.15,0.86-0.3,1.71-0.46,2.56l2.61,0.49
				c0,0,0-0.01,0-0.01l0,0c0-0.02,0.01-0.03,0.01-0.05c0,0,0-0.01,0-0.01c0-0.02,0.01-0.03,0.01-0.05c0,0,0,0,0,0
				c0.01-0.03,0.01-0.07,0.02-0.1c0,0,0-0.01,0-0.01c0-0.01,0-0.02,0.01-0.04c0-0.01,0-0.01,0-0.02c0-0.01,0.01-0.03,0.01-0.04
				c0,0,0,0,0,0c0-0.01,0.01-0.03,0.01-0.05c0-0.01,0-0.01,0-0.02c0-0.01,0-0.02,0-0.02c0-0.01,0-0.02,0-0.03c0-0.01,0-0.01,0-0.02
				c0-0.01,0-0.02,0.01-0.03c0,0,0,0,0-0.01c0-0.02,0.01-0.05,0.01-0.07l0,0c0-0.01,0-0.02,0.01-0.04c0,0,0-0.01,0-0.01
				c0-0.01,0-0.02,0.01-0.04l0,0c0.12-0.65,0.24-1.31,0.35-1.96L291.97,180.91L291.97,180.91z M292.74,175.76
				c-0.11,0.86-0.23,1.72-0.36,2.58l2.63,0.39c0.11-0.73,0.21-1.45,0.31-2.18c0-0.01,0-0.02,0-0.03c0-0.01,0-0.01,0-0.02
				c0-0.01,0-0.02,0-0.04l0,0c0.02-0.12,0.03-0.25,0.05-0.37L292.74,175.76L292.74,175.76z M293.32,170.58
				c-0.08,0.86-0.17,1.73-0.26,2.59l2.64,0.29c0.02-0.21,0.05-0.41,0.07-0.62l0,0c0-0.01,0-0.03,0-0.04c0,0,0-0.01,0-0.01
				c0-0.01,0-0.02,0-0.03c0-0.01,0-0.03,0-0.04c0,0,0-0.01,0-0.01c0-0.01,0-0.03,0-0.04c0,0,0,0,0-0.01
				c0.06-0.61,0.12-1.22,0.18-1.84L293.32,170.58L293.32,170.58z M293.69,165.39c-0.04,0.87-0.1,1.73-0.16,2.6l2.65,0.19
				c0.01-0.15,0.02-0.3,0.03-0.44c0-0.01,0-0.01,0-0.01c0-0.01,0-0.02,0-0.02c0-0.01,0-0.02,0-0.03c0-0.01,0-0.01,0-0.02
				c0-0.01,0-0.02,0-0.03c0,0,0-0.01,0-0.01c0-0.02,0-0.03,0-0.05c0,0,0,0,0,0c0-0.02,0-0.03,0-0.05c0,0,0,0,0,0
				c0-0.02,0-0.03,0-0.05c0,0,0,0,0,0c0.02-0.25,0.03-0.49,0.05-0.74c0,0,0,0,0,0c0-0.05,0.01-0.1,0.01-0.16c0,0,0,0,0,0
				c0-0.02,0-0.03,0-0.05c0,0,0,0,0,0c0-0.05,0.01-0.1,0.01-0.15c0,0,0,0,0,0c0-0.02,0-0.03,0-0.05l0,0
				c0.01-0.25,0.03-0.51,0.04-0.76L293.69,165.39L293.69,165.39z M293.86,160.18c-0.01,0.87-0.03,1.74-0.06,2.6l2.65,0.09
				c0.02-0.5,0.03-1,0.04-1.51c0,0,0,0,0-0.01c0-0.01,0-0.03,0-0.04c0,0,0-0.01,0-0.01c0-0.01,0-0.03,0-0.04c0,0,0-0.01,0-0.01
				c0-0.01,0-0.03,0-0.04c0-0.01,0-0.02,0-0.03c0-0.01,0-0.01,0-0.02c0-0.01,0-0.02,0-0.03c0,0,0,0,0-0.01
				c0.01-0.3,0.01-0.61,0.02-0.91L293.86,160.18L293.86,160.18z M293.6,149.77c0.05,0.87,0.1,1.73,0.14,2.6l2.65-0.12
				c0-0.01,0-0.01,0-0.02c0,0,0,0,0-0.01c-0.02-0.37-0.03-0.74-0.05-1.11c0,0,0-0.01,0-0.01c0-0.01,0-0.02,0-0.04
				c0-0.01,0-0.01,0-0.01c0-0.01,0-0.02,0-0.04c0-0.01,0-0.02,0-0.03c0-0.01,0-0.02,0-0.03c0-0.01,0-0.02,0-0.03
				c0-0.01,0-0.01,0-0.02c0-0.01,0-0.02,0-0.03c0-0.01,0-0.01,0-0.01c-0.02-0.42-0.05-0.85-0.07-1.27l0,0L293.6,149.77L293.6,149.77
				z M293.17,144.57c0.09,0.86,0.17,1.73,0.24,2.59l2.65-0.22c0-0.03-0.01-0.06-0.01-0.09c0,0,0,0,0,0c0-0.02,0-0.03,0-0.05
				c0,0,0-0.01,0-0.01c0-0.01,0-0.03,0-0.04c0,0,0-0.01,0-0.01c0-0.03-0.01-0.07-0.01-0.1c0,0,0-0.01,0-0.01c0-0.01,0-0.02,0-0.04
				c0,0,0-0.01,0-0.01c0-0.01,0-0.03,0-0.04c0,0,0-0.01,0-0.01c0-0.02,0-0.03,0-0.05c0-0.01,0-0.01,0-0.02c0-0.01,0-0.02,0-0.03
				c0-0.01,0-0.02,0-0.02c0-0.01,0-0.02,0-0.02c0-0.01,0-0.02,0-0.02c0-0.01,0-0.01,0-0.02c0-0.02,0-0.04,0-0.06c0,0,0-0.01,0-0.01
				c0-0.01,0-0.02,0-0.03c0,0,0-0.01,0-0.01c0-0.01,0-0.02,0-0.03c0,0,0-0.01,0-0.01c-0.06-0.63-0.12-1.26-0.18-1.89L293.17,144.57
				L293.17,144.57z M292.54,139.4c0.12,0.86,0.23,1.72,0.34,2.58l2.64-0.32c-0.05-0.41-0.1-0.82-0.16-1.24c0,0,0,0,0-0.01
				c0-0.01,0-0.03,0-0.04c0-0.01,0-0.02,0-0.02c0-0.01,0-0.01,0-0.02c-0.06-0.44-0.12-0.87-0.18-1.31L292.54,139.4L292.54,139.4z
				 M291.72,134.25c0.15,0.86,0.3,1.71,0.44,2.57l2.62-0.42c-0.05-0.3-0.1-0.6-0.15-0.89c0,0,0-0.01,0-0.01c0-0.01,0-0.02-0.01-0.03
				c0-0.01,0-0.01,0-0.02c0-0.01,0-0.02,0-0.03c0-0.02-0.01-0.03-0.01-0.04c0-0.01,0-0.01,0-0.02c0-0.01,0-0.02-0.01-0.03
				c0-0.01,0-0.01,0-0.01c0-0.01,0-0.03-0.01-0.04c0,0,0-0.01,0-0.01c-0.08-0.5-0.17-0.99-0.26-1.48L291.72,134.25L291.72,134.25z
				 M290.7,129.14c0.19,0.85,0.36,1.7,0.53,2.55l2.6-0.52c-0.08-0.43-0.17-0.85-0.26-1.28c0-0.01,0-0.02-0.01-0.03
				c0-0.01,0-0.01,0-0.02c0-0.01-0.01-0.03-0.01-0.04c0,0,0,0,0-0.01c-0.09-0.41-0.17-0.82-0.26-1.23L290.7,129.14L290.7,129.14z
				 M292.07,123.42l-2.57,0.66c0.22,0.84,0.43,1.68,0.63,2.52l2.58-0.62c-0.17-0.72-0.35-1.43-0.53-2.15c0,0,0,0,0,0
				c0-0.02-0.01-0.03-0.01-0.05l0,0c-0.01-0.03-0.02-0.07-0.03-0.1c0,0,0-0.01,0-0.01c0-0.01-0.01-0.03-0.01-0.04c0,0,0-0.01,0-0.01
				c-0.01-0.03-0.02-0.06-0.02-0.1c0-0.01,0-0.01,0-0.01c0-0.01-0.01-0.02-0.01-0.04c0,0,0-0.01,0-0.01
				C292.08,123.45,292.07,123.43,292.07,123.42L292.07,123.42L292.07,123.42L292.07,123.42z M290.65,118.29l-2.55,0.76
				c0.25,0.83,0.49,1.67,0.72,2.51l2.56-0.71c-0.04-0.14-0.08-0.28-0.12-0.41c0,0,0-0.01,0-0.01c0-0.01-0.01-0.03-0.01-0.04
				c0,0,0-0.01,0-0.01c-0.01-0.02-0.01-0.03-0.01-0.05c0,0,0-0.01,0-0.01c0-0.01-0.01-0.02-0.01-0.03c0-0.01,0-0.02-0.01-0.02
				c0-0.01,0-0.01-0.01-0.02c0-0.01,0-0.02-0.01-0.02c0-0.01,0-0.01-0.01-0.02c-0.01-0.03-0.02-0.07-0.03-0.1c0,0,0,0,0-0.01
				c-0.09-0.33-0.19-0.66-0.28-0.99c0,0,0-0.01,0-0.01c0-0.01-0.01-0.02-0.01-0.03c0,0,0-0.01,0-0.01c0-0.01-0.01-0.02-0.01-0.03
				c0-0.01-0.01-0.02-0.01-0.03c0-0.01,0-0.01-0.01-0.02c0-0.01-0.01-0.02-0.01-0.04c0,0,0-0.01,0-0.01c0-0.01-0.01-0.03-0.01-0.04
				c0,0,0,0,0-0.01C290.76,118.67,290.7,118.48,290.65,118.29L290.65,118.29z M289.04,113.23l-2.52,0.85
				c0.28,0.82,0.55,1.65,0.81,2.48l2.53-0.81c-0.04-0.13-0.08-0.26-0.12-0.39c0,0,0-0.01,0-0.01c0-0.01,0-0.01-0.01-0.02
				c0-0.01-0.01-0.02-0.01-0.03c0,0,0-0.01,0-0.01C289.49,114.6,289.27,113.91,289.04,113.23L289.04,113.23z M287.23,108.23
				l-2.48,0.95c0.31,0.81,0.61,1.62,0.91,2.44l2.5-0.9c-0.02-0.05-0.04-0.11-0.06-0.17c0,0,0-0.01,0-0.01
				c0-0.01-0.01-0.02-0.01-0.03c0-0.01,0-0.01-0.01-0.02c0-0.01-0.01-0.01-0.01-0.02c-0.01-0.03-0.02-0.07-0.04-0.1l0,0
				C287.77,109.65,287.51,108.94,287.23,108.23L287.23,108.23z M285.25,103.3l-2.44,1.04c0.34,0.8,0.67,1.6,1,2.41l2.46-0.99
				c-0.28-0.69-0.56-1.38-0.85-2.07l0,0c0-0.01-0.01-0.02-0.01-0.03c0-0.01,0-0.01-0.01-0.02c0-0.01-0.01-0.02-0.01-0.02
				c-0.01-0.02-0.01-0.03-0.02-0.05c0,0,0,0,0,0C285.32,103.47,285.28,103.39,285.25,103.3L285.25,103.3z M283.07,98.46l-2.4,1.13
				c0.37,0.78,0.73,1.57,1.09,2.37l2.42-1.09C283.82,100.06,283.45,99.26,283.07,98.46L283.07,98.46z M280.71,93.7l-2.36,1.22
				c0.4,0.77,0.79,1.54,1.18,2.32l2.38-1.18C281.52,95.27,281.12,94.48,280.71,93.7L280.71,93.7z M278.17,89.03l-2.31,1.31
				c0.43,0.75,0.85,1.51,1.27,2.28l2.33-1.27C279.04,90.57,278.61,89.8,278.17,89.03L278.17,89.03z M275.46,84.47l-2.26,1.4
				c0.46,0.74,0.91,1.48,1.35,2.23l2.28-1.36C276.39,85.97,275.92,85.22,275.46,84.47L275.46,84.47z M272.57,80.01l-2.2,1.49
				c0.49,0.72,0.97,1.44,1.44,2.17l2.23-1.45c-0.02-0.03-0.04-0.07-0.07-0.1c0,0,0,0,0,0c-0.01-0.01-0.01-0.02-0.02-0.03
				c0,0-0.01-0.01-0.01-0.01c-0.01-0.01-0.01-0.02-0.02-0.03c-0.01-0.01-0.01-0.02-0.02-0.03c0,0,0-0.01-0.01-0.01
				c-0.01-0.01-0.01-0.02-0.02-0.03c0,0,0-0.01,0-0.01c-0.2-0.31-0.4-0.62-0.61-0.92c0,0,0,0,0-0.01c-0.01-0.01-0.02-0.02-0.02-0.03
				c0,0-0.01-0.01-0.01-0.01c-0.01-0.01-0.01-0.02-0.02-0.03c0,0-0.01-0.01-0.01-0.02c-0.01-0.01-0.01-0.02-0.02-0.03
				c-0.01-0.01-0.01-0.02-0.02-0.03c0-0.01-0.01-0.01-0.01-0.02c-0.01-0.01-0.01-0.02-0.02-0.02c0,0-0.01-0.01-0.01-0.01
				c-0.01-0.01-0.01-0.02-0.02-0.03c0,0,0,0,0-0.01C272.92,80.53,272.74,80.27,272.57,80.01L272.57,80.01z M269.51,75.67l-2.14,1.57
				c0.51,0.7,1.02,1.4,1.52,2.11l2.17-1.53c-0.46-0.65-0.93-1.3-1.4-1.95c0,0,0,0,0,0c-0.01-0.01-0.02-0.03-0.03-0.04
				c0,0,0,0,0-0.01c-0.01-0.01-0.01-0.02-0.02-0.03c-0.01-0.01-0.01-0.01-0.02-0.02c0-0.01-0.01-0.01-0.01-0.02
				c-0.01-0.01-0.01-0.02-0.02-0.02c0,0,0-0.01,0-0.01C269.54,75.71,269.52,75.69,269.51,75.67L269.51,75.67z M266.28,71.45
				l-2.08,1.65c0.54,0.68,1.07,1.36,1.6,2.05l2.11-1.61c-0.09-0.12-0.19-0.25-0.28-0.37c0,0-0.01-0.01-0.01-0.01
				c-0.01-0.01-0.01-0.02-0.02-0.02c0-0.01-0.01-0.01-0.01-0.02c0-0.01-0.01-0.01-0.01-0.01c-0.02-0.03-0.04-0.06-0.06-0.08
				c0,0,0,0,0-0.01c-0.01-0.01-0.02-0.02-0.02-0.03c0,0,0,0,0,0c-0.16-0.21-0.32-0.41-0.48-0.62c0,0,0,0,0,0
				c-0.02-0.03-0.04-0.06-0.07-0.09c0,0-0.01-0.01-0.01-0.01c-0.01-0.01-0.01-0.01-0.02-0.02c-0.01-0.01-0.01-0.01-0.01-0.02
				c0-0.01-0.01-0.01-0.01-0.02c-0.01-0.01-0.01-0.02-0.02-0.03c0,0,0-0.01-0.01-0.01c-0.01-0.01-0.02-0.03-0.03-0.04
				c0,0,0-0.01-0.01-0.01c-0.01-0.01-0.02-0.02-0.03-0.03c0,0,0-0.01-0.01-0.01C266.61,71.87,266.45,71.66,266.28,71.45
				L266.28,71.45z M262.89,67.36l-2.01,1.73c0.57,0.66,1.13,1.32,1.68,1.99l2.05-1.69C264.04,68.7,263.47,68.03,262.89,67.36
				L262.89,67.36z M259.35,63.4l-1.94,1.81c0.59,0.64,1.18,1.28,1.76,1.92l1.98-1.77c-0.04-0.04-0.08-0.09-0.12-0.14
				c-0.01-0.01-0.01-0.01-0.02-0.02c0,0-0.01-0.01-0.01-0.01c-0.01-0.01-0.02-0.02-0.03-0.03c0,0,0,0,0,0
				C260.43,64.57,259.89,63.98,259.35,63.4L259.35,63.4z M255.65,59.58l-1.87,1.88c0.62,0.61,1.23,1.23,1.83,1.85l1.91-1.85
				c-0.02-0.02-0.04-0.04-0.06-0.06c0,0-0.01-0.01-0.01-0.01c-0.01-0.01-0.02-0.02-0.02-0.02c0,0-0.01-0.01-0.01-0.01
				c-0.01-0.01-0.01-0.01-0.02-0.02C256.82,60.75,256.24,60.16,255.65,59.58L255.65,59.58z M251.82,55.91l-1.8,1.95
				c0.64,0.59,1.27,1.18,1.9,1.78l1.84-1.92c-0.16-0.15-0.32-0.3-0.47-0.45c0,0,0,0-0.01-0.01c-0.01-0.01-0.01-0.01-0.02-0.02
				c0,0-0.01-0.01-0.01-0.01c-0.01-0.01-0.01-0.01-0.02-0.02c0,0-0.01-0.01-0.02-0.02c-0.01-0.01-0.01-0.01-0.02-0.02
				c-0.01-0.01-0.02-0.02-0.03-0.03c0,0-0.01-0.01-0.01-0.01c-0.01-0.01-0.02-0.02-0.03-0.02c0,0-0.01-0.01-0.01-0.01
				c-0.01-0.01-0.02-0.02-0.02-0.02c0,0-0.01-0.01-0.01-0.01c-0.02-0.02-0.05-0.04-0.07-0.07c0,0-0.01,0-0.01-0.01
				c-0.01-0.01-0.02-0.02-0.03-0.03c0,0-0.01-0.01-0.01-0.01c-0.01-0.01-0.02-0.02-0.03-0.03c0,0,0,0-0.01-0.01
				c-0.02-0.02-0.05-0.05-0.07-0.07c0,0-0.01,0-0.01-0.01c-0.01-0.01-0.02-0.02-0.03-0.03c0,0,0,0-0.01-0.01
				c-0.01-0.01-0.02-0.02-0.03-0.03c0,0,0,0,0,0c-0.01-0.01-0.02-0.02-0.04-0.03c0,0,0,0,0,0c-0.01-0.01-0.02-0.02-0.03-0.03
				c0,0,0,0-0.01-0.01c-0.01-0.01-0.02-0.02-0.03-0.03c0,0,0,0,0,0c-0.03-0.02-0.05-0.05-0.08-0.07c0,0,0,0,0,0
				c-0.01-0.01-0.02-0.02-0.03-0.03c0,0,0,0,0,0c-0.03-0.02-0.05-0.05-0.08-0.07c0,0,0,0,0,0c-0.01-0.01-0.02-0.02-0.04-0.03
				c0,0,0,0,0,0C252.21,56.27,252.02,56.09,251.82,55.91L251.82,55.91z M247.84,52.38l-1.72,2.02c0.66,0.56,1.32,1.13,1.97,1.71
				l1.76-1.99c-0.08-0.07-0.15-0.13-0.23-0.2c0,0-0.01-0.01-0.01-0.01c-0.01-0.01-0.02-0.01-0.02-0.02c0,0-0.01-0.01-0.01-0.01
				c-0.01-0.01-0.01-0.01-0.02-0.02c-0.01-0.01-0.02-0.02-0.04-0.03c0,0-0.01,0-0.01-0.01c-0.01-0.01-0.02-0.02-0.03-0.02
				c0,0,0,0-0.01-0.01C248.93,53.32,248.39,52.85,247.84,52.38L247.84,52.38z M243.74,49.02l-1.65,2.08
				c0.68,0.54,1.36,1.08,2.03,1.63l1.68-2.05c-0.28-0.23-0.56-0.46-0.84-0.68c0,0-0.01,0-0.01-0.01c-0.01-0.01-0.02-0.01-0.03-0.02
				c-0.01-0.01-0.01-0.01-0.02-0.01c-0.01,0-0.01-0.01-0.02-0.01C244.51,49.63,244.12,49.32,243.74,49.02L243.74,49.02z M239.5,45.8
				l-1.56,2.15c0.7,0.51,1.4,1.03,2.09,1.56l1.61-2.12c-0.13-0.1-0.26-0.2-0.39-0.29l0,0c-0.01-0.01-0.03-0.02-0.04-0.03
				c0,0,0,0,0,0c-0.01-0.01-0.02-0.02-0.03-0.02c-0.01-0.01-0.02-0.01-0.02-0.02c0,0-0.01-0.01-0.01-0.01
				c-0.01-0.01-0.02-0.01-0.03-0.02c0,0,0,0,0,0c-0.33-0.25-0.66-0.49-0.99-0.74c0,0,0,0-0.01,0c-0.01-0.01-0.02-0.01-0.03-0.02
				c0,0-0.01,0-0.01-0.01c-0.01-0.01-0.03-0.02-0.04-0.03c-0.01-0.01-0.02-0.01-0.02-0.02c0,0-0.01-0.01-0.02-0.01
				c-0.01-0.01-0.02-0.01-0.02-0.02c0,0-0.01-0.01-0.01-0.01c-0.01-0.01-0.03-0.02-0.04-0.03l0,0C239.78,46,239.64,45.9,239.5,45.8
				L239.5,45.8z M235.15,42.76l-1.48,2.2c0.72,0.49,1.44,0.98,2.15,1.48l1.52-2.17c-0.11-0.08-0.23-0.16-0.34-0.24c0,0,0,0,0,0
				c-0.01-0.01-0.02-0.02-0.03-0.02c-0.01-0.01-0.02-0.02-0.03-0.02c0,0,0,0,0,0c-0.01-0.01-0.03-0.02-0.04-0.03c0,0,0,0-0.01,0
				c-0.41-0.28-0.83-0.57-1.24-0.85c0,0,0,0,0,0c-0.01-0.01-0.03-0.02-0.04-0.03c-0.01,0-0.01-0.01-0.02-0.01
				c-0.01,0-0.01-0.01-0.02-0.01c-0.01-0.01-0.02-0.01-0.03-0.02l0,0C235.4,42.93,235.28,42.84,235.15,42.76L235.15,42.76z
				 M230.69,39.87l-1.4,2.26c0.74,0.46,1.47,0.92,2.2,1.39l1.44-2.23C232.19,40.81,231.44,40.34,230.69,39.87L230.69,39.87z
				 M226.12,37.16l-1.31,2.31c0.63,0.36,1.26,0.72,1.88,1.09l0.37,0.22l1.36-2.28c-0.13-0.07-0.25-0.15-0.38-0.22l0,0l0,0
				c-0.02-0.01-0.04-0.02-0.05-0.03c-0.01,0-0.01-0.01-0.02-0.01c-0.01-0.01-0.03-0.01-0.04-0.02c-0.01,0-0.01-0.01-0.02-0.01
				c-0.01-0.01-0.03-0.02-0.04-0.02c0,0-0.01-0.01-0.01-0.01c-0.02-0.01-0.04-0.02-0.05-0.03c0,0-0.01,0-0.01-0.01
				c-0.01-0.01-0.03-0.02-0.04-0.03c-0.01,0-0.01-0.01-0.02-0.01c-0.01-0.01-0.03-0.02-0.04-0.02c0,0-0.01-0.01-0.01-0.01
				c-0.02-0.01-0.03-0.02-0.05-0.03c0,0,0,0,0,0c-0.02-0.01-0.04-0.02-0.06-0.03c0,0-0.01,0-0.01-0.01
				c-0.02-0.01-0.03-0.02-0.04-0.03c0,0-0.01-0.01-0.01-0.01c-0.01-0.01-0.03-0.02-0.04-0.03c0,0-0.01,0-0.01-0.01
				c-0.04-0.02-0.07-0.04-0.11-0.07c0,0-0.01,0-0.01-0.01c-0.01-0.01-0.03-0.02-0.04-0.03c0,0-0.01-0.01-0.01-0.01
				c-0.02-0.01-0.03-0.02-0.05-0.03c0,0-0.01,0-0.01-0.01c-0.02-0.01-0.04-0.02-0.06-0.03c0,0-0.01-0.01-0.01-0.01
				c-0.01-0.01-0.03-0.02-0.04-0.02c-0.01,0-0.01-0.01-0.02-0.01c-0.01-0.01-0.02-0.01-0.03-0.02c-0.01,0-0.01-0.01-0.02-0.01
				c-0.01-0.01-0.02-0.01-0.04-0.02c-0.01-0.01-0.02-0.01-0.03-0.02c-0.01-0.01-0.02-0.01-0.04-0.02c-0.01,0-0.02-0.01-0.03-0.02
				c-0.01-0.01-0.02-0.01-0.02-0.01c-0.01-0.01-0.02-0.01-0.03-0.02c-0.01,0-0.01-0.01-0.02-0.01
				C226.58,37.42,226.35,37.29,226.12,37.16L226.12,37.16z M221.46,34.62l-1.23,2.36c0.77,0.4,1.54,0.81,2.3,1.23l1.27-2.33
				c-0.37-0.2-0.75-0.4-1.12-0.6c0,0-0.01-0.01-0.02-0.01c-0.01,0-0.01-0.01-0.02-0.01c-0.01,0-0.02-0.01-0.03-0.01
				c0,0-0.01,0-0.01-0.01C222.22,35.02,221.84,34.81,221.46,34.62L221.46,34.62z M216.7,32.25l-1.14,2.4
				c0.78,0.37,1.57,0.75,2.35,1.14l1.18-2.38C218.3,33.02,217.5,32.63,216.7,32.25L216.7,32.25z M211.86,30.07l-1.05,2.44
				c0.8,0.34,1.59,0.69,2.39,1.05l1.09-2.42C213.48,30.77,212.67,30.42,211.86,30.07L211.86,30.07z M206.94,28.07l-0.95,2.48
				c0.81,0.31,1.62,0.63,2.42,0.96l1-2.46c-0.22-0.09-0.44-0.18-0.67-0.27c0,0,0,0-0.01,0c-0.01,0-0.03-0.01-0.04-0.02
				c0,0-0.01,0-0.01,0c-0.01-0.01-0.03-0.01-0.04-0.02c0,0,0,0,0,0c-0.02-0.01-0.03-0.01-0.04-0.02c-0.01,0-0.02-0.01-0.02-0.01
				c-0.01,0-0.01,0-0.02-0.01c-0.01,0-0.02-0.01-0.03-0.01c0,0-0.01,0-0.01,0c-0.43-0.17-0.86-0.34-1.29-0.51
				c-0.01,0-0.01,0-0.01-0.01c-0.01,0-0.02-0.01-0.02-0.01c-0.01,0-0.02-0.01-0.03-0.01c-0.01,0-0.01,0-0.02-0.01
				C207.07,28.12,207.01,28.1,206.94,28.07L206.94,28.07z M201.94,26.26l-0.86,2.51c0.82,0.28,1.64,0.57,2.46,0.86l0.9-2.5
				c-0.67-0.24-1.33-0.48-2-0.71c-0.01,0-0.01,0-0.02-0.01c-0.01,0-0.02-0.01-0.03-0.01c-0.01,0-0.02-0.01-0.02-0.01
				c0,0-0.01,0-0.01,0C202.23,26.36,202.08,26.31,201.94,26.26L201.94,26.26z M196.88,24.65l-0.76,2.55
				c0.83,0.25,1.66,0.5,2.49,0.77l0.81-2.53l0,0c0,0,0,0,0,0c-0.01-0.01-0.03-0.01-0.04-0.01c0,0-0.01,0-0.01,0
				c-0.01,0-0.02-0.01-0.04-0.01c0,0-0.01,0-0.01,0c-0.05-0.02-0.1-0.03-0.14-0.05c0,0,0,0,0,0c-0.02,0-0.03-0.01-0.05-0.01
				c0,0,0,0,0,0c-0.4-0.13-0.81-0.25-1.21-0.38c0,0-0.01,0-0.01,0c-0.01-0.01-0.03-0.01-0.04-0.01c0,0,0,0,0,0
				c-0.03-0.01-0.06-0.02-0.1-0.03c0,0-0.01,0-0.01,0c-0.01,0-0.02-0.01-0.04-0.01c0,0-0.01,0-0.01,0c-0.01,0-0.02-0.01-0.03-0.01
				c0,0-0.01,0-0.01,0c-0.01,0-0.03-0.01-0.04-0.01c-0.01,0-0.01,0-0.02,0c-0.01,0-0.02-0.01-0.03-0.01c-0.01,0-0.01,0-0.02-0.01
				c-0.01,0-0.01,0-0.02-0.01c-0.01,0-0.02-0.01-0.03-0.01c0,0-0.01,0-0.02,0c-0.03-0.01-0.07-0.02-0.1-0.03c0,0-0.01,0-0.01,0
				c-0.01,0-0.02-0.01-0.03-0.01c0,0,0,0-0.01,0C197.17,24.74,197.03,24.69,196.88,24.65L196.88,24.65z M191.76,23.23l-0.66,2.57
				c0.84,0.22,1.68,0.44,2.52,0.67l0.71-2.56c-0.21-0.06-0.42-0.12-0.63-0.17c0,0-0.01,0-0.01,0c-0.01,0-0.02,0-0.03-0.01
				c-0.01,0-0.01,0-0.02,0c-0.01,0-0.02-0.01-0.03-0.01c-0.01,0-0.02,0-0.02-0.01c-0.01,0-0.02-0.01-0.03-0.01
				c-0.01,0-0.02-0.01-0.03-0.01c-0.01,0-0.01,0-0.02-0.01c-0.01,0-0.02-0.01-0.03-0.01c-0.01,0-0.01,0-0.02,0
				c-0.01,0-0.02-0.01-0.03-0.01c-0.01,0-0.01,0-0.02,0c-0.02-0.01-0.03-0.01-0.05-0.01c0,0,0,0,0,0c-0.01,0-0.03-0.01-0.05-0.01
				c0,0-0.01,0-0.01,0c-0.01,0-0.03-0.01-0.04-0.01c0,0-0.01,0-0.01,0c-0.03-0.01-0.07-0.02-0.1-0.03c0,0,0,0,0,0
				c-0.02,0-0.03-0.01-0.05-0.01c0,0,0,0-0.01,0c-0.05-0.01-0.1-0.03-0.15-0.04c0,0,0,0-0.01,0c-0.01,0-0.03-0.01-0.05-0.01
				c0,0,0,0-0.01,0c-0.02,0-0.03-0.01-0.05-0.01c0,0,0,0,0,0c-0.02,0-0.03-0.01-0.05-0.01c0,0-0.01,0-0.01,0
				c-0.01,0-0.02-0.01-0.04-0.01c0,0-0.01,0-0.01,0c-0.01,0-0.02-0.01-0.04-0.01c0,0-0.01,0-0.01,0c-0.01,0-0.02-0.01-0.04-0.01
				c-0.01,0-0.02,0-0.03-0.01c-0.01,0-0.02-0.01-0.03-0.01c-0.01,0-0.02,0-0.03-0.01c-0.01,0-0.01,0-0.02,0
				c-0.01,0-0.02-0.01-0.03-0.01c0,0-0.01,0-0.01,0C192.27,23.36,192.01,23.3,191.76,23.23L191.76,23.23z M186.59,22.01l-0.56,2.6
				c0.85,0.18,1.7,0.37,2.54,0.57l0.61-2.59C188.32,22.39,187.46,22.2,186.59,22.01L186.59,22.01z M181.38,20.99l-0.46,2.62
				c0.85,0.15,1.71,0.31,2.56,0.47l0.51-2.61c-0.27-0.05-0.54-0.11-0.81-0.16c0,0,0,0,0,0c-0.01,0-0.03-0.01-0.04-0.01l0,0
				c-0.02,0-0.04-0.01-0.06-0.01c0,0-0.01,0-0.02,0c-0.01,0-0.01,0-0.02,0c-0.01,0-0.02,0-0.04-0.01c0,0-0.01,0-0.01,0
				c-0.02,0-0.03-0.01-0.04-0.01c0,0,0,0,0,0C182.42,21.18,181.9,21.09,181.38,20.99L181.38,20.99z M176.13,20.18l-0.36,2.63
				c0.86,0.12,1.72,0.24,2.58,0.37l0.41-2.62C177.88,20.43,177.01,20.3,176.13,20.18L176.13,20.18z M170.85,19.57l-0.25,2.64
				c0.86,0.08,1.73,0.17,2.59,0.27l0.31-2.64c-0.27-0.03-0.55-0.06-0.82-0.09c0,0,0,0,0,0c-0.05-0.01-0.11-0.01-0.16-0.02
				c0,0,0,0-0.01,0c-0.01,0-0.02,0-0.04,0c0,0,0,0-0.01,0c-0.01,0-0.02,0-0.04,0c0,0,0,0-0.01,0c-0.04,0-0.07-0.01-0.11-0.01
				c0,0-0.01,0-0.01,0c-0.01,0-0.02,0-0.03,0c-0.01,0-0.01,0-0.01,0c-0.01,0-0.02,0-0.03,0c0,0,0,0-0.01,0c-0.02,0-0.04,0-0.06-0.01
				c-0.01,0-0.01,0-0.02,0c-0.01,0-0.02,0-0.03,0c-0.01,0-0.02,0-0.02,0c-0.01,0-0.02,0-0.02,0c-0.01,0-0.02,0-0.03,0
				c-0.01,0-0.01,0-0.02,0c-0.01,0-0.03,0-0.04,0c-0.01,0-0.01,0-0.02,0c-0.01,0-0.02,0-0.03,0c-0.01,0-0.01,0-0.02,0
				c-0.01,0-0.02,0-0.03,0c-0.01,0-0.01,0-0.02,0c-0.01,0-0.02,0-0.04,0c0,0-0.01,0-0.01,0c-0.02,0-0.03,0-0.05-0.01
				c0,0-0.01,0-0.01,0c-0.01,0-0.03,0-0.04,0c0,0-0.01,0-0.01,0c-0.02,0-0.03,0-0.05,0c0,0,0,0,0,0
				C171.38,19.62,171.12,19.59,170.85,19.57L170.85,19.57z M165.56,19.16l-0.15,2.65c0.87,0.05,1.73,0.11,2.6,0.17l0.2-2.65
				c-0.42-0.03-0.83-0.06-1.25-0.09c0,0-0.01,0-0.01,0c-0.01,0-0.02,0-0.04,0c-0.01,0-0.01,0-0.02,0c-0.01,0-0.02,0-0.03,0
				c-0.01,0-0.02,0-0.02,0c-0.01,0-0.01,0-0.02,0c-0.04,0-0.07,0-0.11-0.01c0,0,0,0,0,0c-0.19-0.01-0.39-0.02-0.58-0.04l0,0
				c-0.05,0-0.1-0.01-0.15-0.01c-0.01,0-0.01,0-0.02,0c-0.01,0-0.02,0-0.02,0c-0.01,0-0.02,0-0.03,0c-0.01,0-0.01,0-0.02,0
				C165.78,19.17,165.67,19.16,165.56,19.16L165.56,19.16z M160.25,18.96l-0.05,2.66c0.87,0.02,1.74,0.04,2.6,0.07l0.1-2.65
				c-0.63-0.02-1.27-0.04-1.9-0.06c0,0,0,0,0,0c-0.01,0-0.02,0-0.04,0c0,0-0.01,0-0.01,0c-0.01,0-0.02,0-0.04,0l0,0
				c-0.04,0-0.08,0-0.12,0c0,0,0,0-0.01,0c-0.01,0-0.02,0-0.04,0c0,0-0.01,0-0.01,0c-0.05,0-0.1,0-0.15,0c0,0-0.01,0-0.01,0
				C160.47,18.96,160.36,18.96,160.25,18.96L160.25,18.96z M154.94,18.96l0.05,2.66c0.87-0.02,1.74-0.03,2.6-0.03l0-2.66
				c-0.64,0-1.28,0-1.92,0.01c-0.01,0-0.01,0-0.02,0c-0.01,0-0.02,0-0.02,0c-0.01,0-0.02,0-0.03,0c0,0-0.01,0-0.01,0
				C155.38,18.95,155.16,18.95,154.94,18.96L154.94,18.96z M149.63,19.16l0.15,2.65c0.87-0.05,1.73-0.09,2.6-0.13l-0.1-2.65
				c-0.44,0.02-0.88,0.04-1.32,0.06c0,0-0.01,0-0.01,0c-0.01,0-0.02,0-0.03,0c-0.01,0-0.01,0-0.02,0c-0.01,0-0.02,0-0.03,0
				c-0.01,0-0.02,0-0.02,0c-0.01,0-0.02,0-0.02,0c-0.02,0-0.03,0-0.05,0c0,0-0.01,0-0.01,0c-0.01,0-0.03,0-0.04,0c0,0-0.01,0-0.01,0
				c-0.02,0-0.03,0-0.04,0c0,0,0,0,0,0C150.33,19.12,149.98,19.14,149.63,19.16L149.63,19.16z M144.33,19.57l0.25,2.64
				c0.86-0.08,1.73-0.16,2.6-0.22l-0.2-2.65c-0.06,0.01-0.12,0.01-0.18,0.01c0,0,0,0,0,0c-0.02,0-0.03,0-0.05,0c0,0,0,0,0,0
				c-0.02,0-0.03,0-0.05,0c0,0,0,0,0,0c-0.02,0-0.03,0-0.04,0c-0.01,0-0.01,0-0.02,0c-0.01,0-0.02,0-0.03,0c-0.01,0-0.02,0-0.03,0
				c-0.01,0-0.01,0-0.02,0c-0.02,0-0.04,0-0.06,0c0,0,0,0-0.01,0c-0.01,0-0.02,0-0.03,0c0,0-0.01,0-0.01,0c-0.01,0-0.02,0-0.03,0
				c0,0-0.01,0-0.01,0c-0.05,0-0.11,0.01-0.16,0.01l0,0C145.6,19.45,144.97,19.51,144.33,19.57L144.33,19.57z M139.06,20.18
				l0.35,2.63c0.86-0.12,1.72-0.22,2.59-0.32l-0.3-2.64c-0.08,0.01-0.16,0.02-0.24,0.03c0,0-0.01,0-0.01,0c-0.01,0-0.02,0-0.03,0
				c-0.01,0-0.02,0-0.03,0c0,0-0.01,0-0.01,0c-0.02,0-0.03,0-0.05,0.01c0,0,0,0,0,0c-0.02,0-0.03,0-0.05,0.01c0,0,0,0,0,0
				c-0.59,0.07-1.17,0.14-1.75,0.22c0,0,0,0,0,0c-0.01,0-0.03,0-0.04,0.01c-0.01,0-0.01,0-0.02,0c-0.01,0-0.01,0-0.02,0
				C139.3,20.15,139.18,20.16,139.06,20.18L139.06,20.18z M133.81,20.99l0.45,2.62c0.86-0.15,1.71-0.29,2.57-0.42l-0.4-2.63
				c-0.07,0.01-0.13,0.02-0.2,0.03c0,0,0,0-0.01,0c-0.01,0-0.02,0-0.03,0.01c0,0-0.01,0-0.01,0c-0.01,0-0.02,0-0.03,0
				c0,0-0.01,0-0.01,0c-0.02,0-0.03,0-0.05,0.01c-0.01,0-0.02,0-0.02,0c-0.01,0-0.01,0-0.02,0c-0.01,0-0.02,0-0.03,0
				c-0.01,0-0.01,0-0.02,0c-0.01,0-0.02,0-0.03,0c-0.01,0-0.01,0-0.02,0c-0.02,0-0.03,0.01-0.05,0.01c0,0-0.01,0-0.01,0
				c-0.01,0-0.02,0-0.03,0.01c-0.01,0-0.01,0-0.02,0c-0.01,0-0.02,0-0.04,0.01c0,0-0.01,0-0.01,0c-0.02,0-0.03,0-0.05,0.01
				c0,0,0,0-0.01,0c-0.01,0-0.03,0-0.04,0.01c0,0-0.01,0-0.01,0c-0.01,0-0.03,0-0.04,0.01c0,0-0.01,0-0.01,0
				c-0.03,0.01-0.07,0.01-0.1,0.02c0,0-0.01,0-0.01,0c-0.01,0-0.03,0-0.04,0.01c0,0-0.01,0-0.01,0c-0.01,0-0.03,0.01-0.04,0.01
				c0,0,0,0-0.01,0c-0.02,0-0.03,0.01-0.05,0.01c0,0,0,0-0.01,0c-0.01,0-0.03,0-0.04,0.01c0,0-0.01,0-0.01,0
				c-0.01,0-0.03,0-0.04,0.01c0,0-0.01,0-0.01,0c-0.03,0.01-0.07,0.01-0.1,0.02c0,0-0.01,0-0.01,0c-0.01,0-0.03,0-0.04,0.01
				c0,0-0.01,0-0.01,0c-0.03,0.01-0.07,0.01-0.1,0.02c0,0-0.01,0-0.01,0c-0.01,0-0.02,0-0.03,0.01c-0.01,0-0.01,0-0.02,0
				c-0.01,0-0.02,0-0.03,0c-0.01,0-0.01,0-0.02,0c-0.02,0-0.03,0.01-0.05,0.01c0,0-0.01,0-0.01,0c-0.01,0-0.02,0-0.04,0.01
				c-0.01,0-0.01,0-0.02,0c-0.01,0-0.02,0-0.03,0.01c-0.01,0-0.01,0-0.02,0c-0.01,0-0.03,0-0.04,0.01c0,0-0.01,0-0.01,0
				c-0.01,0-0.03,0.01-0.04,0.01c-0.01,0-0.01,0-0.02,0c-0.01,0-0.02,0-0.03,0.01c-0.01,0-0.01,0-0.02,0c-0.01,0-0.02,0-0.04,0.01
				c0,0-0.01,0-0.01,0c-0.02,0-0.03,0.01-0.05,0.01c-0.01,0-0.01,0-0.02,0c-0.01,0-0.02,0-0.03,0.01c-0.01,0-0.01,0-0.02,0
				c-0.01,0-0.02,0-0.04,0.01c0,0-0.01,0-0.01,0c-0.02,0-0.03,0.01-0.05,0.01c0,0,0,0,0,0c-0.02,0-0.03,0.01-0.05,0.01
				c0,0-0.01,0-0.01,0c-0.01,0-0.03,0.01-0.04,0.01c0,0,0,0-0.01,0c-0.04,0.01-0.07,0.01-0.1,0.02c0,0,0,0,0,0
				c-0.02,0-0.03,0.01-0.05,0.01c0,0,0,0,0,0C133.95,20.96,133.88,20.97,133.81,20.99L133.81,20.99z M128.59,21.99l0.55,2.6
				c0.85-0.18,1.7-0.35,2.55-0.52l-0.5-2.61c-0.16,0.03-0.32,0.06-0.48,0.09c-0.01,0-0.01,0-0.02,0c-0.01,0-0.02,0-0.03,0
				c-0.01,0-0.02,0-0.02,0c-0.01,0-0.01,0-0.02,0c-0.02,0-0.03,0.01-0.05,0.01c0,0,0,0,0,0c-0.02,0-0.03,0.01-0.05,0.01c0,0,0,0,0,0
				c-0.35,0.07-0.7,0.14-1.06,0.21c0,0,0,0,0,0c-0.05,0.01-0.1,0.02-0.16,0.03c0,0,0,0,0,0C129.06,21.89,128.83,21.94,128.59,21.99
				L128.59,21.99z M123.41,23.19l0.65,2.58c0.84-0.21,1.69-0.42,2.53-0.61l-0.6-2.59c-0.28,0.07-0.56,0.13-0.84,0.2
				c0,0-0.01,0-0.01,0c-0.01,0-0.02,0.01-0.04,0.01c0,0-0.01,0-0.01,0c-0.02,0-0.03,0.01-0.05,0.01c-0.01,0-0.02,0-0.03,0.01
				c-0.01,0-0.01,0-0.02,0c-0.01,0-0.02,0-0.03,0.01c0,0-0.01,0-0.01,0c-0.02,0-0.03,0.01-0.05,0.01c0,0,0,0,0,0
				c-0.02,0-0.03,0.01-0.05,0.01c0,0,0,0,0,0c-0.02,0-0.03,0.01-0.05,0.01c0,0,0,0,0,0C124.34,22.96,123.88,23.07,123.41,23.19
				L123.41,23.19z"/>
		</g>
	</g>
	
		<radialGradient id="SVGID_4_" cx="-51.0357" cy="-1007.8787" r="99.0093" gradientTransform="matrix(0.9684 -0.2494 0.2494 0.9684 437.8227 1042.671)" gradientUnits="userSpaceOnUse">
		<stop  offset="0.5744" style="stop-color:#130C0E"/>
		<stop  offset="0.7977" style="stop-color:#130C0E"/>
		<stop  offset="1" style="stop-color:#130C0E"/>
	</radialGradient>
	<path class="st5" d="M275.93,97.08c-27.92-54.07-90.38-83.69-151.81-67.87S22.31,101.14,23.98,161.97L275.93,97.08z"/>
	
		<radialGradient id="SVGID_5_" cx="-50.9431" cy="-845.5505" r="99.0093" gradientTransform="matrix(0.9684 -0.2494 0.2494 0.9684 437.8227 1042.671)" gradientUnits="userSpaceOnUse">
		<stop  offset="0.5744" style="stop-color:#130C0E"/>
		<stop  offset="0.7977" style="stop-color:#130C0E"/>
		<stop  offset="1" style="stop-color:#130C0E"/>
	</radialGradient>
	<path class="st6" d="M290.67,153.94c1.67,60.83-38.71,116.94-100.14,132.76c-61.43,15.82-123.89-13.8-151.81-67.87L290.67,153.94z"
		/>
	
		<rect x="35.17" y="186.4" transform="matrix(0.9684 -0.2494 0.2494 0.9684 -41.9194 47.1133)" class="st3" width="259.59" height="5.17"/>
	
		<rect x="19.4" y="124.87" transform="matrix(0.9684 -0.2494 0.2494 0.9684 -26.8319 41.2055)" class="st3" width="259.59" height="3.23"/>
</g>
<path class="st3" d="M67.88,99.68l1.43-0.37c-0.53-2.11-0.82-3.36-0.86-3.76c-0.12-0.91,0.07-1.71,0.57-2.39
	c0.5-0.68,1.33-1.17,2.49-1.47c0.84-0.22,1.83-0.27,2.98-0.15l0.79,3.07c-0.62-0.02-1.12,0.02-1.5,0.12
	c-0.47,0.12-0.79,0.31-0.96,0.56c-0.12,0.19-0.12,0.51,0,0.98l0.5,2.01l2.55-0.66l0.88,3.41l-2.55,0.66l3.26,12.64l-4.03,1.04
	l-3.26-12.64l-1.43,0.37L67.88,99.68z"/>
<path class="st3" d="M84.02,95.09c1.51-0.39,3.04-0.38,4.56,0.04c1.53,0.41,2.83,1.17,3.91,2.28c1.08,1.11,1.82,2.41,2.2,3.92
	c0.39,1.51,0.38,3.03-0.03,4.54c-0.41,1.51-1.17,2.81-2.28,3.88c-1.11,1.08-2.44,1.82-4.01,2.22c-2.3,0.59-4.48,0.28-6.53-0.94
	c-2.05-1.22-3.38-3-3.98-5.34c-0.65-2.51-0.26-4.83,1.14-6.98C80.26,96.83,81.93,95.62,84.02,95.09z M85.07,98.86
	c-1.25,0.32-2.18,1.03-2.79,2.11c-0.61,1.09-0.74,2.31-0.39,3.66c0.36,1.4,1.06,2.42,2.11,3.08c1.04,0.65,2.2,0.82,3.46,0.49
	c1.26-0.32,2.2-1.03,2.81-2.12c0.61-1.09,0.74-2.32,0.39-3.7c-0.35-1.38-1.05-2.39-2.1-3.04C87.51,98.69,86.35,98.53,85.07,98.86z"
	/>
<path class="st3" d="M94.27,92.89l4.03-1.04l0.42,1.64c0.71-1,1.4-1.75,2.07-2.25c0.66-0.49,1.38-0.84,2.16-1.04
	c1.59-0.41,3.08-0.2,4.48,0.62c1.18,0.7,2,1.98,2.48,3.83l2.73,10.61l-3.98,1.03l-1.81-7.03c-0.49-1.92-0.91-3.17-1.24-3.75
	c-0.33-0.58-0.76-0.99-1.27-1.2c-0.51-0.22-1.08-0.25-1.71-0.09c-0.81,0.21-1.44,0.66-1.89,1.36c-0.44,0.7-0.65,1.55-0.63,2.57
	c0.01,0.53,0.23,1.63,0.66,3.3l1.66,6.44l-4.03,1.04L94.27,92.89z"/>
<path class="st3" d="M129.19,93.69l-12.94,3.33c0.48,1.09,1.21,1.87,2.2,2.34c0.99,0.46,2.11,0.54,3.37,0.21
	c1.5-0.39,2.66-1.25,3.47-2.58l3.8,0.72c-0.54,1.42-1.32,2.57-2.35,3.45c-1.03,0.88-2.36,1.53-3.98,1.95
	c-2.52,0.65-4.77,0.38-6.77-0.8c-1.99-1.18-3.3-2.97-3.91-5.36c-0.63-2.45-0.37-4.68,0.8-6.71c1.16-2.02,2.93-3.34,5.31-3.96
	c2.53-0.65,4.79-0.37,6.79,0.84c2,1.21,3.34,3.14,4.03,5.8L129.19,93.69z M124.34,91.56c-0.5-0.83-1.21-1.42-2.14-1.78
	c-0.93-0.36-1.91-0.41-2.94-0.14c-1.12,0.29-2.03,0.86-2.71,1.7c-0.43,0.53-0.74,1.35-0.94,2.46L124.34,91.56z"/>
<path class="st3" d="M152.32,77.5c1.51-0.39,3.04-0.38,4.56,0.04c1.53,0.41,2.83,1.17,3.91,2.28c1.08,1.11,1.82,2.41,2.2,3.92
	c0.39,1.51,0.38,3.03-0.03,4.54c-0.41,1.51-1.17,2.81-2.28,3.88c-1.11,1.08-2.44,1.82-4.01,2.22c-2.3,0.59-4.48,0.28-6.53-0.94
	c-2.05-1.22-3.37-3-3.98-5.34c-0.65-2.51-0.27-4.83,1.14-6.98C148.56,79.24,150.22,78.04,152.32,77.5z M153.36,81.27
	c-1.25,0.32-2.18,1.03-2.79,2.11c-0.61,1.09-0.74,2.31-0.39,3.66c0.36,1.4,1.06,2.42,2.11,3.08c1.04,0.65,2.2,0.82,3.46,0.49
	c1.26-0.32,2.2-1.03,2.81-2.12c0.61-1.09,0.74-2.32,0.39-3.7c-0.35-1.38-1.06-2.39-2.1-3.04C155.8,81.1,154.64,80.94,153.36,81.27z"
	/>
<path class="st3" d="M162.55,75.3l4.07-1.05l1.99,7.73c0.39,1.51,0.76,2.52,1.12,3.05c0.36,0.53,0.81,0.9,1.35,1.11
	c0.54,0.21,1.15,0.22,1.82,0.05c0.67-0.17,1.2-0.48,1.58-0.92c0.39-0.44,0.61-1,0.68-1.68c0.05-0.51-0.12-1.52-0.51-3.03l-2.02-7.86
	l4.03-1.04l1.75,6.8c0.72,2.8,0.99,4.78,0.82,5.92c-0.22,1.4-0.77,2.57-1.64,3.51c-0.88,0.94-2.13,1.63-3.75,2.04
	c-1.76,0.45-3.28,0.43-4.57-0.08c-1.29-0.51-2.34-1.4-3.14-2.7c-0.57-0.89-1.18-2.62-1.84-5.19L162.55,75.3z"/>
<path class="st3" d="M189.44,70.77l-1.85,3.13c-1.27-0.74-2.32-1.01-3.15-0.79c-0.45,0.12-0.78,0.3-0.99,0.56
	c-0.21,0.26-0.27,0.53-0.2,0.81c0.06,0.22,0.19,0.39,0.4,0.54c0.21,0.14,0.67,0.29,1.39,0.44l1.66,0.36
	c1.75,0.37,3.02,0.87,3.81,1.52c0.79,0.65,1.32,1.51,1.59,2.58c0.37,1.43,0.15,2.75-0.65,3.97c-0.8,1.22-2.08,2.06-3.84,2.52
	c-2.34,0.6-4.44,0.17-6.31-1.3l1.78-3.34c0.61,0.43,1.28,0.73,2,0.91c0.72,0.17,1.33,0.2,1.82,0.07c0.53-0.14,0.92-0.37,1.18-0.71
	c0.26-0.34,0.34-0.68,0.26-1.01c-0.16-0.62-0.9-1.07-2.22-1.36l-1.53-0.33c-2.93-0.64-4.65-1.94-5.16-3.91
	c-0.33-1.27-0.12-2.48,0.63-3.63c0.75-1.15,1.88-1.92,3.41-2.32c1.04-0.27,2.08-0.29,3.12-0.07
	C187.63,69.62,188.58,70.08,189.44,70.77z"/>
<path class="st3" d="M209.11,73.11l-12.94,3.33c0.48,1.09,1.21,1.87,2.2,2.34c0.98,0.46,2.11,0.54,3.37,0.21
	c1.5-0.39,2.66-1.25,3.47-2.58l3.8,0.72c-0.54,1.42-1.32,2.57-2.35,3.45c-1.03,0.88-2.36,1.53-3.98,1.95
	c-2.52,0.65-4.77,0.38-6.76-0.8c-1.99-1.18-3.3-2.97-3.91-5.36c-0.63-2.45-0.36-4.68,0.8-6.71c1.16-2.02,2.93-3.34,5.31-3.96
	c2.53-0.65,4.79-0.37,6.79,0.84c2,1.21,3.34,3.14,4.03,5.8L209.11,73.11z M204.27,70.98c-0.5-0.83-1.21-1.42-2.14-1.78
	c-0.93-0.36-1.91-0.41-2.94-0.14c-1.12,0.29-2.03,0.86-2.71,1.7c-0.43,0.53-0.74,1.35-0.94,2.46L204.27,70.98z"/>
<path class="st3" d="M126.82,78.31l4-1.03l2.02,7.83c0.61-0.88,1.27-1.6,1.98-2.14c0.71-0.55,1.47-0.92,2.29-1.13
	c1.59-0.41,3.08-0.21,4.46,0.62c1.18,0.71,2.01,2,2.49,3.85l2.73,10.62l-3.97,1.02L141,90.9c-0.48-1.86-0.89-3.1-1.24-3.71
	c-0.35-0.61-0.78-1.03-1.29-1.24c-0.51-0.21-1.08-0.24-1.71-0.08c-0.82,0.21-1.45,0.66-1.89,1.35c-0.45,0.69-0.66,1.54-0.65,2.53
	c0.01,0.51,0.23,1.63,0.67,3.35l1.66,6.45l-4,1.03L126.82,78.31z"/>
<g>
	<path class="st7" d="M30.58,224.57c30.28,57.32,96.89,88.59,162.41,71.71c65.52-16.87,108.74-76.43,107.57-141.24L30.58,224.57z"/>
	<path class="st7" d="M121.52,18.73C55.59,35.71,12.25,95.89,13.97,161.16l270.51-69.67C254.46,33.51,187.44,1.76,121.52,18.73z"/>
	<path class="st8" d="M296.04,121.83c-2.76-10.72-6.14-19.81-11.02-29.24L13.86,162.37c0.28,10.62,1.72,20.25,4.48,30.98
		c2.86,11.12,5,17.75,11.48,30.33l270.72-69.8C300.34,142.88,298.91,132.95,296.04,121.83z"/>
</g>
<g>
	<path class="st3" d="M40.07,185.63l4.06,15.75l-6.36,1.64l-7.09-27.54l4.97-1.28l17,12.87l-4.17-16.18l6.36-1.64l7.09,27.54
		l-5.12,1.32L40.07,185.63z"/>
	<path class="st3" d="M85.12,184.86l1.44,5.58l-19.36,4.99l-7.09-27.54l19.01-4.9l1.44,5.59l-12.65,3.26l1.38,5.35l10.86-2.8
		l1.33,5.16l-10.86,2.8l1.51,5.86L85.12,184.86z"/>
	<path class="st3" d="M90.84,159.98l5.74-1.48l17.14,24.95l-6.52,1.68l-3.72-5.62l-8.57,2.21l-0.51,6.71l-6.52,1.68L90.84,159.98z
		 M101.3,175.4l-5.73-8.91l-0.79,10.58L101.3,175.4z"/>
	<path class="st3" d="M116.43,182.75l-7.09-27.54l12.41-3.2c1.29-0.33,2.56-0.37,3.8-0.11c1.24,0.26,2.37,0.73,3.4,1.4
		c1.03,0.67,1.91,1.51,2.65,2.5c0.74,1,1.25,2.06,1.55,3.2c0.22,0.85,0.33,1.7,0.32,2.54c0,0.84-0.11,1.66-0.32,2.46
		c-0.21,0.8-0.52,1.55-0.93,2.25c-0.41,0.7-0.92,1.33-1.52,1.9l8.69,8.68l-7.18,1.85l-7.56-7.52l-4.15,1.07l2.29,8.88L116.43,182.75
		z M119.08,166.69l5.82-1.5c0.75-0.19,1.3-0.71,1.66-1.57c0.36-0.85,0.4-1.83,0.11-2.95c-0.29-1.14-0.84-1.96-1.63-2.48
		c-0.79-0.51-1.55-0.67-2.28-0.49l-5.62,1.45L119.08,166.69z"/>
	<path class="st3" d="M142.42,176.06l-7.09-27.54l6.36-1.64l5.65,21.96l13.34-3.44l1.44,5.58L142.42,176.06z"/>
	<path class="st3" d="M157.59,142.79l9.19,11.12l2.76-14.19l6.94-1.79l-5.14,20.68l2.42,9.39l-6.32,1.63l-2.44-9.46l-14.31-15.59
		L157.59,142.79z"/>
	<path class="st3" d="M196.16,145.43l4.06,15.75l-6.36,1.64l-7.09-27.54l4.97-1.28l17,12.87l-4.17-16.18l6.36-1.64l7.09,27.54
		l-5.12,1.32L196.16,145.43z"/>
	<path class="st3" d="M241.21,144.66l1.44,5.58l-19.36,4.98l-7.09-27.54l19.01-4.9l1.44,5.59L224,131.64l1.38,5.35l10.86-2.8
		l1.33,5.16l-10.86,2.8l1.51,5.86L241.21,144.66z"/>
	<path class="st3" d="M248.6,119.39l5.86-1.51l5.06,8.09l0.53-9.52l5.9-1.52l-1.32,13.99l4.7,6.69l1.69-22.03l6.94-1.79l-3.92,30.38
		l-5.31,1.37l-7.16-9.65l-1.57,11.9l-5.35,1.38l-18.07-24.71l6.9-1.78l12.16,18.46l0.81-8.11L248.6,119.39z"/>
</g>
<g>
	<path class="st3" d="M97.52,246.34l3.51,2.59l-4.97,6.73c-1.4,0.01-2.83-0.23-4.28-0.75c-1.45-0.51-2.78-1.21-3.98-2.1
		c-1.72-1.27-3-2.78-3.83-4.53c-0.83-1.75-1.16-3.56-0.98-5.45s0.88-3.64,2.09-5.29s2.69-2.83,4.44-3.55
		c1.75-0.73,3.58-0.94,5.52-0.65c1.93,0.29,3.77,1.08,5.51,2.36c1.45,1.07,2.59,2.29,3.42,3.66c0.82,1.37,1.29,2.81,1.41,4.34
		l-4.14,0.46c-0.26-2.12-1.23-3.8-2.91-5.04c-1.06-0.78-2.16-1.25-3.31-1.42c-1.15-0.17-2.25-0.01-3.3,0.45
		c-1.05,0.47-1.96,1.22-2.73,2.27c-0.76,1.03-1.21,2.11-1.34,3.26c-0.14,1.15,0.04,2.24,0.52,3.29c0.48,1.05,1.24,1.96,2.29,2.73
		c1.11,0.82,2.28,1.32,3.51,1.49L97.52,246.34z"/>
	<path class="st3" d="M105.9,261.11c-0.88-2.14-0.74-4.6,0.43-7.39l4.47-10.65l4.4,1.85l-4.4,10.48c-1.43,3.4-0.73,5.7,2.09,6.88
		c1.38,0.58,2.6,0.61,3.67,0.09c1.07-0.52,1.97-1.66,2.71-3.42l4.4-10.49l4.35,1.83l-4.47,10.65c-1.17,2.79-2.83,4.62-4.97,5.49
		c-2.14,0.87-4.57,0.73-7.29-0.41C108.58,264.88,106.78,263.24,105.9,261.11z"/>
	<path class="st3" d="M143.08,269.71l-9.44-1.58l-2.53,4.06l-4.82-0.81l12.47-18.82l4.65,0.78l5.69,21.86l-4.94-0.83L143.08,269.71z
		 M142.19,265.89l-1.92-8.33l-4.53,7.25L142.19,265.89z"/>
	<path class="st3" d="M169.28,274.4l-4.32-5.49l-0.24,0.01l-4.15,0.25l0.35,5.74l-4.76,0.29l-1.26-20.58l8.91-0.55
		c1.82-0.11,3.42,0.09,4.8,0.62c1.38,0.53,2.47,1.32,3.26,2.4c0.79,1.07,1.24,2.38,1.33,3.9c0.09,1.53-0.19,2.87-0.86,4.02
		c-0.67,1.15-1.66,2.07-2.98,2.74l5.02,6.33L169.28,274.4z M167.11,258.7c-0.78-0.57-1.89-0.81-3.32-0.73l-3.88,0.24l0.44,7.18
		l3.88-0.24c1.43-0.09,2.5-0.47,3.21-1.14c0.71-0.67,1.03-1.58,0.96-2.71C168.32,260.14,167.89,259.27,167.11,258.7z"/>
	<path class="st3" d="M194.35,264.4l-9.17,2.74l-0.48,4.76l-4.69,1.4l2.9-22.39l4.52-1.35l14.74,17.12l-4.8,1.43L194.35,264.4z
		 M191.88,261.35l-5.39-6.63l-0.87,8.5L191.88,261.35z"/>
	<path class="st3" d="M214.61,236.17l10.45,17.78l-3.38,1.99l-15.21-5.59l6.34,10.8l-4.06,2.39l-10.45-17.78l3.4-2l15.18,5.6
		l-6.34-10.79L214.61,236.17z"/>
	<path class="st3" d="M224.33,232.8l-4.84,4.48l-2.64-2.86l13.19-12.2l2.64,2.85l-4.84,4.48l11.36,12.29l-3.5,3.24L224.33,232.8z"/>
	<path class="st3" d="M254.89,216.76l3.1,2.24l-9.35,12.95l-16.72-12.07l9.12-12.64l3.11,2.24l-6.35,8.79l3.63,2.62l5.6-7.76
		l3.01,2.17l-5.6,7.76l3.87,2.79L254.89,216.76z"/>
	<path class="st3" d="M265.08,195.45l3.5,1.55l-6.47,14.6l-18.85-8.36l6.31-14.25l3.5,1.55l-4.39,9.91l4.09,1.81l3.88-8.75l3.39,1.5
		l-3.88,8.75l4.36,1.93L265.08,195.45z"/>
</g>
</svg>
